<svg xmlns="http://www.w3.org/2000/svg" enable-background="new 0 0 1406.671 1000" viewBox="0 0 1406.671 1000"><path fill="#837894" d="M883.942,943.669c0,5.469-160.996,9.903-359.595,9.903s-359.595-4.434-359.595-9.903
		c0-5.47,160.996-9.903,359.595-9.903S883.942,938.2,883.942,943.669z"/><path fill="#fff0de" d="M237.58,941.486c0,0-181.613-365.258-142.148-428.472
		c39.465-63.213,155.225-147.097,143.997-342.322c-14.094-245.067,829.674-28.21,887.02,45.704
		c21.613,27.857,19.369,80.591,22.027,113.026c4.074,49.715,4.071,100.655-12.496,148.745
		c-20.766,60.28-66.907,114.942-67.873,177.988c-0.852,55.639,30.981,109.368,29.668,164.393
		c-0.164,6.885-13.641,120.937-17.038,120.937C1080.726,941.486,237.58,941.486,237.58,941.486z"/><path fill="#65666b" d="M310.998,143.373c-34.886-7.514-140.61-2.831-147.649-4.715c-7.038-1.884,0,796.363,0,804.769
				c0,8.406,91.28,2.926,91.28,2.926L310.998,143.373z"/><path fill="#3f414c" d="M236.243,758.675c-3.314-0.226-38.95-0.229-74.276-0.174
				c0.718,105.713,1.383,182.986,1.383,185.57c0,8.406,91.28,2.926,91.28,2.926L268.472,749.8
				C251.414,754.502,236.243,758.675,236.243,758.675z" opacity=".43"/><path fill="#8ea5b7" d="M236.243,144.296c-2.753,109.163-3.421,600.052,0,613.736c3.421,13.684,545.644,15.394,542.224,0
					c-3.421-15.394,5.164-612.708,0.016-620.228C773.335,130.285,236.754,124.036,236.243,144.296z"/><path fill="#d2dbdb" d="M253.918,168.816c-2.736,101.749,1.14,556.717,5.702,564.699c4.561,7.982,69.56,3.421,74.121,0
					c4.562-3.421,7.982-566.755,0-567.888C325.758,164.494,254.29,154.973,253.918,168.816z"/><path fill="#3f414c" d="M266.604,294.918c-0.399,6.83-2.565,10.263,0,11.546c2.566,1.283,56.018,0.855,58.157,0
					c2.138-0.855,1.283-11.118,0-11.546C323.477,294.491,266.778,291.946,266.604,294.918z"/><path fill="#3f414c" d="M266.604,444.322c-0.399,6.83-2.565,10.263,0,11.546c2.566,1.283,56.018,0.855,58.157,0
					c2.138-0.855,1.283-11.118,0-11.546C323.477,443.895,266.778,441.35,266.604,444.322z"/><path fill="#8ea5b7" d="M290.337,182.668c-0.727,0.345-4.536,2.152-5.345,6.201c-0.774,3.874,1.573,7.933,5.132,9.622
					c4.019,1.908,8.743,0.391,11.331-2.779c2.483-3.041,3.3-7.968,0.642-11.332C299.09,180.572,293.522,181.157,290.337,182.668z"/><path fill="#8ea5b7" d="M290.337,218.161c-0.727,0.345-4.536,2.152-5.345,6.2c-0.774,3.874,1.573,7.933,5.132,9.621
					c4.019,1.908,8.743,0.391,11.331-2.779c2.483-3.041,3.3-7.968,0.642-11.332C299.09,216.064,293.522,216.649,290.337,218.161z"/><path fill="#3f414c" d="M305.506,247.761c-0.152-0.32-0.946-1.995-2.727-2.351c-1.704-0.34-3.489,0.692-4.231,2.257
					c-0.839,1.768-0.172,3.845,1.222,4.984c1.337,1.092,3.504,1.451,4.984,0.282C306.428,251.611,306.171,249.162,305.506,247.761z"/><path fill="#3f414c" d="M289.897,247.761c-0.152-0.32-0.946-1.995-2.727-2.351c-1.704-0.34-3.489,0.692-4.231,2.257
					c-0.839,1.768-0.172,3.845,1.222,4.984c1.337,1.092,3.504,1.451,4.984,0.282C290.819,251.611,290.562,249.162,289.897,247.761z"/><path fill="#3f414c" d="M305.506,261.16c-0.152-0.32-0.946-1.995-2.727-2.351c-1.704-0.34-3.489,0.692-4.231,2.257
					c-0.839,1.768-0.172,3.845,1.222,4.983c1.337,1.092,3.504,1.451,4.984,0.282C306.428,265.009,306.171,262.561,305.506,261.16z"/><path fill="#3f414c" d="M289.897,261.16c-0.152-0.32-0.946-1.995-2.727-2.351c-1.704-0.34-3.489,0.692-4.231,2.257
					c-0.839,1.768-0.172,3.845,1.222,4.983c1.337,1.092,3.504,1.451,4.984,0.282C290.819,265.009,290.562,262.561,289.897,261.16z"/><path fill="#3f414c" d="M305.506,274.559c-0.152-0.32-0.946-1.995-2.727-2.351c-1.704-0.34-3.489,0.692-4.231,2.257
					c-0.839,1.768-0.172,3.845,1.222,4.983c1.337,1.092,3.504,1.451,4.984,0.282C306.428,278.408,306.171,275.96,305.506,274.559z"/><path fill="#3f414c" d="M289.897,274.559c-0.152-0.32-0.946-1.995-2.727-2.351c-1.704-0.34-3.489,0.692-4.231,2.257
					c-0.839,1.768-0.172,3.845,1.222,4.983c1.337,1.092,3.504,1.451,4.984,0.282C290.819,278.408,290.562,275.96,289.897,274.559z"/><path fill="#8ea5b7" d="M290.337,334.878c-0.727,0.345-4.536,2.152-5.345,6.201c-0.774,3.874,1.573,7.932,5.132,9.621
						c4.019,1.908,8.743,0.391,11.331-2.779c2.483-3.04,3.3-7.968,0.642-11.332C299.09,332.781,293.522,333.366,290.337,334.878z"/><path fill="#8ea5b7" d="M290.337,370.37c-0.727,0.345-4.536,2.152-5.345,6.2c-0.774,3.874,1.573,7.933,5.132,9.621
						c4.019,1.908,8.743,0.391,11.331-2.779c2.483-3.041,3.3-7.968,0.642-11.332C299.09,368.274,293.522,368.859,290.337,370.37z"/><path fill="#3f414c" d="M305.506,399.971c-0.152-0.32-0.946-1.995-2.727-2.351c-1.704-0.34-3.489,0.692-4.231,2.257
						c-0.839,1.768-0.172,3.845,1.222,4.983c1.337,1.092,3.504,1.451,4.984,0.282C306.428,403.82,306.171,401.372,305.506,399.971z"/><path fill="#3f414c" d="M289.897,399.971c-0.152-0.32-0.946-1.995-2.727-2.351c-1.704-0.34-3.489,0.692-4.231,2.257
						c-0.839,1.768-0.172,3.845,1.222,4.983c1.337,1.092,3.504,1.451,4.984,0.282C290.819,403.82,290.562,401.372,289.897,399.971z"/><path fill="#3f414c" d="M305.506,413.37c-0.152-0.32-0.946-1.995-2.727-2.351c-1.704-0.34-3.489,0.692-4.231,2.257
						c-0.839,1.768-0.172,3.845,1.222,4.983c1.337,1.092,3.504,1.451,4.984,0.283C306.428,417.219,306.171,414.771,305.506,413.37z"/><path fill="#3f414c" d="M289.897,413.37c-0.152-0.32-0.946-1.995-2.727-2.351c-1.704-0.34-3.489,0.692-4.231,2.257
						c-0.839,1.768-0.172,3.845,1.222,4.983c1.337,1.092,3.504,1.451,4.984,0.283C290.819,417.219,290.562,414.771,289.897,413.37z"/><path fill="#3f414c" d="M305.506,426.769c-0.152-0.32-0.946-1.995-2.727-2.351c-1.704-0.34-3.489,0.692-4.231,2.257
						c-0.839,1.768-0.172,3.845,1.222,4.983c1.337,1.092,3.504,1.451,4.984,0.282C306.428,430.618,306.171,428.169,305.506,426.769z
						"/><path fill="#3f414c" d="M289.897,426.769c-0.152-0.32-0.946-1.995-2.727-2.351c-1.704-0.34-3.489,0.692-4.231,2.257
						c-0.839,1.768-0.172,3.845,1.222,4.983c1.337,1.092,3.504,1.451,4.984,0.282C290.819,430.618,290.562,428.169,289.897,426.769z
						"/><path fill="#3f414c" d="M266.604,592.564c-0.399,6.83-2.565,10.263,0,11.546c2.566,1.283,56.018,0.855,58.157,0
					c2.138-0.855,1.283-11.118,0-11.546C323.477,592.137,266.778,589.591,266.604,592.564z"/><path fill="#8ea5b7" d="M290.337,483.12c-0.727,0.345-4.536,2.152-5.345,6.201c-0.774,3.874,1.573,7.932,5.132,9.621
						c4.019,1.908,8.743,0.391,11.331-2.78c2.483-3.04,3.3-7.968,0.642-11.332C299.09,481.023,293.522,481.608,290.337,483.12z"/><path fill="#8ea5b7" d="M290.337,518.612c-0.727,0.345-4.536,2.152-5.345,6.201c-0.774,3.874,1.573,7.933,5.132,9.622
						c4.019,1.908,8.743,0.391,11.331-2.779c2.483-3.041,3.3-7.968,0.642-11.332C299.09,516.516,293.522,517.101,290.337,518.612z"/><path fill="#3f414c" d="M305.506,548.213c-0.152-0.32-0.946-1.995-2.727-2.351c-1.704-0.34-3.489,0.692-4.231,2.257
						c-0.839,1.768-0.172,3.845,1.222,4.983c1.337,1.092,3.504,1.451,4.984,0.282C306.428,552.062,306.171,549.614,305.506,548.213z
						"/><path fill="#3f414c" d="M289.897,548.213c-0.152-0.32-0.946-1.995-2.727-2.351c-1.704-0.34-3.489,0.692-4.231,2.257
						c-0.839,1.768-0.172,3.845,1.222,4.983c1.337,1.092,3.504,1.451,4.984,0.282C290.819,552.062,290.562,549.614,289.897,548.213z
						"/><path fill="#3f414c" d="M305.506,561.612c-0.152-0.32-0.946-1.995-2.727-2.351c-1.704-0.34-3.489,0.692-4.231,2.257
						c-0.839,1.768-0.172,3.845,1.222,4.983c1.337,1.092,3.504,1.451,4.984,0.282C306.428,565.461,306.171,563.013,305.506,561.612z
						"/><path fill="#3f414c" d="M289.897,561.612c-0.152-0.32-0.946-1.995-2.727-2.351c-1.704-0.34-3.489,0.692-4.231,2.257
						c-0.839,1.768-0.172,3.845,1.222,4.983c1.337,1.092,3.504,1.451,4.984,0.282C290.819,565.461,290.562,563.013,289.897,561.612z
						"/><path fill="#3f414c" d="M305.506,575.011c-0.152-0.32-0.946-1.995-2.727-2.351c-1.704-0.34-3.489,0.692-4.231,2.257
						c-0.839,1.768-0.172,3.845,1.222,4.983c1.337,1.092,3.504,1.451,4.984,0.282C306.428,578.86,306.171,576.411,305.506,575.011z"/><path fill="#3f414c" d="M289.897,575.011c-0.152-0.32-0.946-1.995-2.727-2.351c-1.704-0.34-3.489,0.692-4.231,2.257
						c-0.839,1.768-0.172,3.845,1.222,4.983c1.337,1.092,3.504,1.451,4.984,0.282C290.819,578.86,290.562,576.411,289.897,575.011z"/><path fill="#65666b" d="M236.243,758.032c-0.878,42.762-4.276,177.891,0,183.877c4.276,5.987,30.03,5.987,29.127,0
					c-0.904-5.987,2.802-58.442,2.802-58.442h479.506c0,0,1.711,51.6,0,57.586c-1.711,5.987,31.634,5.131,32.494,0
					c0.861-5.131-1.361-178.681-1.705-183.022C778.122,753.691,236.349,752.849,236.243,758.032z"/><path fill="#8ea5b7" d="M290.337,629.651c-0.727,0.345-4.536,2.152-5.345,6.201c-0.774,3.874,1.573,7.932,5.132,9.621
						c4.019,1.908,8.743,0.391,11.331-2.779c2.483-3.04,3.3-7.968,0.642-11.332C299.09,627.555,293.522,628.14,290.337,629.651z"/><path fill="#8ea5b7" d="M290.337,665.144c-0.727,0.345-4.536,2.152-5.345,6.201c-0.774,3.874,1.573,7.933,5.132,9.621
						c4.019,1.908,8.743,0.391,11.331-2.779c2.483-3.041,3.3-7.968,0.642-11.332C299.09,663.047,293.522,663.632,290.337,665.144z"/><path fill="#3f414c" d="M305.506,694.745c-0.152-0.32-0.946-1.995-2.727-2.351c-1.704-0.34-3.489,0.692-4.231,2.257
						c-0.839,1.768-0.172,3.845,1.222,4.984c1.337,1.092,3.504,1.451,4.984,0.282C306.428,698.594,306.171,696.145,305.506,694.745z
						"/><path fill="#3f414c" d="M289.897,694.745c-0.152-0.32-0.946-1.995-2.727-2.351c-1.704-0.34-3.489,0.692-4.231,2.257
						c-0.839,1.768-0.172,3.845,1.222,4.984c1.337,1.092,3.504,1.451,4.984,0.282C290.819,698.594,290.562,696.145,289.897,694.745z
						"/><path fill="#3f414c" d="M305.506,708.143c-0.152-0.32-0.946-1.995-2.727-2.351c-1.704-0.34-3.489,0.692-4.231,2.257
						c-0.839,1.768-0.172,3.845,1.222,4.983c1.337,1.092,3.504,1.451,4.984,0.282C306.428,711.993,306.171,709.544,305.506,708.143z
						"/><path fill="#3f414c" d="M289.897,708.143c-0.152-0.32-0.946-1.995-2.727-2.351c-1.704-0.34-3.489,0.692-4.231,2.257
						c-0.839,1.768-0.172,3.845,1.222,4.983c1.337,1.092,3.504,1.451,4.984,0.282C290.819,711.993,290.562,709.544,289.897,708.143z
						"/><path fill="#3f414c" d="M305.506,721.542c-0.152-0.32-0.946-1.995-2.727-2.351c-1.704-0.34-3.489,0.692-4.231,2.257
						c-0.839,1.768-0.172,3.845,1.222,4.984c1.337,1.092,3.504,1.451,4.984,0.282C306.428,725.391,306.171,722.943,305.506,721.542z
						"/><path fill="#3f414c" d="M289.897,721.542c-0.152-0.32-0.946-1.995-2.727-2.351c-1.704-0.34-3.489,0.692-4.231,2.257
						c-0.839,1.768-0.172,3.845,1.222,4.984c1.337,1.092,3.504,1.451,4.984,0.282C290.819,725.391,290.562,722.943,289.897,721.542z
						"/><path fill="#3f414c" d="M265.37,797.943c0.844,14.271,2.232,80.963,2.802,85.524c0.57,4.561,477.795,3.991,479.506,0
					c1.711-3.991,2.851-83.243,0-87.805C744.827,791.101,265.094,793.283,265.37,797.943z"/><path fill="#3f414c" d="M369.924,164.494c-0.74,22.24-2.018,117.453,0,120.304
					c2.018,2.851,377.803,3.991,379.489,0c1.686-3.991-1.165-120.304-2.875-120.304
					C744.827,164.494,370.038,161.051,369.924,164.494z" opacity=".35"/><path fill="#3f414c" d="M371.941,181.506c-1,15.497-3.991,79.345,0,83.337c3.991,3.991,370.605,7.412,375.166,4.561
					c4.561-2.851,1.14-77.542,0-82.674C745.967,181.599,372.31,175.797,371.941,181.506z"/><path fill="#3f414c" d="M369.924,314.086c-0.74,22.24-2.018,117.453,0,120.304
					c2.018,2.851,377.803,3.991,379.489,0c1.686-3.991-1.165-120.304-2.875-120.304
					C744.827,314.086,370.038,310.643,369.924,314.086z" opacity=".35"/><path fill="#3f414c" d="M371.941,331.098c-1,15.497-3.991,79.346,0,83.337c3.991,3.991,370.605,7.412,375.166,4.561
					c4.561-2.851,1.14-77.542,0-82.673C745.967,331.191,372.31,325.389,371.941,331.098z"/><path fill="#3f414c" d="M369.924,463.678c-0.74,22.24-2.018,117.453,0,120.304
					c2.018,2.851,377.803,3.991,379.489,0c1.686-3.991-1.165-120.304-2.875-120.304
					C744.827,463.678,370.038,460.235,369.924,463.678z" opacity=".35"/><path fill="#3f414c" d="M371.941,480.69c-1,15.497-3.991,79.345,0,83.337c3.991,3.991,370.605,7.412,375.166,4.561
					c4.561-2.851,1.14-77.542,0-82.673C745.967,480.783,372.31,474.982,371.941,480.69z"/><path fill="#3f414c" d="M369.924,613.27c-0.74,22.24-2.018,117.453,0,120.304
					c2.018,2.851,377.803,3.991,379.489,0c1.686-3.991-1.165-120.304-2.875-120.304C744.827,613.27,370.038,609.827,369.924,613.27z
					" opacity=".35"/><path fill="#3f414c" d="M371.941,630.282c-1,15.497-3.991,79.346,0,83.336c3.991,3.991,370.605,7.412,375.166,4.561
					c4.561-2.851,1.14-77.542,0-82.673C745.967,630.375,372.31,624.574,371.941,630.282z"/><g><path fill="#d56412" d="M690.716,371.232c-18.403-0.452-29.283-0.676-40.339,1.66
						c-11.055,2.336-26.147,10.729-27.664,24.003c-1.518,13.273,2.572,20.295,9.448,21.296c6.875,1,42.903,1.427,42.903,1.427
						L690.716,371.232z"/><path fill="#ed8f2d" d="M684.012,419.79c10.25,0.06,38.245-0.39,44.603-3.155c3.955-1.72,6.61-5.944,7.103-11.299
						c0.868-9.429-4.784-19.224-15.12-26.202c-7.801-5.267-16.546-8.078-25.289-8.129c-9.808-0.057-19.201,3.272-26.45,9.373
						c-10.71,9.017-14.725,22.139-13.066,29.907c0.9,4.213,3.353,7.093,6.909,8.11C666.445,419.467,676.357,419.745,684.012,419.79z
						"/><path fill="#fdae67" d="M663.735,414.78c7.698,2.204,56.481,1.406,63.379-1.594c6.898-3,8.594-19.313-8.621-30.935
						c-17.215-11.622-35.955-8.473-47.213,1.005C658.254,394.221,655.747,412.493,663.735,414.78z"/><path fill="#ed8f2d" d="M699.757,378.216c5.867,0.768,5.84,6.802,5.267,9.904
						c-0.573,3.103-6.45,2.625-7.097-0.596C697.281,384.303,697.984,377.984,699.757,378.216z" opacity=".57"/><path fill="#ed8f2d" d="M691.754,380.926c1.595,3.477-1.485,7.424-3.591,6.968
						c-2.105-0.456-1.976-3.562,0.034-5.88C690.208,379.697,691.467,380.301,691.754,380.926z" opacity=".57"/><path fill="#ed8f2d" d="M681.714,390.409c2.871,2.614-1.495,8.978-3.495,9.521
						c-2,0.543-2.858-4.565-1.401-7.108C678.276,390.278,680.61,389.404,681.714,390.409z" opacity=".57"/><path fill="#ed8f2d" d="M717.77,390.575c-1.614,3.851-5.671,2.296-6.551,0.849
						c-0.879-1.447,2.134-4.425,4.461-3.968C718.008,387.913,718.111,389.761,717.77,390.575z" opacity=".57"/><path fill="#ed8f2d" d="M722.388,397.413c3.872,5.664,2.705,11.664-0.072,12.314
						c-2.777,0.649-5.88-0.034-3.851-5.459C720.494,398.844,721.272,395.78,722.388,397.413z" opacity=".57"/><path fill="#ed8f2d" d="M700.971,402.678c5.373,3.733,5.131,10.084,1.593,10.174
						c-3.539,0.09-3.791-5.458-3.743-8.342C698.869,401.626,699.766,401.841,700.971,402.678z" opacity=".57"/><path fill="#ed8f2d" d="M685.299,403.411c4.252,3.8,3.727,7.788,2.168,8.777
						c-1.559,0.989-4.288,0.419-4.898-3.135c-0.61-3.554-1.107-6.441,0.039-6.767C683.755,401.96,684.068,402.311,685.299,403.411z" opacity=".57"/><path fill="#ed8f2d" d="M668.042,394.92c3.422,3.082,4.084,3.511,3.736,6.182s-4.897,2.755-6.33,1.082
						C664.016,400.512,666.757,393.763,668.042,394.92z" opacity=".57"/><path fill="#ed8f2d" d="M678.531,384.621c-0.629,2.381-2.467,4.534-4.016,3.859
						c-1.549-0.675-1.202-3.086,0.026-4.424C675.768,382.719,678.834,383.471,678.531,384.621z" opacity=".57"/><path fill="#ed8f2d" d="M692.901,393.58c2.943,2.33,3.742,5.098,2.403,6.49
						c-1.339,1.393-3.447,1.393-3.878-0.89C690.995,396.897,691.892,392.782,692.901,393.58z" opacity=".57"/><path fill="#ed8f2d" d="M712.057,397.396c2.353,4.124,1.711,8.119-0.662,7.439
						c-2.373-0.679-3.581-2.703-2.568-5.239C709.84,397.06,711.584,396.567,712.057,397.396z" opacity=".57"/><path fill="#ed8f2d" d="M668.682,408.055c4.264-1.535,5.959-0.575,6.599,2.091
						c0.64,2.666-3.572,2.012-5.339,0.625C668.175,409.384,667.889,408.341,668.682,408.055z" opacity=".57"/></g><g><path fill="#d56412" d="M607.667,370.747c-18.403-0.452-29.283-0.676-40.339,1.66
						c-11.056,2.336-26.147,10.729-27.664,24.003c-1.518,13.273,2.572,20.296,9.448,21.296c6.875,1,42.903,1.427,42.903,1.427
						L607.667,370.747z"/><path fill="#ed8f2d" d="M600.962,419.306c10.25,0.06,38.245-0.39,44.603-3.155c3.955-1.72,6.609-5.944,7.103-11.299
						c0.868-9.43-4.785-19.224-15.12-26.202c-7.801-5.267-16.546-8.078-25.289-8.129c-9.808-0.057-19.202,3.272-26.45,9.373
						c-10.71,9.017-14.725,22.139-13.066,29.907c0.9,4.213,3.353,7.093,6.908,8.11C583.396,418.983,593.307,419.261,600.962,419.306
						z"/><path fill="#fdae67" d="M580.686,414.296c7.698,2.204,56.481,1.406,63.379-1.594c6.899-3,8.594-19.313-8.621-30.935
						c-17.215-11.622-35.955-8.473-47.213,1.005C575.205,393.737,572.698,412.009,580.686,414.296z"/><path fill="#ed8f2d" d="M616.708,377.731c5.867,0.768,5.84,6.801,5.267,9.904
						c-0.573,3.103-6.45,2.625-7.096-0.596C614.232,383.819,614.934,377.499,616.708,377.731z" opacity=".57"/><path fill="#ed8f2d" d="M608.704,380.442c1.595,3.477-1.486,7.424-3.591,6.968
						c-2.105-0.456-1.976-3.562,0.034-5.88C607.158,379.213,608.418,379.817,608.704,380.442z" opacity=".57"/><path fill="#ed8f2d" d="M598.664,389.925c2.871,2.614-1.495,8.977-3.495,9.52
						c-2,0.543-2.858-4.565-1.401-7.108C595.226,389.794,597.561,388.92,598.664,389.925z" opacity=".57"/><path fill="#ed8f2d" d="M634.721,390.09c-1.614,3.851-5.671,2.296-6.55,0.848
						c-0.879-1.447,2.134-4.425,4.461-3.968C634.958,387.428,635.062,389.277,634.721,390.09z" opacity=".57"/><path fill="#ed8f2d" d="M639.339,396.929c3.873,5.664,2.706,11.664-0.072,12.314
						c-2.777,0.649-5.88-0.034-3.851-5.459C637.444,398.36,638.222,395.296,639.339,396.929z" opacity=".57"/><path fill="#ed8f2d" d="M617.921,402.194c5.373,3.733,5.131,10.084,1.592,10.174
						c-3.538,0.09-3.791-5.458-3.742-8.342C615.82,401.142,616.716,401.357,617.921,402.194z" opacity=".57"/><path fill="#ed8f2d" d="M602.25,402.927c4.252,3.8,3.727,7.788,2.168,8.777
						c-1.559,0.989-4.288,0.419-4.898-3.135c-0.61-3.554-1.107-6.441,0.039-6.767C600.705,401.476,601.018,401.827,602.25,402.927z" opacity=".57"/><path fill="#ed8f2d" d="M584.992,394.436c3.422,3.083,4.084,3.511,3.736,6.182
						c-0.348,2.671-4.897,2.755-6.33,1.083C580.966,400.028,583.708,393.279,584.992,394.436z" opacity=".57"/><path fill="#ed8f2d" d="M595.481,384.137c-0.629,2.381-2.467,4.534-4.016,3.859
						c-1.549-0.675-1.202-3.086,0.026-4.423C592.719,382.235,595.785,382.986,595.481,384.137z" opacity=".57"/><path fill="#ed8f2d" d="M609.851,393.096c2.943,2.33,3.742,5.098,2.403,6.491
						c-1.339,1.393-3.447,1.393-3.878-0.89C607.946,396.413,608.843,392.298,609.851,393.096z" opacity=".57"/><path fill="#ed8f2d" d="M629.008,396.912c2.353,4.124,1.711,8.119-0.662,7.439
						c-2.373-0.679-3.582-2.703-2.568-5.239C626.791,396.576,628.535,396.083,629.008,396.912z" opacity=".57"/><path fill="#ed8f2d" d="M585.632,407.571c4.264-1.535,5.959-0.576,6.599,2.091
						c0.64,2.666-3.572,2.012-5.339,0.625C585.125,408.9,584.839,407.857,585.632,407.571z" opacity=".57"/></g><g><path fill="#d56412" d="M523.655,370.258c-18.403-0.452-29.283-0.676-40.339,1.66
						c-11.056,2.336-26.147,10.729-27.664,24.003c-1.518,13.273,2.572,20.296,9.448,21.296c6.875,1,42.903,1.427,42.903,1.427
						L523.655,370.258z"/><path fill="#ed8f2d" d="M516.951,418.816c10.25,0.06,38.245-0.39,44.603-3.155c3.955-1.72,6.609-5.944,7.103-11.299
						c0.868-9.43-4.785-19.224-15.12-26.202c-7.801-5.267-16.546-8.078-25.289-8.129c-9.808-0.057-19.202,3.272-26.45,9.373
						c-10.71,9.017-14.725,22.139-13.066,29.907c0.9,4.213,3.353,7.093,6.908,8.11C499.385,418.493,509.296,418.771,516.951,418.816
						z"/><path fill="#fdae67" d="M496.675,413.806c7.698,2.204,56.481,1.406,63.379-1.594c6.899-3,8.594-19.313-8.621-30.935
						c-17.215-11.622-35.955-8.473-47.213,1.005C491.194,393.247,488.687,411.519,496.675,413.806z"/><path fill="#ed8f2d" d="M532.697,377.242c5.867,0.768,5.84,6.801,5.267,9.904
						c-0.573,3.103-6.45,2.625-7.097-0.596C530.22,383.329,530.923,377.009,532.697,377.242z" opacity=".57"/><path fill="#ed8f2d" d="M524.693,379.952c1.595,3.477-1.486,7.424-3.591,6.968
						c-2.105-0.456-1.976-3.562,0.034-5.88C523.147,378.723,524.406,379.327,524.693,379.952z" opacity=".57"/><path fill="#ed8f2d" d="M514.653,389.435c2.871,2.614-1.494,8.977-3.495,9.52
						c-2,0.543-2.858-4.565-1.401-7.108C511.215,389.304,513.55,388.43,514.653,389.435z" opacity=".57"/><path fill="#ed8f2d" d="M550.709,389.6c-1.614,3.851-5.671,2.296-6.55,0.849
						c-0.879-1.447,2.134-4.425,4.461-3.968C550.947,386.938,551.05,388.787,550.709,389.6z" opacity=".57"/><path fill="#ed8f2d" d="M555.327,396.439c3.872,5.664,2.706,11.665-0.072,12.314
						c-2.778,0.649-5.88-0.034-3.851-5.458C553.433,397.87,554.211,394.806,555.327,396.439z" opacity=".57"/><path fill="#ed8f2d" d="M533.91,401.704c5.374,3.733,5.131,10.084,1.593,10.174
						c-3.539,0.09-3.791-5.458-3.742-8.342C531.808,400.652,532.705,400.867,533.91,401.704z" opacity=".57"/><path fill="#ed8f2d" d="M518.238,402.437c4.252,3.8,3.727,7.788,2.168,8.777
						c-1.559,0.989-4.288,0.419-4.898-3.135c-0.61-3.554-1.107-6.441,0.04-6.767C516.694,400.986,517.007,401.337,518.238,402.437z" opacity=".57"/><path fill="#ed8f2d" d="M500.981,393.946c3.422,3.083,4.084,3.511,3.736,6.182
						c-0.348,2.671-4.898,2.755-6.33,1.082C496.955,399.538,499.697,392.789,500.981,393.946z" opacity=".57"/><path fill="#ed8f2d" d="M511.47,383.647c-0.629,2.381-2.467,4.534-4.016,3.859
						c-1.549-0.675-1.202-3.086,0.026-4.423C508.707,381.745,511.774,382.497,511.47,383.647z" opacity=".57"/><path fill="#ed8f2d" d="M525.84,392.606c2.943,2.33,3.742,5.098,2.403,6.49
						c-1.339,1.393-3.447,1.393-3.878-0.89C523.935,395.923,524.832,391.808,525.84,392.606z" opacity=".57"/><path fill="#ed8f2d" d="M544.996,396.422c2.353,4.124,1.712,8.119-0.662,7.439
						c-2.373-0.679-3.582-2.703-2.568-5.239C542.78,396.086,544.524,395.593,544.996,396.422z" opacity=".57"/><path fill="#ed8f2d" d="M501.621,407.082c4.264-1.535,5.959-0.576,6.599,2.091
						c0.64,2.666-3.572,2.012-5.339,0.625C501.114,408.41,500.828,407.367,501.621,407.082z" opacity=".57"/></g><g><path fill="#d56412" d="M440.606,369.773c-18.403-0.452-29.283-0.676-40.339,1.66
						c-11.055,2.336-26.147,10.729-27.664,24.003c-1.518,13.273,2.572,20.296,9.447,21.296c6.875,1,42.903,1.427,42.903,1.427
						L440.606,369.773z"/><path fill="#ed8f2d" d="M433.902,418.331c10.25,0.06,38.245-0.39,44.602-3.155c3.955-1.72,6.61-5.944,7.103-11.299
						c0.868-9.43-4.785-19.224-15.12-26.202c-7.802-5.267-16.546-8.078-25.289-8.129c-9.808-0.057-19.202,3.271-26.45,9.373
						c-10.71,9.017-14.725,22.139-13.066,29.907c0.899,4.213,3.353,7.093,6.908,8.11
						C416.335,418.009,426.247,418.287,433.902,418.331z"/><path fill="#fdae67" d="M413.625,413.321c7.698,2.204,56.48,1.406,63.379-1.594c6.899-3,8.594-19.313-8.621-30.935
						c-17.215-11.622-35.955-8.473-47.213,1.005C408.144,392.763,405.637,411.034,413.625,413.321z"/><path fill="#ed8f2d" d="M449.647,376.757c5.867,0.768,5.84,6.802,5.267,9.904
						c-0.573,3.103-6.45,2.625-7.097-0.596C447.171,382.845,447.873,376.525,449.647,376.757z" opacity=".57"/><path fill="#ed8f2d" d="M441.644,379.468c1.595,3.477-1.486,7.424-3.591,6.968
						c-2.105-0.456-1.976-3.561,0.034-5.88C440.098,378.239,441.357,378.843,441.644,379.468z" opacity=".57"/><path fill="#ed8f2d" d="M431.604,388.951c2.871,2.614-1.495,8.977-3.495,9.52
						c-2,0.543-2.858-4.565-1.401-7.108C428.165,388.819,430.5,387.946,431.604,388.951z" opacity=".57"/><path fill="#ed8f2d" d="M467.66,389.116c-1.614,3.851-5.672,2.296-6.551,0.848
						c-0.879-1.447,2.134-4.425,4.461-3.968C467.897,386.454,468.001,388.303,467.66,389.116z" opacity=".57"/><path fill="#ed8f2d" d="M472.278,395.955c3.872,5.664,2.705,11.664-0.072,12.314
						c-2.777,0.65-5.879-0.034-3.851-5.458C470.384,397.386,471.161,394.322,472.278,395.955z" opacity=".57"/><path fill="#ed8f2d" d="M450.86,401.22c5.373,3.733,5.131,10.084,1.593,10.174
						c-3.538,0.09-3.791-5.458-3.742-8.342C448.759,400.168,449.655,400.383,450.86,401.22z" opacity=".57"/><path fill="#ed8f2d" d="M435.189,401.953c4.252,3.8,3.727,7.788,2.168,8.777
						c-1.559,0.989-4.288,0.419-4.898-3.135c-0.61-3.554-1.107-6.441,0.039-6.767C433.644,400.502,433.957,400.853,435.189,401.953z
						" opacity=".57"/><path fill="#ed8f2d" d="M417.932,393.462c3.422,3.082,4.084,3.511,3.736,6.182
						c-0.348,2.671-4.897,2.755-6.33,1.083C413.905,399.054,416.647,392.305,417.932,393.462z" opacity=".57"/><path fill="#ed8f2d" d="M428.42,383.163c-0.629,2.381-2.467,4.534-4.016,3.859
						c-1.549-0.675-1.202-3.086,0.026-4.424C425.658,381.261,428.724,382.012,428.42,383.163z" opacity=".57"/><path fill="#ed8f2d" d="M442.79,392.122c2.943,2.33,3.742,5.098,2.403,6.491
						c-1.339,1.392-3.447,1.393-3.878-0.89C440.885,395.439,441.782,391.324,442.79,392.122z" opacity=".57"/><path fill="#ed8f2d" d="M461.947,395.938c2.353,4.124,1.711,8.119-0.662,7.439
						c-2.373-0.68-3.582-2.703-2.568-5.239C459.73,395.602,461.474,395.109,461.947,395.938z" opacity=".57"/><path fill="#ed8f2d" d="M418.572,406.597c4.264-1.535,5.959-0.576,6.599,2.091
						c0.64,2.666-3.572,2.012-5.339,0.625C418.065,407.926,417.779,406.883,418.572,406.597z" opacity=".57"/></g><g><path fill="#ba5122" d="M459.034,689.9c0,0,4.087-3.743,3.196-11.573c-0.99-8.693-14.557-15.5-26.531-16.04
							c0-0.008,0.001-0.032,0.001-0.032s-0.215,0.002-0.603,0.005c-0.739-0.02-1.469-0.012-2.191,0.017
							c-7.076,0.049-26.086,0.133-38.739-0.269c0,0,0.589,26.465-0.02,29.06c1.299-0.494,10.863-0.041,20.109,0.513
							c0.687,5.717,1.612,22.58,2.478,23.676c1.034,1.309,39.007,1.974,42.147-0.351C462.022,712.581,458.718,699.015,459.034,689.9
							z"/><path fill="#ba5122" d="M393.99,691.241c0.06,0.098,0.112,0.023,0.158-0.172
							C394.019,691.117,393.947,691.173,393.99,691.241z"/><path fill="#f9a667" d="M420.384,687.696c-1.048,1.812-1.517,3.891-1.414,5.982c0.428,8.652,2.669,19.679-0.034,21.68
						c-3.14,2.325-44.72,0.336-45.754-0.973c-1.034-1.309,2.752-24.209,0.152-25.006c-2.6-0.797-5.948-7.07-4.09-12.789
						c1.858-5.72,9.198-13.229,21.969-14.454c12.772-1.225,29.789,6.172,30.902,15.948
						C422.637,682.662,421.455,685.844,420.384,687.696z"/><path fill="#943b16" d="M428.026,692.303c-1.951,0-3.913-0.014-5.867-0.044c-0.562-0.01-1.012-0.473-1.004-1.037
						c0.01-0.557,0.465-1.004,1.021-1.004c0.006,0,0.011,0,0.017,0c17.235,0.285,35.465-0.811,35.648-0.822
						c0.554-0.027,1.046,0.394,1.079,0.957c0.035,0.562-0.394,1.046-0.957,1.079C457.802,691.441,443.376,692.303,428.026,692.303z"/><path fill="#ba5122" d="M376.256,680.28c0.005-0.863-0.69-1.567-1.553-1.572
						c-0.863-0.005-1.567,0.69-1.572,1.553c-0.005,0.863,0.69,1.567,1.553,1.572C375.547,681.838,376.251,681.143,376.256,680.28z" opacity=".43"/><path fill="#ba5122" d="M389.891,694.082c-0.005,0.863-0.709,1.559-1.572,1.553
						c-0.863-0.005-1.559-0.709-1.553-1.572c0.005-0.863,0.709-1.559,1.572-1.553C389.201,692.515,389.896,693.219,389.891,694.082z
						" opacity=".43"/><path fill="#ba5122" d="M403.7,679.404c-0.005,0.863-0.709,1.559-1.572,1.553
						c-0.863-0.005-1.559-0.709-1.553-1.572c0.005-0.863,0.709-1.558,1.572-1.553C403.009,677.837,403.705,678.541,403.7,679.404z" opacity=".43"/><path fill="#ba5122" d="M412.168,700.469c-0.005,0.863-0.709,1.559-1.572,1.554
						c-0.863-0.005-1.559-0.709-1.553-1.572c0.005-0.863,0.709-1.559,1.572-1.554C411.477,698.902,412.173,699.606,412.168,700.469z
						" opacity=".43"/><path fill="#ba5122" d="M390.66,710.497c-0.005,0.863-0.709,1.559-1.572,1.553
						c-0.863-0.005-1.559-0.709-1.553-1.572c0.005-0.863,0.709-1.559,1.572-1.553C389.969,708.93,390.665,709.634,390.66,710.497z" opacity=".43"/><path fill="#ba5122" d="M403.857,710.578c-0.005,0.863-0.709,1.559-1.572,1.553
						c-0.863-0.005-1.559-0.709-1.553-1.572c0.005-0.863,0.709-1.559,1.572-1.553C403.167,709.01,403.863,709.714,403.857,710.578z" opacity=".43"/><path fill="#ba5122" d="M416.119,679.046c-0.005,0.863-0.709,1.559-1.572,1.553
						c-0.863-0.005-1.559-0.709-1.554-1.572c0.005-0.863,0.709-1.559,1.572-1.553C415.428,677.479,416.124,678.183,416.119,679.046z
						" opacity=".43"/><path fill="#ba5122" d="M390.021,672.635c-0.005,0.863-0.709,1.559-1.572,1.553
						c-0.863-0.005-1.559-0.709-1.553-1.572c0.005-0.863,0.709-1.559,1.572-1.553C389.331,671.068,390.027,671.772,390.021,672.635z
						" opacity=".43"/><path fill="#ba5122" d="M402.404,692.595c0.002-0.432-0.345-0.784-0.777-0.786
						c-0.432-0.003-0.784,0.345-0.786,0.777c-0.003,0.432,0.345,0.783,0.777,0.786C402.049,693.374,402.401,693.026,402.404,692.595
						z" opacity=".43"/><path fill="#ba5122" d="M388.378,685.823c-0.002,0.432-0.355,0.78-0.786,0.777
						c-0.431-0.003-0.779-0.355-0.777-0.786c0.003-0.432,0.355-0.779,0.786-0.777C388.033,685.04,388.381,685.392,388.378,685.823z" opacity=".43"/><path fill="#ba5122" d="M382.179,705.757c-0.003,0.431-0.355,0.779-0.786,0.777
						c-0.432-0.003-0.779-0.355-0.777-0.786c0.003-0.432,0.355-0.779,0.786-0.777C381.834,704.973,382.182,705.325,382.179,705.757z
						" opacity=".43"/><path fill="#ba5122" d="M413.674,709.856c-0.003,0.432-0.355,0.779-0.786,0.777
						c-0.432-0.003-0.779-0.355-0.777-0.786c0.003-0.432,0.355-0.779,0.786-0.777C413.329,709.072,413.676,709.424,413.674,709.856z
						" opacity=".43"/><path fill="#ba5122" d="M413.013,689.99c-0.003,0.432-0.355,0.779-0.786,0.777
						c-0.432-0.003-0.779-0.355-0.777-0.786c0.003-0.432,0.355-0.779,0.786-0.777C412.668,689.206,413.016,689.558,413.013,689.99z" opacity=".43"/><path fill="#ba5122" d="M408.353,671.01c-0.003,0.432-0.355,0.779-0.786,0.777
						c-0.432-0.002-0.779-0.355-0.777-0.786c0.003-0.432,0.355-0.779,0.786-0.777C408.007,670.227,408.355,670.578,408.353,671.01z" opacity=".43"/><path fill="#ba5122" d="M398.559,667.998c-0.002,0.432-0.355,0.779-0.786,0.777
						c-0.432-0.002-0.78-0.355-0.777-0.786c0.003-0.432,0.355-0.78,0.786-0.777C398.214,667.215,398.562,667.567,398.559,667.998z" opacity=".43"/><path fill="#ba5122" d="M381.16,673.363c-0.003,0.432-0.355,0.779-0.786,0.777
						c-0.432-0.003-0.779-0.355-0.777-0.786c0.003-0.431,0.355-0.779,0.786-0.777C380.815,672.579,381.163,672.931,381.16,673.363z" opacity=".43"/><path fill="#ba5122" d="M378.526,692.45c-0.003,0.432-0.355,0.779-0.786,0.777
						c-0.432-0.003-0.779-0.355-0.777-0.786c0.003-0.432,0.355-0.779,0.786-0.777C378.181,691.666,378.529,692.018,378.526,692.45z" opacity=".43"/></g><g><path fill="#ba5122" d="M529.277,690.327c0,0,4.087-3.743,3.196-11.573c-0.99-8.693-14.557-15.5-26.531-16.04
							c0-0.008,0.001-0.032,0.001-0.032s-0.215,0.002-0.603,0.005c-0.739-0.02-1.469-0.012-2.191,0.017
							c-7.076,0.049-26.086,0.133-38.739-0.269c0,0,0.589,26.465-0.02,29.06c1.299-0.494,10.863-0.041,20.109,0.513
							c0.687,5.717,1.612,22.58,2.478,23.676c1.034,1.309,39.007,1.974,42.147-0.351
							C532.265,713.008,528.961,699.442,529.277,690.327z"/><path fill="#ba5122" d="M464.233,691.668c0.06,0.098,0.112,0.023,0.158-0.172
							C464.263,691.544,464.191,691.6,464.233,691.668z"/><path fill="#f9a667" d="M490.628,688.123c-1.048,1.812-1.517,3.891-1.413,5.982c0.427,8.651,2.669,19.679-0.034,21.68
						c-3.14,2.325-44.72,0.336-45.754-0.973c-1.034-1.309,2.752-24.209,0.152-25.006c-2.6-0.797-5.948-7.069-4.09-12.789
						c1.858-5.719,9.197-13.229,21.969-14.454c12.772-1.225,29.789,6.172,30.902,15.948
						C492.881,683.089,491.699,686.27,490.628,688.123z"/><path fill="#943b16" d="M498.252,692.731c-1.944,0-3.901-0.014-5.848-0.044c-0.562-0.01-1.013-0.474-1.004-1.038
						c0.01-0.562,0.486-1.025,1.037-1.004c17.232,0.286,35.463-0.811,35.647-0.822c0.561-0.029,1.045,0.395,1.079,0.957
						c0.035,0.562-0.395,1.046-0.957,1.079C528.045,691.869,513.608,692.731,498.252,692.731z"/><path fill="#ba5122" d="M446.499,680.707c0.005-0.863-0.69-1.567-1.553-1.572
						c-0.863-0.005-1.567,0.69-1.572,1.553c-0.005,0.863,0.69,1.567,1.553,1.572C445.79,682.265,446.494,681.57,446.499,680.707z" opacity=".43"/><path fill="#ba5122" d="M460.135,694.509c-0.005,0.863-0.709,1.559-1.572,1.553
						c-0.863-0.005-1.559-0.709-1.553-1.572c0.005-0.863,0.709-1.559,1.572-1.553C459.445,692.941,460.14,693.646,460.135,694.509z" opacity=".43"/><path fill="#ba5122" d="M473.943,679.831c-0.005,0.863-0.709,1.559-1.573,1.553
						c-0.863-0.005-1.559-0.709-1.553-1.572c0.005-0.863,0.709-1.559,1.572-1.553C473.253,678.264,473.948,678.968,473.943,679.831z
						" opacity=".43"/><path fill="#ba5122" d="M482.411,700.896c-0.005,0.863-0.709,1.559-1.572,1.553
						c-0.863-0.005-1.559-0.709-1.553-1.572c0.005-0.863,0.709-1.559,1.572-1.553C481.721,699.329,482.417,700.033,482.411,700.896z
						" opacity=".43"/><path fill="#ba5122" d="M460.903,710.924c-0.005,0.863-0.709,1.559-1.572,1.553
						c-0.863-0.005-1.559-0.709-1.553-1.572c0.005-0.863,0.709-1.559,1.572-1.553C460.213,709.357,460.909,710.061,460.903,710.924z
						" opacity=".43"/><path fill="#ba5122" d="M474.101,711.005c-0.005,0.863-0.709,1.559-1.572,1.553
						c-0.863-0.005-1.559-0.709-1.553-1.572c0.005-0.863,0.709-1.559,1.572-1.553C473.411,709.437,474.106,710.141,474.101,711.005z
						" opacity=".43"/><path fill="#ba5122" d="M486.362,679.473c-0.005,0.863-0.71,1.559-1.573,1.553
						c-0.863-0.005-1.559-0.709-1.553-1.572c0.005-0.863,0.709-1.558,1.572-1.553C485.672,677.906,486.367,678.609,486.362,679.473z
						" opacity=".43"/><path fill="#ba5122" d="M460.265,673.062c-0.005,0.863-0.709,1.559-1.572,1.553
						c-0.863-0.005-1.559-0.709-1.554-1.572c0.005-0.863,0.709-1.559,1.572-1.553C459.575,671.495,460.27,672.199,460.265,673.062z" opacity=".43"/><path fill="#ba5122" d="M472.647,693.022c0.003-0.432-0.345-0.784-0.777-0.786s-0.784,0.345-0.786,0.777
						c-0.003,0.432,0.345,0.784,0.777,0.786C472.293,693.801,472.645,693.453,472.647,693.022z" opacity=".43"/><path fill="#ba5122" d="M458.622,686.251c-0.003,0.432-0.355,0.779-0.786,0.777
						c-0.432-0.003-0.779-0.355-0.777-0.786c0.003-0.432,0.355-0.779,0.786-0.777C458.277,685.467,458.625,685.819,458.622,686.251z
						" opacity=".43"/><path fill="#ba5122" d="M452.423,706.184c-0.003,0.432-0.355,0.779-0.786,0.777s-0.779-0.355-0.777-0.786
						c0.003-0.432,0.355-0.779,0.786-0.777S452.425,705.752,452.423,706.184z" opacity=".43"/><path fill="#ba5122" d="M483.917,710.283c-0.003,0.432-0.355,0.779-0.786,0.777
						c-0.432-0.003-0.779-0.355-0.777-0.786c0.002-0.431,0.355-0.779,0.786-0.777C483.572,709.499,483.92,709.851,483.917,710.283z" opacity=".43"/><path fill="#ba5122" d="M483.257,690.417c-0.003,0.432-0.355,0.779-0.786,0.777
						c-0.432-0.003-0.779-0.355-0.777-0.786c0.003-0.432,0.355-0.779,0.786-0.777C482.912,689.633,483.259,689.985,483.257,690.417z
						" opacity=".43"/><path fill="#ba5122" d="M478.596,671.437c-0.003,0.432-0.355,0.779-0.786,0.777
						c-0.432-0.003-0.779-0.355-0.777-0.786c0.003-0.432,0.355-0.779,0.786-0.777C478.251,670.654,478.599,671.005,478.596,671.437z
						" opacity=".43"/><path fill="#ba5122" d="M468.803,668.425c-0.003,0.432-0.355,0.779-0.786,0.777
						c-0.432-0.003-0.779-0.355-0.777-0.786c0.003-0.432,0.355-0.779,0.786-0.777C468.458,667.642,468.805,667.994,468.803,668.425z
						" opacity=".43"/><path fill="#ba5122" d="M451.404,673.79c-0.003,0.432-0.355,0.779-0.786,0.777
						c-0.431-0.003-0.779-0.355-0.777-0.786c0.003-0.432,0.355-0.779,0.786-0.777C451.059,673.006,451.407,673.358,451.404,673.79z" opacity=".43"/><path fill="#ba5122" d="M448.77,692.877c-0.002,0.431-0.355,0.779-0.786,0.777
						c-0.432-0.003-0.779-0.355-0.777-0.786c0.003-0.432,0.355-0.779,0.786-0.777C448.425,692.093,448.773,692.445,448.77,692.877z" opacity=".43"/></g><g><path fill="#ba5122" d="M599.521,690.754c0,0,4.087-3.743,3.196-11.572c-0.99-8.694-14.557-15.5-26.531-16.04
							c0-0.008,0.001-0.032,0.001-0.032s-0.214,0.002-0.602,0.006c-0.739-0.02-1.469-0.013-2.191,0.017
							c-7.076,0.049-26.086,0.133-38.739-0.269c0,0,0.589,26.465-0.02,29.06c1.299-0.494,10.864-0.04,20.109,0.513
							c0.687,5.717,1.612,22.58,2.478,23.676c1.034,1.309,39.006,1.974,42.147-0.351
							C602.509,713.435,599.205,699.869,599.521,690.754z"/><path fill="#ba5122" d="M534.477,692.095c0.06,0.098,0.112,0.023,0.158-0.173
							C534.507,691.971,534.435,692.027,534.477,692.095z"/><path fill="#f9a667" d="M560.872,688.55c-1.048,1.812-1.517,3.891-1.414,5.982c0.428,8.651,2.669,19.679-0.034,21.68
						c-3.14,2.325-44.719,0.336-45.754-0.973c-1.034-1.309,2.752-24.209,0.152-25.006c-2.6-0.797-5.948-7.069-4.09-12.789
						c1.858-5.719,9.198-13.229,21.969-14.454c12.771-1.225,29.789,6.172,30.902,15.947
						C563.124,683.516,561.943,686.697,560.872,688.55z"/><path fill="#943b16" d="M568.514,693.157c-1.95,0-3.913-0.014-5.866-0.044c-0.562-0.01-1.012-0.474-1.004-1.037
						c0.01-0.557,0.465-1.004,1.021-1.004c0.006,0,0.011,0,0.017,0c17.246,0.281,35.463-0.811,35.647-0.822
						c0.567-0.029,1.046,0.394,1.079,0.957c0.035,0.563-0.394,1.046-0.957,1.079C598.289,692.295,583.863,693.157,568.514,693.157z"/><path fill="#ba5122" d="M516.743,681.133c0.005-0.863-0.69-1.567-1.554-1.572
						c-0.863-0.005-1.567,0.69-1.572,1.553c-0.005,0.863,0.69,1.567,1.554,1.572C516.034,682.692,516.738,681.997,516.743,681.133z" opacity=".43"/><path fill="#ba5122" d="M530.378,694.936c-0.005,0.863-0.709,1.559-1.572,1.553
						c-0.863-0.005-1.559-0.709-1.553-1.572c0.005-0.863,0.709-1.559,1.572-1.553C529.688,693.369,530.384,694.072,530.378,694.936z
						" opacity=".43"/><path fill="#ba5122" d="M544.187,680.258c-0.005,0.863-0.709,1.559-1.572,1.553
						c-0.863-0.005-1.559-0.709-1.553-1.572c0.005-0.863,0.709-1.559,1.572-1.554C543.497,678.691,544.192,679.395,544.187,680.258z
						" opacity=".43"/><path fill="#ba5122" d="M552.655,701.323c-0.005,0.863-0.709,1.559-1.572,1.553
						c-0.863-0.005-1.559-0.709-1.554-1.572c0.005-0.863,0.709-1.559,1.572-1.553S552.66,700.46,552.655,701.323z" opacity=".43"/><path fill="#ba5122" d="M531.147,711.351c-0.005,0.863-0.709,1.559-1.572,1.554
						c-0.863-0.005-1.559-0.709-1.554-1.572c0.005-0.863,0.71-1.559,1.572-1.553C530.457,709.784,531.152,710.488,531.147,711.351z" opacity=".43"/><path fill="#ba5122" d="M544.345,711.432c-0.005,0.863-0.709,1.559-1.572,1.553
						c-0.863-0.005-1.559-0.709-1.553-1.572c0.005-0.863,0.709-1.559,1.572-1.553C543.655,709.864,544.35,710.568,544.345,711.432z" opacity=".43"/><path fill="#ba5122" d="M556.606,679.9c-0.005,0.863-0.709,1.559-1.572,1.553
						c-0.863-0.005-1.559-0.709-1.553-1.572c0.005-0.863,0.709-1.559,1.572-1.553C555.916,678.333,556.611,679.037,556.606,679.9z" opacity=".43"/><path fill="#ba5122" d="M530.509,673.489c-0.005,0.863-0.709,1.558-1.572,1.553
						c-0.863-0.005-1.559-0.709-1.553-1.572c0.005-0.863,0.709-1.559,1.572-1.553C529.819,671.922,530.514,672.626,530.509,673.489z
						" opacity=".43"/><path fill="#ba5122" d="M542.891,693.449c0.003-0.432-0.345-0.784-0.777-0.786
						c-0.432-0.003-0.784,0.345-0.786,0.777c-0.003,0.431,0.345,0.784,0.777,0.786C542.537,694.228,542.888,693.88,542.891,693.449z
						" opacity=".43"/><path fill="#ba5122" d="M528.866,686.677c-0.003,0.432-0.355,0.779-0.786,0.777
						c-0.432-0.003-0.779-0.355-0.777-0.786c0.003-0.432,0.355-0.779,0.786-0.777C528.521,685.894,528.868,686.246,528.866,686.677z
						" opacity=".43"/><path fill="#ba5122" d="M522.666,706.611c-0.002,0.432-0.355,0.779-0.786,0.777
						c-0.431-0.002-0.779-0.355-0.777-0.786c0.003-0.432,0.355-0.78,0.786-0.777C522.321,705.827,522.669,706.179,522.666,706.611z" opacity=".43"/><path fill="#ba5122" d="M554.161,710.71c-0.003,0.432-0.355,0.779-0.786,0.777
						c-0.432-0.003-0.78-0.355-0.777-0.786c0.003-0.431,0.355-0.779,0.786-0.777C553.816,709.926,554.164,710.278,554.161,710.71z" opacity=".43"/><path fill="#ba5122" d="M553.5,690.844c-0.003,0.432-0.355,0.779-0.786,0.777
						c-0.432-0.002-0.779-0.355-0.777-0.786c0.002-0.432,0.355-0.779,0.786-0.777C553.155,690.06,553.503,690.412,553.5,690.844z" opacity=".43"/><path fill="#ba5122" d="M548.84,671.864c-0.003,0.431-0.355,0.779-0.786,0.777s-0.779-0.355-0.777-0.786
						c0.002-0.432,0.355-0.779,0.786-0.777C548.495,671.08,548.843,671.433,548.84,671.864z" opacity=".43"/><path fill="#ba5122" d="M539.047,668.852c-0.003,0.432-0.355,0.779-0.786,0.777
						c-0.432-0.003-0.779-0.355-0.777-0.786c0.003-0.432,0.355-0.779,0.786-0.777C538.701,668.069,539.049,668.421,539.047,668.852z
						" opacity=".43"/><path fill="#ba5122" d="M521.648,674.217c-0.002,0.432-0.355,0.779-0.786,0.777
						c-0.432-0.003-0.779-0.355-0.777-0.786s0.355-0.779,0.786-0.777C521.303,673.433,521.65,673.785,521.648,674.217z" opacity=".43"/><path fill="#ba5122" d="M519.014,693.304c-0.003,0.432-0.355,0.779-0.786,0.777
						c-0.432-0.003-0.779-0.355-0.777-0.786c0.003-0.432,0.355-0.779,0.786-0.777C518.668,692.52,519.016,692.872,519.014,693.304z" opacity=".43"/></g><g><path fill="#ba5122" d="M669.765,691.181c0,0,4.087-3.743,3.196-11.573c-0.99-8.693-14.557-15.5-26.531-16.04
							c0-0.008,0.001-0.032,0.001-0.032s-0.215,0.002-0.603,0.005c-0.739-0.02-1.469-0.013-2.191,0.017
							c-7.076,0.049-26.086,0.133-38.74-0.269c0,0,0.589,26.465-0.02,29.06c1.299-0.494,10.863-0.041,20.109,0.512
							c0.687,5.717,1.612,22.58,2.478,23.676c1.034,1.309,39.007,1.974,42.147-0.351
							C672.753,713.862,669.449,700.296,669.765,691.181z"/><path fill="#ba5122" d="M604.721,692.522c0.06,0.098,0.112,0.023,0.158-0.172
							C604.75,692.398,604.678,692.454,604.721,692.522z"/><path fill="#f9a667" d="M631.115,688.977c-1.048,1.812-1.517,3.891-1.413,5.982c0.428,8.652,2.669,19.679-0.034,21.68
						c-3.14,2.325-44.72,0.336-45.754-0.973c-1.034-1.309,2.752-24.209,0.152-25.006c-2.6-0.797-5.948-7.07-4.09-12.789
						c1.858-5.72,9.198-13.229,21.969-14.454c12.772-1.225,29.789,6.172,30.901,15.948
						C633.368,683.943,632.187,687.124,631.115,688.977z"/><path fill="#943b16" d="M638.739,693.585c-1.944,0-3.901-0.014-5.848-0.044c-0.562-0.01-1.012-0.474-1.004-1.037
						c0.01-0.557,0.465-1.004,1.021-1.004c0.006,0,0.011,0,0.017,0c17.231,0.286,35.464-0.811,35.647-0.822
						c0.574-0.03,1.046,0.395,1.079,0.957c0.035,0.562-0.394,1.046-0.957,1.079C668.533,692.723,654.096,693.585,638.739,693.585z"/><path fill="#ba5122" d="M586.987,681.561c0.005-0.863-0.69-1.567-1.553-1.572
						c-0.863-0.005-1.567,0.69-1.572,1.553c-0.005,0.863,0.69,1.567,1.553,1.572C586.278,683.119,586.982,682.424,586.987,681.561z" opacity=".43"/><path fill="#ba5122" d="M600.622,695.362c-0.005,0.863-0.709,1.559-1.572,1.554
						c-0.863-0.005-1.559-0.709-1.553-1.572c0.005-0.863,0.709-1.559,1.572-1.554C599.932,693.795,600.627,694.499,600.622,695.362z
						" opacity=".43"/><path fill="#ba5122" d="M614.431,680.685c-0.005,0.863-0.709,1.558-1.572,1.553
						c-0.863-0.005-1.559-0.709-1.553-1.572c0.005-0.863,0.709-1.559,1.572-1.553C613.74,679.118,614.436,679.822,614.431,680.685z" opacity=".43"/><path fill="#ba5122" d="M622.899,701.75c-0.005,0.863-0.709,1.559-1.572,1.553
						c-0.863-0.005-1.559-0.709-1.553-1.572c0.005-0.863,0.709-1.559,1.572-1.553C622.209,700.183,622.904,700.887,622.899,701.75z" opacity=".43"/><path fill="#ba5122" d="M601.391,711.778c-0.005,0.863-0.709,1.559-1.572,1.553
						c-0.863-0.005-1.558-0.709-1.553-1.572c0.005-0.863,0.709-1.559,1.572-1.553C600.701,710.211,601.396,710.915,601.391,711.778z
						" opacity=".43"/><path fill="#ba5122" d="M614.589,711.859c-0.005,0.863-0.709,1.559-1.572,1.553
						c-0.863-0.005-1.559-0.709-1.553-1.572c0.005-0.863,0.709-1.559,1.573-1.553C613.898,710.291,614.594,710.995,614.589,711.859z
						" opacity=".43"/><path fill="#ba5122" d="M626.85,680.327c-0.005,0.863-0.709,1.559-1.572,1.553
						c-0.863-0.005-1.559-0.709-1.554-1.572c0.005-0.863,0.709-1.559,1.573-1.554C626.159,678.76,626.855,679.464,626.85,680.327z" opacity=".43"/><path fill="#ba5122" d="M600.753,673.916c-0.005,0.863-0.709,1.559-1.572,1.553
						c-0.863-0.005-1.559-0.709-1.553-1.572c0.005-0.863,0.709-1.559,1.572-1.553C600.062,672.349,600.758,673.053,600.753,673.916z
						" opacity=".43"/><path fill="#ba5122" d="M613.135,693.876c0.003-0.431-0.345-0.784-0.777-0.786
						c-0.432-0.003-0.783,0.345-0.786,0.777c-0.003,0.432,0.345,0.784,0.777,0.786C612.78,694.655,613.132,694.307,613.135,693.876z
						" opacity=".43"/><path fill="#ba5122" d="M599.109,687.104c-0.003,0.432-0.355,0.779-0.786,0.777
						c-0.432-0.003-0.779-0.355-0.777-0.786c0.003-0.432,0.355-0.779,0.786-0.777C598.764,686.321,599.112,686.673,599.109,687.104z
						" opacity=".43"/><path fill="#ba5122" d="M592.91,707.038c-0.003,0.432-0.355,0.779-0.786,0.777
						c-0.432-0.003-0.779-0.355-0.777-0.786c0.003-0.432,0.355-0.779,0.786-0.777C592.565,706.254,592.913,706.606,592.91,707.038z" opacity=".43"/><path fill="#ba5122" d="M624.405,711.137c-0.003,0.432-0.355,0.779-0.786,0.777
						c-0.432-0.003-0.779-0.355-0.777-0.786c0.003-0.432,0.355-0.779,0.786-0.777C624.06,710.353,624.407,710.705,624.405,711.137z" opacity=".43"/><path fill="#ba5122" d="M623.744,691.271c-0.003,0.432-0.355,0.779-0.786,0.777
						c-0.432-0.003-0.779-0.355-0.777-0.786c0.003-0.432,0.355-0.779,0.786-0.777C623.399,690.487,623.747,690.839,623.744,691.271z
						" opacity=".43"/><path fill="#ba5122" d="M619.084,672.291c-0.003,0.432-0.355,0.779-0.786,0.777
						c-0.432-0.003-0.779-0.355-0.777-0.786c0.003-0.432,0.355-0.779,0.786-0.777C618.739,671.508,619.086,671.859,619.084,672.291z
						" opacity=".43"/><path fill="#ba5122" d="M609.29,669.279c-0.002,0.432-0.355,0.779-0.786,0.777
						c-0.431-0.003-0.779-0.355-0.777-0.786c0.003-0.431,0.355-0.779,0.786-0.777S609.293,668.848,609.29,669.279z" opacity=".43"/><path fill="#ba5122" d="M591.891,674.644c-0.003,0.432-0.355,0.779-0.786,0.777
						c-0.432-0.003-0.779-0.355-0.777-0.786c0.003-0.432,0.355-0.779,0.786-0.777C591.547,673.86,591.894,674.212,591.891,674.644z" opacity=".43"/><path fill="#ba5122" d="M589.258,693.731c-0.003,0.432-0.355,0.779-0.786,0.777
						c-0.432-0.003-0.78-0.355-0.777-0.786c0.003-0.432,0.355-0.779,0.786-0.777C588.912,692.947,589.26,693.299,589.258,693.731z" opacity=".43"/></g><g><path fill="#ba5122" d="M740.008,691.608c0,0,4.088-3.743,3.196-11.573c-0.989-8.693-14.557-15.5-26.531-16.04
							c0-0.008,0.001-0.032,0.001-0.032s-0.214,0.002-0.602,0.005c-0.739-0.02-1.469-0.012-2.191,0.017
							c-7.076,0.049-26.086,0.133-38.739-0.269c0,0,0.589,26.465-0.02,29.06c1.299-0.494,10.863-0.041,20.109,0.513
							c0.688,5.717,1.612,22.58,2.478,23.676c1.034,1.309,39.007,1.974,42.147-0.351
							C742.996,714.289,739.693,700.723,740.008,691.608z"/><path fill="#ba5122" d="M674.964,692.949c0.06,0.098,0.112,0.023,0.158-0.172
							C674.994,692.825,674.922,692.881,674.964,692.949z"/><path fill="#f9a667" d="M701.359,689.404c-1.048,1.812-1.517,3.891-1.414,5.982c0.428,8.652,2.669,19.679-0.034,21.68
						c-3.14,2.325-44.72,0.336-45.754-0.973c-1.034-1.309,2.752-24.209,0.152-25.006c-2.6-0.797-5.948-7.07-4.09-12.789
						c1.858-5.719,9.198-13.229,21.969-14.454c12.772-1.225,29.789,6.173,30.901,15.948
						C703.612,684.37,702.43,687.551,701.359,689.404z"/><path fill="#943b16" d="M709.001,694.011c-1.95,0-3.913-0.014-5.866-0.044c-0.562-0.01-1.012-0.474-1.004-1.037
						c0.01-0.557,0.465-1.004,1.021-1.004c0.005,0,0.011,0,0.017,0c17.243,0.285,35.463-0.811,35.647-0.822
						c0.581-0.032,1.047,0.394,1.079,0.957c0.035,0.563-0.395,1.046-0.957,1.079C738.776,693.149,724.35,694.011,709.001,694.011z"/><path fill="#ba5122" d="M657.231,681.987c0.005-0.863-0.69-1.567-1.553-1.572
						c-0.863-0.005-1.567,0.69-1.572,1.553c-0.005,0.863,0.69,1.567,1.553,1.572C656.521,683.546,657.225,682.851,657.231,681.987z" opacity=".43"/><path fill="#ba5122" d="M670.866,695.79c-0.005,0.863-0.709,1.559-1.572,1.553
						c-0.863-0.005-1.559-0.709-1.554-1.572c0.005-0.863,0.709-1.559,1.572-1.553C670.176,694.222,670.871,694.927,670.866,695.79z" opacity=".43"/><path fill="#ba5122" d="M684.674,681.112c-0.005,0.863-0.709,1.559-1.572,1.553
						c-0.863-0.005-1.559-0.709-1.554-1.572c0.005-0.863,0.709-1.559,1.572-1.553C683.984,679.545,684.68,680.249,684.674,681.112z" opacity=".43"/><path fill="#ba5122" d="M693.143,702.177c-0.005,0.863-0.709,1.559-1.572,1.553
						c-0.863-0.005-1.559-0.709-1.553-1.572c0.005-0.863,0.709-1.559,1.572-1.553C692.452,700.609,693.148,701.314,693.143,702.177z
						" opacity=".43"/><path fill="#ba5122" d="M671.634,712.205c-0.005,0.863-0.709,1.559-1.572,1.553
						c-0.863-0.005-1.559-0.709-1.553-1.572c0.005-0.863,0.709-1.559,1.572-1.553C670.944,710.638,671.64,711.342,671.634,712.205z" opacity=".43"/><path fill="#ba5122" d="M684.832,712.285c-0.005,0.863-0.709,1.559-1.572,1.553
						c-0.863-0.005-1.558-0.709-1.553-1.572c0.005-0.863,0.709-1.559,1.572-1.553C684.142,710.718,684.837,711.422,684.832,712.285z
						" opacity=".43"/><path fill="#ba5122" d="M697.093,680.754c-0.005,0.863-0.709,1.559-1.572,1.554
						c-0.863-0.005-1.559-0.709-1.553-1.572c0.005-0.863,0.709-1.559,1.572-1.553C696.403,679.187,697.099,679.891,697.093,680.754z
						" opacity=".43"/><path fill="#ba5122" d="M670.996,674.343c-0.005,0.863-0.709,1.559-1.572,1.553
						c-0.863-0.005-1.559-0.709-1.554-1.572c0.005-0.863,0.709-1.559,1.572-1.553C670.306,672.776,671.001,673.48,670.996,674.343z" opacity=".43"/><path fill="#ba5122" d="M683.379,694.303c0.003-0.432-0.345-0.783-0.777-0.786
						c-0.432-0.003-0.784,0.345-0.786,0.777c-0.003,0.432,0.345,0.784,0.777,0.786C683.024,695.082,683.376,694.734,683.379,694.303
						z" opacity=".43"/><path fill="#ba5122" d="M669.353,687.531c-0.003,0.432-0.355,0.779-0.786,0.777
						c-0.432-0.003-0.779-0.355-0.777-0.786c0.003-0.432,0.355-0.779,0.786-0.777C669.008,686.748,669.356,687.1,669.353,687.531z" opacity=".43"/><path fill="#ba5122" d="M663.154,707.465c-0.003,0.432-0.355,0.779-0.786,0.777
						c-0.432-0.003-0.779-0.355-0.777-0.786c0.003-0.432,0.355-0.779,0.786-0.777C662.809,706.681,663.156,707.033,663.154,707.465z
						" opacity=".43"/><path fill="#ba5122" d="M694.648,711.564c-0.003,0.432-0.355,0.779-0.786,0.777
						c-0.432-0.003-0.779-0.355-0.777-0.786c0.002-0.432,0.355-0.779,0.786-0.777C694.303,710.78,694.651,711.132,694.648,711.564z" opacity=".43"/><path fill="#ba5122" d="M693.988,691.698c-0.003,0.431-0.355,0.779-0.786,0.777s-0.779-0.355-0.777-0.786
						c0.003-0.432,0.355-0.779,0.786-0.777C693.643,690.914,693.99,691.266,693.988,691.698z" opacity=".43"/><path fill="#ba5122" d="M689.327,672.718c-0.003,0.432-0.355,0.779-0.786,0.777
						c-0.432-0.002-0.779-0.355-0.777-0.786c0.003-0.432,0.355-0.78,0.786-0.777C688.982,671.935,689.33,672.286,689.327,672.718z" opacity=".43"/><path fill="#ba5122" d="M679.534,669.706c-0.003,0.432-0.355,0.779-0.786,0.777
						c-0.432-0.003-0.779-0.355-0.777-0.786c0.003-0.432,0.355-0.779,0.786-0.777C679.189,668.923,679.537,669.275,679.534,669.706z
						" opacity=".43"/><path fill="#ba5122" d="M662.135,675.071c-0.003,0.432-0.355,0.779-0.786,0.777
						c-0.432-0.002-0.779-0.355-0.777-0.786c0.003-0.432,0.355-0.779,0.786-0.777C661.79,674.287,662.138,674.639,662.135,675.071z" opacity=".43"/><path fill="#ba5122" d="M659.501,694.157c-0.003,0.432-0.355,0.779-0.786,0.777
						c-0.432-0.003-0.779-0.355-0.777-0.786c0.003-0.432,0.355-0.779,0.786-0.777C659.156,693.374,659.504,693.726,659.501,694.157z
						" opacity=".43"/></g><g><path fill="#fdae67" d="M743.705,266.264c-10.166,2.846-74.472,1.42-83.544-2.589
						c-9.072-4.008-11.181-25.527,11.604-40.717c22.785-15.19,47.466-10.894,62.236,1.688
						C751.089,239.202,754.253,263.31,743.705,266.264z"/><path fill="#d56412" d="M735.909,249.329c-1.74,0-3.359-1.109-3.927-2.853
						c-0.225-0.678-5.795-16.911-21.787-19.793c-2.246-0.405-3.737-2.554-3.333-4.799c0.404-2.245,2.548-3.736,4.799-3.333
						c20.918,3.771,27.891,24.486,28.178,25.366c0.707,2.17-0.479,4.502-2.65,5.208
						C736.764,249.262,736.333,249.329,735.909,249.329z" opacity=".31"/></g><g><path fill="#fdae67" d="M651.281,266.264c-10.166,2.846-74.472,1.42-83.544-2.589
						c-9.072-4.008-11.182-25.527,11.603-40.717c22.785-15.19,47.466-10.894,62.236,1.688
						C658.665,239.202,661.829,263.31,651.281,266.264z"/><path fill="#d56412" d="M643.484,249.329c-1.74,0-3.359-1.109-3.927-2.853
						c-0.225-0.678-5.795-16.911-21.787-19.793c-2.246-0.405-3.737-2.554-3.333-4.799c0.404-2.245,2.548-3.736,4.799-3.333
						c20.918,3.771,27.891,24.486,28.178,25.366c0.707,2.17-0.479,4.502-2.65,5.208C644.34,249.262,643.91,249.329,643.484,249.329z
						" opacity=".31"/></g><g><path fill="#fdae67" d="M558.065,266.264c-10.166,2.846-74.472,1.42-83.544-2.589
						c-9.072-4.008-11.182-25.527,11.603-40.717c22.785-15.19,47.466-10.894,62.236,1.688
						C565.449,239.202,568.613,263.31,558.065,266.264z"/><path fill="#d56412" d="M550.269,249.329c-1.74,0-3.359-1.109-3.927-2.853
						c-0.225-0.678-5.795-16.911-21.787-19.793c-2.245-0.405-3.737-2.554-3.333-4.799c0.404-2.245,2.547-3.736,4.799-3.333
						c20.918,3.771,27.891,24.486,28.178,25.366c0.707,2.17-0.479,4.502-2.65,5.208
						C551.124,249.262,550.694,249.329,550.269,249.329z" opacity=".31"/></g><g><path fill="#fdae67" d="M464.849,266.264c-10.166,2.846-74.472,1.42-83.544-2.589
						c-9.072-4.008-11.181-25.527,11.603-40.717c22.785-15.19,47.466-10.894,62.236,1.688
						C472.233,239.202,475.398,263.31,464.849,266.264z"/><path fill="#d56412" d="M457.053,249.329c-1.74,0-3.359-1.109-3.927-2.853
						c-0.225-0.678-5.795-16.911-21.788-19.793c-2.246-0.405-3.737-2.554-3.333-4.799c0.404-2.245,2.544-3.736,4.799-3.333
						c20.918,3.771,27.891,24.486,28.178,25.366c0.707,2.17-0.479,4.502-2.65,5.208
						C457.909,249.262,457.478,249.329,457.053,249.329z" opacity=".31"/></g><g><path fill="#817892" d="M875.049,945.056c-0.005-6.642,56.042-6.463,122.766-6.463
								c66.724,0,101.554-0.432,100.741,5.508c-0.513,3.746-35.825,4.627-102.549,4.627
								C929.282,948.728,875.052,949.286,875.049,945.056z"/><path fill="#eee3d9" d="M941.857,827.213c0,0.82-6.598,46.754-8.248,58.238c-1.65,11.483-1.65,29.529-1.65,29.529
						l-30.517-2.461c0,0,4.949-55.777,4.949-80.384S941.857,827.213,941.857,827.213z"/><path fill="#eee3d9" d="M1005.367,855.102c0,0.82,2.474,23.787,2.474,34.451c0,10.663-3.299,22.967-3.299,22.967
						l47.839,1.64c0,0-10.723-15.585-12.372-22.147c-1.65-6.562,1.65-53.316,1.65-53.316L1005.367,855.102z"/><path fill="#5f7ab0" d="M889.073,878.07l15.062,0.453l30.344,0.915l9.029,0.268c0,0,0.101-0.881,0.287-2.509
						c1.662-14.509,10.193-88.314,15.383-122.988c2.531-16.884,6.481-41.631,10.117-64.112c1.359-8.35,2.667-16.389,3.84-23.589
						c1.029-6.277,1.958-11.916,2.734-16.59c0.92-5.623,1.62-9.844,1.992-12.059c0.186-1.15,0.287-1.762,0.287-1.762
						s0.017,0.101,0.059,0.302c0.16,0.906,0.675,3.793,1.409,7.947c0.92,5.245,2.177,12.52,3.485,20.367
						c1.367,8.266,2.785,17.161,3.898,24.99c0.852,5.975,1.527,11.32,1.874,15.29c1.485,16.993,14.336,149.698,16.885,175.956
						c0.287,2.903,0.439,4.506,0.439,4.506s0.549-0.059,1.544-0.159c4.75-0.503,19.602-2.14,31.837-4.129
						c9.13-1.485,16.817-3.18,17.754-4.741c0.203-0.336,0.27-2.945,0.211-7.469c-0.27-24.411-3.924-104.383-7.662-181.133
						c-0.565-11.773-1.139-23.471-1.705-34.876c-0.785-15.86-1.552-31.167-2.27-45.34c-0.118-2.442-0.245-4.842-0.363-7.2
						c-0.017-0.285-0.025-0.562-0.042-0.839c-0.186-3.659-0.363-7.234-0.54-10.708c-0.067-1.317-0.135-2.627-0.203-3.911
						c-0.135-2.735-0.27-5.404-0.405-7.997c-0.017-0.268-0.025-0.537-0.042-0.797c-0.051-1.141-0.11-2.257-0.169-3.357
						c-0.042-0.881-0.093-1.754-0.135-2.61c-0.169-3.247-0.321-6.369-0.481-9.332c-0.026-0.671-0.059-1.334-0.093-1.989
						c-0.025-0.487-0.051-0.965-0.076-1.435c-0.169-3.256-0.321-6.311-0.464-9.147c-0.034-0.554-0.059-1.091-0.093-1.62
						c-0.405-7.989-0.717-14.098-0.911-17.849c-0.152-2.786-0.228-4.28-0.228-4.28l-0.481-0.78l-2.109-3.424l-1.148-1.88
						l-0.667-1.074l-0.43-0.696l-2.135-3.474l-2.11-3.432c0,0-4.683-0.352-12.168-0.679c-15.062-0.655-41.491-1.192-63.894,1.536
						c-3.063,0.369-6.059,0.806-8.928,1.309c-8.809,1.536-16.53,3.726-22.057,6.797c-2.017,1.116-3.738,2.35-5.113,3.718
						c-1.62,1.603-2.751,3.382-3.308,5.362c-0.101,0.369-0.211,0.797-0.321,1.276c-0.253,1.125-0.523,2.56-0.802,4.28
						c-0.203,1.25-0.414,2.643-0.624,4.179c-0.65,4.59-1.342,10.448-2.084,17.345c-0.118,1.091-0.236,2.215-0.354,3.365
						c-0.346,3.382-0.709,6.982-1.08,10.783c-0.236,2.442-0.472,4.96-0.717,7.552c-0.245,2.702-0.506,5.488-0.759,8.35
						c-0.135,1.46-0.262,2.946-0.397,4.448c-0.321,3.566-0.641,7.242-0.962,11.01c-0.202,2.367-0.405,4.767-0.607,7.2
						c-1.831,21.827-3.755,46.414-5.637,71.631c-6.118,81.97-11.881,170.669-13.341,193.327
						C889.2,876.14,889.073,878.07,889.073,878.07z"/><path fill="#b25a3c" d="M999.593,940.408c0,0,0,1.641,0.825,3.281c0.825,1.641,17.321,1.641,18.97,0.82
						c1.649-0.82,1.649-4.101,3.299-4.921c1.65-0.82,9.898,4.921,18.146,5.742c8.248,0.82,36.703,2.051,50.313,0
						c2.581-0.386,4.124-3.281,3.299-8.203c-0.066-0.402-0.157-0.787-0.264-1.156c-1.204-4.109-4.949-6.021-12.521-8.276
						c-3.038-0.908-6.071-1.842-9.013-3.03c-3.255-1.315-5.998-3.234-9.055-4.865c-2.977-1.587-5.304-4.875-7.415-7.461
						c-2.43-2.977-4.703-6.075-7.045-9.119c-1.989-2.585-4.291-5.378-7.643-6.132c-4.151-0.934-7.729,2.146-10.857,4.444
						c-2.311,1.698-4.516,3.56-7.021,4.959c-1.792,1.001-3.799,1.768-5.851,1.645c-2.252-0.135-4.33-1.34-5.942-2.909
						c-1.604-1.562-3.625-6.477-5.91-3.236c-1.23,1.745-1.798,4.053-2.32,6.084c-1.561,6.073-2.29,12.376-2.923,18.601
						C999.899,934.198,999.593,940.408,999.593,940.408z"/><path fill="#4a3333" d="M999.593,940.408c0,0,0,1.641,0.825,3.281c0.825,1.641,19.795,1.641,21.445,0.82
						c1.65-0.82,0.825-3.281,2.474-4.101c1.65-0.82,8.248,4.101,16.496,4.921c8.248,0.82,36.703,2.051,50.313,0
						c2.581-0.386,4.124-3.281,3.299-8.203c-0.066-0.402-0.157-0.787-0.264-1.156c-4.355,0.484-28.579,2.977-40.564,0.747
						c-13.197-2.461-25.156-5.332-38.766-9.023c-4.804-1.303-10.277-1.058-14.187-1.017
						C999.899,934.198,999.593,940.408,999.593,940.408z"/><path fill="#b25a3c" d="M893.244,944.935c5.056,1.517,43.533,5.783,48.424-0.377c1.204-1.509,1.303-6.234,0.47-10.639
						c-0.635-3.305-1.79-6.439-3.415-7.899c-5.617-5.053-1.815-25.805-7.588-27.445c0,0-17.675-4.339-25.255-0.558
						c-7.58,3.781-5.897,18.16-10.104,24.976c-1.716,2.772-3.299,6.685-4.215,10.45
						C890.217,938.898,890.258,944.041,893.244,944.935z"/><path fill="#4a3333" d="M893.244,944.935c5.056,1.517,43.533,5.783,48.424-0.377c1.204-1.509,1.303-6.234,0.47-10.639
						c-3.769,0.533-26.542,3.412-50.577-0.476C890.217,938.898,890.258,944.041,893.244,944.935z"/><path fill="#923b16" d="M910.685,919.663c9.267-1.608,17.393,0.266,26.224,3.52c1.77,0.652,2.097,2.381,0.292,1.734
						c-8.316-2.978-16.961-3.757-25.666-2.189C909.52,923.091,908.663,920.013,910.685,919.663z"/><path fill="#7398c5" d="M1028.075,875.047c0,0,32.03-8.848,34.699-5.309c2.669,3.539,2.669,15.927-0.89,18.581
						c-3.559,2.654-54.273,9.733-56.942,7.963c-2.669-1.77-3.619-11.606-2.255-13.766
						C1004.052,880.356,1028.075,875.047,1028.075,875.047z"/><path fill="#7398c5" d="M920.408,874.382c0,0-32.963-4.277-35.105-0.399c-2.142,3.878-0.389,16.142,3.51,18.271
						c3.899,2.13,55.11,2.039,57.502-0.087c2.392-2.126,1.941-11.997,0.284-13.945C944.942,876.276,920.408,874.382,920.408,874.382
						z"/><path fill="#464c7b" d="M975.366,648.348c4.209-17.737,8.427-35.472,12.645-53.207c0.453-1.902,3.392-1.097,2.945,0.808
						c-4.158,17.751-8.316,35.502-12.483,53.251C978.002,651.207,974.889,650.357,975.366,648.348z"/><path fill="#464c7b" d="M995.402,633.655c4.146,28.49,7.898,57.035,11.251,85.629
						c3.392,28.927,6.391,57.901,8.98,86.911c1.457,16.326,3.61,49.069,4.816,65.415c0.077,1.049-1.566,1.044-1.643,0
						c-2.122-28.775-5.455-73.926-8.352-102.635c-2.898-28.707-6.187-57.376-9.866-85.994c-2.099-16.324-4.312-32.633-6.652-48.924
						C993.799,633.105,995.262,632.693,995.402,633.655z" opacity=".5"/><path fill="#464c7b" d="M925.131,580.848c6.332-6.13,12.387-11.911,17.279-19.32c1.069-1.619,3.696-0.115,2.626,1.527
						c-4.856,7.448-10.821,14.884-18.249,19.927C925.493,583.86,924.034,581.91,925.131,580.848z"/><path fill="#464c7b" d="M992.707,575.554c1.118-4.144,2.113-8.289,2.549-12.537
						c0.738-3.919,1.375-7.859,1.762-11.88c0.777-8.065,0.902-16.174,0.505-24.263c-0.092-1.876,2.811-1.86,2.926,0
						c0.737,11.911,0.426,24.511-1.695,36.568c4.838-3.446,8.729-7.482,9.794-13.922c1.318-7.972,0.361-16.217-0.138-24.219
						c-0.119-1.898,2.75-1.839,2.938,0c0.925,9.047,2.298,19.516-0.485,28.366c-2.059,6.547-7.428,10.685-12.983,14.274
						c-0.666,3.062-1.459,6.078-2.393,9.027c-0.587,1.852-3.293,1.088-2.908-0.797C992.622,575.964,992.665,575.76,992.707,575.554z
						" opacity=".5"/><path fill="#fff" d="M944.866,325.529c-5.079,4.151-6.895,9.081-7.933,9.34c-1.038,0.259-42.328,17.642-53.076,31.134
				c-10.748,13.491-11.007,43.847-12.045,46.96c-1.038,3.113-2.725,9.6-2.141,13.751c0.584,4.151-3.664,10.118-3.745,17.124
				c-0.081,7.005,1.735,12.194,1.216,13.751c-0.519,1.557-7.394,9.859-4.735,16.864c2.659,7.005,6.292,15.763,17.967,14.887
				c11.675-0.876,23.344,11.836,22.958,14.301c-0.386,2.465-3.889,71.348-3.889,74.072c0,2.724,65.355,3.503,74.513,4.281
				c9.159,0.778,19.298-15.932,21.223-27.84c1.925-11.908,2.579-25.814,2.579-25.814s1.305,45.482,4.228,50.931
				c2.923,5.448,38.201,4.284,39.757-1.237c1.557-5.522-1.031-72.316-4.533-90.996c-3.503-18.68-2.335-77.834-2.335-77.834
				s8.562,10.896,10.897,17.513c2.335,6.616,10.431,1.946,11.248,5.837c0.817,3.892,7.221,5.795,9.552,5.935
				c9.729,0.584,25.327-23.1,29.117-29.306c3.789-6.206-2.048-13.6-5.551-14.768s-8.173,1.168-11.286-4.281
				c-3.113-5.448-10.16-3.503-12.28-7.005c-2.12-3.502-13.405-33.858-18.854-41.641c-5.448-7.784-52.149-14.789-54.095-14.399
				C991.677,327.474,944.866,325.529,944.866,325.529z"/><path fill="#ceb4a3" d="M982.53,410.927c-0.602,0-1.106-0.471-1.14-1.08c-0.023-0.418-2.343-41.929-3.262-51.834
				c-0.058-0.628,0.404-1.186,1.032-1.243c0.641-0.063,1.187,0.405,1.244,1.033c0.923,9.946,3.245,51.499,3.268,51.917
				c0.035,0.63-0.447,1.17-1.078,1.206C982.573,410.926,982.551,410.927,982.53,410.927z"/><g><path fill="#e89067" d="M948.921,334.025c0,0,8.565,7.233,20.068,8.901c2.758,0.4,7.259,15.399,10.277,14.982
							c2.084-0.288,3.642-13.784,5.405-15.256c3.262-2.724,7.051-10.089,11.192-14.377c-3.106-12.596,1.894-26.722,1.894-26.722
							l-5.153,1.212l-6.105,0.144l-17.462,17.784l-5.983,6.089L948.921,334.025z"/><path fill="#e89067" d="M940.65,275.821c0.183,2.752,0.26,5.478,0.218,8.326c-0.149,9.941-0.087,20.15,1.872,29.975
								c0.677,3.397,1.524,7.348,3.885,10.104c4.224,4.93,15.995,5.904,21.609,5.47c17.286-1.336,23.108-7.874,28.708-24.463
								c0,0,14.564-5.107,9.855-17.709c-0.762-2.039-2.107-4.048-4.41-4.614c-2.781-0.684-3.42-0.393-3.27-3.821
								c0.111-2.549,0.085-5.116-0.325-7.644c-1.736-10.702-10.994-19.983-22.03-22.085c-5.154-0.981-11.548-1.821-16.729-0.982
								c-5.46,0.883-7.584,4.971-12.238,7.191c-3.299,1.574-8.177,9.673-7.562,15.466
								C940.405,272.658,940.545,274.243,940.65,275.821z"/><path fill="#1a1a1a" d="M968.775,287.903c0.309-0.155,0.647-0.26,0.993-0.31c1.105-0.159,2.21,0.498,2.735,1.456
								c0.641,1.171,0.737,2.227-0.355,3.164c-0.521,0.448-1.161,0.793-1.859,0.871c-1.284,0.143-2.62-0.755-2.931-1.971
								c-0.219-0.855-0.054-1.849,0.529-2.526C968.131,288.303,968.436,288.073,968.775,287.903z"/><path fill="#d45b43" d="M954.006,302.622c0.125-0.68,0.838-1.159,1.55-1.02c0.701,0.137,1.401,0.274,2.102,0.41
								c0.709,0.139,1.208,0.822,1.082,1.509c-0.125,0.68-0.838,1.159-1.55,1.02c-0.701-0.137-1.401-0.273-2.102-0.41
								C954.378,303.992,953.879,303.309,954.006,302.622z"/><path fill="#6e4e4e" d="M963.834,269.634c1.626,0.908,3.379,1.565,4.956,2.558c1.6,1.008,5.264,3.468,6.822,4.534
								c1.406,0.961,0.007,3.134-1.411,2.164c-1.558-1.065-5.219-3.532-6.822-4.534c-1.58-0.988-3.33-1.65-4.956-2.558
								C960.926,270.962,962.336,268.797,963.834,269.634z"/><path fill="#6e4e4e" d="M947.41,279.069c0.254-0.387,0.27-0.899-0.004-1.319c-0.38-0.582-1.173-0.764-1.771-0.407
									c-0.142,0.085-3.499,2.097-5.572,5.527c-0.356,0.585-0.148,1.345,0.466,1.696c0.613,0.352,1.41,0.182,1.754-0.423
									c1.774-2.899,4.698-4.675,4.727-4.693C947.177,279.352,947.311,279.22,947.41,279.069z"/><path fill="#1a1a1a" d="M944.86,289.458c-0.012,0.152-0.044,0.301-0.099,0.445c-0.125,0.33-0.36,0.613-0.645,0.831
							c-0.649,0.496-1.59,0.637-2.356,0.307c-0.935-0.402-1.573-1.424-1.462-2.401c0.079-0.698,0.473-1.367,1.093-1.728
							C943.037,285.953,944.99,287.825,944.86,289.458z"/><g><path fill="#6e4e4e" d="M943.438,307.817c2.253-1.064,6.465-1.96,12.935-0.906c6.765,1.101,11.389,5.429,19.697,0.225
							c3.613-2.263,5.874-6.204,7.548-9.924c0.843-1.872,1.49-3.799,2.157-5.735c0.77-2.234,1.892-3.78,1.008-6.285
							c-0.549-1.555-1.518-2.939-2.292-4.404c-1.181-2.234-1.918-4.681-2.157-7.165c-0.226-2.34,1.272-5.007,3.005-6.536
							c0.914-0.807,2.017-1.454,2.678-2.465c1.106-1.693,0.645-4.033-0.615-5.658c-1.259-1.625-3.163-2.664-5.071-3.512
							c-2.512-1.117-5.396-1.879-8.115-1.25c-2.05,0.475-3.59,1.54-5.414,2.411c-2.116,1.01-4.084,2.271-6.133,3.394
							c-2.494,1.367-5.183,2.554-8.062,2.74c-2.987,0.192-5.428-1.473-8.148-2.375c-0.522-0.173-1.074-0.31-1.619-0.248
							c-1.004,0.115-2.428,1.37-2.667,2.315c0.191-0.754,1.428-6.114,6.71-10.677c3.003-2.594,6.939-4.149,10.813-5.252
							c6.597-1.879,12.897-2.471,19.547-0.574c5.579,1.591,12.002,4.102,18.98,10.517c7.507,6.902,4.866,24.233,4.101,26.39
							c0,0-3.717-0.353-5.238,0.307c-4.33,1.88-4.636,8.094-4.442,12.115c0.073,1.51,0.149,3.074,0.218,4.522
							c0.311,6.451-0.657,12.914-3.155,18.866c-5.464,13.02-15.79,20.429-28.477,19.462c-22.373-1.706-20.468-22.434-19.547-27.99
							C941.847,309.12,942.494,308.263,943.438,307.817z"/></g><path fill="#fff" d="M962.128,319.153c0.692-0.365,1.337-0.836,1.906-1.406c0.979-0.979,1.738-2.139,2.489-3.291
						c0.196-0.3,0.391-0.698,0.171-0.988c-0.13-0.172-0.363-0.235-0.58-0.269c-0.76-0.12-1.534-0.027-2.296,0.059
						c-2.531,0.286-5.073,0.496-7.62,0.63c-1.273,0.067-2.548,0.116-3.824,0.145c-2.032,0.047,0.431,3.131,1.069,3.814
						C955.798,320.369,959.34,320.624,962.128,319.153z"/></g><path fill="#3f414c" d="M936.933,334.869c3.038,13.249,7.888,57.338,8.354,64.083c0.466,6.746,58.526,1.557,62.446-1.557
				c3.921-3.113-4.335-69.121-4.335-69.121s7.964,1.365,8.479,1.46c0.515,0.095,10.389,57.786,11.452,77.252
				c1.063,19.466,11.662,50.59,11.806,54.265c0.144,3.675,7.034,72.605,9.006,111.547c1.973,38.941,7.278,146.913,7.572,153.125
				c0.294,6.212-143.319,9.79-143.319,4.082c0-5.708,13.39-213.638,12.662-219.16c-0.728-5.521-23.559-21.509-23.559-21.509
				l10.897-8.919c0,0,17.135-3.373,16.351-4.021c-0.784-0.649,4.275-49.692,5.961-69.41c1.686-19.718-3.438-68.789-3.438-68.789
				S936.55,333.196,936.933,334.869z"/><g><path fill="#8ea5b7" d="M869.662,531.43c-3.553,0-6.636-2.641-7.098-6.258c-0.499-3.925,2.277-7.513,6.201-8.013
					l375.614-47.869c3.918-0.493,7.513,2.276,8.013,6.201c0.499,3.925-2.277,7.513-6.201,8.013l-375.615,47.869
					C870.271,531.411,869.965,531.43,869.662,531.43z"/><path fill="#d2dbdb" d="M630.267,527.638c52.149,26.514,104.363,44.795,132.318,42.809
						c43.911-3.12,198.996-20.482,202.109-23.473c3.113-2.991-143.64-40.938-158.198-40.611
						C791.938,506.691,626.248,525.594,630.267,527.638z"/><path fill="#8ea5b7" d="M644.53,524.836c2.854,7.057,11.941,10.975,19.984,11.883c8.043,0.908,26.074-1.11,26.074-1.11
						s-1.553,3.451-0.317,7.554c0.914,3.036,2.863,4.857,3.69,5.62c7.144,6.594,25.685,8.515,27.501,8.692
						c13.106,1.273,22.586,2.103,34.896-1.167c5.866-1.558,10.574-3.57,13.88-5.189c0,0,1.687,4.8,7.394,8.951
						c5.708,4.151,36.323,2.983,45.403,2.724c9.081-0.26,21.664-3.113,25.426-4.8c3.762-1.686,4.67-4.8,4.67-4.8
						s0.259,1.297,11.026,2.465c10.767,1.167,27.501,0.519,38.917-0.778c11.416-1.297,17.772-4.151,20.756-8.821
						c2.984-4.67,0.648-11.546-3.892-12.583c-4.54-1.038-272.146-9.109-272.146-9.109L644.53,524.836z"/><path fill="#ffac67" d="M647.333,519.043c1.74-19.68,20.877-21.564,37.502-22.434
							c15.318-0.801,34.503,6.261,36.937,19.129c2.435,12.869-0.696,19.129-34.781,19.825
							C652.907,536.259,646.472,528.781,647.333,519.043z"/><path fill="#b04c05" d="M686.355,527.782c-5.616,0-11.413-0.359-18.326-1.903
							c-5.673-1.268-11.264-3.173-16.622-5.659c-0.684-0.318-0.98-1.127-0.663-1.809c0.319-0.683,1.132-0.98,1.809-0.663
							c5.183,2.407,10.589,4.246,16.071,5.472c9.534,2.13,16.962,1.924,24.823,1.706c8.17-0.226,12.037-1.08,13.308-1.359
							c4.036-0.889,8-2.222,11.782-3.965c0.682-0.313,1.493-0.015,1.808,0.668c0.315,0.683,0.015,1.493-0.668,1.807
							c-3.959,1.823-8.11,3.219-12.335,4.149c-1.333,0.295-5.392,1.19-13.82,1.424C691.118,527.716,688.752,527.782,686.355,527.782
							z" opacity=".26"/><path fill="#ffac67" d="M723.813,514.112c1.916-21.674,22.992-23.749,41.302-24.707
							c16.87-0.882,37.999,6.895,40.68,21.068c2.681,14.173-0.766,21.067-38.305,21.834
							C729.951,533.073,722.865,524.837,723.813,514.112z"/><path fill="#b04c05" d="M766.793,523.736c-6.189,0-12.573-0.395-20.188-2.096
							c-6.235-1.391-12.393-3.488-18.307-6.23c-0.751-0.349-1.078-1.239-0.73-1.992c0.349-0.749,1.238-1.078,1.992-0.729
							c5.719,2.652,11.674,4.678,17.699,6.024c10.499,2.343,18.68,2.119,27.34,1.878c8.984-0.247,13.255-1.187,14.658-1.496
							c4.447-0.982,8.812-2.449,12.972-4.366c0.76-0.349,1.645-0.015,1.99,0.734c0.347,0.753,0.018,1.645-0.734,1.99
							c-4.355,2.007-8.925,3.544-13.583,4.572c-1.473,0.324-5.952,1.31-15.22,1.567
							C772.035,523.664,769.431,523.736,766.793,523.736z" opacity=".26"/><path fill="#ffac67" d="M785.666,521.028c1.947-22.021,23.36-24.129,41.962-25.102
							c17.14-0.896,38.606,7.005,41.33,21.404c2.724,14.399-0.778,21.404-38.917,22.183
							C791.902,540.291,784.703,531.924,785.666,521.028z"/><path fill="#b04c05" d="M829.335,530.806c-6.29,0-12.777-0.401-20.511-2.129
							c-6.335-1.414-12.593-3.546-18.602-6.333c-0.763-0.353-1.095-1.259-0.74-2.024c0.352-0.763,1.251-1.098,2.024-0.74
							c5.811,2.695,11.86,4.754,17.981,6.121c10.661,2.38,18.967,2.148,27.762,1.91c9.157-0.253,13.483-1.208,14.905-1.522
							c4.518-0.997,8.953-2.489,13.182-4.437c0.76-0.35,1.668-0.018,2.022,0.748c0.352,0.765,0.017,1.669-0.748,2.023
							c-4.428,2.038-9.07,3.6-13.8,4.642c-1.491,0.33-6.032,1.331-15.466,1.592C834.658,530.732,832.015,530.806,829.335,530.806z" opacity=".26"/><path fill="#ffac67" d="M691.422,535.616c1.947-22.021,23.36-24.128,41.962-25.101
							c17.14-0.896,38.606,7.005,41.33,21.404c2.724,14.399-0.778,21.404-38.917,22.183
							C697.659,554.88,690.459,546.513,691.422,535.616z"/><path fill="#b04c05" d="M735.271,545.389c-6.267,0-12.949-0.394-20.692-2.124
							c-6.339-1.416-12.597-3.546-18.6-6.332c-0.763-0.353-1.095-1.259-0.74-2.024c0.353-0.763,1.25-1.098,2.024-0.74
							c5.805,2.692,11.856,4.752,17.98,6.12c10.672,2.383,18.975,2.155,27.778,1.91c9.122-0.25,13.463-1.207,14.891-1.52
							c4.521-0.997,8.956-2.489,13.182-4.437c0.762-0.353,1.669-0.02,2.021,0.746c0.353,0.763,0.019,1.669-0.746,2.021
							c-4.423,2.039-9.067,3.603-13.801,4.645c-1.497,0.33-6.052,1.333-15.464,1.591
							C740.535,545.318,737.94,545.389,735.271,545.389z" opacity=".54"/><path fill="#ffac67" d="M837.426,535.616c1.947-22.021,23.36-24.128,41.962-25.101
							c17.14-0.896,38.606,7.005,41.33,21.404c2.724,14.399-0.778,21.404-38.917,22.183
							C843.662,554.88,836.462,546.513,837.426,535.616z"/><path fill="#b04c05" d="M881.274,545.389c-6.266,0-12.949-0.394-20.69-2.124
							c-6.338-1.416-12.597-3.546-18.602-6.332c-0.763-0.353-1.095-1.259-0.74-2.024c0.353-0.763,1.252-1.098,2.024-0.74
							c5.807,2.692,11.857,4.752,17.982,6.12c10.673,2.383,18.981,2.155,27.777,1.91c9.117-0.25,13.463-1.207,14.892-1.52
							c4.524-0.998,8.959-2.491,13.179-4.437c0.766-0.353,1.671-0.02,2.022,0.745c0.353,0.765,0.018,1.671-0.745,2.022
							c-4.42,2.038-9.064,3.601-13.801,4.645c-1.499,0.33-6.058,1.333-15.464,1.591C886.54,545.317,883.944,545.389,881.274,545.389
							z" opacity=".54"/><path fill="#ffac67" d="M770.229,542.88c1.947-22.02,23.36-24.128,41.962-25.102
							c17.14-0.896,38.606,7.005,41.33,21.404c2.724,14.399-0.778,21.404-38.917,22.183
							C776.465,562.144,769.266,553.777,770.229,542.88z"/><path fill="#b04c05" d="M813.897,552.659c-6.29,0-12.777-0.401-20.511-2.128
							c-6.335-1.416-12.593-3.546-18.6-6.333c-0.763-0.353-1.095-1.259-0.74-2.024c0.353-0.762,1.25-1.1,2.024-0.74
							c5.81,2.694,11.859,4.754,17.98,6.121c10.658,2.38,18.964,2.15,27.764,1.91c9.16-0.253,13.483-1.209,14.904-1.522
							c4.521-0.997,8.956-2.489,13.182-4.436c0.76-0.349,1.668-0.018,2.022,0.748c0.352,0.765,0.017,1.669-0.748,2.022
							c-4.423,2.036-9.067,3.6-13.8,4.643c-1.49,0.33-6.026,1.331-15.464,1.593C819.221,552.585,816.577,552.659,813.897,552.659z" opacity=".54"/><path fill="#b04c05" d="M853.129,551.899c-0.11,0-0.221-0.023-0.327-0.074c-0.379-0.18-0.542-0.634-0.361-1.015
						c1.255-2.646,1.353-6.08,0.33-11.486c-2.566-13.568-23.023-21.715-40.541-20.784c-20.693,1.083-39.418,3.764-41.242,24.407
						c-0.166,1.884-0.069,3.521,0.298,5.006c0.101,0.409-0.149,0.822-0.557,0.923c-0.41,0.108-0.821-0.149-0.923-0.557
						c-0.409-1.651-0.518-3.452-0.335-5.507c2.092-23.669,26.517-24.949,42.68-25.795c18.161-0.948,39.404,7.674,42.119,22.025
						c0.766,4.054,1.313,8.7-0.453,12.422C853.688,551.739,853.413,551.899,853.129,551.899z"/><path fill="#b04c05" d="M841.545,524.175c-0.15,0-0.302-0.045-0.436-0.137c-0.346-0.24-0.43-0.716-0.189-1.061
						c6.215-8.922,18.223-11.298,26.712-12.308c0.41-0.046,0.799,0.249,0.848,0.666c0.049,0.419-0.249,0.797-0.667,0.848
						c-8.199,0.975-19.778,3.246-25.643,11.667C842.023,524.061,841.785,524.175,841.545,524.175z"/><path fill="#b04c05" d="M774.13,530.473c-0.338,0-0.647-0.224-0.737-0.565c-3.345-12.583-22.972-20.443-45.625-18.285
						c-0.413,0.051-0.792-0.267-0.831-0.687c-0.04-0.419,0.267-0.791,0.686-0.831c23.41-2.218,43.711,6.118,47.244,19.411
						c0.108,0.405-0.135,0.823-0.542,0.932C774.261,530.465,774.195,530.473,774.13,530.473z"/><path fill="#b04c05" d="M785.602,522.937c-0.003,0-0.008,0-0.011,0c-0.421-0.006-0.757-0.352-0.751-0.772
						c0.002-0.158,0.387-15.996,15.699-22.461c0.382-0.164,0.834,0.015,0.998,0.406c0.164,0.387-0.017,0.835-0.406,0.998
						c-14.376,6.07-14.766,20.93-14.769,21.079C786.357,522.604,786.018,522.937,785.602,522.937z"/><path fill="#b04c05" d="M691.352,538.586c0,0,0,0-0.001,0c-0.419,0-0.76-0.341-0.76-0.762
						c0-0.224,0.336-22.453,29.622-26.973c0.407-0.066,0.806,0.22,0.869,0.636c0.065,0.416-0.22,0.806-0.636,0.869
						c-27.956,4.317-28.329,24.608-28.332,25.469C692.114,538.245,691.773,538.586,691.352,538.586z"/><path fill="#fff" d="M705.344,527.942c-0.278,0-0.561-0.077-0.812-0.237c-0.713-0.45-0.925-1.391-0.475-2.102
						c3.672-5.809,11.21-9.418,19.677-9.418c0.842,0,1.525,0.683,1.525,1.525c0,0.842-0.683,1.525-1.525,1.525
						c-7.43,0-13.982,3.064-17.1,7.996C706.343,527.69,705.849,527.942,705.344,527.942z"/><path fill="#fff" d="M782.951,537.076c-0.166,0-0.335-0.028-0.501-0.086c-0.796-0.276-1.216-1.144-0.938-1.94
						c3.368-9.681,16.562-12.183,17.122-12.286c0.831-0.138,1.62,0.399,1.772,1.227c0.15,0.826-0.398,1.62-1.225,1.772
						c-0.12,0.023-12.009,2.294-14.79,10.288C784.172,536.682,783.582,537.076,782.951,537.076z"/><path fill="#fff" d="M858.062,524.938c-0.376,0-0.754-0.14-1.049-0.419c-0.611-0.579-0.636-1.543-0.057-2.155
						c6.252-6.591,14.462-6.204,14.813-6.176c0.842,0.049,1.483,0.769,1.434,1.609c-0.049,0.84-0.786,1.468-1.609,1.434
						c-0.078-0.005-7.176-0.307-12.427,5.231C858.868,524.779,858.466,524.938,858.062,524.938z"/><path fill="#d25c48" d="M1143.672,496.344l13.384-1.85c0,0,2.128,5.603-0.89,6.681
					C1149.988,503.379,1143.672,496.344,1143.672,496.344z"/><path fill="#e5906b" d="M1066.571,432.358c25.685,14.27,66.245,33.013,67.802,34.31
					c1.557,1.297,3.562,16.355,3.562,16.355s8.113-1.047,13.561-1.566c5.448-0.519,5.967,9.859,5.967,11.416
					c0,1.557-5.251,2.292-5.251,2.292s0.84,5.492,3.954,6.011c3.114,0.519,6.486,0,13.491-2.075c7.005-2.076,8.043-3.892,9.859-4.93
					c1.816-1.038,3.892-5.708,3.632-8.302c-0.26-2.595-1.557-8.562-5.967-13.491c-4.411-4.93-18.94-16.086-26.464-21.015
					c-7.524-4.93-57.078-43.847-57.857-44.365C1092.083,406.476,1066.571,432.358,1066.571,432.358z"/><path fill="#e5906b" d="M951.722,510.445c-0.847,2.184-1.167,8.611-2.854,10.112c-1.687,1.502-13.199-0.042-15.275,2.864
					c-2.075,2.906,7.751,8.867,9.308,8.877c1.557,0.009,1.557,0.009,1.557,0.009s0.13,2.854,3.503,3.243
					c3.373,0.389,5.837-0.649,5.837-0.649s0.649,1.557,4.411,0.649c3.762-0.908,4.929-3.252,4.929-3.252s2.076,1.047,4.411,0.528
					c2.335-0.519,7.913-7.383,9.081-11.864c1.168-4.481-0.389-13.306-1.686-14.601c-1.297-1.295-7.654-4.927-9.21-5.317
					c-1.557-0.389-2.205,0.649-2.205,0.649s-0.778-0.434-2.984-0.736c-2.205-0.302-2.205,2.811-2.205,2.811
					s-0.519-0.519-2.594-0.389c-2.076,0.13-1.427,3.762-1.427,3.762S952.776,507.729,951.722,510.445z"/><path fill="#e5906b" d="M907.227,471.468c13.037,16.15,22.961,23.483,24.907,24.389
					c1.946,0.907,11.675,2.269,17.707,3.242c6.032,0.973,8.756,7.262,8.756,7.262s-6.835,8.55-7.601,7.26
					c-0.766-1.29-6.409-4.404-11.857-4.987c-5.449-0.584-26.658,3.892-26.658,3.892s-24.323-8.854-32.69-14.108
					c-8.367-5.254-14.908-16.953-12.068-20.821c4.572-6.227,24.327-10.216,30.164-10.216
					C903.724,467.381,907.227,471.468,907.227,471.468z"/><path fill="#d25c48" d="M955.225,534.427c-0.133,0-0.267-0.028-0.396-0.086c-0.478-0.218-0.69-0.783-0.47-1.262
					c0.026-0.058,2.711-5.943,3.334-7.818c0.328-0.986-0.072-5.063-0.425-8.661c-0.269-2.734-0.547-5.562-0.645-7.993
					c-0.021-0.527,0.389-0.969,0.914-0.991c0.602-0.011,0.969,0.388,0.99,0.914c0.095,2.377,0.37,5.177,0.637,7.884
					c0.491,5.008,0.773,8.144,0.338,9.449c-0.657,1.972-3.299,7.763-3.411,8.009C955.931,534.221,955.586,534.427,955.225,534.427z"/><path fill="#d25c48" d="M966.382,529.369c-0.055,0-0.11-0.005-0.167-0.014c-0.517-0.092-0.863-0.585-0.772-1.104
					c0.513-2.904,1.012-6.405,0.926-6.997c-0.086-0.243-0.247-1.238-0.68-3.999c-0.464-2.952-1.315-8.37-1.694-9.377
					c-0.063-0.057-0.127-0.118-0.196-0.184c-0.547-0.525-1.464-1.403-4.868-3.213c-0.465-0.247-0.642-0.823-0.395-1.288
					c0.247-0.464,0.822-0.642,1.288-0.395c3.638,1.934,4.675,2.927,5.294,3.52c0.091,0.087,0.17,0.164,0.25,0.233
					c0.497,0.431,0.778,1.335,2.202,10.407c0.27,1.719,0.548,3.495,0.628,3.775c0.218,0.657-0.077,3.302-0.878,7.849
					C967.237,529.045,966.835,529.369,966.382,529.369z"/><path fill="#d25c48" d="M968.24,530.665c-0.158,0-0.32-0.038-0.469-0.123c-0.458-0.26-0.619-0.84-0.359-1.299
					c2.023-3.572,4.215-7.592,4.506-8.356c0.002-0.066,0.006-0.154,0.011-0.259c0.398-9.491-0.951-11.098-1.224-11.324
					c-0.814-0.669-1.679-1.588-2.592-2.558c-1.571-1.671-3.352-3.563-4.925-4.162c-0.492-0.188-0.739-0.739-0.552-1.23
					c0.189-0.491,0.737-0.734,1.23-0.551c1.981,0.756,3.922,2.818,5.635,4.636c0.871,0.926,1.694,1.801,2.414,2.394
					c0.588,0.484,2.376,1.956,1.917,12.875l-0.012,0.317c0,0.287,0,0.768-4.748,9.159
					C968.896,530.491,968.573,530.665,968.24,530.665z M972.849,521.113h0.015H972.849z"/><path fill="#d25c48" d="M944.458,533.26c-0.31,0-0.613-0.149-0.796-0.427c-0.29-0.438-0.17-1.029,0.269-1.319
					c4.208-2.786,8.812-6.344,9.231-7.479c0.184-0.496,0.731-0.743,1.224-0.563c0.493,0.183,0.746,0.731,0.563,1.224
					c-0.844,2.282-8.451,7.404-9.968,8.406C944.821,533.209,944.638,533.26,944.458,533.26z"/><path fill="#d25c48" d="M922.403,505.237c-0.186,0-0.373-0.054-0.537-0.167c-0.432-0.296-0.544-0.885-0.249-1.317
					c0.097-0.141,2.449-3.511,10.139-6.826c0.484-0.204,1.046,0.015,1.253,0.498c0.207,0.484-0.015,1.044-0.498,1.253
					c-7.105,3.062-9.3,6.121-9.321,6.152C923.003,505.094,922.705,505.237,922.403,505.237z"/></g><path fill="#ceb4a3" d="M915.205,414.819c-0.293,0-0.585-0.112-0.808-0.335c-0.195-0.195-19.546-19.729-27.518-43.448
				c-0.201-0.598,0.121-1.246,0.72-1.447c0.594-0.199,1.247,0.121,1.448,0.72c7.797,23.199,26.775,42.368,26.965,42.559
				c0.447,0.447,0.447,1.171,0,1.617C915.79,414.707,915.497,414.819,915.205,414.819z"/><path fill="#ceb4a3" d="M905.32,470.965c-0.011,0-0.023,0-0.035,0c-0.631-0.02-1.127-0.547-1.107-1.178
				c0.002-0.091,0.006-2.474-2.368-4.758c-2.271-2.182-7.215-4.653-17.891-4.096c-0.639,0.042-1.169-0.448-1.202-1.08
				c-0.034-0.631,0.45-1.168,1.08-1.202c9.283-0.491,15.905,1.118,19.671,4.801c3.067,2.999,3.001,6.269,2.996,6.405
				C906.442,470.477,905.935,470.965,905.32,470.965z"/><path fill="#ceb4a3" d="M904.352,467.626c-0.295,0-0.59-0.114-0.814-0.341c-0.444-0.448-0.438-1.172,0.011-1.615
				c1.797-1.772,4.602-5.34,4.483-7.367l-0.011-0.18c-0.198-3.336-0.499-8.376,5.341-15.223c5.175-6.068,5.607-11.647,4.598-21.125
				c-0.068-0.628,0.387-1.191,1.015-1.258c0.65-0.068,1.192,0.389,1.258,1.015c1.056,9.927,0.553,16.187-5.132,22.851
				c-5.241,6.147-4.985,10.456-4.798,13.605l0.011,0.18c0.22,3.718-4.608,8.588-5.16,9.13
				C904.931,467.517,904.642,467.626,904.352,467.626z"/><path fill="#ceb4a3" d="M1034.848,411.894c-0.614,0-1.121-0.486-1.143-1.104c-0.238-6.897,2.615-16.248,5.134-24.499
				c1.431-4.692,2.784-9.124,3.475-12.721c1.898-9.872,1.539-22.197,1.536-22.32c-0.02-0.631,0.476-1.159,1.107-1.179
				c0.012-0.001,0.025-0.001,0.036-0.001c0.616,0,1.122,0.488,1.142,1.107c0.017,0.514,0.372,12.697-1.575,22.824
				c-0.714,3.716-2.084,8.205-3.533,12.957c-2.466,8.08-5.26,17.237-5.036,23.753c0.022,0.63-0.471,1.16-1.103,1.182
				C1034.874,411.894,1034.86,411.894,1034.848,411.894z"/><path fill="#ceb4a3" d="M1056.062,432.392c-0.184,0-0.372-0.045-0.547-0.14c-0.554-0.302-0.757-0.997-0.454-1.551
				c5.742-10.519,17.255-17.697,17.742-17.997c0.539-0.331,1.244-0.164,1.573,0.372c0.332,0.538,0.166,1.242-0.372,1.573
				c-0.114,0.071-11.49,7.171-16.937,17.147C1056.859,432.176,1056.467,432.392,1056.062,432.392z"/><path fill="#ceb4a3" d="M1056.062,423.605c-0.172,0-0.346-0.039-0.51-0.121c-0.565-0.283-0.794-0.969-0.511-1.534
				c0.244-0.486,6.091-12.02,17.607-22.169c0.472-0.417,1.195-0.373,1.613,0.102c0.418,0.473,0.373,1.195-0.101,1.613
				c-11.184,9.858-17.016,21.362-17.072,21.477C1056.885,423.374,1056.481,423.605,1056.062,423.605z"/><path fill="#ceb4a3" d="M966.792,358.195c-0.109,0-0.22-0.015-0.33-0.049c-0.699-0.211-17.224-5.31-26.187-17.541
				c-0.373-0.509-0.264-1.225,0.246-1.598c0.513-0.375,1.229-0.261,1.597,0.246c8.503,11.605,24.841,16.655,25.004,16.704
				c0.605,0.183,0.946,0.821,0.763,1.425C967.736,357.876,967.283,358.195,966.792,358.195z"/><path fill="#ceb4a3" d="M986.813,358.195c-0.306,0-0.611-0.122-0.836-0.363c-0.432-0.461-0.405-1.185,0.055-1.616
				c5.539-5.169,10.573-23.031,10.624-23.211c0.171-0.607,0.797-0.964,1.408-0.794c0.608,0.17,0.964,0.8,0.794,1.408
				c-0.212,0.76-5.263,18.666-11.266,24.268C987.372,358.092,987.092,358.195,986.813,358.195z"/><path fill="#fff" d="M939.825,270.101c3.702-7.941,19.138-5.395,33.073-3.85c13.935,1.545,25.17,3.811,27.261,6.769
				c2.09,2.958,3.369,4.143,3.369,4.143s4.092-24.183,3.522-31.763c-0.57-7.579-12.778-15.614-32.134-17.343
				c-19.356-1.728-28.586,5.182-31.569,10.28C940.363,243.436,939.825,270.101,939.825,270.101z"/></g></svg>