<svg xmlns="http://www.w3.org/2000/svg" data-name="Layer 1" viewBox="0 0 512 512"><ellipse cx="348" cy="417.54" fill="#fbc56d" rx="150.73" ry="72.87"/><path fill="#e9b665" d="M348 344.67q-5 0-10 .17c78.58 2.49 140.73 34.08 140.73 72.7S416.58 487.76 338 490.25c3.31.1 6.64.16 10 .16 83.25 0 150.73-32.62 150.73-72.87S431.25 344.67 348 344.67zm-86.89 44.18a79 79 0 0 1 1 22.81A14.05 14.05 0 0 0 274.75 427c.47 0 .93.07 1.39.07a14.07 14.07 0 0 0 14-12.68 107.14 107.14 0 0 0-1.42-30.9 105.94 105.94 0 0 0-11-30.43 206.79 206.79 0 0 0-27.28 8.94 79.56 79.56 0 0 1 10.67 26.85z"/><path fill="#e9b665" d="M347.63 344.68a306.21 306.21 0 0 0-34.26 1.93c9.08 9.49 19.05 23.62 22.67 42.24a79.36 79.36 0 0 1 1 22.81A14 14 0 0 0 349.68 427c.46 0 .93.07 1.39.07a14.05 14.05 0 0 0 14-12.68 106.2 106.2 0 0 0-17.4-69.72zM410.09 389a79.31 79.31 0 0 1 0 22.82A14 14 0 0 0 422 427.76a13.12 13.12 0 0 0 1.38.13 14 14 0 0 0 14.53-12 105.59 105.59 0 0 0-8.59-59.69 250.13 250.13 0 0 0-38.32-8.52c8.12 9.82 16.49 23.74 19.09 41.32z"/><path fill="#fbc56d" d="M301.43 269.68c0-38.39-65.8-69.5-147-69.5s-147 31.11-147 69.5c0 15.52 10.76 29.86 29 41.42a24.1 24.1 0 0 1 11 20.35v130.41a31 31 0 0 0 31 31h151.96a31 31 0 0 0 31-31V331.45a24.1 24.1 0 0 1 11.05-20.35c18.23-11.56 28.99-25.9 28.99-41.42Z"/><path fill="#e9b665" d="M154.47 200.18q-5.06 0-10 .16c76.5 2.43 137 32.54 137 69.34 0 15.52-10.76 29.86-29 41.42a24.1 24.1 0 0 0-11 20.35v130.41a31 31 0 0 1-31 31h20a31 31 0 0 0 31-31V331.45a24.1 24.1 0 0 1 11.05-20.35c18.19-11.56 28.95-25.9 28.95-41.42-.04-38.39-65.84-69.5-147-69.5Z"/><path fill="#fdd79b" d="M83 457.4V331.45a59.3 59.3 0 0 0-27.5-50.31c-8.49-5.4-11.7-9.84-12.41-11.46 1.08-2.48 7.63-10.85 27.45-19.2 22.66-9.54 52.46-14.79 83.92-14.79s61.25 5.25 83.91 14.79c19.82 8.35 26.38 16.72 27.45 19.2-.71 1.62-3.92 6.06-12.4 11.46a59.29 59.29 0 0 0-27.51 50.31v126Z"/><path fill="#7a6d79" d="M458.06 504.5H53.94a30 30 0 0 1-25.29-13.86L7.5 457.5h497l-21.15 33.14a30 30 0 0 1-25.29 13.86Z"/><path fill="#685e68" d="m451.73 457.5-8.38 13.14a30 30 0 0 1-25.29 13.86H24.73l3.92 6.14a30 30 0 0 0 25.29 13.86h404.12a30 30 0 0 0 25.29-13.86l21.15-33.14Z"/><path d="M511.08 453.9a7.5 7.5 0 0 0-6.58-3.9h-11.25c8.54-10.07 13-21.07 13-32.46 0-45.07-69.5-80.37-158.23-80.37a294.1 294.1 0 0 0-72.07 8.62h-.06l-.39.1-3 .8-1.8.49-1.77.51v-16.24a16.69 16.69 0 0 1 7.57-14c21.22-13.48 32.43-30 32.43-47.75 0-43.18-67.85-77-154.46-77S0 226.5 0 269.68c0 17.76 11.21 34.32 32.42 47.75a16.68 16.68 0 0 1 7.58 14V450H7.5a7.5 7.5 0 0 0-6.32 11.54l21.15 33.14A37.35 37.35 0 0 0 53.94 512h404.12a37.35 37.35 0 0 0 31.61-17.32l21.15-33.14a7.5 7.5 0 0 0 .26-7.64Zm-87.22-91.46a98.34 98.34 0 0 1 6.61 23.56 99.76 99.76 0 0 1 0 28.77 6.51 6.51 0 0 1-6.74 5.61c-.23 0-.45 0-.67-.06a6.55 6.55 0 0 1-5.55-7.42 85.55 85.55 0 0 0-10.19-54.65q8.58 1.85 16.54 4.19Zm-80.35-10.23a98.43 98.43 0 0 1 14.06 61.46 6.55 6.55 0 0 1-13-1.28 86.45 86.45 0 0 0-1.13-25 89 89 0 0 0-15.18-34.6q7.53-.46 15.25-.58Zm-69.73 9.69a97.84 97.84 0 0 1 7.55 23 100 100 0 0 1 1.32 28.73 6.54 6.54 0 0 1-6.51 5.92h-.66a6.57 6.57 0 0 1-5.88-7.15 86.84 86.84 0 0 0-.67-22.34v-26.71c1.6-.5 3.22-.99 4.85-1.45ZM15 269.68c0-15.28 14.12-30.68 38.75-42.37 26.78-12.66 62.55-19.63 100.72-19.63s73.93 7 100.71 19.63c24.63 11.65 38.75 27.09 38.75 42.37 0 8.62-4.42 21.71-25.48 35.09a31.43 31.43 0 0 0-14.52 26.68V450h-20.51V331.45a51.83 51.83 0 0 1 24-44c11-7 14.32-12.66 15.25-14.78a7.49 7.49 0 0 0 0-6c-2.52-5.85-12.1-15-31.42-23.14-23.55-9.92-54.39-15.38-86.82-15.38s-63.27 5.46-86.83 15.38c-19.32 8.14-28.9 17.28-31.42 23.14a7.45 7.45 0 0 0 0 6c.92 2.12 4.27 7.8 15.24 14.78a51.82 51.82 0 0 1 24 44V450H55V331.45a31.41 31.41 0 0 0-14.53-26.68C19.42 291.39 15 278.3 15 269.68Zm44.53 5.14a48.52 48.52 0 0 1-6.82-5.15c3.11-2.88 9.28-7.45 20.75-12.28 21.76-9.16 50.53-14.2 81-14.2s59.24 5 81 14.2c11.47 4.84 17.64 9.4 20.75 12.28a47.26 47.26 0 0 1-6.82 5.14 66.77 66.77 0 0 0-31 56.64V450H90.51V331.45a66.74 66.74 0 0 0-30.98-56.63ZM477 486.61A22.4 22.4 0 0 1 458 497H53.94a22.4 22.4 0 0 1-19-10.39L21.19 465h469.62ZM471.54 450H268.93v-16.68a21.56 21.56 0 0 0 5.18 1.16c.54 0 1.25.1 2 .1a21.5 21.5 0 0 0 21.44-19.45 114.61 114.61 0 0 0-1.53-33.06 112.39 112.39 0 0 0-7.48-23.85c7.07-1.52 14.38-2.75 21.87-3.71 7.1 8.06 15.21 20.18 18.23 35.77a71.15 71.15 0 0 1 .93 20.64 21.57 21.57 0 0 0 19.34 23.55c.71.07 1.42.11 2.13.11a21.46 21.46 0 0 0 21.42-19.45 113 113 0 0 0-11.71-62.68c9 .38 17.76 1.16 26.23 2.29 8.55 11 13.81 22.85 15.66 35.38a71.51 71.51 0 0 1 0 20.66 21.53 21.53 0 0 0 18.24 24.4 20.86 20.86 0 0 0 2.12.2h1a21.46 21.46 0 0 0 21.28-18.48 114.72 114.72 0 0 0 0-33.1 113.36 113.36 0 0 0-3.28-15.13c30 12.09 49.26 29.67 49.26 48.87-.03 13.94-10.32 25.14-19.72 32.46Zm-125-131.2a7.5 7.5 0 0 0 6.08-11.88c-5.39-7.51-7.66-14.27-6.75-20.08.52-3.27 1.87-5.55 3.59-8.42 2-3.39 4.55-7.61 5.53-13.71 1.54-9.56-1.54-19.77-9.14-30.33a7.5 7.5 0 1 0-12.17 8.76c5.2 7.23 7.38 13.68 6.5 19.19-.52 3.26-1.88 5.52-3.59 8.39-2 3.41-4.57 7.65-5.54 13.79-1.55 9.85 1.61 20.33 9.39 31.16a7.51 7.51 0 0 0 6.15 3.13Zm60-15a7.5 7.5 0 0 0 6.08-11.88c-5.39-7.51-7.66-14.27-6.75-20.08.52-3.27 1.87-5.55 3.59-8.42 2-3.39 4.55-7.61 5.53-13.71 1.54-9.56-1.54-19.77-9.14-30.33a7.5 7.5 0 1 0-12.17 8.76c5.2 7.23 7.38 13.68 6.5 19.19-.52 3.26-1.88 5.52-3.59 8.39-2 3.41-4.57 7.65-5.54 13.79-1.55 9.85 1.61 20.33 9.39 31.16a7.51 7.51 0 0 0 6.15 3.13Zm60 15a7.5 7.5 0 0 0 6.08-11.88c-5.39-7.51-7.66-14.27-6.75-20.08.52-3.27 1.87-5.55 3.59-8.42 2-3.39 4.55-7.61 5.53-13.71 1.54-9.56-1.54-19.77-9.14-30.33a7.5 7.5 0 1 0-12.17 8.76c5.2 7.23 7.38 13.68 6.5 19.19-.52 3.26-1.88 5.52-3.59 8.39-2 3.41-4.57 7.65-5.54 13.79-1.55 9.85 1.61 20.33 9.39 31.16a7.51 7.51 0 0 0 6.15 3.13Z"/></svg>