<?xml version="1.0" encoding="utf-8"?>
<!DOCTYPE svg PUBLIC "-//W3C//DTD SVG 20010904//EN" "http://www.w3.org/TR/2001/REC-SVG-20010904/DTD/svg10.dtd">
<svg version="1.0" xmlns="http://www.w3.org/2000/svg" width="599pt" height="602pt" viewBox="0 0 599 602" style="" preserveAspectRatio="xMidYMid meet">
<g fill="#000000FD" stroke="#000000FD">
<path d="M 98.441 83.418 C 96.636 84.736 96.465 86.557 96.000 109.486 L 95.500 134.137 98.310 137.009 C 101.040 139.798 101.454 139.890 112.659 140.190 C 119.004 140.361 124.404 140.163 124.657 139.750 C 124.911 139.338 133.191 139.000 143.059 139.000 L 161.000 139.000 161.000 168.477 L 161.000 197.953 123.250 198.274 C 102.488 198.450 84.809 198.810 83.965 199.074 C 81.633 199.803 81.500 203.862 81.500 274.145 C 81.500 348.502 80.768 343.000 90.655 343.000 L 96.000 343.000 96.000 351.809 C 96.000 357.370 96.461 361.184 97.250 362.153 C 97.938 362.998 101.763 365.818 105.750 368.421 C 109.738 371.024 113.000 373.539 113.000 374.011 C 113.000 374.482 110.563 378.107 107.585 382.066 C 100.122 391.987 93.578 403.866 89.867 414.229 C 88.148 419.030 86.355 422.719 85.882 422.427 C 85.410 422.135 85.294 422.603 85.626 423.467 C 85.957 424.330 85.705 427.114 85.066 429.653 C 84.427 432.191 83.650 436.120 83.339 438.384 C 83.029 440.648 82.474 442.617 82.107 442.760 C 81.739 442.903 81.591 447.591 81.778 453.178 C 82.296 468.621 79.951 467.554 112.676 467.234 L 139.852 466.968 141.006 472.528 C 142.874 481.527 149.419 493.390 156.500 500.612 C 159.945 504.125 162.592 507.056 162.382 507.125 C 162.172 507.194 162.338 507.326 162.750 507.420 C 163.163 507.513 167.339 509.473 172.030 511.774 C 181.699 516.517 194.827 519.516 201.388 518.480 C 207.969 517.441 217.211 514.967 221.000 513.230 C 237.229 505.791 250.744 489.257 254.248 472.556 L 255.416 466.986 321.379 467.243 L 387.342 467.500 388.604 473.000 C 393.047 492.372 408.883 509.835 426.756 515.073 C 429.097 515.759 430.814 516.519 430.572 516.762 C 430.030 517.303 438.878 518.286 445.000 518.365 C 465.012 518.620 485.544 506.325 495.708 488.000 C 498.888 482.267 502.217 473.084 502.396 469.552 C 502.486 467.775 503.256 467.460 508.137 467.203 C 515.629 466.809 517.492 464.813 517.523 457.145 C 517.536 454.040 516.713 448.429 515.694 444.677 C 514.676 440.924 514.127 437.112 514.474 436.207 C 514.821 435.302 514.793 434.874 514.411 435.256 C 514.029 435.638 511.713 431.853 509.264 426.844 C 505.534 419.213 503.343 416.281 495.749 408.751 L 486.685 399.765 483.329 384.132 C 481.484 375.535 475.930 349.150 470.988 325.500 C 466.046 301.850 461.776 281.519 461.500 280.320 C 461.002 278.163 461.158 278.137 476.466 277.820 C 489.711 277.546 492.190 277.243 493.717 275.714 C 495.317 274.112 495.500 271.725 495.500 252.500 C 495.500 233.275 495.317 230.888 493.717 229.286 C 492.174 227.741 489.663 227.458 475.090 227.186 L 458.246 226.871 457.739 222.686 C 457.460 220.384 456.009 209.950 454.513 199.500 C 452.202 183.356 451.468 180.199 449.628 178.497 C 448.281 177.251 442.844 175.385 435.232 173.556 L 423.000 170.617 423.000 164.919 C 423.000 160.872 422.466 158.562 421.156 156.944 C 418.649 153.848 413.351 153.848 410.844 156.944 C 409.217 158.954 409.000 161.181 409.000 175.888 C 409.000 195.011 409.618 197.000 415.557 197.000 C 420.300 197.000 423.000 194.098 423.000 189.000 C 423.000 186.800 423.113 185.008 423.250 185.017 C 424.217 185.083 438.239 188.914 438.463 189.173 C 438.619 189.353 439.711 196.250 440.890 204.500 C 442.069 212.750 443.310 221.188 443.648 223.250 L 444.262 227.000 437.131 227.000 L 430.000 227.000 430.000 221.047 C 430.000 211.361 425.642 204.140 417.512 200.354 C 412.625 198.078 411.777 198.019 383.449 198.010 L 354.398 198.000 349.699 190.227 C 347.115 185.952 345.000 182.196 345.000 181.879 C 345.000 181.563 350.963 182.363 358.250 183.657 C 365.538 184.951 372.481 185.781 373.680 185.503 C 378.941 184.282 379.001 183.937 378.988 154.679 C 378.979 134.756 378.607 126.114 377.594 122.310 C 372.526 103.274 356.440 88.478 337.000 84.971 C 325.854 82.960 312.719 85.458 302.282 91.575 C 296.018 95.246 287.864 103.902 284.207 110.763 C 278.926 120.672 278.000 126.188 278.000 147.758 L 278.000 167.095 280.507 169.419 C 282.818 171.560 282.883 171.851 281.342 173.121 C 280.422 173.880 278.141 176.884 276.274 179.797 C 273.393 184.291 271.070 191.964 260.939 230.441 C 254.373 255.382 249.000 276.876 249.000 278.206 C 249.000 280.821 252.290 285.000 254.349 285.000 C 255.109 285.000 256.034 287.309 256.653 290.750 C 257.221 293.913 258.030 297.288 258.450 298.250 C 259.146 299.844 258.405 300.000 250.107 300.000 L 241.000 300.000 241.000 251.174 L 241.000 202.349 238.686 200.174 C 236.415 198.041 235.799 198.000 206.293 198.000 C 178.573 198.000 176.160 197.863 175.531 196.250 C 175.155 195.288 174.972 170.109 175.123 140.298 C 175.384 88.711 175.308 85.998 173.544 84.048 C 171.741 82.057 170.701 82.000 136.036 82.000 C 106.846 82.000 100.030 82.257 98.441 83.418 M 227.000 285.000 L 227.000 329.000 161.000 329.000 L 95.000 329.000 95.000 285.667 C 95.000 261.833 95.300 242.033 95.667 241.667 C 96.033 241.300 125.733 241.000 161.667 241.000 L 227.000 241.000 227.000 285.000 M 321.785 352.528 L 322.069 361.555 314.935 366.979 C 304.914 374.598 299.598 380.275 296.341 386.839 C 293.803 391.951 293.529 393.518 293.515 403.000 C 293.501 412.615 293.748 414.005 296.445 419.500 C 298.072 422.814 302.120 428.298 305.488 431.750 L 311.586 438.000 343.860 438.000 C 374.141 438.000 376.101 438.108 375.584 439.750 C 375.089 441.323 373.000 451.742 373.000 452.636 C 373.000 452.836 349.825 453.000 321.500 453.000 C 293.175 453.000 270.000 452.738 270.000 452.418 C 270.000 452.098 271.521 449.961 273.379 447.668 C 280.637 438.716 284.000 428.626 284.000 415.800 C 284.000 392.965 269.380 374.050 246.663 367.493 C 241.659 366.048 237.098 365.869 214.663 366.237 C 189.720 366.647 188.080 366.794 179.500 369.384 C 143.384 380.287 117.794 409.183 111.901 445.715 L 110.726 453.000 103.363 453.000 L 96.000 453.000 96.000 448.068 C 96.000 440.532 101.490 420.873 106.454 410.637 C 114.062 394.947 118.340 389.527 141.886 365.744 L 164.416 342.988 242.958 343.244 L 321.500 343.500 321.785 352.528 M 249.000 382.599 C 251.475 383.753 255.767 386.746 258.538 389.250 C 278.194 407.015 273.260 438.542 249.046 449.899 L 243.500 452.500 184.250 452.780 L 125.000 453.061 125.000 450.690 C 125.000 446.562 128.936 432.734 131.936 426.322 C 140.024 409.040 154.568 394.605 171.739 386.819 C 185.359 380.643 189.770 380.026 218.500 380.275 C 242.543 380.483 244.839 380.658 249.000 382.599 M 387.329 245.869 C 386.229 255.160 391.122 264.067 399.700 268.388 C 401.461 269.275 403.888 270.000 405.095 270.000 C 406.303 270.000 409.249 271.238 411.643 272.750 L 415.996 275.500 415.998 290.088 L 416.000 304.676 411.500 313.679 C 403.291 330.101 402.656 333.956 402.236 369.951 L 401.869 401.401 398.300 404.486 L 394.732 407.571 383.616 396.196 L 372.500 384.822 372.000 340.661 C 371.430 290.354 371.686 291.924 362.447 282.047 C 356.012 275.168 348.646 271.798 338.750 271.206 C 334.488 270.951 331.000 270.320 331.000 269.803 C 331.000 268.973 334.320 255.323 337.093 244.750 L 338.077 241.000 362.991 241.000 L 387.906 241.000 387.329 245.869 M 462.413 404.047 C 474.941 407.918 488.109 418.277 495.042 429.716 C 498.682 435.722 502.931 446.990 502.974 450.750 L 503.000 453.000 445.000 453.000 C 378.742 453.000 385.445 454.175 388.872 443.165 C 395.452 422.023 413.774 405.931 435.763 401.979 C 442.316 400.802 455.128 401.796 462.413 404.047 M 445.738 277.817 C 446.418 278.249 448.138 284.205 449.559 291.051 C 453.280 308.980 455.345 318.778 460.506 343.000 C 467.655 376.551 470.455 390.879 469.958 391.362 C 469.706 391.607 465.900 390.905 461.500 389.803 C 451.890 387.396 435.168 387.729 425.500 390.521 C 414.457 393.710 415.477 396.045 415.661 368.000 C 415.849 339.214 416.883 333.643 425.002 317.663 L 430.000 307.826 430.000 292.979 L 430.000 278.133 432.750 277.716 C 437.718 276.964 444.477 277.016 445.738 277.817 M 301.622 179.763 C 299.464 183.938 298.692 191.143 299.917 195.690 C 300.516 197.917 306.164 208.792 312.468 219.858 L 323.929 239.977 320.895 251.738 C 319.226 258.207 317.424 265.188 316.891 267.250 L 315.923 271.000 290.461 271.000 C 276.458 271.000 265.003 270.663 265.006 270.250 C 265.012 269.534 267.672 259.248 273.474 237.500 C 274.941 232.000 278.174 219.643 280.657 210.041 C 283.141 200.438 285.993 190.988 286.995 189.041 C 289.127 184.896 293.275 180.762 297.500 178.569 C 302.173 176.144 303.322 176.477 301.622 179.763 M 349.090 288.500 C 351.516 290.209 354.337 293.436 355.646 296.000 C 357.927 300.468 357.944 300.783 357.972 340.250 L 358.000 380.000 346.500 380.000 L 335.000 380.000 334.985 342.250 C 334.976 321.488 334.639 304.005 334.235 303.400 C 332.235 300.404 328.679 300.000 304.316 299.996 C 281.189 299.993 279.275 299.855 276.190 297.974 C 272.869 295.950 270.000 290.861 270.000 286.997 C 270.000 284.940 270.171 284.932 307.415 285.215 L 344.831 285.500 349.090 288.500 M 335.079 99.015 C 341.848 100.299 347.509 103.032 352.826 107.583 C 359.861 113.605 359.154 114.000 341.329 114.000 C 320.893 114.000 322.000 113.029 322.000 130.964 C 322.000 140.839 322.373 145.128 323.348 146.462 C 324.178 147.596 332.350 150.881 344.598 155.003 L 364.500 161.700 364.807 165.850 C 365.095 169.731 364.947 170.000 362.515 170.000 C 361.086 170.000 356.672 169.352 352.708 168.561 C 346.269 167.275 335.707 165.497 302.500 160.112 L 292.500 158.490 292.500 141.995 C 292.500 126.224 292.617 125.251 295.160 119.825 C 300.167 109.145 310.020 101.254 321.050 99.092 C 327.279 97.870 328.994 97.861 335.079 99.015 M 227.000 219.500 L 227.000 227.000 161.000 227.000 L 95.000 227.000 95.000 220.167 C 95.000 216.408 95.300 213.033 95.667 212.667 C 96.033 212.300 125.733 212.000 161.667 212.000 L 227.000 212.000 227.000 219.500 M 161.777 110.224 C 162.051 124.819 162.033 124.953 159.777 125.506 C 158.524 125.813 146.925 125.937 134.000 125.782 L 110.500 125.500 110.220 111.548 C 110.067 103.875 110.168 97.004 110.446 96.281 C 110.848 95.232 116.068 95.020 136.225 95.233 L 161.500 95.500 161.777 110.224 M 327.732 182.525 C 328.930 183.364 333.356 189.900 337.567 197.050 C 341.779 204.200 346.045 210.489 347.047 211.025 C 348.049 211.561 355.873 212.000 364.434 212.000 L 380.000 212.000 380.000 219.500 L 380.000 227.000 356.105 227.000 L 332.210 227.000 322.605 209.981 C 316.577 199.300 313.000 191.880 313.000 190.057 C 313.000 188.392 314.104 185.841 315.589 184.077 C 317.618 181.665 318.975 181.000 321.866 181.000 C 323.895 181.000 326.535 181.686 327.732 182.525 M 321.792 321.750 L 321.500 329.500 281.500 329.500 L 241.500 329.500 241.208 321.750 L 240.916 314.000 281.500 314.000 L 322.084 314.000 321.792 321.750 M 370.731 403.230 L 380.000 412.460 380.000 418.230 L 380.000 424.000 358.000 424.000 L 336.000 424.000 336.000 409.000 L 336.000 394.000 348.731 394.000 L 361.462 394.000 370.731 403.230 M 460.000 252.500 L 460.000 264.000 442.500 264.000 C 432.875 264.000 425.000 263.789 425.000 263.531 C 425.000 263.273 426.013 261.135 427.250 258.781 C 428.973 255.502 429.482 252.920 429.423 247.750 L 429.347 241.000 444.673 241.000 L 460.000 241.000 460.000 252.500 M 321.770 401.750 C 321.507 422.950 321.447 423.508 319.410 423.799 C 316.930 424.153 310.548 417.557 308.403 412.422 C 306.208 407.168 306.637 398.321 309.373 392.447 C 311.439 388.009 319.033 380.076 321.270 380.020 C 321.693 380.009 321.918 389.788 321.770 401.750 M 143.000 343.731 C 143.000 344.672 124.770 363.000 123.834 363.000 C 123.446 363.000 120.287 361.058 116.814 358.685 L 110.500 354.369 110.200 348.685 L 109.900 343.000 126.450 343.000 C 135.553 343.000 143.000 343.329 143.000 343.731 M 364.786 137.433 L 364.500 146.865 350.500 142.148 L 336.500 137.431 336.195 132.716 L 335.890 128.000 350.481 128.000 L 365.072 128.000 364.786 137.433 M 413.545 214.455 C 415.503 216.412 416.000 217.931 416.000 221.955 L 416.000 227.000 405.000 227.000 L 394.000 227.000 394.000 219.500 L 394.000 212.000 402.545 212.000 C 410.285 212.000 411.322 212.231 413.545 214.455 M 413.365 243.073 C 416.434 245.487 416.914 250.250 414.443 253.777 C 412.290 256.851 405.889 256.870 403.039 253.811 C 396.637 246.940 405.958 237.246 413.365 243.073 M 481.787 253.087 L 481.500 263.500 477.750 263.810 L 474.000 264.121 474.000 253.124 L 474.000 242.127 477.250 241.794 C 479.038 241.610 480.854 241.734 481.287 242.067 C 481.720 242.401 481.945 247.360 481.787 253.087 M 210.000 467.911 C 210.000 469.704 203.874 473.933 200.307 474.602 C 198.151 475.007 195.216 474.771 193.087 474.022 C 189.449 472.743 185.000 469.334 185.000 467.826 C 185.000 467.372 190.625 467.000 197.500 467.000 C 204.375 467.000 210.000 467.410 210.000 467.911 M 457.000 467.911 C 457.000 469.517 451.149 473.808 448.024 474.495 C 446.361 474.860 443.639 474.860 441.976 474.495 C 438.851 473.808 433.000 469.517 433.000 467.911 C 433.000 467.410 438.400 467.000 445.000 467.000 C 451.600 467.000 457.000 467.410 457.000 467.911 M 410.528 467.747 C 406.568 467.948 403.226 468.620 402.793 469.301 C 402.276 470.114 402.026 469.937 402.015 468.750 C 402.002 467.216 402.956 467.024 409.750 467.196 L 417.500 467.392 410.528 467.747 M 232.843 467.916 C 228.631 468.237 225.395 468.163 225.652 467.750 C 225.908 467.338 229.354 467.075 233.309 467.166 L 240.500 467.331 232.843 467.916 M 169.348 467.750 C 169.605 468.163 166.369 468.237 162.157 467.916 L 154.500 467.331 161.691 467.166 C 165.646 467.075 169.092 467.338 169.348 467.750 "/></g>
<g fill="#85DDFCFD" stroke="#85DDFCFD">
<path d="M 283.000 62.754 C 268.652 63.836 231.848 70.969 229.550 73.113 C 229.028 73.601 227.678 74.015 226.550 74.034 C 225.423 74.053 222.700 74.937 220.500 76.000 C 218.300 77.063 215.931 77.947 215.236 77.966 C 214.541 77.985 213.191 78.434 212.236 78.965 C 211.281 79.496 208.250 80.873 205.500 82.026 C 198.402 85.001 194.687 86.842 184.750 92.312 L 176.000 97.127 176.000 147.064 L 176.000 197.000 205.550 197.000 C 237.387 197.000 240.068 197.390 241.359 202.210 C 241.697 203.469 241.979 225.763 241.986 251.750 L 242.000 299.000 249.882 299.000 L 257.764 299.000 256.426 295.250 C 255.690 293.188 255.065 290.375 255.038 289.000 C 255.004 287.306 254.034 285.957 252.030 284.817 C 246.287 281.550 245.934 283.900 260.552 228.000 C 262.350 221.125 265.406 209.425 267.344 202.000 C 271.555 185.862 272.815 182.705 277.491 176.579 L 281.065 171.898 279.032 169.314 C 277.157 166.930 277.001 165.327 277.017 148.615 C 277.037 127.751 278.303 119.964 283.153 110.865 C 294.003 90.507 318.169 79.149 339.304 84.473 C 354.251 88.238 368.303 98.917 374.210 111.000 C 379.522 121.866 380.256 126.592 380.744 153.046 C 381.238 179.809 380.594 184.080 375.798 185.871 C 374.343 186.414 368.786 186.024 360.642 184.806 C 353.570 183.748 347.553 183.113 347.272 183.395 C 346.990 183.677 348.550 186.741 350.740 190.204 L 354.720 196.500 382.928 196.766 L 411.135 197.031 409.568 194.793 C 408.293 192.973 408.000 189.366 408.000 175.466 C 408.000 159.651 408.152 158.214 410.039 156.189 C 411.447 154.678 413.256 154.000 415.884 154.000 C 421.229 154.000 423.270 156.586 423.809 164.037 C 424.046 167.317 424.299 170.001 424.370 170.003 C 424.442 170.004 429.830 171.316 436.345 172.917 C 451.552 176.656 452.330 177.362 453.832 188.776 C 455.414 200.800 457.677 216.664 458.524 221.666 L 459.229 225.832 475.589 226.166 C 498.068 226.625 496.500 224.651 496.500 252.500 C 496.500 280.187 497.848 278.373 476.931 278.823 C 463.437 279.113 461.960 279.316 462.394 280.823 C 462.660 281.745 464.278 289.250 465.990 297.500 C 467.701 305.750 470.031 316.775 471.166 322.000 C 472.302 327.225 474.040 335.550 475.029 340.500 C 476.017 345.450 478.228 356.025 479.941 364.000 C 484.012 382.949 486.091 392.845 486.729 396.320 C 487.425 400.106 504.971 417.606 506.226 415.766 C 507.497 413.902 518.000 392.214 518.000 391.453 C 518.000 391.095 518.621 389.384 519.380 387.651 C 526.143 372.211 531.035 353.453 534.545 329.500 C 535.798 320.951 536.051 313.487 535.680 296.000 C 534.931 260.687 530.330 237.703 518.264 209.000 C 514.611 200.311 502.285 175.902 501.094 175.000 C 500.731 174.725 498.899 172.073 497.021 169.107 C 492.834 162.491 481.327 147.366 476.250 141.805 C 438.757 100.739 393.518 75.673 338.500 65.479 C 325.850 63.135 296.839 61.711 283.000 62.754 "/></g>
<g fill="#F05901FD" stroke="#F05901FD">
<path d="M 96.667 242.667 C 96.300 243.033 96.000 262.383 96.000 285.667 L 96.000 328.000 161.000 328.000 L 226.000 328.000 226.000 285.000 L 226.000 242.000 161.667 242.000 C 126.283 242.000 97.033 242.300 96.667 242.667 M 137.545 265.455 C 139.769 267.678 140.000 268.715 140.000 276.455 L 140.000 285.000 161.000 285.000 L 182.000 285.000 182.000 277.450 C 182.000 269.574 183.583 264.758 186.545 263.621 C 189.550 262.468 192.717 262.989 195.365 265.073 C 197.991 267.138 198.000 267.191 198.000 281.398 C 198.000 295.425 197.959 295.690 195.421 298.076 L 192.842 300.500 162.989 300.792 C 122.276 301.190 123.618 301.921 124.177 279.659 C 124.481 267.564 124.637 266.708 126.861 264.909 C 130.149 262.250 134.567 262.476 137.545 265.455 "/></g>
<g fill="#85DDFCFD" stroke="#85DDFCFD">
<path d="M 255.050 473.243 C 251.667 486.600 243.103 499.650 232.836 507.094 C 225.321 512.543 221.817 514.330 214.437 516.475 C 211.408 517.356 209.189 518.497 209.507 519.011 C 209.824 519.524 211.978 520.486 214.292 521.148 C 216.606 521.809 218.950 522.659 219.500 523.036 C 220.442 523.683 229.257 526.355 240.500 529.402 C 252.423 532.634 257.432 533.474 280.500 536.114 C 292.953 537.539 319.611 536.739 334.500 534.494 C 356.556 531.168 379.115 524.304 398.740 514.947 L 410.981 509.111 403.740 501.769 C 395.833 493.751 390.882 485.255 388.016 474.785 L 386.296 468.500 321.339 468.243 L 256.382 467.986 255.050 473.243 "/></g>
<g fill="#FC2829FD" stroke="#FC2829FD">
<path d="M 183.500 383.831 C 160.193 390.994 144.245 404.422 134.013 425.500 C 129.973 433.822 126.000 446.459 126.000 450.985 C 126.000 451.764 142.686 451.994 184.273 451.788 L 242.546 451.500 249.208 448.219 C 257.422 444.175 264.071 437.084 267.041 429.202 C 270.090 421.110 269.505 407.708 265.787 400.500 C 262.400 393.933 255.836 387.558 249.007 384.205 C 243.502 381.501 243.489 381.500 218.000 381.283 C 192.689 381.067 192.433 381.086 183.500 383.831 M 188.545 396.455 C 190.918 398.827 190.999 399.371 190.968 412.705 C 190.935 427.081 190.550 428.581 186.316 430.837 C 182.939 432.635 181.094 432.248 177.923 429.077 L 175.000 426.154 175.000 412.531 C 175.000 399.402 175.089 398.820 177.455 396.455 C 179.002 394.907 181.052 394.000 183.000 394.000 C 184.948 394.000 186.998 394.907 188.545 396.455 M 217.365 396.073 C 219.994 398.140 220.000 398.181 220.000 412.534 C 220.000 426.129 219.877 427.037 217.770 429.000 C 214.582 431.969 211.411 432.499 208.448 430.558 C 204.547 428.002 203.826 424.645 204.177 410.659 C 204.481 398.564 204.637 397.708 206.861 395.909 C 209.939 393.420 214.075 393.484 217.365 396.073 M 246.927 396.635 C 248.791 399.003 249.000 400.627 249.000 412.701 C 249.000 420.088 248.567 426.940 248.038 427.929 C 246.409 430.973 241.629 432.411 238.354 430.840 C 233.913 428.711 233.031 425.716 233.015 412.700 C 232.995 397.127 234.328 394.262 241.677 394.079 C 243.977 394.022 245.428 394.728 246.927 396.635 "/></g>
<g fill="#FC2829FD" stroke="#FC2829FD">
<path d="M 143.860 364.744 C 132.579 376.160 120.980 388.875 118.083 393.000 C 108.170 407.115 101.141 423.518 98.490 438.719 C 96.085 452.509 95.897 452.000 103.406 452.000 L 109.812 452.000 110.523 446.750 C 112.390 432.963 119.070 416.345 127.508 404.500 C 132.402 397.629 144.381 385.808 151.000 381.317 C 170.403 368.152 192.861 363.120 227.060 364.274 C 240.205 364.717 243.738 365.187 249.824 367.304 C 263.956 372.219 274.535 381.634 280.855 394.921 C 284.102 401.748 284.419 403.241 284.815 413.588 C 285.345 427.431 283.329 435.164 276.561 445.250 L 272.032 452.000 321.878 452.000 L 371.724 452.000 372.862 446.333 C 373.488 443.216 374.000 440.291 374.000 439.833 C 374.000 439.375 359.783 439.000 342.407 439.000 L 310.815 439.000 304.643 432.750 C 301.210 429.273 297.147 423.838 295.486 420.500 C 292.692 414.886 292.500 413.760 292.500 403.000 C 292.500 392.351 292.706 391.109 295.285 386.214 C 298.966 379.228 303.818 373.990 313.282 366.785 L 321.078 360.850 320.789 352.675 L 320.500 344.500 242.435 344.244 L 164.370 343.988 143.860 364.744 "/></g>
<g fill="#85DDFCFD" stroke="#85DDFCFD">
<path d="M 338.513 243.750 C 337.764 245.621 332.000 268.042 332.000 269.085 C 332.000 269.427 335.488 270.001 339.750 270.360 C 349.299 271.165 356.103 274.281 362.545 280.799 C 372.758 291.131 372.972 292.381 373.012 342.000 L 373.046 383.500 384.160 394.806 L 395.275 406.111 398.137 403.368 L 401.000 400.626 401.020 373.563 C 401.031 358.678 401.478 343.470 402.013 339.767 C 403.205 331.529 407.977 317.474 412.008 310.332 C 414.947 305.125 415.000 304.773 415.000 290.634 L 415.000 276.237 411.567 273.619 C 409.678 272.178 406.963 271.000 405.533 271.000 C 404.103 271.000 400.701 269.868 397.971 268.485 C 390.172 264.533 385.177 255.020 386.362 246.375 L 386.962 242.000 363.088 242.000 C 341.284 242.000 339.153 242.152 338.513 243.750 "/></g>
<g fill="#FC2829FD" stroke="#FC2829FD">
<path d="M 430.000 404.434 C 417.598 407.895 404.662 417.227 397.652 427.772 C 393.790 433.581 388.000 447.471 388.000 450.926 C 388.000 451.679 405.064 452.000 445.019 452.000 L 502.038 452.000 501.429 449.250 C 496.390 426.488 479.291 408.642 458.201 404.133 C 451.331 402.664 435.747 402.831 430.000 404.434 "/></g>
<g fill="#FC2829FD" stroke="#FC2829FD">
<path d="M 431.000 294.047 L 431.000 309.094 427.063 316.297 C 424.898 320.259 421.882 327.100 420.363 331.500 C 417.670 339.295 417.589 340.176 417.201 365.895 C 416.818 391.262 416.874 392.260 418.651 391.525 C 429.169 387.172 448.476 385.740 460.932 388.388 C 465.020 389.257 468.503 389.830 468.673 389.661 C 468.842 389.491 467.371 381.736 465.404 372.426 C 460.995 351.561 448.317 291.403 446.822 284.250 L 445.724 279.000 438.362 279.000 L 431.000 279.000 431.000 294.047 "/></g>
<g fill="#85DDFCFD" stroke="#85DDFCFD">
<path d="M 78.504 213.250 C 78.266 213.938 77.350 216.525 76.469 219.000 C 75.588 221.475 74.635 224.400 74.350 225.500 C 74.066 226.600 73.450 228.400 72.981 229.500 C 71.372 233.277 66.059 256.503 65.432 262.500 C 65.087 265.800 64.624 268.795 64.403 269.155 C 62.246 272.661 61.998 318.250 64.075 329.426 C 64.491 331.667 65.574 337.775 66.481 343.000 C 68.352 353.776 69.681 358.907 74.641 374.500 C 78.754 387.434 79.108 388.328 85.068 400.850 L 89.635 410.446 94.863 400.473 C 97.737 394.988 102.770 386.902 106.045 382.504 C 109.320 378.107 112.000 374.282 111.999 374.004 C 111.998 373.727 108.591 371.272 104.426 368.549 C 100.262 365.826 96.438 362.818 95.927 361.865 C 95.417 360.911 95.000 356.502 95.000 352.066 L 95.000 344.000 90.000 344.000 C 86.333 344.000 84.467 343.467 83.000 342.000 C 81.042 340.042 81.000 338.667 81.000 276.000 C 81.000 232.702 80.666 212.000 79.969 212.000 C 79.401 212.000 78.742 212.563 78.504 213.250 "/></g>
<g fill="#85DDFCFD" stroke="#85DDFCFD">
<path d="M 121.384 143.250 C 116.789 148.335 107.802 159.908 103.328 166.500 C 96.862 176.030 86.000 194.811 86.000 196.463 C 86.000 196.772 102.763 196.906 123.250 196.762 L 160.500 196.500 160.766 168.250 L 161.031 140.000 142.676 140.000 L 124.321 140.000 121.384 143.250 "/></g>
<g fill="#F05901FD" stroke="#F05901FD">
<path d="M 299.000 178.820 C 295.642 179.873 290.028 185.310 288.024 189.450 C 286.851 191.874 281.633 210.202 276.430 230.179 C 271.226 250.155 266.718 267.295 266.411 268.268 C 265.887 269.930 267.326 270.019 290.580 269.768 L 315.305 269.500 319.043 254.725 L 322.780 239.949 310.867 219.177 C 297.679 196.183 296.428 192.350 299.107 183.140 C 300.335 178.918 300.322 178.405 299.000 178.820 "/></g>
<g fill="#F05901FD" stroke="#F05901FD">
<path d="M 271.398 289.250 C 271.754 291.038 273.393 293.850 275.040 295.500 L 278.034 298.500 304.991 299.000 C 331.384 299.490 331.996 299.548 334.224 301.777 C 336.500 304.053 336.500 304.059 336.796 341.527 L 337.091 379.000 347.046 379.000 L 357.000 379.000 356.978 340.250 C 356.958 304.716 356.803 301.168 355.110 297.500 C 352.876 292.659 349.710 289.612 344.768 287.548 C 341.663 286.250 335.378 286.000 305.907 286.000 L 270.750 286.000 271.398 289.250 "/></g>
<g fill="#F05901FD" stroke="#F05901FD">
<path d="M 320.746 100.025 C 310.440 102.621 300.941 110.350 296.205 119.993 C 293.607 125.281 293.500 126.135 293.500 141.499 L 293.500 157.498 324.058 162.606 C 340.865 165.416 356.759 168.037 359.377 168.429 L 364.137 169.143 363.819 165.822 L 363.500 162.500 344.310 155.959 C 333.756 152.362 324.193 148.580 323.060 147.554 C 321.162 145.837 321.003 144.579 321.032 131.595 C 321.066 116.401 321.500 114.901 326.397 113.039 C 327.900 112.468 334.951 112.000 342.065 112.000 C 349.179 112.000 355.000 111.642 355.000 111.205 C 355.000 110.046 346.120 103.695 341.726 101.712 C 337.135 99.641 325.869 98.734 320.746 100.025 "/></g>
<g fill="#F05901FD" stroke="#F05901FD">
<path d="M 96.000 219.500 L 96.000 226.000 161.000 226.000 L 226.000 226.000 226.000 219.500 L 226.000 213.000 161.000 213.000 L 96.000 213.000 96.000 219.500 "/></g>
<g fill="#000000FD" stroke="#000000FD">
<path d="M 127.073 266.635 C 125.223 268.986 125.000 270.636 125.000 281.961 C 125.000 294.310 125.069 294.717 127.581 297.076 L 130.161 299.500 161.476 299.500 C 190.866 299.500 192.919 299.383 194.895 297.595 C 196.842 295.833 197.000 294.650 197.000 281.845 C 197.000 269.333 196.807 267.807 195.000 266.000 C 192.385 263.385 187.822 263.435 185.405 266.104 C 183.903 267.763 183.426 270.091 183.150 277.123 L 182.800 286.038 161.150 285.769 L 139.500 285.500 139.000 276.166 C 138.586 268.436 138.167 266.589 136.559 265.416 C 133.448 263.147 129.408 263.666 127.073 266.635 "/></g>
<g fill="#F05901FD" stroke="#F05901FD">
<path d="M 111.000 110.500 L 111.000 124.000 136.000 124.000 L 161.000 124.000 161.000 110.500 L 161.000 97.000 136.000 97.000 L 111.000 97.000 111.000 110.500 "/></g>
<g fill="#F05901FD" stroke="#F05901FD">
<path d="M 316.455 184.455 C 315.015 185.894 314.000 188.069 314.000 189.714 C 314.000 191.403 317.697 199.078 323.294 209.010 L 332.588 225.500 355.794 225.768 L 379.000 226.037 379.000 219.518 L 379.000 213.000 363.723 213.000 C 351.496 213.000 348.000 212.688 346.217 211.439 C 344.991 210.581 340.793 204.479 336.887 197.879 C 332.982 191.279 328.850 185.006 327.705 183.940 C 324.734 181.172 319.498 181.411 316.455 184.455 "/></g>
<g fill="#8C8989FD" stroke="#8C8989FD">
<path d="M 336.000 409.000 L 336.000 423.000 357.500 423.000 L 379.000 423.000 379.000 417.729 L 379.000 412.458 370.230 403.729 L 361.460 395.000 348.730 395.000 L 336.000 395.000 336.000 409.000 "/></g>
<g fill="#FD0100FD" stroke="#FD0100FD">
<path d="M 242.014 319.750 C 242.021 321.813 242.299 324.513 242.630 325.750 L 243.233 328.000 281.617 328.000 L 320.000 328.000 320.000 322.000 L 320.000 316.000 281.000 316.000 L 242.000 316.000 242.014 319.750 "/></g>
<g fill="#FC2829FD" stroke="#FC2829FD">
<path d="M 430.978 247.722 C 430.964 251.301 430.203 255.159 428.978 257.859 C 427.890 260.257 427.000 262.394 427.000 262.609 C 427.000 262.824 434.216 263.000 443.035 263.000 L 459.070 263.000 458.785 252.750 L 458.500 242.500 444.750 242.222 L 431.000 241.944 430.978 247.722 "/></g>
<g fill="#85DDFCFD" stroke="#85DDFCFD">
<path d="M 424.000 189.477 C 424.000 193.100 420.710 198.000 418.277 198.000 C 417.400 198.000 418.483 199.292 420.719 200.911 C 427.714 205.979 431.000 212.254 431.000 220.547 L 431.000 226.000 437.000 226.000 C 440.300 226.000 442.997 225.663 442.994 225.250 C 442.991 224.838 442.531 221.800 441.971 218.500 C 441.412 215.200 440.288 207.572 439.475 201.548 C 438.661 195.524 437.659 190.299 437.248 189.937 C 436.837 189.574 433.688 188.590 430.250 187.750 L 424.000 186.223 424.000 189.477 "/></g>
<g fill="#000000FD" stroke="#000000FD">
<path d="M 207.455 397.455 C 205.121 399.788 205.000 400.502 205.000 411.907 C 205.000 418.746 205.489 424.980 206.138 426.403 C 208.288 431.123 215.556 431.566 217.935 427.122 C 218.532 426.006 219.000 419.410 219.000 412.105 C 219.000 399.992 218.847 398.935 216.811 397.039 C 213.886 394.313 210.443 394.466 207.455 397.455 "/></g>
<g fill="#000000FD" stroke="#000000FD">
<path d="M 236.861 396.909 C 234.635 398.709 234.481 399.561 234.173 411.765 C 233.860 424.195 233.942 424.821 236.229 427.480 C 239.221 430.958 243.615 431.194 246.190 428.014 C 247.735 426.105 248.000 423.821 248.000 412.389 C 248.000 400.333 247.801 398.801 246.000 397.000 C 243.480 394.480 239.909 394.444 236.861 396.909 "/></g>
<g fill="#000000FD" stroke="#000000FD">
<path d="M 177.999 397.728 C 176.005 400.263 175.876 401.401 176.177 413.811 C 176.464 425.661 176.719 427.325 178.441 428.583 C 181.211 430.605 185.667 430.333 188.000 428.000 C 189.793 426.207 190.000 424.667 190.000 413.135 C 190.000 401.634 189.780 399.990 187.927 397.635 C 185.111 394.054 180.858 394.094 177.999 397.728 "/></g>
<g fill="#85DDFCFD" stroke="#85DDFCFD">
<path d="M 316.368 384.750 C 310.430 390.207 308.717 393.737 308.215 401.550 C 307.828 407.581 308.115 409.606 309.871 413.233 C 312.535 418.736 317.338 423.468 319.440 422.661 C 320.781 422.147 321.000 419.255 321.000 402.031 C 321.000 391.014 320.631 382.000 320.180 382.000 C 319.729 382.000 318.014 383.238 316.368 384.750 "/></g>
<g fill="#8C8989FD" stroke="#8C8989FD">
<path d="M 336.000 132.363 L 336.000 136.726 345.750 139.983 C 364.188 146.142 364.023 146.103 364.660 144.444 C 364.974 143.625 364.916 139.591 364.530 135.478 L 363.829 128.000 349.915 128.000 L 336.000 128.000 336.000 132.363 "/></g>
<g fill="#85DDFCFD" stroke="#85DDFCFD">
<path d="M 111.000 348.883 L 111.000 353.765 117.567 358.044 L 124.134 362.322 132.567 353.933 C 137.205 349.319 141.000 345.197 141.000 344.772 C 141.000 344.347 134.250 344.000 126.000 344.000 L 111.000 344.000 111.000 348.883 "/></g>
<g fill="#8C8989FD" stroke="#8C8989FD">
<path d="M 475.000 252.500 L 475.000 263.000 478.000 263.000 L 481.000 263.000 481.000 252.500 L 481.000 242.000 478.000 242.000 L 475.000 242.000 475.000 252.500 "/></g>
<g fill="#FD0100FD" stroke="#FD0100FD">
<path d="M 404.571 244.571 C 402.450 246.693 402.585 251.315 404.829 253.345 C 408.838 256.973 415.000 253.997 415.000 248.432 C 415.000 243.809 407.946 241.197 404.571 244.571 "/></g>
<g fill="#FC2829FD" stroke="#FC2829FD">
<path d="M 281.250 315.744 L 320.000 316.023 320.217 322.012 L 320.433 328.000 320.467 321.750 L 320.500 315.500 281.500 315.482 L 242.500 315.464 281.250 315.744 "/></g>
<g fill="#4D1000FD" stroke="#4D1000FD">
<path d="M 136.155 80.974 C 154.666 81.263 169.602 81.163 169.346 80.750 C 169.091 80.338 153.946 80.101 135.691 80.224 L 102.500 80.448 136.155 80.974 "/></g>
<g fill="#85DDFCFD" stroke="#85DDFCFD">
<path d="M 135.985 471.485 C 137.843 473.402 139.549 474.784 139.777 474.557 C 140.004 474.329 139.887 472.761 139.516 471.072 C 138.939 468.444 138.390 468.000 135.724 468.000 L 132.608 468.000 135.985 471.485 "/></g>
</svg>
