<svg class="svg-standalone-icon" width="100%" viewBox="200.57871983202872 115.00000000000001 148.84256033594252 139.73836817288242"><g data-paper-data="{&quot;isIcon&quot;:&quot;true&quot;,&quot;iconType&quot;:&quot;icon&quot;,&quot;rawIconId&quot;:&quot;56886&quot;,&quot;selectedEffects&quot;:{&quot;container&quot;:&quot;enclosed_circle_outline3&quot;,&quot;transformation&quot;:&quot;&quot;,&quot;pattern&quot;:&quot;&quot;},&quot;isDetailed&quot;:false,&quot;fillRule&quot;:&quot;evenodd&quot;,&quot;blockLetter&quot;:&quot;O&quot;,&quot;blockLetterId&quot;:0,&quot;relativeBoundsIconToContainer&quot;:{&quot;top&quot;:-0.022569392485293504,&quot;left&quot;:0},&quot;widthRatioIconToContainer&quot;:1,&quot;heightRatioIconToContainer&quot;:0.39073281523824716,&quot;bounds&quot;:{&quot;x&quot;:200.57871983202872,&quot;y&quot;:115.00000000000001,&quot;width&quot;:148.84256033594252,&quot;height&quot;:139.73836817288242},&quot;iconStyle&quot;:&quot;standalone&quot;,&quot;suitableAsStandaloneIcon&quot;:true}" fill-rule="evenodd"><path d="M320.72287,173.26314c17.73659,2.8144 28.18962,8.83735 28.67986,16.52484c0.38763,6.04575 -5.29329,10.3553 -17.36851,13.53128c-9.28362,2.44143 -22.64876,4.0229 -40.86094,5.18742c-8.10509,0.51988 -15.10265,0.51337 -21.31323,0.50766c-0.63862,-0.00049 -1.26876,-0.00114 -1.89093,-0.00114h-0.00326c-24.68139,0 -36.4276,-3.57989 -36.9667,-11.99867c-0.10098,-1.56844 0.25245,-2.78183 0.98863,-4.31118c-20.87836,-0.23453 -30.88675,-4.65809 -31.38514,-12.44168c-0.49024,-7.68912 6.52134,-13.9238 23.75628,-18.96789c0.72314,-0.21336 1.36649,-0.01466 1.7362,0.64496c0.06352,0.11401 0.11238,0.21336 0.14658,0.33551c1.29808,-1.42349 3.08802,-2.01959 3.18249,-2.05054c6.40569,-2.09451 15.01828,-4.27046 21.97937,-4.8568c0.72803,-0.06026 3.59455,0.12378 3.85189,0.7948c0.09283,0.23616 0.31434,1.09774 0.29317,1.33879c0.62379,-0.36972 2.40559,-1.42838 3.09617,-1.7248c0,0 2.9561,-1.16289 3.11571,-1.16941c8.12724,-0.36158 11.84557,-0.23453 19.1552,0.59122c1.12381,0.12704 3.22646,0.33388 3.35025,0.83716c0.09609,0.38763 0.20196,1.89744 0,2.2183c0.18893,-0.06189 2.3437,-1.08797 4.31118,-1.5489c1.15964,-0.27037 4.11411,-0.2948 4.27046,-0.26548c16.16326,2.97402 25.70096,8.83898 26.16514,16.0916c0.00684,0.1057 0,0.21858 -0.00684,0.33095c-0.0044,0.07296 -0.0088,0.14577 -0.00944,0.21629c0.84041,0.08143 1.50655,0.14984 1.72642,0.18567zM270.91057,173.40973c0.08306,-0.60262 0.44464,-3.28184 0.58471,-3.89423c1.6173,-5.9008 7.47575,-10.99213 7.47738,-10.99213l0.64496,-0.47395c-5.57668,-0.40229 -11.48562,-0.47884 -17.47437,-0.22151c0,0 -3.461,0.63519 -5.26071,1.72317c-1.79971,1.08797 -3.09942,2.00982 -5.277,5.14996c-2.17758,3.14014 -2.45446,5.81122 -2.54078,6.23142c-0.2557,0.90393 -1.62219,7.1321 -2.82255,7.1321h-0.00326c-1.32088,0 -1.83392,-2.85675 -1.70851,-5.07504c0.12541,-2.2183 2.17758,-9.33573 3.05545,-10.86509c0.87787,-1.52935 2.14338,-2.76554 2.2639,-2.9105c0.12378,-0.14821 0.25245,-0.29643 0.386,-0.44464c-5.01641,0.57982 -9.89275,1.38603 -14.54922,2.40559l-8.27871,2.94144c0,0 -2.88769,4.14505 -3.51638,6.02783c-0.62868,1.88278 -0.80458,6.58811 -1.04726,7.36826c-0.24268,0.78015 -0.4202,2.18246 -1.58799,2.18246h-0.00163c-1.17935,0 -1.02852,-3.70726 -0.90246,-6.80115c0.00733,-0.17883 0.0145,-0.35571 0.02134,-0.52966c0.12541,-3.18249 1.89744,-7.20702 2.0424,-7.42689c-11.91398,4.28512 -18.90926,9.82923 -18.58189,14.95965c0.36646,5.72815 10.17777,8.84224 29.16684,9.25918c5.70372,-6.57996 20.79693,-12.55894 37.90972,-15.74632zM292.49742,159.66672c-0.06189,0.00651 -0.10749,0.01466 -0.1531,0.0228c0,0 -5.39427,-0.67754 -10.13217,2.41699c-3.60758,2.35837 -6.62068,8.17609 -7.84384,10.68756c4.52617,-0.6808 9.17449,-1.17592 13.8505,-1.47398c9.53118,-0.61076 18.95975,-0.3974 27.45182,0.62054c-1.12381,-5.14019 -9.83738,-9.78526 -23.17321,-12.27391zM290.96643,205.26556c18.00044,-1.15149 31.16363,-2.51798 40.24366,-4.90566c10.19732,-2.68085 15.23165,-6.16953 14.96128,-10.36345c-0.32574,-5.12879 -7.96762,-9.73639 -20.33437,-12.47262c0.19707,0.22965 2.79648,4.11736 2.92352,4.38447c2.84372,5.93337 1.40394,10.30644 0.12216,10.25758c0,0 -4.5392,-8.66797 -7.93342,-12.18759c0,0 -3.50334,-3.28184 -5.01967,-3.67273c-1.51633,-0.39089 -3.50171,-0.76223 -3.60921,-0.78992c0,0 -9.7706,-0.62542 -14.85541,-0.5619c0.14984,0.12704 4.17437,4.4203 4.17437,4.4203c0.62705,0.77526 2.23295,3.71833 2.23295,3.71833c0.3404,0.71011 0.69383,1.44303 0.91533,2.23133c0.62054,2.72156 0.38275,8.40737 -0.8567,8.5279c-0.54383,0.05081 -1.59483,-1.95982 -2.93998,-4.53269c-1.54711,-2.95968 -3.48331,-6.66319 -5.48369,-8.82921c-3.73951,-4.04896 -7.14024,-4.74279 -7.81127,-4.93172l-2.16292,-0.0228c-6.01318,0.50979 -11.81299,1.32902 -17.30824,2.44306l0.70034,0.38437c0.79806,0.43487 6.55716,4.5848 7.81941,6.42361c5.93011,8.94973 2.77857,13.95474 2.21667,14.09644c0,0 -0.97234,-2.25575 -1.85184,-3.44308c0,0 -1.42512,-4.04733 -4.33887,-7.2852c-7.06044,-6.87476 -10.61264,-8.53441 -13.57525,-8.54744c-0.23616,-0.00081 -1.8147,0.53324 -3.19682,1.00068c-1.33163,0.4505 -2.48084,0.83911 -2.07106,0.62835c-13.0557,6.53371 -20.04837,10.11832 -19.6969,15.56031c0.39577,6.1793 11.74622,8.95787 33.73535,8.95787h0.00326c0.70327,0 1.41681,0.00081 2.14126,0.00179c6.08142,0.00749 12.93029,0.01596 20.85605,-0.49041zM225.59684,135.46417c6.44594,-6.44591 13.84859,-11.43676 22.20794,-14.97253c8.65598,-3.66109 17.72165,-5.49164 27.19703,-5.49164c9.47537,0 18.54104,1.83055 27.19703,5.49164c8.35936,3.53578 15.762,8.52662 22.20794,14.97253c6.44594,6.44591 11.43673,13.84855 14.97235,22.20792c2.52645,5.97311 4.18121,12.1413 4.96428,18.50457l-0.04792,-0.03039l-0.20051,-0.11982l-1.29693,-0.73011l-0.17821,-0.09512l-1.32853,-0.67072l-0.15962,-0.07656l-1.35409,-0.61756l-0.14336,-0.06236l-1.16349,-0.48217c-0.83605,-4.62401 -2.18319,-9.13271 -4.04144,-13.5261c-3.26363,-7.71574 -7.87128,-14.54947 -13.82296,-20.5012c-5.95167,-5.95177 -12.78539,-10.55938 -20.50116,-13.82286c-7.98683,-3.3781 -16.35463,-5.06714 -25.10339,-5.06714c-8.74876,0 -17.11656,1.68905 -25.10339,5.06714c-7.71577,3.26348 -14.54949,7.87109 -20.50116,13.82286c-5.87576,5.87572 -10.44148,12.61098 -13.69715,20.20581l-1.37527,0.53763l-0.09155,0.03697l-1.37391,0.57242l-0.10184,0.04392l-1.35927,0.60637l-0.1138,0.0527l-1.3417,0.64429l-0.12779,0.06392l-1.05459,0.54861c0.55714,-1.64938 1.17845,-3.2844 1.86393,-4.90507c3.53572,-8.35937 8.52656,-15.76201 14.97251,-22.20792zM339.37912,212.06621c-3.53578,8.35936 -8.52657,15.762 -14.97235,22.20794c-6.44594,6.44594 -13.84859,11.43673 -22.20794,14.97235c-8.65598,3.66124 -17.72165,5.49187 -27.19703,5.49187c-9.47537,0 -18.54104,-1.83062 -27.19703,-5.49187c-8.35951,-3.53563 -15.76216,-8.52641 -22.20794,-14.97235c-6.44595,-6.44594 -11.43679,-13.84859 -14.97251,-22.20794c-2.62331,-6.20218 -4.3068,-12.6147 -5.05045,-19.23755l1.14459,0.51497l0.24484,0.10153l1.39105,0.52905l0.20918,0.07365l1.41566,0.45934l0.17995,0.05413l1.10919,0.30898c0.80185,5.17697 2.23718,10.21105 4.30599,15.10227c3.26348,7.71577 7.87112,14.54949 13.82293,20.50116c5.95167,5.95183 12.78539,10.55948 20.50116,13.82296c7.98683,3.3781 16.35463,5.06714 25.10339,5.06714c8.74876,0 17.11656,-1.68905 25.10339,-5.06714c7.71577,-3.26348 14.54949,-7.87113 20.50116,-13.82296c5.95183,-5.95183 10.55948,-12.78555 13.82296,-20.50116c0.42363,-1.00158 0.82069,-2.00914 1.19119,-3.0227l0.53395,-0.1569l0.09573,-0.02928l1.41822,-0.45167l0.1092,-0.03624l1.40613,-0.48792l0.12593,-0.04577l1.3908,-0.52997l0.14614,-0.05855l1.19173,-0.50298c-0.74101,2.50442 -1.62741,4.9763 -2.65921,7.41562z" data-paper-data="{&quot;isPathIcon&quot;:true}" style="fill: rgb(255, 106, 19);"></path></g></svg>