<svg class="svg-standalone-icon" width="100%" viewBox="204.2198641102636 114.99999999999999 141.56027177947288 141.5603425596547"><g data-paper-data="{&quot;fillRule&quot;:&quot;nonzero&quot;,&quot;fillRuleOriginal&quot;:&quot;evenodd&quot;,&quot;isIcon&quot;:true,&quot;iconStyle&quot;:&quot;standalone&quot;,&quot;selectedEffects&quot;:{&quot;container&quot;:&quot;circle_simple_filledplus&quot;,&quot;transformation&quot;:&quot;&quot;,&quot;pattern&quot;:&quot;&quot;},&quot;bounds&quot;:{&quot;x&quot;:204.2198641102636,&quot;y&quot;:114.99999999999999,&quot;width&quot;:141.56027177947288,&quot;height&quot;:141.5603425596547},&quot;widthRatioIconToContainer&quot;:0.7962945462411452,&quot;heightRatioIconToContainer&quot;:0.2921068978610062,&quot;relativeBoundsIconToContainer&quot;:{&quot;top&quot;:-0.01555130830471227,&quot;left&quot;:-0.000010507294189236909},&quot;iconType&quot;:&quot;icon&quot;,&quot;rawIconId&quot;:&quot;56886&quot;,&quot;combineTerms&quot;:&quot;bread&quot;,&quot;blockLetter&quot;:&quot;O&quot;,&quot;suitableAsStandaloneIcon&quot;:true}" fill-rule="nonzero"><path d="M212.10663,185.78015c0,-34.73501 28.1583,-62.89331 62.89331,-62.89331c34.73501,0 62.89331,28.1583 62.89331,62.89331c0,34.73501 -28.1583,62.89331 -62.89331,62.89331c-34.73501,0 -62.89331,-28.1583 -62.89331,-62.89331zM309.62599,177.17752c-0.16652,-0.02714 -0.67101,-0.07895 -1.30748,-0.14062c0.00049,-0.05341 0.00382,-0.10855 0.00715,-0.16381c0.00518,-0.08511 0.01036,-0.17059 0.00518,-0.25064c-0.35154,-5.49266 -7.57477,-9.9344 -19.81577,-12.18673c-0.11842,-0.0222 -2.35593,-0.0037 -3.23417,0.20105c-1.49004,0.34907 -3.12192,1.12616 -3.265,1.17303c0.15295,-0.243 0.07278,-1.38643 0,-1.68c-0.09375,-0.38114 -1.68616,-0.5378 -2.53726,-0.63401c-5.53584,-0.62537 -8.35186,-0.72158 -14.5069,-0.44775c-0.12089,0.00494 -2.35964,0.88564 -2.35964,0.88564c-0.523,0.22449 -1.87242,1.02625 -2.34484,1.30625c0.01603,-0.18256 -0.15172,-0.83506 -0.22202,-1.01392c-0.19489,-0.50819 -2.36581,-0.64757 -2.91717,-0.60194c-5.27187,0.44405 -11.79448,2.09198 -16.64574,3.67823c-0.07154,0.02344 -1.42713,0.47489 -2.41021,1.55295c-0.0259,-0.09251 -0.0629,-0.16776 -0.11101,-0.25409c-0.27999,-0.49956 -0.76722,-0.65004 -1.31488,-0.48845c-13.05263,3.82007 -18.36274,8.54181 -17.99147,14.36504c0.37744,5.89478 7.95714,9.2449 23.76905,9.42251c-0.55753,1.15823 -0.8252,2.07717 -0.74872,3.265c0.40828,6.37583 9.3041,9.08701 27.99617,9.08701h0.00247c0.47118,0 0.94842,0.00049 1.43207,0.00086c4.70348,0.00432 10.00299,0.00926 16.14125,-0.38447c13.79271,-0.88194 23.91461,-2.07964 30.94541,-3.92862c9.14498,-2.40527 13.44734,-5.66905 13.15377,-10.24771c-0.37127,-5.822 -8.28772,-10.38339 -21.72025,-12.51484zM271.90138,177.28853c-12.96011,2.41391 -24.39073,6.94199 -28.71035,11.92524c-14.38108,-0.31576 -21.81153,-2.67417 -22.08907,-7.0123c-0.24792,-3.88545 5.04985,-8.08419 14.07271,-11.32947c-0.10978,0.16652 -1.4518,3.21443 -1.54678,5.62465c-0.00518,0.13174 -0.01061,0.26569 -0.01616,0.40113c-0.09547,2.34311 -0.20969,5.15074 0.68347,5.15074h0.00123c0.8844,0 1.01885,-1.06202 1.20264,-1.65286c0.18379,-0.59084 0.317,-4.15434 0.79312,-5.58024c0.47612,-1.4259 2.66308,-4.56509 2.66308,-4.56509l6.26975,-2.22766c3.5265,-0.77215 7.21953,-1.38273 11.01863,-1.82184c-0.10114,0.11224 -0.19859,0.22449 -0.29233,0.33674c-0.09128,0.10978 -1.04969,1.04599 -1.71453,2.20422c-0.66484,1.15823 -2.21902,6.54852 -2.314,8.22851c-0.09497,1.67999 0.29357,3.84351 1.29392,3.84351h0.00247c0.90907,0 1.94396,-4.71681 2.13761,-5.40138c0.06537,-0.31823 0.27507,-2.34113 1.92422,-4.71927c1.64916,-2.37814 2.63348,-3.07628 3.99646,-3.90024c1.36299,-0.82397 3.98412,-1.30502 3.98412,-1.30502c4.53549,-0.19489 9.01053,-0.13692 13.23395,0.16776l-0.48845,0.35894c-0.00123,0 -4.43804,3.85584 -5.66288,8.32472c-0.10608,0.46379 -0.37991,2.49286 -0.44281,2.94924zM305.79975,176.17594c-6.43134,-0.77092 -13.57192,-0.93251 -20.79021,-0.46996c-3.5413,0.22573 -7.06164,0.6007 -10.48947,1.1163c0.92634,-1.90202 3.20827,-6.30799 5.94041,-8.09406c3.58817,-2.3436 7.67344,-1.83047 7.67344,-1.83047c0.03454,-0.00616 0.06907,-0.01234 0.11595,-0.01727c10.09969,1.88474 16.69878,5.40262 17.54988,9.29546zM287.09039,201.41407c-6.00246,0.38349 -11.18934,0.37707 -15.79502,0.3714c-0.54865,-0.00074 -1.08904,-0.00136 -1.62164,-0.00136h-0.00247c-16.65314,0 -25.24922,-2.10431 -25.54896,-6.78411c-0.26618,-4.12141 5.02962,-6.83616 14.91715,-11.78437c-0.31034,0.15961 0.56,-0.13469 1.56849,-0.47588c1.04673,-0.35401 2.24221,-0.75846 2.42106,-0.75784c2.24369,0.00987 4.9339,1.26677 10.28101,6.47327c2.20669,2.45215 3.28598,5.51733 3.28598,5.51733c0.66608,0.89921 1.40246,2.60756 1.40246,2.60756c0.42555,-0.10731 2.81232,-3.89778 -1.67876,-10.67573c-0.95594,-1.39259 -5.31751,-4.53549 -5.92191,-4.86483l-0.53039,-0.2911c4.16174,-0.8437 8.55414,-1.46413 13.10814,-1.85022l1.63805,0.01727c0.50819,0.14309 3.08369,0.66855 5.91574,3.73496c1.51496,1.6404 2.98131,4.44519 4.15298,6.68667c1.01873,1.94852 1.81469,3.47124 2.22655,3.43276c0.93868,-0.09128 1.11877,-4.39734 0.64881,-6.45847c-0.16775,-0.59701 -0.43541,-1.15207 -0.69321,-1.68986c0,0 -1.2162,-2.22889 -1.69109,-2.81602c0,0 -3.04791,-3.25144 -3.1614,-3.34765c3.8509,-0.0481 11.25052,0.42555 11.25052,0.42555c0.08141,0.02097 1.58502,0.3022 2.73338,0.59823c1.14837,0.29604 3.80157,2.78148 3.80157,2.78148c2.57056,2.66554 6.00825,9.23009 6.00825,9.23009c0.97074,0.037 2.06113,-3.27488 -0.09251,-7.76842c-0.09621,-0.20229 -2.06483,-3.14659 -2.21408,-3.32051c9.36577,2.07224 15.15323,5.56174 15.39993,9.44595c0.20476,3.1762 -3.60792,5.8183 -11.3307,7.8486c-6.87662,1.80827 -16.84556,2.84316 -30.47793,3.71522zM345.76699,187.17486l-0.01677,0.70695l-0.0236,0.70676l-0.03041,0.70676l-0.03742,0.70639l-0.04424,0.70621l-0.05143,0.70566l-0.05825,0.70528l-0.06526,0.70473l-0.07244,0.70399l-0.07927,0.70344l-0.08664,0.70252l-0.09346,0.70179l-0.10083,0.70086l-0.10766,0.69975l-0.11502,0.69865l-0.12203,0.69755l-0.12904,0.69625l-0.13623,0.69496l-0.14341,0.69349l-0.15024,0.69201l-0.15761,0.69035l-0.16443,0.6887l-0.17144,0.68722l-0.17863,0.68519l-0.18544,0.68335l-0.19245,0.68151l-0.19927,0.67948l-0.20627,0.67727l-0.2131,0.67524l-0.21973,0.67284l-0.22674,0.67081l-0.23319,0.66824l-0.23982,0.66584l-0.24665,0.66344l-0.25291,0.66086l-0.25955,0.65828l-0.26601,0.65552l-0.27227,0.65293l-0.16037,0.37624l-0.28093,0.64537l-0.28849,0.64593l-0.29494,0.64298l-0.3014,0.64021l-0.30748,0.63726l-0.31412,0.63432l-0.3202,0.631l-0.32665,0.62786l-0.33292,0.62473l-0.33937,0.62141l-0.34546,0.61791l-0.35172,0.61441l-0.35799,0.61072l-0.36426,0.60722l-0.37034,0.60353l-0.37642,0.59966l-0.3825,0.59597l-0.38859,0.59191l-0.39467,0.58786l-0.40057,0.58399l-0.40647,0.57975l-0.41218,0.5757l-0.41827,0.57127l-0.4238,0.56722l-0.42952,0.56279l-0.43541,0.55836l-0.44076,0.55394l-0.44629,0.54933l-0.45182,0.54491l-0.45698,0.5403l-0.46251,0.53588l-0.46767,0.5309l-0.47283,0.52648l-0.47799,0.52169l-0.48297,0.51689l-0.48795,0.51209l-0.49274,0.5073l-0.49772,0.50251l-0.2896,0.28812l-0.5027,0.49256l-0.50989,0.48998l-0.51468,0.48518l-0.51947,0.48021l-0.52426,0.47504l-0.52887,0.46988l-0.53366,0.46491l-0.53809,0.45938l-0.54288,0.45422l-0.54731,0.44868l-0.55192,0.44334l-0.55634,0.43763l-0.56076,0.43209l-0.56519,0.42656l-0.56943,0.42067l-0.57367,0.41495l-0.57791,0.40905l-0.58196,0.40333l-0.5862,0.39725l-0.59007,0.39135l-0.59413,0.38527l-0.598,0.37919l-0.60187,0.3731l-0.60556,0.36684l-0.60925,0.36094l-0.61274,0.35449l-0.61643,0.3484l-0.61975,0.34214l-0.62325,0.33568l-0.62657,0.3296l-0.6297,0.32315l-0.63284,0.31688l-0.63597,0.31043l-0.63893,0.30435l-0.64187,0.29771l-0.64464,0.29144l-0.64741,0.28517l-0.65017,0.27891l-0.64224,0.26803l-0.65533,0.26619l-0.65809,0.25973l-0.66086,0.25329l-0.66307,0.24683l-0.66584,0.24001l-0.66805,0.23356l-0.67063,0.22692l-0.67284,0.21992l-0.67505,0.21347l-0.67708,0.20646l-0.67929,0.19946l-0.68151,0.19282l-0.68316,0.18581l-0.68519,0.17881l-0.68703,0.1718l-0.6887,0.16461l-0.69035,0.1578l-0.69201,0.15079l-0.69331,0.1436l-0.69496,0.13641l-0.69625,0.12941l-0.69736,0.1224l-0.69865,0.11522l-0.69975,0.10802l-0.70086,0.10102l-0.70179,0.09383l-0.70252,0.08683l-0.70344,0.07963l-0.70418,0.07263l-0.70473,0.06563l-0.70528,0.05862l-0.70584,0.05161l-0.70603,0.04443l-0.70658,0.03779l-0.70676,0.0306l-0.70695,0.02397l-0.70713,0.01696l-0.70695,0.01014l-0.70713,0.0035l-0.6957,-0.00314l-0.70695,-0.00995l-0.70695,-0.01677l-0.70676,-0.0236l-0.70676,-0.03041l-0.70639,-0.03742l-0.70621,-0.04424l-0.70566,-0.05143l-0.70528,-0.05825l-0.70473,-0.06526l-0.70399,-0.07244l-0.70344,-0.07927l-0.70252,-0.08664l-0.70179,-0.09346l-0.70086,-0.10083l-0.69975,-0.10766l-0.69865,-0.11502l-0.69755,-0.12203l-0.69625,-0.12904l-0.69496,-0.13623l-0.69349,-0.14341l-0.69201,-0.15024l-0.69035,-0.15761l-0.68888,-0.16443l-0.68703,-0.17162l-0.68519,-0.17844l-0.68335,-0.18544l-0.68151,-0.19245l-0.67948,-0.19946l-0.67727,-0.20609l-0.67524,-0.2131l-0.67284,-0.21973l-0.67063,-0.22655l-0.66842,-0.23338l-0.66584,-0.23982l-0.66344,-0.24665l-0.66086,-0.25291l-0.65828,-0.25955l-0.65552,-0.26601l-0.65293,-0.27227l-0.37624,-0.16037l-0.64537,-0.28093l-0.64574,-0.28849l-0.64317,-0.29494l-0.64021,-0.3014l-0.63726,-0.30767l-0.63413,-0.31393l-0.63118,-0.3202l-0.62786,-0.32665l-0.62473,-0.33311l-0.62122,-0.33919l-0.61791,-0.34546l-0.61441,-0.3519l-0.6109,-0.3578l-0.60722,-0.36426l-0.60353,-0.37034l-0.59966,-0.37642l-0.59579,-0.3825l-0.5921,-0.38859l-0.58786,-0.39467l-0.58399,-0.40057l-0.57971,-0.40647l-0.57562,-0.41237l-0.5714,-0.41808l-0.5671,-0.4238l-0.56277,-0.4297l-0.55836,-0.43523l-0.55393,-0.44076l-0.54945,-0.44629l-0.54491,-0.45182l-0.54032,-0.45716l-0.53571,-0.46232l-0.53106,-0.46767l-0.52636,-0.47283l-0.52164,-0.47799l-0.51689,-0.48297l-0.51214,-0.48795l-0.5073,-0.49274l-0.50248,-0.49772l-0.2882,-0.2896l-0.4925,-0.5027l-0.49005,-0.50989l-0.48516,-0.51468l-0.48017,-0.51947l-0.4751,-0.52426l-0.46997,-0.52887l-0.46476,-0.53348l-0.4595,-0.53828l-0.45414,-0.54288l-0.44874,-0.54731l-0.44326,-0.55192l-0.43772,-0.55634l-0.43209,-0.56076l-0.42645,-0.565l-0.42072,-0.56961l-0.41494,-0.57367l-0.4091,-0.57791l-0.40321,-0.58196l-0.39729,-0.5862l-0.39131,-0.59007l-0.38527,-0.59413l-0.37921,-0.598l-0.3731,-0.60187l-0.36696,-0.60556l-0.36078,-0.60925l-0.35458,-0.61274l-0.34834,-0.61643l-0.34208,-0.61975l-0.33581,-0.62325l-0.32951,-0.62657l-0.32318,-0.6297l-0.31686,-0.63284l-0.31052,-0.63597l-0.30418,-0.63893l-0.29784,-0.64187l-0.29148,-0.64464l-0.28512,-0.64741l-0.27877,-0.65017l-0.26814,-0.64224l-0.26613,-0.65533l-0.25976,-0.65809l-0.25329,-0.66086l-0.24676,-0.66307l-0.24016,-0.66584l-0.2335,-0.66805l-0.22682,-0.67063l-0.22008,-0.67284l-0.2133,-0.67505l-0.20648,-0.67708l-0.1996,-0.67948l-0.19271,-0.68132l-0.18576,-0.68316l-0.17881,-0.68519l-0.1718,-0.68703l-0.16478,-0.6887l-0.15774,-0.69035l-0.15068,-0.69201l-0.1436,-0.69331l-0.13652,-0.69496l-0.12941,-0.69625l-0.12231,-0.69736l-0.11519,-0.69865l-0.10808,-0.69975l-0.10098,-0.70086l-0.09388,-0.70179l-0.08679,-0.70252l-0.07971,-0.70344l-0.07265,-0.70418l-0.06558,-0.70473l-0.05856,-0.70528l-0.05158,-0.70584l-0.04459,-0.70603l-0.03764,-0.70658l-0.03075,-0.70676l-0.02385,-0.70695l-0.01699,-0.70713l-0.01021,-0.70695l-0.00345,-0.70713l0.00319,-0.6957l0.00994,-0.70695l0.01675,-0.70695l0.02358,-0.70676l0.03045,-0.70674l0.03739,-0.70643l0.04432,-0.70613l0.05128,-0.70571l0.05829,-0.70527l0.06531,-0.70469l0.07235,-0.70409l0.07942,-0.70337l0.08651,-0.70259l0.09359,-0.70174l0.10068,-0.70079l0.10781,-0.69979l0.1149,-0.69867l0.12202,-0.6975l0.12913,-0.69625l0.13623,-0.69491l0.14331,-0.69349l0.1504,-0.69201l0.15746,-0.69043l0.16451,-0.68879l0.17153,-0.68707l0.17851,-0.68525l0.1855,-0.6834l0.19243,-0.68143l0.19935,-0.67943l0.2062,-0.67734l0.21304,-0.67518l0.21983,-0.67295l0.22657,-0.67066l0.23328,-0.66831l0.2399,-0.66587l0.24652,-0.6634l0.25305,-0.66087l0.25955,-0.65826l0.26595,-0.65561l0.27234,-0.65291l0.16027,-0.37613l0.2809,-0.64541l0.28858,-0.64586l0.29494,-0.64307l0.30128,-0.64019l0.30765,-0.63725l0.31399,-0.63423l0.32031,-0.63113l0.32665,-0.62792l0.33296,-0.62467l0.33922,-0.62132l0.34551,-0.61791l0.35176,-0.61441l0.35799,-0.61085l0.36416,-0.60722l0.37033,-0.60349l0.37645,-0.59971l0.38255,-0.59586l0.38859,-0.59193l0.39459,-0.58795l0.40055,-0.58397l0.40647,-0.57975l0.41233,-0.5757l0.41813,-0.57127l0.42389,-0.56722l0.42959,-0.5626l0.43523,-0.55855l0.4408,-0.55376l0.4463,-0.54952l0.45175,-0.54491l0.45715,-0.5403l0.46244,-0.53569l0.46769,-0.53108l0.47285,-0.52648l0.47794,-0.5215l0.48297,-0.51689l0.48793,-0.51228l0.49278,-0.5073l0.49759,-0.50233l0.28971,-0.28831l0.50267,-0.49238l0.5099,-0.49016l0.51468,-0.48518l0.51947,-0.48021l0.52419,-0.47504l0.52891,-0.46988l0.53357,-0.46491l0.5382,-0.45938l0.54281,-0.45422l0.54736,-0.44868l0.55188,-0.44334l0.55636,-0.43763l0.56074,-0.43209l0.56515,-0.42656l0.56943,-0.42067l0.57372,-0.41495l0.57791,-0.40905l0.58196,-0.40333l0.5862,-0.39725l0.59007,-0.39135l0.59413,-0.38527l0.598,-0.37919l0.60187,-0.3731l0.60556,-0.36684l0.60925,-0.36094l0.61274,-0.35449l0.61643,-0.3484l0.61975,-0.34195l0.62325,-0.33587l0.62657,-0.3296l0.6297,-0.32315l0.63284,-0.31688l0.63597,-0.31043l0.63893,-0.30435l0.64187,-0.29771l0.64464,-0.29144l0.64741,-0.28517l0.65017,-0.27891l0.64224,-0.26803l0.65533,-0.26619l0.65809,-0.25973l0.66086,-0.25329l0.66307,-0.24665l0.66584,-0.24019l0.66805,-0.23356l0.67063,-0.22674l0.67284,-0.22011l0.67505,-0.21328l0.67708,-0.20664l0.67948,-0.19946l0.68132,-0.19282l0.68316,-0.18563l0.68519,-0.17881l0.68703,-0.1718l0.6887,-0.1648l0.69035,-0.1578l0.69201,-0.15061l0.69331,-0.1436l0.69496,-0.1366l0.69625,-0.12941l0.69736,-0.1224l0.69865,-0.11502l0.69975,-0.10821l0.70086,-0.10102l0.70179,-0.09383l0.70252,-0.08683l0.70344,-0.07963l0.70418,-0.07263l0.70473,-0.06563l0.70528,-0.05862l0.70584,-0.05143l0.70603,-0.04461l0.70658,-0.03779l0.70676,-0.0306l0.70695,-0.02397l0.70713,-0.01696l0.70695,-0.01014l0.70713,-0.0035l0.6957,0.00314l0.70695,0.00995l0.70695,0.01677l0.70676,0.0236l0.70676,0.03041l0.70639,0.03742l0.70621,0.04424l0.70566,0.05143l0.70528,0.05825l0.70473,0.06526l0.70399,0.07244l0.70344,0.07927l0.70252,0.08664l0.70179,0.09346l0.70086,0.10083l0.69975,0.10766l0.69865,0.11502l0.69755,0.12203l0.69625,0.12904l0.69496,0.13623l0.69349,0.14323l0.69201,0.15042l0.69035,0.15761l0.68888,0.16443l0.68703,0.17144l0.68519,0.17863l0.68335,0.18544l0.68151,0.19245l0.67948,0.19927l0.67727,0.20627l0.67524,0.2131l0.67284,0.21973l0.67081,0.22655l0.66824,0.23338l0.66584,0.23982l0.66344,0.24665l0.66086,0.25291l0.65828,0.25955l0.65552,0.26601l0.65293,0.27227l0.37624,0.16037l0.64537,0.28093l0.64593,0.28849l0.64298,0.29494l0.64021,0.3014l0.63726,0.30767l0.63413,0.31393l0.63118,0.32039l0.62786,0.32665l0.62473,0.33292l0.62122,0.33919l0.61791,0.34546l0.61441,0.3519l0.6109,0.3578l0.60722,0.36426l0.60353,0.37034l0.59966,0.37642l0.59597,0.3825l0.59191,0.38859l0.58786,0.39467l0.58399,0.40057l0.57975,0.40647l0.5757,0.41237l0.57127,0.41808l0.56722,0.4238l0.56279,0.4297l0.55836,0.43523l0.55376,0.44076l0.54952,0.44629l0.54491,0.45182l0.5403,0.45716l0.53569,0.46232l0.53108,0.46767l0.52648,0.47283l0.5215,0.47799l0.51689,0.48297l0.51228,0.48795l0.5073,0.49274l0.50233,0.49772l0.28831,0.2896l0.49256,0.5027l0.48998,0.50989l0.48518,0.51468l0.48021,0.51947l0.47504,0.52426l0.47007,0.52887l0.46472,0.53366l0.45938,0.53809l0.45422,0.54288l0.44868,0.54731l0.44334,0.55192l0.43763,0.55634l0.43228,0.56076l0.42638,0.56519l0.42067,0.56943l0.41495,0.57367l0.40905,0.57791l0.40333,0.58205l0.39725,0.58614l0.39135,0.59017l0.38527,0.59409l0.37919,0.598l0.3731,0.60179l0.36684,0.60557l0.36094,0.60921l0.35449,0.61286l0.3484,0.61636l0.34195,0.61982l0.33587,0.6232l0.3296,0.62652l0.32315,0.62976l0.31688,0.63286l0.31043,0.63594l0.30435,0.63894l0.29771,0.64187l0.29144,0.64466l0.28517,0.64744l0.27873,0.65009l0.26821,0.64229l0.26619,0.65531l0.25973,0.65809l0.25329,0.66069l0.24683,0.66325l0.24001,0.66572l0.23356,0.66816l0.22674,0.67051l0.22011,0.67283l0.21347,0.67502l0.20646,0.67725l0.19946,0.67929l0.19282,0.68132l0.18581,0.68329l0.17863,0.68521l0.1718,0.68694l0.1648,0.68871l0.1578,0.69039l0.15079,0.6919l0.1436,0.69347l0.13641,0.69487l0.12941,0.6962l0.1224,0.6975l0.11502,0.69865l0.10821,0.69978l0.10102,0.70079l0.09383,0.70173l0.08683,0.70261l0.07963,0.70341l0.07263,0.70412l0.06563,0.70475l0.05862,0.70528l0.05143,0.70576l0.04461,0.70619l0.03779,0.7065l0.0306,0.70676l0.02397,0.70695l0.01696,0.70713l0.01014,0.70695l0.0035,0.70713v0.01567l-0.00314,0.68003zM342.45624,185.11265l-0.00958,-0.67505l-0.01604,-0.67505l-0.02267,-0.6745l-0.02913,-0.67439l-0.03577,-0.67393l-0.0424,-0.67347l-0.04904,-0.67295l-0.05567,-0.67238l-0.06231,-0.67172l-0.06913,-0.67098l-0.07576,-0.67022l-0.08259,-0.66936l-0.08922,-0.66849l-0.09604,-0.66749l-0.10268,-0.66642l-0.1095,-0.66534l-0.11632,-0.66416l-0.12314,-0.66294l-0.12978,-0.66163l-0.1366,-0.66022l-0.14323,-0.65889l-0.15005,-0.6573l-0.15669,-0.65575l-0.16351,-0.65419l-0.16996,-0.65244l-0.17678,-0.65072l-0.18342,-0.64893l-0.18987,-0.64707l-0.19651,-0.64509l-0.20315,-0.64318l-0.20959,-0.64111l-0.21587,-0.63904l-0.2225,-0.63687l-0.22877,-0.63469l-0.23503,-0.63244l-0.24149,-0.63015l-0.24757,-0.62783l-0.25402,-0.62552l-0.25568,-0.6128l-0.26582,-0.62045l-0.2719,-0.61776l-0.27798,-0.61503l-0.2837,-0.61216l-0.28997,-0.6093l-0.29587,-0.60633l-0.30195,-0.60334l-0.30785,-0.60019l-0.31375,-0.59704l-0.31983,-0.59385l-0.32573,-0.59053l-0.33181,-0.58721l-0.33753,-0.58379l-0.34343,-0.58032l-0.34932,-0.57678l-0.35522,-0.57318l-0.36094,-0.56954l-0.36666,-0.56585l-0.37255,-0.56207l-0.37826,-0.55826l-0.3838,-0.55442l-0.38951,-0.55046l-0.39504,-0.54653l-0.40057,-0.54247l-0.4061,-0.53846l-0.41163,-0.5344l-0.41698,-0.53016l-0.42214,-0.52593l-0.42767,-0.52187l-0.43264,-0.51763l-0.43799,-0.51321l-0.44315,-0.50897l-0.44813,-0.50454l-0.45311,-0.50011l-0.45808,-0.49587l-0.46288,-0.49126l-0.46786,-0.48702l-0.47486,-0.48482l-0.27043,-0.27209l-0.47984,-0.47504l-0.48408,-0.47062l-0.48869,-0.46583l-0.49311,-0.46085l-0.49754,-0.45606l-0.50177,-0.45108l-0.50638,-0.44611l-0.51062,-0.44094l-0.51486,-0.43578l-0.51929,-0.4308l-0.52334,-0.42528l-0.52777,-0.42011l-0.53182,-0.41476l-0.53588,-0.40942l-0.54012,-0.40389l-0.54399,-0.39836l-0.54823,-0.39283l-0.55192,-0.38711l-0.55597,-0.38158l-0.55984,-0.37606l-0.56371,-0.37015l-0.56722,-0.36444l-0.57108,-0.35854l-0.57459,-0.35283l-0.57827,-0.34711l-0.58178,-0.34103l-0.5851,-0.33531l-0.5886,-0.32923l-0.59191,-0.32333l-0.59523,-0.31743l-0.59837,-0.31153l-0.6015,-0.30545l-0.60463,-0.29956l-0.60758,-0.29347l-0.61054,-0.28739l-0.6133,-0.28167l-0.61625,-0.27541l-0.62215,-0.2708l-0.35264,-0.15042l-0.62289,-0.2601l-0.62546,-0.25384l-0.62768,-0.24757l-0.63008,-0.24149l-0.63229,-0.23522l-0.63469,-0.22877l-0.63671,-0.2225l-0.63893,-0.21605l-0.64113,-0.20941l-0.64317,-0.20315l-0.64501,-0.19669l-0.64704,-0.18987l-0.64888,-0.18342l-0.65072,-0.17678l-0.65238,-0.17015l-0.65404,-0.16351l-0.65588,-0.15687l-0.65717,-0.15005l-0.65883,-0.14323l-0.66031,-0.13678l-0.6616,-0.12978l-0.66288,-0.12314l-0.66418,-0.11632l-0.66547,-0.10968l-0.66639,-0.10286l-0.66749,-0.09604l-0.6686,-0.08922l-0.66934,-0.08259l-0.67026,-0.07595l-0.67118,-0.06913l-0.67173,-0.06231l-0.67248,-0.05585l-0.67303,-0.04904l-0.6734,-0.0424l-0.67413,-0.03577l-0.67432,-0.02931l-0.67487,-0.02267l-0.67487,-0.01604l-0.67542,-0.00977l-0.66436,-0.00314l-0.67524,0.00314l-0.67524,0.00958l-0.67487,0.01604l-0.67468,0.02267l-0.67432,0.02913l-0.67395,0.03577l-0.67358,0.0424l-0.67284,0.04904l-0.67248,0.05567l-0.67173,0.06231l-0.671,0.06913l-0.67008,0.07576l-0.66952,0.08259l-0.66842,0.08922l-0.66749,0.09604l-0.66639,0.10268l-0.66528,0.1095l-0.66418,0.11632l-0.66307,0.12314l-0.6616,0.12978l-0.66012,0.1366l-0.65883,0.14323l-0.65736,0.15005l-0.65588,0.15669l-0.65404,0.16351l-0.65256,0.16996l-0.65072,0.17678l-0.64888,0.18342l-0.64704,0.18987l-0.64519,0.19651l-0.64317,0.20315l-0.64113,0.20959l-0.63893,0.21587l-0.63689,0.2225l-0.63469,0.22877l-0.63247,0.23503l-0.63008,0.24149l-0.62786,0.24757l-0.62565,0.25402l-0.61274,0.25568l-0.62049,0.26582l-0.61773,0.2719l-0.61496,0.2778l-0.61219,0.28407l-0.60943,0.28978l-0.6063,0.29587l-0.60334,0.30195l-0.60021,0.30785l-0.5969,0.31375l-0.59394,0.31983l-0.59044,0.32573l-0.58731,0.33181l-0.5838,0.33753l-0.58031,0.34343l-0.5768,0.34932l-0.57311,0.35522l-0.56961,0.36094l-0.56574,0.36666l-0.56205,0.37255l-0.55836,0.37826l-0.55431,0.3838l-0.55063,0.38951l-0.54639,0.39504l-0.54252,0.40057l-0.53847,0.4061l-0.53435,0.41163l-0.5302,0.41698l-0.52602,0.42214l-0.52179,0.42767l-0.51754,0.43283l-0.51326,0.43781l-0.50892,0.44315l-0.50458,0.44813l-0.50017,0.45311l-0.49578,0.45808l-0.49136,0.46307l-0.4869,0.46767l-0.48483,0.47486l-0.27203,0.27043l-0.47523,0.47984l-0.47051,0.48408l-0.46577,0.48869l-0.46093,0.49311l-0.45604,0.49754l-0.45108,0.50177l-0.44606,0.50638l-0.441,0.51062l-0.43586,0.51486l-0.43065,0.51929l-0.42542,0.52334l-0.42011,0.52777l-0.41474,0.53182l-0.40933,0.53588l-0.40389,0.5401l-0.39836,0.5441l-0.39281,0.5481l-0.38722,0.55204l-0.38158,0.55595l-0.37589,0.55981l-0.37019,0.5636l-0.36442,0.56732l-0.35865,0.57103l-0.35283,0.57466l-0.34699,0.57824l-0.34112,0.58174l-0.33522,0.58519l-0.3293,0.5886l-0.32337,0.59191l-0.31742,0.59518l-0.31145,0.59839l-0.30548,0.60152l-0.29949,0.60458l-0.2935,0.60761l-0.2875,0.61051l-0.28151,0.61341l-0.27551,0.61619l-0.27085,0.62211l-0.1504,0.35272l-0.25998,0.62289l-0.25384,0.62534l-0.24766,0.62771l-0.24143,0.63006l-0.23515,0.63236l-0.22882,0.63462l-0.22244,0.63681l-0.21605,0.63895l-0.20957,0.64106l-0.20309,0.64309l-0.19656,0.64508l-0.19002,0.64699l-0.1834,0.64888l-0.1768,0.65068l-0.17015,0.65244l-0.16347,0.65412l-0.15678,0.65575l-0.15009,0.65732l-0.14334,0.65881l-0.13663,0.66025l-0.12987,0.66163l-0.12312,0.66293l-0.11636,0.66418l-0.10959,0.66538l-0.10284,0.66647l-0.09608,0.66751l-0.08931,0.66851l-0.08259,0.66941l-0.07584,0.67026l-0.06913,0.67105l-0.06244,0.67177l-0.05573,0.67243l-0.04907,0.67301l-0.04243,0.67354l-0.0358,0.67402l-0.02924,0.67434l-0.02266,0.67487l-0.01613,0.67505l-0.00964,0.67524l-0.00319,0.66436l0.00314,0.67542l0.00958,0.67505l0.0161,0.67487l0.02262,0.67468l0.02916,0.67432l0.03577,0.67395l0.04236,0.67358l0.04902,0.67284l0.05567,0.67248l0.06236,0.67173l0.06905,0.671l0.07578,0.67008l0.08253,0.66952l0.08926,0.66842l0.09601,0.66749l0.10277,0.66639l0.10953,0.66528l0.1163,0.66418l0.12304,0.66307l0.12981,0.6616l0.13656,0.66012l0.14329,0.65883l0.15003,0.65736l0.15673,0.65588l0.16342,0.65404l0.17009,0.65256l0.17675,0.65072l0.18336,0.64888l0.18995,0.64704l0.19653,0.64519l0.20303,0.64317l0.20956,0.64113l0.21599,0.63893l0.22241,0.63689l0.22878,0.63469l0.23512,0.63247l0.24141,0.63026l0.24762,0.62768l0.25387,0.62565l0.25566,0.61274l0.26591,0.62049l0.27188,0.61773l0.27789,0.61496l0.2839,0.61219l0.28988,0.60943l0.29588,0.6063l0.30188,0.60334l0.30786,0.60021l0.31383,0.59708l0.31979,0.59376l0.32574,0.59063l0.33166,0.58712l0.33758,0.5838l0.34347,0.58031l0.34932,0.5768l0.35517,0.57311l0.36097,0.56961l0.36675,0.56592l0.37248,0.56205l0.37819,0.55818l0.38386,0.55449l0.38949,0.55044l0.39506,0.54657l0.40061,0.54233l0.4061,0.53846l0.41154,0.5344l0.41694,0.53016l0.42227,0.52611l0.42758,0.52169l0.43278,0.51763l0.43797,0.51321l0.4431,0.50897l0.44813,0.50454l0.45316,0.50011l0.45807,0.49587l0.46293,0.49126l0.46774,0.48702l0.4749,0.48482l0.27047,0.27209l0.47969,0.47504l0.48417,0.47062l0.48863,0.46583l0.49309,0.46085l0.4975,0.45606l0.5019,0.45108l0.50627,0.44611l0.51062,0.44094l0.51492,0.43578l0.51923,0.4308l0.52343,0.42528l0.52767,0.42011l0.53184,0.41476l0.5359,0.40942l0.54012,0.40389l0.54417,0.39836l0.54804,0.39283l0.5521,0.38711l0.55597,0.38158l0.55966,0.37606l0.56371,0.37015l0.56722,0.36444l0.57108,0.35854l0.57459,0.35283l0.57827,0.34711l0.58178,0.34103l0.5851,0.33531l0.5886,0.32923l0.59191,0.32333l0.59523,0.31743l0.59837,0.31153l0.6015,0.30545l0.60463,0.29956l0.60758,0.29347l0.61054,0.28739l0.61349,0.28167l0.61606,0.27541l0.62215,0.27098l0.35264,0.15024l0.62289,0.2601l0.62546,0.25384l0.62768,0.24757l0.63008,0.24149l0.63229,0.23522l0.63469,0.22877l0.63671,0.22231l0.63893,0.21605l0.64113,0.20959l0.64317,0.20315l0.64501,0.19651l0.64704,0.19005l0.64888,0.18342l0.65072,0.17678l0.65238,0.17015l0.65404,0.16351l0.65588,0.15687l0.65717,0.15005l0.65883,0.14323l0.66031,0.1366l0.6616,0.12996l0.66288,0.12314l0.66418,0.11632l0.66547,0.10968l0.66639,0.10268l0.66749,0.09623l0.6686,0.08922l0.66934,0.08259l0.67026,0.07595l0.67118,0.06913l0.67173,0.06231l0.67248,0.05585l0.67303,0.04904l0.6734,0.0424l0.67413,0.03577l0.67432,0.02931l0.67487,0.02267l0.67487,0.01604l0.67542,0.00977l0.66436,0.00314l0.67542,-0.00314l0.67505,-0.00958l0.67487,-0.01604l0.67468,-0.02267l0.67432,-0.02913l0.67395,-0.03577l0.67358,-0.0424l0.67284,-0.04904l0.67248,-0.05567l0.67173,-0.06231l0.671,-0.06913l0.67008,-0.07576l0.66952,-0.08259l0.66842,-0.08922l0.66749,-0.09604l0.66639,-0.10268l0.66528,-0.1095l0.66418,-0.11632l0.66307,-0.12314l0.6616,-0.12978l0.66012,-0.1366l0.65901,-0.14323l0.65717,-0.15005l0.65588,-0.15669l0.65404,-0.16351l0.65256,-0.16996l0.65072,-0.17678l0.64888,-0.18342l0.64704,-0.18987l0.64519,-0.19651l0.64317,-0.20315l0.64113,-0.20941l0.63893,-0.21605l0.63689,-0.2225l0.63469,-0.22877l0.63247,-0.23503l0.63026,-0.24149l0.62768,-0.24757l0.62565,-0.25402l0.61274,-0.25568l0.62049,-0.26582l0.61773,-0.2719l0.61496,-0.2778l0.61219,-0.28407l0.60943,-0.28978l0.6063,-0.29587l0.60334,-0.30195l0.60021,-0.30785l0.5969,-0.31375l0.59394,-0.31983l0.59044,-0.32573l0.58731,-0.33181l0.5838,-0.33753l0.58031,-0.34343l0.5768,-0.34932l0.57311,-0.35522l0.56961,-0.36094l0.56574,-0.36666l0.56224,-0.37255l0.55818,-0.37826l0.55431,-0.3838l0.55063,-0.38951l0.54639,-0.39504l0.54252,-0.40057l0.53846,-0.4061l0.5344,-0.41163l0.53016,-0.41698l0.52611,-0.42214l0.52169,-0.42767l0.51763,-0.43264l0.51321,-0.43799l0.50897,-0.44315l0.50454,-0.44813l0.50011,-0.45311l0.49587,-0.45808l0.49126,-0.46307l0.48702,-0.46767l0.48482,-0.47486l0.27209,-0.27061l0.47504,-0.47966l0.47062,-0.48408l0.46583,-0.48869l0.46085,-0.49311l0.45606,-0.49735l0.45108,-0.50196l0.44611,-0.50638l0.44094,-0.51044l0.43596,-0.51505l0.43062,-0.5191l0.42546,-0.52353l0.42011,-0.52758l0.41476,-0.53182l0.40924,-0.53606l0.40389,-0.54012l0.39836,-0.54399l0.39283,-0.54823l0.3873,-0.55192l0.38158,-0.55597l0.37587,-0.55984l0.37015,-0.56353l0.36444,-0.5674l0.35873,-0.57108l0.35283,-0.57459l0.34693,-0.57827l0.34103,-0.58178l0.33531,-0.5851l0.32923,-0.5886l0.32333,-0.59191l0.31743,-0.59523l0.31153,-0.59837l0.30545,-0.6015l0.29956,-0.60463l0.29347,-0.60758l0.28739,-0.61054l0.28167,-0.6133l0.27541,-0.61625l0.2708,-0.62215l0.15042,-0.35264l0.2601,-0.62289l0.25384,-0.62546l0.24757,-0.62768l0.24149,-0.63008l0.23503,-0.63229l0.22895,-0.63469l0.2225,-0.63671l0.21587,-0.63893l0.20959,-0.64113l0.20315,-0.64317l0.19651,-0.64501l0.19005,-0.64704l0.18342,-0.64888l0.17678,-0.65072l0.17015,-0.65238l0.16351,-0.65404l0.15669,-0.65588l0.15024,-0.65736l0.14323,-0.65864l0.1366,-0.66031l0.12996,-0.6616l0.12314,-0.66288l0.11632,-0.66418l0.10968,-0.66547l0.10286,-0.66639l0.09604,-0.66749l0.08922,-0.6686l0.08259,-0.66934l0.07595,-0.67026l0.06913,-0.67118l0.06231,-0.67173l0.05585,-0.67248l0.04904,-0.67303l0.0424,-0.6734l0.03577,-0.67413l0.02931,-0.67432l0.02267,-0.67487l0.01604,-0.67487l0.00977,-0.67542l0.00314,-0.66436v-0.01567z" data-paper-data="{&quot;isPathIcon&quot;:true}" style="fill: rgb(255, 106, 19);"></path></g></svg>