<svg xmlns="http://www.w3.org/2000/svg" enable-background="new 0 0 750 500" viewBox="0 0 750 500"><path fill="#fff" d="M0 0h750v500H0z"/><path fill="#eff6f9" d="M236.6 101.2s-3.4-16.3 20.5-17.3c0 0 2.1-7.8 17.2-6.4 15 1.4 14.3 16.1 14.3 16.1s9.6 1.3 7.1 9.7c0 0 9.1.5 10.3 7.8h-79.7s0-9.6 10.3-9.9zM511.5 113.1H571c3.1 0 4.4-3.9 2-5.8-1.3-1-3.1-1.7-5.4-1.7 0 0 .8-9-10.2-8.5 0 0-3.9-13.6-16.9-12.9-12.9.7-14 13.1-13.5 15.9 0 0-1.6-2.9-5.2-2-3.6.9-4.5 7.3-4.5 7.3s-7.1-1.5-8.3 4.6c-.4 1.6.9 3.1 2.5 3.1zM119.6 168.6h77s-3.1-23.1-18-22c0 0-5.2-12-19.3-10.4-14.1 1.6-13.7 14.8-13.7 14.8s-16.2-2.1-15.7 10.3c0 0-10.2.4-11.3 6.3-.1.5.4 1 1 1z"/><path fill="#d2e5ef" d="M632.7 321.2h-72.8v7.7h68.2c2.5 0 4.6 2.1 4.6 4.6v116.6h7.7V327.8c0-3.6-3-6.6-6.6-6.6h-1.1z"/><path fill="#bfd7e2" d="M619.6 328.9h7.9v121.2h-7.9zM602.3 328.9h7.9v121.2h-7.9zM584.1 328.9h7.9v121.2h-7.9zM566.8 328.9h7.9v121.2h-7.9z"/><path fill="#67a042" d="M611.7 389.1s5.7-1.5 7.2 3.6c0 0 10.7-24.4 16.5-25.6 5.8-1.2 4.3 6.7 4.3 6.7s14.4-26.9 21.7-25.8c6.3.9-6.9 30.7-10.5 38.4-.3.6.3 1.2.9.9 2.2-1 5.9-2.1 7.2.6 4.3 8.7-12.8 24.2-17.5 29.9-.6.7-.5 1.7.2 2.3 1.4 1.1 3.3 3.4 2.4 7.4-1.3 6.1-14.1 16.9-17.3 22.7h-42.7l27.6-61.1z"/><path fill="none" stroke="#4f7f2f" stroke-linecap="round" stroke-linejoin="round" stroke-miterlimit="10" stroke-width=".992" d="m650 371.7-43.7 78.4M606.3 436.4l2.1 10s10.3.7 17-2.8M612.1 420.3l4.3 11.7s12.5-4.1 16.4-6.8M623.6 402s0 10.4 1.3 14.8M640.4 408s-6.3 3.5-13.3 4.8M635.5 384.5l1.5 10.6M649.1 390.7l-10.4 1.3"/><path fill="#67a042" d="M611.7 389.1s5.7-1.5 7.2 3.6c0 0 10.7-24.4 16.5-25.6 5.8-1.2 4.3 6.7 4.3 6.7s14.4-26.9 21.7-25.8c6.3.9-6.9 30.7-10.5 38.4-.3.6.3 1.2.9.9 2.2-1 5.9-2.1 7.2.6 4.3 8.7-12.8 24.2-17.5 29.9-.6.7-.5 1.7.2 2.3 1.4 1.1 3.3 3.4 2.4 7.4-1.3 6.1-14.1 16.9-17.3 22.7h-42.7l27.6-61.1z" opacity=".33"/><path fill="#67a042" d="M559.9 405.3s5.7-20 9.8-20.8c2.4-.5 4.5 1.3 5.8 2.9.6.7 1.7.4 1.8-.5.9-7.8 3.9-29.9 9.5-32.4 4.5-1.9 6.8 1.3 8 3.7.4.8 1.5.8 1.9 0 3.1-6.8 12.1-25.8 17.4-26.8 5.5-1-1.3 24.4-3.3 31.4-.2.6.5 1.1 1 .8 2.5-1.4 7.4-3.9 11.2-2.5 5 1.9-3.3 20.1-9.7 29-.5.7-.8 1.5-.8 2.4.1 3.2-.3 11.9-6.6 18.9-.5.5-.5 1.3-.1 1.9.8 1.1 2.1 3.3 2.1 5.9 0 3.1-8.2 10.5-11.8 13.5-.5.4-.2 1.2.4 1.2 1.7 0 3.9.6 4.6 3.2 1.2 4.4-13 13.1-13 13.1H559l.9-44.9z"/><path fill="none" stroke="#4f7f2f" stroke-linecap="round" stroke-linejoin="round" stroke-miterlimit="10" stroke-width=".992" d="M602.7 353.8s-19 54.2-28 93.7"/><path fill="none" stroke="#4f7f2f" stroke-linecap="round" stroke-linejoin="round" stroke-miterlimit="10" stroke-width=".992" d="m574.8 419.5 2.7 16.9s10.7-2.6 17.6-8.5M593.1 413.9l-11.7 7.4M579.5 393.8s4.2 11.8 5.8 14.2M603.6 388s-8.7 8.8-15.6 11M588 376.3l3.4 11.7M593.1 365.3l3.6 6.4 9.6-4.8M608.4 375.1s-10.2 4.2-14.6 5.3"/><path fill="#d2e5ef" d="M158.4 321.2h72.8v7.7H163c-2.5 0-4.6 2.1-4.6 4.6v116.6h-7.7V327.8c0-3.6 3-6.6 6.6-6.6h1.1z"/><path fill="#bfd7e2" d="M163.5 328.9h7.9v121.2h-7.9z" transform="rotate(-180 167.51 389.527)"/><path fill="#bfd7e2" d="M180.8 328.9h7.9v121.2h-7.9z" transform="rotate(-180 184.767 389.527)"/><path fill="#bfd7e2" d="M199 328.9h7.9v121.2H199z" transform="rotate(-180 203.017 389.527)"/><path fill="#bfd7e2" d="M216.3 328.9h7.9v121.2h-7.9z" transform="rotate(-180 220.275 389.527)"/><path fill="#f2992f" d="M574.6 437H217.7c-2.3 0-4.1 1.8-4.1 4.1v9h365.2v-9c-.1-2.2-1.9-4.1-4.2-4.1z"/><path fill="#f8ba4d" d="M226.8 166.9h336.6v270.2H226.8z"/><path fill="#f5ba55" d="M391.5 366.1h17.6v9.1h-17.6z" opacity=".33"/><path fill="#f5ba55" d="M382.7 375.1h17.6v9.1h-17.6z" opacity=".44"/><path fill="#f5ba55" d="M400.3 375.1h17.6v9.1h-17.6z" opacity=".55"/><path fill="#f5ba55" d="M404.8 170.3h18.3v9.5h-18.3z" opacity=".33"/><path fill="#f5ba55" d="M423.1 170.3h18.3v9.5h-18.3z" opacity=".44"/><path fill="#f5ba55" d="M414 179.8h18.3v9.5H414z" opacity=".55"/><path fill="#f5ba55" d="M465.9 342.9h18.3v9.5h-18.3z" opacity=".33"/><path fill="#f5ba55" d="M484.2 342.9h18.3v9.5h-18.3z" opacity=".44"/><path fill="#f5ba55" d="M475.1 352.4h18.3v9.5h-18.3z" opacity=".55"/><path fill="#f5ba55" d="M237.8 182.7h17.9v9.2h-17.9z" opacity=".33"/><path fill="#f5ba55" d="M255.6 182.7h17.9v9.2h-17.9z" opacity=".44"/><path fill="#f5ba55" d="M246.7 192h17.9v9.2h-17.9z" opacity=".55"/><path fill="#f5ba55" d="M350.8 182.7h17.6v9.1h-17.6z" opacity=".33"/><path fill="#f5ba55" d="M342.1 191.8h17.6v9.1h-17.6z" opacity=".44"/><path fill="#f5ba55" d="M359.6 191.8h17.6v9.1h-17.6z" opacity=".55"/><path fill="#79154d" d="M271.9 220.2h119.9V437H271.9z"/><path fill="#f5ba55" d="M503.6 170.9h17.6v9.1h-17.6z" opacity=".33"/><path fill="#f5ba55" d="M494.8 180h17.6v9.1h-17.6z" opacity=".44"/><path fill="#f5ba55" d="M512.4 180H530v9.1h-17.6z" opacity=".55"/><path fill="#e05353" d="m198.4 169.9 32.1-44.2h331.2l30.6 45.4s-13.8 8.6-31 4.9c-17.3-3.8-30.9-6.3-38.3-5-7.3 1.4-29.6 7.8-49 7.8s-34.7-5.4-44.6-5.2c-9.9.2-19.6 2.2-34 2.2s-27.7-2.2-35-1.8c-7.3.4-18.5 4.8-37.9 4.8-19.3 0-39.7-5.2-49.2-7-9.5-1.8-21.4-1.4-33.7 2.8-12.4 4.2-32.4 3-41.2-4.7z"/><path fill="#f9fff9" d="M548.1 125.8h-18.8l10.6 46c6.2 1 13.4 2.4 21.4 4.2 4.8 1 9.3 1.1 13.3.7l-26.5-50.9zM262.4 125.8h-18.8l-26.5 50.9c7.8.8 16.1.1 22.4-2 4.2-1.4 8.3-2.4 12.4-3l10.5-45.9zM375.1 125.8h-34.2v51.6c8.7-1.3 14.8-3.2 19.4-3.4 3.7-.2 8.8.2 14.8.7v-48.9zM416.6 174.5c4.4-.4 8.6-.8 12.7-.9 5.5-.1 12.8 1.5 21.5 3v-50.8h-34.2v48.7zM309.2 178.1l2.7-52.3h-25.3l-8.9 47c7.8 1.6 19.3 4.1 31.5 5.3zM514 173l-8.9-47.3h-25.3l2.7 52.7c11.6-.9 23.3-3.4 31.5-5.4z"/><path fill="#df9e5d" d="M313.5 134.7s11.7-22.2 39.6-42.2c26.6-19 67.3-36.8 94.3-41.2 27-4.4 32.5 1.2 34.9 8.5S472 90.1 457.7 98.2c-14.3 8.2-110.1 17.1-144.2 36.5z"/><path fill="#c67b3e" d="M417.1 86.3s.9-11.8-3.4-25.3c-2.5 1-5.1 2-7.6 3 2.9 5.4 9.5 17.6 11 22.3zM391.3 94.2s2.6-12.3-1.5-22.9c-2.5 1.2-4.9 2.4-7.4 3.7 2.5 4.5 8.3 15.4 8.9 19.2zM446.2 73.4s-.9-12.6-4.4-20.9c-2.2.5-4.5 1-6.8 1.6 3 3.8 8.9 11.9 11.2 19.3zM370.5 104.9s2.1-11.4-4.6-20.7c-2.4 1.5-4.7 2.9-7 4.4 3.2 2.8 9.3 9 11.6 16.3zM346.9 112.8s2-7.4-1.8-14.1c-1.5 1.2-2.9 2.4-4.2 3.6 2 2.1 5 5.9 6 10.5z"/><path fill="#f8ba4d" d="M317 156.2s13.4 9.5 43.5 3.6c30.2-6 100.6-18.3 116.3-26.7 15.8-8.3 21.1-19.1 19.9-25.9-1.2-6.7-6.3-16.9-41.7-17.3s-74.8 4.8-111.3 22.2c-36.5 17.5-37 26.2-37.1 32.1.1 7.2 10.4 12 10.4 12z"/><text fill="#fff" font-family="LibreBaskerville-Bold" font-size="26.437" transform="matrix(1.0383 -.2237 .04758 .9989 351.34 145.16)">Bakery</text><path fill="#f2992f" d="M534.7 206.8H272.9a6.7 6.7 0 0 0 0 13.4h261.8a6.7 6.7 0 0 0 0-13.4z"/><path fill="#f5ba55" d="M226.8 394.4h14.9v9.1h-14.9z" opacity=".33"/><path fill="#f5ba55" d="M226.8 403.5h5.3v9.1h-5.3z" opacity=".44"/><path fill="#f5ba55" d="M232.1 403.5h17.6v9.1h-17.6z" opacity=".55"/><path fill="#f5ba55" d="M528 274.6h17.6v9.1H528z" opacity=".33"/><path fill="#f5ba55" d="M519.3 283.7h17.6v9.1h-17.6z" opacity=".44"/><path fill="#f5ba55" d="M536.8 283.7h17.6v9.1h-17.6z" opacity=".55"/><path fill="#f5ba55" d="M523.3 405.3h18.3v9.5h-18.3z" opacity=".33"/><path fill="#f5ba55" d="M541.6 405.3h18.3v9.5h-18.3z" opacity=".44"/><path fill="#f5ba55" d="M532.4 414.7h18.3v9.5h-18.3z" opacity=".55"/><path fill="#dd8e4e" d="M283.9 319.4c0 3.3-1.3 6-3 6s-3-2.7-3-6 1.3-6 3-6 3 2.7 3 6z"/><path fill="#f2d29e" d="M526.5 224.1H413.1c-3.6 0-6.6 2.9-6.6 6.6v110.4c0 3.6 2.9 6.6 6.6 6.6h113.4c3.6 0 6.6-2.9 6.6-6.6V230.7c0-3.7-2.9-6.6-6.6-6.6z"/><path fill="#ea8a42" d="M406.5 339.4v1.5c0 3.7 3 6.7 6.7 6.7h113.1c3.7 0 6.7-3 6.7-6.7v-1.5H406.5z"/><path fill="#d89a41" d="M533.1 263.5h-41.4l-40.9 79.4 82.3-2.8z"/><path fill="#e5aa4a" d="M491.3 261.7h41.8v3.6h-41.8zM477 288.7h56.1v3.6H477zM460.6 319.6h72.5v3.6h-72.5z"/><path fill="#f2ba54" d="m453.7 338.1 41.2-76.4H492c-.7 0-1.3.4-1.6.9L449.5 338h4.2z"/><path fill="#df9e5d" d="M406.5 260.5s1.9-3.7 5.1-3.6c3.2.1 4.3 19.2 4.3 19.2l-9.3 12.1v-27.7z"/><path fill="#df9e5d" d="M406.5 260.5s1.9-3.7 5.1-3.6c3.2.1 4.3 19.2 4.3 19.2l-9.3 12.1v-27.7z" opacity=".22"/><path fill="#df9e5d" d="M433.1 299.2s8-13.9 10.2-23.8c2.2-9.9-2.5-15.7-19.9 8.3l-6.1 15.5h15.8z"/><path fill="#c67b3e" d="M423.8 283.2c-.1.2-.3.4-.4.5l-1.2 3.1c3.1-1.4 10.4-.9 10.4-.9-3-3-7.6-2.8-8.8-2.7zM431.2 292.6c-3.7-3.4-9.9-3.4-9.9-3.4l-1.3 3.4c3.7-1.6 11.2 0 11.2 0zM428.6 277c-.8 1-1.7 2.1-2.6 3.3 3.2-1.4 9.6-.4 9.6-.4-2.2-3-5.7-3-7-2.9zM439.1 274.7c-1.2-2-3.9-2.6-5.8-2.9-.9.8-1.8 1.8-2.7 2.9 3.2-1 8.5 0 8.5 0z"/><path fill="#df9e5d" d="M433.1 299.2s8-13.9 10.2-23.8c2.2-9.9-2.5-15.7-19.9 8.3l-6.1 15.5h15.8z" opacity=".22"/><path fill="#df9e5d" d="M420.2 299.2s9.2-21.5 8.6-38.6c-.1-2.3-2.7-3.4-4.4-1.9-4.7 4.1-12.5 12.6-17.9 28v12.6h13.7z"/><path fill="#c67b3e" d="m407.4 284.3.2-.6c-.1.2-.1.4-.2.6zM416.9 282.9s-1.4-2.4-7.5-3.3c-.6 1.3-1.2 2.7-1.8 4.1 0 0 3.9-1.8 9.3-.8zM419 264c-.9 1.1-1.8 2.2-2.8 3.5 2.5-.3 6.3-.6 9 .5 0 0-2.1-3-6.2-4zM415.9 291.9s-4.1-3.7-9.3-2.5v3.2c2.9-.8 6.6-1.4 9.3-.7zM413.8 271.3c-.7 1.2-1.4 2.4-2.1 3.7 2.8-.5 8.1-1.1 11.4.3-.1.1-2.9-3.3-9.3-4z"/><path fill="#fda345" d="M406.5 299.2H439c1.6 0 2.8 1.4 2.5 3l-4.5 28.6h-30.5v-31.6z"/><path fill="#f2ba54" d="M469.8 327.7h-63.2v11.7H474v-7.5c0-2.3-1.9-4.2-4.2-4.2z"/><path fill="#edf4f7" d="m433.4 327.7-2-6.3h31.8l-2.3 6.3z"/><path fill="#f2cd97" d="M447.3 323.4s-16.8 0-19.4-4.1c-2.7-4.1 10.6-8.8 18.9-8.8 10.6 0 19.4 5.3 19.4 8.8 0 4.1-15.1 4.2-18.9 4.1z"/><path fill="#edf4f7" d="M406.5 327.7H420l2.3-6.3h-15.8z"/><path fill="#f2cd97" d="M406.5 310.6v12.8c4 .1 18.8 0 18.7-4.1 0-3.4-8.4-8.5-18.7-8.7z"/><path fill="#e2a066" d="M490.2 283c1 2.8 4.2 4.2 6.9 3 2.7-1.1 6.3-3.7 10-9.6 7-11.2 10.2-17.4 11.1-20.5.9-3.2-2.7-8.3-5-7.7-2.3.6-8.5 2.9-12.2 4.8-3.7 1.9-11.1 11.2-11.7 21.7-.3 3.8.2 6.5.9 8.3z"/><path fill="#c67b3e" d="M493.1 278.1c1.4-1.2 4-1.5 5.3 0-1.9-.4-3.4-.1-5.3 0zM493.1 272.7c2.3-1.7 5.7-1.6 7.9 0-2.7-.5-5.2-.5-7.9 0zM495.8 263.5c3-.8 6.6 0 8.6 2.4-2.8-1.5-5.6-2-8.6-2.4zM498.7 258.7c2.7-1.3 6.4-.1 7.9 2.5-2.3-1.7-5-2.7-7.9-2.5zM503.2 252.4c3.2-1.3 6.8 1.3 8 4.2-.3-.3-.6-.6-.9-.8-1.9-1.9-4.3-3.4-7.1-3.4z"/><path fill="#e2a066" d="M533.1 278.2s-5.7 9.5-10.1 10c-4.5.4-7.9-2.9-7.7-7.5.1-4.6 4.2-18.4 6.6-21.2 2.4-2.8 10.3-8.9 11.2-10v28.7z"/><path fill="#c67b3e" d="M518.3 278.8c2-1.4 5-.8 6.5 1-2.2-.8-4.2-1.2-6.5-1zM518.3 273.8c2.2-1.1 5.2-.6 6.9 1.2-2.4-.8-4.5-1.1-6.9-1.2zM529.5 269.9c-3.3-1.4-6.6-2.8-10.2-2.6 3.4-1.4 7.5.3 10.2 2.6zM528.8 262.6c-2.2-.7-4.2-1.1-6.5-1.5 2.2-.8 4.9-.2 6.5 1.5zM531.7 257.4c-1.8-.4-3.2-1-5.1-1.4 1.7-.8 3.9 0 5.1 1.4zM474.9 306.6s4-5.4 8.6-4.6c4.5.8 7.1 4.6 8.5 6.6 1.4 2-1 8.3-8.6 8.7-7.5.4-11.5-6.5-8.5-10.7z"/><path fill="#a35e2b" d="M479.8 306.7c.3.3.7.4 1 .5.4.1.8 0 1.2-.1.4-.1.8-.2 1.1-.4.3-.2.6-.6.5-1 0-.3-.2-.6-.5-.9-.5-.6-1.9-.6-2.6-.3-.8.3-1.4 1.4-.7 2.2zM484.5 307.9c-.5.2-1 .6-1.1 1.2 0 .6.5 1.2 1.1 1.4.6.2 1.3.1 1.9-.1.3-.1.5-.1.8-.3.1-.1.2-.1.3-.2.1-.1.1-.3.1-.4.1-1.8-1.9-2-3.1-1.6zM480.2 313.4c.2.2.5.2.7.3.4.1.7.1 1.1.1 1.2 0 1.9-1.4 1.1-2.3-.6-.7-2.1-.6-2.8-.1-.5.5-.6 1.6-.1 2zM478.4 308.4c0-.9-.9-1.6-1.9-1.7-.6-.1-1.2 0-1.8.2-.7 1.1-.9 2.4-.8 3.7.3.1.7.1 1 .1.8 0 1.5-.1 2.2-.4.7-.5 1.3-1.2 1.3-1.9z"/><path fill="#c67b3e" d="M497.8 317.7s-4-4-2.3-8.1c1.8-4.1 6.3-6 8.2-6 1.9 0 6.7.1 8.6 5.3 1.9 5.1-.2 7.5-3 8.8-2.7 1.4-7.2 2.2-11.5 0z"/><path fill="#a35e2b" d="M505.6 307c.2.3.1.7-.1.9-.2.3-.5.4-.9.5-.7.2-1.5.2-2.3.1-.3 0-.6 0-.8-.1s-.5-.3-.6-.5c-.1-.3 0-.7.3-1 .2-.3.6-.4.9-.6.6-.3 1.3-.6 1.9-.4.4.1.7.4 1 .7l.6.4zM501.9 310.8c-.2.2-.3.4-.4.7-.1.4-.2.8 0 1.2.2.4.8.4 1.2.4.7-.1 1.3-.3 1.9-.6.3-.1.6-.3.7-.6.1-.2.1-.4.2-.6.3-2.2-2.7-1.4-3.6-.5zM510.7 309.7c.2.4.4.7.5 1.1 0 .4-.2.9-.5 1-.2.1-.4.1-.7.1-.2 0-.4 0-.6-.1-.2-.1-.4-.3-.6-.4-.2-.1-.4-.2-.5-.3-.3-.2-.6-.6-.6-1s.2-.8.5-1c.3-.2.7-.2 1-.1.3.1.7.2 1 .4-.1 0 .5.3.5.3z"/><path fill="#c67b3e" d="M528 317.3s-7.6 1-10.5-3.8c-2.9-4.8 4.6-9.4 8.8-9.1 4.2.2 6.5 1.8 6.8 3.3v7.4c0-.1-2.2 2.1-5.1 2.2z"/><path fill="#a35e2b" d="M522 309c-.2 0-.4 0-.6.1-.3.2-.5.5-.7.9-.1.2-.2.5-.2.7 0 .3.2.6.4.8.2.2.5.4.8.5.9.3 1.9.5 2.7 0 .2-.1.4-.2.5-.4.1-.1.2-.3.2-.5.1-.5 0-1-.3-1.4-.8-.7-1.9-.7-2.8-.7zM525.8 306.7c-.1 0-.1.1-.2.1-.1.1-.1.2-.1.2-.1.2-.3.3-.5.4-.1.2-.1.4-.1.6.1.2.2.3.4.5.7.5 1.7.4 2.5.1.4-.2.9-.4 1.1-.9.6-1.6-2.3-1.4-3.1-1zM527.6 311.3c-.1 0-.3.1-.4.1-.1.1-.2.2-.2.3-.4.5-.8 1.1-.7 1.8 0 .1 0 .2.1.3.1.1.2.1.4.1.8 0 1.6.1 2.3-.2.7-.3 1.3-1 1.3-1.7 0-.3-.1-.6-.3-.8-.7-.5-1.9-.1-2.5.1z"/><path fill="none" stroke="#f4d7b5" stroke-miterlimit="10" stroke-width=".827" d="M430.6 234v-9.9"/><path fill="#f4a83b" d="M436.2 236.6c0-3.1-2.5-5.7-5.7-5.7-3.1 0-5.7 2.5-5.7 5.7 0 3.1 2.5 5.7 5.7 5.7s5.7-2.6 5.7-5.7z"/><path fill="none" stroke="#f4d7b5" stroke-miterlimit="10" stroke-width=".827" d="M466.4 234v-9.9"/><path fill="#f4a83b" d="M472.1 236.6c0-3.1-2.5-5.7-5.7-5.7-3.1 0-5.7 2.5-5.7 5.7 0 3.1 2.5 5.7 5.7 5.7s5.7-2.6 5.7-5.7z"/><path fill="none" stroke="#f4d7b5" stroke-miterlimit="10" stroke-width=".827" d="M500.5 234v-9.9"/><path fill="#f4a83b" d="M506.1 236.6c0-3.1-2.5-5.7-5.7-5.7-3.1 0-5.7 2.5-5.7 5.7 0 3.1 2.5 5.7 5.7 5.7s5.7-2.6 5.7-5.7z"/><path fill="#c6f4f2" d="m458.9 224.1-52.4 64.1v40.4l84.8-104.5zM533.1 230.8c0-3.7-3-6.7-6.7-6.7h-14.1l-98.9 123.6h49.9l69.9-94.7v-22.2z" opacity=".1"/><path fill="#e05353" d="M611.9 202.2h-49.3c-2.2 0-4.1 1.8-4.1 4.1v102.4c0 2.2 1.8 4.1 4.1 4.1h49.3c2.2 0 4.1-1.8 4.1-4.1V206.2c-.1-2.2-1.9-4-4.1-4z"/><path fill="#f9fff9" d="M608.8 304.7h-43.1c-.5 0-1-.4-1-1V211c0-.5.4-1 1-1h43.1c.5 0 1 .4 1 1v92.7c-.1.6-.5 1-1 1z"/><path fill="none" stroke="#d2e5ef" stroke-linecap="round" stroke-linejoin="round" stroke-miterlimit="10" stroke-width="1.653" d="M579.3 252.1H605"/><path fill="#d2e5ef" d="M575.6 252.1c0-1.7-1.4-3.1-3.1-3.1-1.7 0-3.1 1.4-3.1 3.1 0 1.7 1.4 3.1 3.1 3.1 1.7-.1 3.1-1.4 3.1-3.1z"/><path fill="none" stroke="#d2e5ef" stroke-linecap="round" stroke-linejoin="round" stroke-miterlimit="10" stroke-width="1.653" d="M579.3 241.6H605"/><path fill="#d2e5ef" d="M575.6 241.6c0-1.7-1.4-3.1-3.1-3.1-1.7 0-3.1 1.4-3.1 3.1 0 1.7 1.4 3.1 3.1 3.1 1.7 0 3.1-1.4 3.1-3.1z"/><path fill="none" stroke="#d2e5ef" stroke-linecap="round" stroke-linejoin="round" stroke-miterlimit="10" stroke-width="1.653" d="M579.3 262H605"/><path fill="#d2e5ef" d="M575.6 262c0-1.7-1.4-3.1-3.1-3.1-1.7 0-3.1 1.4-3.1 3.1 0 1.7 1.4 3.1 3.1 3.1 1.7 0 3.1-1.4 3.1-3.1z"/><path fill="none" stroke="#d2e5ef" stroke-linecap="round" stroke-linejoin="round" stroke-miterlimit="10" stroke-width="1.653" d="M579.3 272H605"/><path fill="#d2e5ef" d="M575.6 272c0-1.7-1.4-3.1-3.1-3.1-1.7 0-3.1 1.4-3.1 3.1 0 1.7 1.4 3.1 3.1 3.1 1.7 0 3.1-1.4 3.1-3.1z"/><path fill="none" stroke="#d2e5ef" stroke-linecap="round" stroke-linejoin="round" stroke-miterlimit="10" stroke-width="1.653" d="M579.3 282H605"/><path fill="#d2e5ef" d="M575.6 282c0-1.7-1.4-3.1-3.1-3.1-1.7 0-3.1 1.4-3.1 3.1 0 1.7 1.4 3.1 3.1 3.1 1.7 0 3.1-1.4 3.1-3.1z"/><path fill="none" stroke="#d2e5ef" stroke-linecap="round" stroke-linejoin="round" stroke-miterlimit="10" stroke-width="1.653" d="M579.3 291.9H605"/><path fill="#d2e5ef" d="M575.6 291.9c0-1.7-1.4-3.1-3.1-3.1-1.7 0-3.1 1.4-3.1 3.1 0 1.7 1.4 3.1 3.1 3.1 1.7 0 3.1-1.4 3.1-3.1zM596.6 226.2h-18.8c-1.9 0-3.5-1.6-3.5-3.5s1.6-3.5 3.5-3.5h18.8c1.9 0 3.5 1.6 3.5 3.5 0 2-1.6 3.5-3.5 3.5z"/><path fill="#67a042" d="M409.1 414.3s-5.6-5.1-6.3-16.3c-.6-11.2 5.5-5.5 8.5 8.1 0 0-1-18.8 3.8-19.1 4.8-.3 4.2 19.6 4.2 19.6s.8-17.3 4.2-17.4c3.4-.1 3.3 15.1 2.8 18 0 0 3.9-14.7 8.7-13.9 4.9.8-2.8 18.4-6.2 20.9h-19.7z"/><path fill="#f9fff9" d="M431.5 412.9H405s-7 13.8 4.1 24.2h18.4c11.1-10.4 4-24.2 4-24.2z"/><path fill="#e05353" d="M432.9 416.8c-.6-2.4-1.4-3.9-1.4-3.9H405s-.8 1.5-1.4 3.9h29.3z"/><path fill="#67a042" d="M465.9 414.3s5.6-5.1 6.3-16.3c.6-11.2-5.5-5.5-8.5 8.1 0 0 1-18.8-3.8-19.1-4.8-.3-4.2 19.6-4.2 19.6s-.8-17.3-4.2-17.4c-3.4-.1-3.3 15.1-2.8 18 0 0-3.9-14.7-8.7-13.9-4.9.8 2.8 18.4 6.2 20.9h19.7z"/><path fill="#f9fff9" d="M443.4 412.9H470s7 13.8-4.1 24.2h-18.4c-11.1-10.4-4.1-24.2-4.1-24.2z"/><path fill="#e05353" d="M442 416.8c.6-2.4 1.4-3.9 1.4-3.9H470s.8 1.5 1.4 3.9H442z"/><path fill="#67a042" d="M485.2 414.3s-5.6-5.1-6.3-16.3 5.5-5.5 8.5 8.1c0 0-1-18.8 3.8-19.1 4.8-.3 4.2 19.6 4.2 19.6s.8-17.3 4.2-17.4c3.4-.1 3.3 15.1 2.8 18 0 0 3.9-14.7 8.7-13.9 4.9.8-2.8 18.4-6.2 20.9h-19.7z"/><path fill="#f9fff9" d="M507.7 412.9h-26.5s-7 13.8 4.1 24.2h18.4c11-10.4 4-24.2 4-24.2z"/><path fill="#e05353" d="M509.1 416.8c-.6-2.4-1.4-3.9-1.4-3.9h-26.5s-.8 1.5-1.4 3.9h29.3z"/><path fill="#67a042" d="M541.2 414.3s5.6-5.1 6.3-16.3c.6-11.2-5.5-5.5-8.5 8.1 0 0 1-18.8-3.8-19.1-4.8-.3-4.2 19.6-4.2 19.6s-.8-17.3-4.2-17.4c-3.4-.1-3.3 15.1-2.8 18 0 0-3.9-14.7-8.7-13.9-4.9.8 2.8 18.4 6.2 20.9h19.7z"/><path fill="#f9fff9" d="M518.8 412.9h26.5s7 13.8-4.1 24.2h-18.4c-11.1-10.4-4-24.2-4-24.2z"/><path fill="#e05353" d="M517.4 416.8c.6-2.4 1.4-3.9 1.4-3.9h26.5s.8 1.5 1.4 3.9h-29.3z"/><path fill="none" stroke="#d6712d" stroke-miterlimit="10" stroke-width=".945" d="M526.5 224.1H413.1c-3.6 0-6.6 2.9-6.6 6.6v110.4c0 3.6 2.9 6.6 6.6 6.6h113.4c3.6 0 6.6-2.9 6.6-6.6V230.7c0-3.7-2.9-6.6-6.6-6.6z"/><path fill="#f9fff9" d="m271.9 220.2 10.4 9.5 7.8-9.5 9.8 9.9 9.6-9.9 11.1 12 11.6-12 12.8 12 11-12 11.7 12 10.3-11.6 12.5 10.9 12-11.3z"/><path fill="#f9fff9" d="m402.5 220.2 10.4 9.5 7.8-9.5 9.8 9.9 9.6-9.9 11.1 12 11.6-12 12.8 12 10.9-12 11.8 12 10.3-11.6 12.5 10.9 12-11.3z"/><path fill="#79154d" d="m125.5 434.8-1.2 15.3h25.3s1-6.9-6.5-8.2l.4-5.6-18-1.5z"/><path fill="#80b2ed" d="m143 441.9.4-5.6-18-1.6-.7 8.4 10 2c.1.1 3.2-3.2 8.3-3.2z"/><path fill="#79154d" d="M167.1 434.8v15.3h29.2s.4-7.5-9.7-8.9v-6.4h-19.5z"/><path fill="#80b2ed" d="M186.6 441.2v-6.4h-19.4v8.6l13.4 1.8c-.1 0 1.5-2.8 6-4z"/><path fill="#5887cb" d="M128.4 339.5s-8.1 88-9.5 96.2c0 0 6.1 1.4 35.9 1.4h39.9s-4.3-82-12.5-113.6c-8.2-31.6-16-71.3-16-71.3l-3.1-1.5-13.6-1-3.3.9-17.8 88.9z"/><path fill="#ff90c8" d="m173.6 254.9-7.4-2.8s4.7 31.1 6.7 56.8C175 334.7 178 345 178 345l11.4-2.9c0 .1-11.1-46.7-15.8-87.2zM127.6 305.6l-3.6 35.5 17.3 3s8.1-55.1 4.7-93.5l-1.2.3-17.2 54.7z"/><path fill="#ff90c8" d="M173.6 254.9s7.1 2.5 9.5 4.2c2.4 1.7 10.9 23.2 12.6 32.1l-23.4-10.5 1.3-25.8z"/><path fill="none" stroke="#cc5d9f" stroke-linecap="round" stroke-linejoin="round" stroke-miterlimit="10" stroke-width=".827" d="M176.4 265s2.2 8.4 2.9 18.1"/><path fill="#ff90c8" d="m182.2 282.4 13.5 8.8s2.2 7.1-1.3 12.8c-3.5 5.7-16.9.5-20.6-2.6 0 0-2.2-8.1 8.4-19z"/><path fill="none" stroke="#cc5d9f" stroke-linecap="round" stroke-linejoin="round" stroke-miterlimit="10" stroke-width=".827" d="M194.4 304c-3.5 5.7-16.9.5-20.6-2.6"/><path fill="#ff90c8" d="m134.4 291.8 10.6-41s-14.4 3.1-17.4 4.8c-3 1.7-13.3 37.9-13.3 37.9l20.1-1.7z"/><path fill="#ff90c8" d="m143.7 282.9-29.4 10.6s-.9 14.3 11.9 14.3 24.8-6.1 24.8-6.1 3.1-11.9-7.3-18.8z"/><path fill="none" stroke="#cc5d9f" stroke-linecap="round" stroke-linejoin="round" stroke-miterlimit="10" stroke-width=".827" d="M126.2 307.8c12.8 0 24.8-6.1 24.8-6.1"/><path fill="#f2cd97" d="M155.6 271.8s-3.4-16.7 1.2-17.8c4.6-1.1 8.3 17.8 8.3 17.8h-9.5z"/><path fill="#f2cd97" d="M155.6 271.8s-3.4-16.7 1.2-17.8c4.6-1.1 8.3 17.8 8.3 17.8h-9.5z" opacity=".22"/><path fill="#df9e5d" d="M155.8 259.4c1.7-1.3 4.6-.8 4.6-.8l-4.4 1.5-.2-.7zM156.4 263c1.7-1.3 4.6-.8 4.6-.8l-4.4 1.5-.2-.7zM157 266.6c1.7-1.3 4.6-.8 4.6-.8l-4.4 1.5-.2-.7zM157.6 270.2c1.7-1.3 4.6-.8 4.6-.8l-4.4 1.5-.2-.7z"/><path fill="#f2cd97" d="M173.4 271.8s4.1-18.5 0-19.6c-7-1.9-11.9 19.6-11.9 19.6h11.9z"/><path fill="#df9e5d" d="M168.3 256.7c2.6.1 4.9 2.4 4.9 2.4l-5.3-1.7.4-.7zM166.8 260.5c2.6.1 4.9 2.4 4.9 2.4l-5.3-1.7.4-.7zM165.4 264.3c2.6.1 4.9 2.4 4.9 2.4L165 265l.4-.7zM164.2 267.9c2.6.1 4.9 2.4 4.9 2.4l-5.3-1.7.4-.7z"/><path fill="#fda345" d="M152.1 275.5v-6.3H177l-4 30.2h-20.1z"/><path fill="#f9c1c0" d="M152 247.7v.8l-2.6 1.2s4.5 4.4 7.4 4.4c2.9 0 6.2-3.4 6.2-3.4l-.2-.2v-3.7h9.3l2.4-7.6v-10.6s-3.1-11.3-10.9-11.7c-7.7-.4-19.3 6.9-21.5 12.1-2.2 5.2.4 14.9 3.9 15.6 3.6.6 6 3.1 6 3.1z"/><path fill="#79154d" d="M155.2 225s2.7-1.3 5.9.2c0 0 .6-1-.5-1.8-1.6-1.2-5.4-.3-5.4-.3s-.7.6 0 1.9z"/><path fill="#79154d" d="M150.2 228.1s7.8-3.6 11.5-9.8c0 0 11.3 1.7 11.3 13.6s-10.1 14.9-10.1 14.9v1.7s10.2.5 15.2-2.5c0 0 3.3-29.5-13.9-32.7-17.2-3.3-27.6 13.1-23.3 34 0 0 5.3 1.6 11.2.4v-4.4l-2-2.2s-7.3-1.8-7.3-6.9c0-5.1 3.8-4.5 5.1-3.5l2.2 2.7c-.1-.1.8-1.7.1-5.3z"/><path fill="none" stroke="#993370" stroke-linecap="round" stroke-linejoin="round" stroke-miterlimit="10" stroke-width=".827" d="M147.5 229.4s8.4-2.4 14.2-11.1c0 0 8.7 1.3 10.8 9.6"/><path fill="#79154d" d="M165.2 225.3s2.4-1.3 4.6.2c0 0 .1-1.4-.9-1.9s-2.7-.5-3.7.2c0 0-.4.8 0 1.5z"/><path fill="none" stroke="#79154d" stroke-linecap="round" stroke-linejoin="round" stroke-miterlimit="10" stroke-width=".827" d="M155.8 228.6s2.5-.5 4.6.8M166.1 229.4s1.4-1 3.6-.4"/><path fill="#f4807d" d="M148.5 236.2s-1.3-3.8-3-3.4c-1.8.4.1 4.4 3 3.4zM155.2 245.3s2.7 1.9 7.6 1.4v3c0 .1-4.8.6-7.6-4.4z" opacity=".33"/><path fill="#e25555" d="m155.8 235.1 8.4 3.1c.4.1.6.6.4 1-.6 1.1-2.1 2.9-4.5 2.4-4.1-.8-4.8-4.5-4.9-6 0-.4.3-.6.6-.5z"/><path fill="none" stroke="#e26060" stroke-linecap="round" stroke-miterlimit="10" stroke-width=".708" d="M155.2 245.3s3.2 2.2 7.6 1.4M145 233.1s1.9-1.1 3.8 3.8"/><path fill="none" stroke="#e26060" stroke-linecap="round" stroke-miterlimit="10" stroke-width=".708" d="M146.1 235.1s.7-.9 1.5-.5M163.7 228.8l.6 3.3s2.3-.1 2.6 1.1c.4 1.5-2.6 2.6-2.6 2.6"/><path fill="#f9c1c0" d="m143.7 282.9 3.3-1.4s.2-5.2 5.1-6v3s9.7-.2 12.6-.8c3-.6 2.4 1.8 1.5 2.6 0 0 2.5 1.3.7 4.1 0 0 1.7 1.3-.6 3.4 0 0 .8 1.3-.4 3.4s-16.7 7.9-16.7 7.9-4.9-5.2-5.5-16.2zM182.2 282.4l-4.3-3.1s.4-3.2-2-3.8v2.8l-3.7 2.4s-1.2 1.2 0 2.4c0 0-1.1 1.6.2 3.1 0 0-1 1.7 0 3.1 0 0-1 1.1-.1 2.6h.6v6.9l1.6 1c.1-.1 6.4-8.2 7.7-17.4z"/><path fill="none" stroke="#e26060" stroke-linecap="round" stroke-miterlimit="10" stroke-width=".708" d="m155.6 283.1 10.6-2.8M156 287.6l10.9-3.2M156.8 291.9l9.6-4.1M177.9 279.3s.3 1.2-.3 2c0 0 1 1.6 0 3.4 0 0 .8 1.8 0 3.6 0 0 .3 1.8 0 2.5-.6 1.3-4.6 1-4.6 1M172.5 289.2l5.1-1M172.4 286.1l5.2-1.4M172.2 283l5.4-1.7"/><path fill="none" stroke="#cc5d9f" stroke-linecap="round" stroke-linejoin="round" stroke-miterlimit="10" stroke-width=".827" d="m126.4 289.2 17.3-6.3M140 273.3l-3 12.1M190.1 288.2s-3.7-3.3-7.9-5.9"/><path fill="#cc5d9f" d="m149.3 299.1 2.2-.8s.2 2.4-.6 3.5l-1.6-2.7zM174.6 299.7l-1.6-1 .3 2.7s.9-.5 1.3-1.7z"/><path fill="#5887cb" d="m371.5 425.8 4.4 4.3s-3.3 6.1-2.2 9.3c1.1 3.2 4.5 3.2 4.5 3.2l16.4-14.4c.5-.5.6-1.3.2-1.9l-9.2-11.3-14.1 10.8zM305.1 437.9v4.7s-7.2 1.3-6.9 7.5h27.1V436l-20.2 1.9z"/><path fill="#fda345" d="m335.9 378.5 29.2 41.8s-1.3 8 5.5 7.4l17.6-12.8s.5-5.8-4.8-4.8L361 376.5l-25.1 2zM305.1 376.3s-1.3 46.9-1.3 55c0 0-3.3 1.1-2.8 4s4.1 2.6 4.1 2.6h21.2s5.6-2.6.8-7c0 0 .8-46 .8-52.3l-22.8-2.3zM353.9 285.7 366 297l16.2-10s2.3-2.5 2.6-4.6c0 0-17.5-16.4-26.5-19.5l-4.4 22.8zM313.2 264.7s-1.2.7-2.9 2.9c-1.6 2.2-14.3 19-14.3 19l10.3 20.1s1.1.3 2.7 0l6.3-7.1-2.1-34.9z"/><path fill="#f9c1c0" d="M296.1 286.5s9.4 3.7 12.4 17.8l-7.8 8.8-4.6-26.6zM368.5 299.4 366 297s10.9-11.4 14-13.3l2.2 1.8-13.7 13.9z"/><path fill="#f9c1c0" d="m360.4 305.5 21.8-19.9s5.1 3.8 6.7 8.7c1.7 5-1.4 9.2-1.4 9.2l-14.5 12s-10.1-4.8-12.6-10z"/><path fill="#fda345" d="m324.4 260.8-11.1 3.9-2.8 14.8s2.2 20.3 2.2 24.6-6.9 21.8-10.1 74.2c0 0 33.7 6.5 64.9-2 0 0-12.1-61.3-11.9-63.7.2-2.4 2.2-24 2.2-24l.6-25.7-21-4.8-13 2.7z"/><path fill="#5887cb" d="M367.4 376.3s-12.1-61.3-11.9-63.7c.1-1.7 1.2-13.5 1.8-19.9 0 0-7.1.1-9.2-10.5-1.7-8.5.2-18 1.1-21.4l-4.8-1.1c-.6 1.2-3.1 7-3.4 17h-23.8s1-9 3.7-14.7l-4.2 1.5s-3.9 7.9-5.9 17c.4 4.2 2.1 19.9 2.1 23.6 0 4.3-6.9 21.8-10.1 74.2-.3 0 33.4 6.5 64.6-2z"/><path fill="#f9c1c0" d="M319.7 228.4s-5.6 6.4-4.3 15.2c1.4 9.5 10 12.5 10 12.5v4.3l-1 .4s.6 3.6 5 3.9c4.4.3 7.9-5.8 7.9-5.8v-6.7l1.3-1.1s5.6-.9 7.1-4.7c1.8-4.4-.6-6.4-.6-6.4l-8-13.2-17.4 1.6z"/><path fill="#e05353" d="M317.2 227.6s1.2 4.6 7.4 1.5c0 0 2.4 1.9 6.5-.2 0 0-.1 3.4 4.4 3.5 0 0 .5 6.6 2.1 9.6 0 0 1.9-4.8 7.5-2 0 0 4.2-16.8-9.4-17.3 0 0-2.4-4.7-7.1-2 0 0-1.3-2.8-3.6-2.8-2.3-.1-4.4 3.3-4.4 3.3s-1.7-.6-4.4.9c-2.6 1.5-3.9 5.9 1 5.5z"/><path fill="#e05353" d="M327 234.6s2.4-1.8 5.9-.4c0 0-.2-1.6-1.8-2.2 0 0-2.4-.8-4 1.1-.1-.1-.5.6-.1 1.5zM316.8 234.1s1.7-1.8 5.7 0c0 0 .1-1.2-.6-2 0 0-2.3-1.3-4.5 0-.1 0-.8 1.1-.6 2z"/><path fill="#79154d" d="M320.2 239.1c0 1.1-.4 2.1-1 2.1-.5 0-1-.9-1-2.1 0-1.1.4-2.1 1-2.1s1 1 1 2.1zM329.6 239.1c0 1.1-.4 2.1-1 2.1-.5 0-1-.9-1-2.1 0-1.1.4-2.1 1-2.1.5 0 1 1 1 2.1z"/><path fill="#f4807d" d="M325.3 256.1s4.6 1 8.3-1.7c0 0-2 4.4-8.3 4.6v-2.9zM339.9 245.7s1.3-3.9 3.6-3.7c2.3.1-.3 5.5-3.6 3.7z" opacity=".33"/><path fill="#e25555" d="m323.9 249.6 6.7-4.4c.4-.3 1-.1 1.2.4.4 1.6.8 4.6-1.9 6.2-3 1.7-5.2-.2-6.1-1.3-.3-.2-.2-.7.1-.9z"/><path fill="none" stroke="#e26060" stroke-linecap="round" stroke-miterlimit="10" stroke-width=".708" d="M325.3 256.1s4 1 8.3-1.7M323.2 239.5v3.2s-2.9 0-2.9 1.5c-.1 1.5 1.7 2.6 3.4 2.3M343.8 241.9s-2.2-.5-4.4 4.4"/><path fill="none" stroke="#e26060" stroke-linecap="round" stroke-miterlimit="10" stroke-width=".708" d="M343.2 244.4s-1.2-.8-2.5-.4"/><path fill="#f9c1c0" d="M364.5 308.5s-4.5-9.4-6.5-10.3c-2-.9-7.8 2.5-8.6 3.5-.8 1-1 2.4-.7 3.3 0 0-1.8 1.4-.7 4.4 0 0-1 2.1.4 3.6 0 0-1.4 2.2-.2 3.9.3.4.9.5 1.3.3l5.2-2.7s3.7 8.1 6.4 8.8c2.7.7 11.9-7.6 11.9-7.6l-8.5-7.2zM299.8 293.9s-6.7-20.5-6.9-21.1c-.2-.6 0-11-2.7-11.1-2.8-.1-2.9 6.8-3 8.2 0 0-7.7-7.8-8.9-7.8-1.1 0-2.7 1.7-1.9 3.9 0 0-2.6.5-1.9 3.6 0 0-1.9.9-1.1 3.2 0 0-1.1 1.6-.2 4.1.9 2.5 6 7.4 6 7.4s4.6 24.5 8.6 29.5 8.8 4 12.8-.7l-.8-19.2z"/><path fill="none" stroke="#e26060" stroke-linecap="round" stroke-miterlimit="10" stroke-width=".708" d="m273.5 272.8 5.6 6.5M274.6 269.6l6.2 6.8M276.5 266l6.3 7.9M285.7 275.3s-.6-3.9 1.5-5.4l.3-3.3M348.7 304.9l5.8-3.5M348.1 309.3l7.8-4.4M348.5 312.9l6.9-4M364.5 308.5s-3.7-7.7-5.1-9M372.2 293.8l-10 10.1"/><path fill="none" stroke="#c1610a" stroke-linecap="round" stroke-linejoin="round" stroke-miterlimit="10" stroke-width=".827" d="m309.7 276.9 2.8 24.7M354.5 286.3l10.7 10"/><path fill="#c1610a" d="M384.7 282.4s-3 0-4.8 1.3l2.9 2.4c.1 0 1.6-1.6 1.9-3.7z"/><path fill="#f2cd97" d="M317.5 307.5c.1 1.3 1.4 2.3 2.7 2.2 1.7-.2 4.6-1.1 9.1-4.1 8.3-5.6 12.2-11.2 10.6-15-1.6-3.8-11.2 1.9-15.9 5.8-4.1 3.4-7 6.7-6.5 11.1z"/><path fill="#e0aa80" d="M327.9 298.9s1.8-2 1.2-6.1c-.8.5-1.5.9-2.2 1.4.5.9 1.1 2.4 1 4.7zM332.1 296.1s2-1.9 1.4-5.6c-.7.3-1.4.6-2.1 1 .4.8 1 2.2.7 4.6zM324.1 302.5s1.2-3.1-.1-6.1c-.9.7-1.7 1.5-2.5 2.2.8.6 2.2 1.7 2.6 3.9zM320.5 305.9s.9-3-.6-5.6c-.5.7-1 1.4-1.4 2.1.9.6 1.8 1.8 2 3.5z"/><path fill="none" stroke="#c1610a" stroke-linecap="round" stroke-linejoin="round" stroke-miterlimit="10" stroke-width=".827" d="M314.2 431.3h12.1M372.7 417.8l10.6-6.9"/><path fill="none" stroke="#e26060" stroke-linecap="round" stroke-miterlimit="10" stroke-width=".708" d="m293.6 274.7 6.2 19.2"/><path fill="none" stroke="#acc7d1" stroke-linecap="round" stroke-linejoin="round" stroke-miterlimit="10" stroke-width="1.653" d="M81.6 450.1h586.8"/></svg>