<svg xmlns:mydata="http://www.w3.org/2000/svg" mydata:contrastcolor="fffff" mydata:template="Contrast" mydata:presentation="2.5" mydata:layouttype="undefined" mydata:specialfontid="undefined" mydata:id1="246" mydata:id2="015" mydata:companyname="Pães d'casa" mydata:companytagline="Gente que ama cheirinho de padaria" version="1.1" xmlns="http://www.w3.org/2000/svg" xmlns:xlink="http://www.w3.org/1999/xlink" viewBox="0 45 550 380"><g fill="none" fill-rule="nonzero" stroke="none" stroke-width="1" stroke-linecap="butt" stroke-linejoin="miter" stroke-miterlimit="10" stroke-dasharray="" stroke-dashoffset="0" font-family="none" font-weight="none" font-size="none" text-anchor="none" style="mix-blend-mode: normal"><g data-paper-data="{&quot;isGlobalGroup&quot;:true,&quot;bounds&quot;:{&quot;x&quot;:65,&quot;y&quot;:188.50855815008083,&quot;width&quot;:420,&quot;height&quot;:92.98288369983834}}"><g data-paper-data="{&quot;isSecondaryText&quot;:true}" fill="#ff8200"><path d="M71.01406,277.45343c0.36449,0 0.68732,-0.03124 0.9685,-0.09373c0.28118,-0.06248 0.54673,-0.1458 0.79667,-0.24993v-1.72611h-1.12471c-0.16662,0 -0.2968,-0.04426 -0.39052,-0.13278c-0.09373,-0.08852 -0.14059,-0.20047 -0.14059,-0.33585v-1.45275h4.04582v4.80344c-0.29159,0.21349 -0.5949,0.39703 -0.90992,0.55064c-0.31502,0.15361 -0.65087,0.27988 -1.00755,0.37881c-0.35668,0.09893 -0.73679,0.17183 -1.14033,0.21869c-0.40354,0.04686 -0.83702,0.07029 -1.30044,0.07029c-0.83312,0 -1.60375,-0.1471 -2.3119,-0.44129c-0.70815,-0.29419 -1.32127,-0.70034 -1.83936,-1.21843c-0.51809,-0.51809 -0.92424,-1.13252 -1.21843,-1.84327c-0.29419,-0.71075 -0.44129,-1.48269 -0.44129,-2.3158c0,-0.84874 0.14059,-1.62848 0.42177,-2.33923c0.28118,-0.71075 0.68342,-1.32387 1.20672,-1.83936c0.5233,-0.51549 1.15595,-0.91643 1.89794,-1.20281c0.74199,-0.28638 1.57121,-0.42958 2.48763,-0.42958c0.47383,0 0.91903,0.03905 1.33559,0.11716c0.41656,0.0781 0.80057,0.18485 1.15204,0.32023c0.35147,0.13538 0.673,0.2968 0.96459,0.48425c0.29159,0.18745 0.55194,0.39052 0.78105,0.60922l-0.76543,1.16376c-0.0729,0.10935 -0.16011,0.19526 -0.26165,0.25775c-0.10154,0.06248 -0.21218,0.09373 -0.33194,0.09373c-0.15621,0 -0.31763,-0.05207 -0.48425,-0.15621c-0.20828,-0.12497 -0.40484,-0.23301 -0.58969,-0.32413c-0.18485,-0.09112 -0.3736,-0.16532 -0.56626,-0.2226c-0.19266,-0.05728 -0.39573,-0.09893 -0.60922,-0.12497c-0.21349,-0.02603 -0.45301,-0.03905 -0.71856,-0.03905c-0.49466,0 -0.93986,0.08722 -1.33559,0.26165c-0.39573,0.17443 -0.73288,0.42046 -1.01146,0.73809c-0.27857,0.31763 -0.49336,0.69904 -0.64436,1.14423c-0.151,0.4452 -0.2265,0.94116 -0.2265,1.48789c0,0.60401 0.08331,1.14033 0.24993,1.60896c0.16662,0.46863 0.39703,0.86436 0.69123,1.18719c0.29419,0.32283 0.64306,0.56886 1.0466,0.73809c0.40354,0.16923 0.84483,0.25384 1.32387,0.25384z" data-paper-data="{&quot;glyphName&quot;:&quot;G&quot;,&quot;glyphIndex&quot;:0,&quot;firstGlyphOfWord&quot;:true,&quot;word&quot;:1}"></path><path d="M87.35876,267.97934v2.03072h-4.67066v2.65556h3.57719v1.95262h-3.57719v2.71023h4.67066v2.03072h-7.32622v-11.37985z" data-paper-data="{&quot;glyphName&quot;:&quot;E&quot;,&quot;glyphIndex&quot;:1,&quot;word&quot;:1}"></path><path d="M93.50299,267.97934c0.11455,0 0.21088,0.00521 0.28899,0.01562c0.0781,0.01041 0.1484,0.02994 0.21088,0.05858c0.06248,0.02864 0.12236,0.06899 0.17964,0.12106c0.05728,0.05207 0.12236,0.12236 0.19526,0.21088l5.40484,6.83416c-0.02083,-0.21869 -0.03645,-0.43088 -0.04686,-0.63655c-0.01041,-0.20568 -0.01562,-0.39964 -0.01562,-0.58188v-6.02187h2.32752v11.37985h-1.37464c-0.20307,0 -0.3749,-0.03124 -0.51549,-0.09373c-0.14059,-0.06248 -0.27597,-0.17704 -0.40614,-0.34366l-5.36579,-6.77948c0.01562,0.19787 0.02864,0.39183 0.03905,0.58188c0.01041,0.19005 0.01562,0.36839 0.01562,0.53502v6.09997h-2.32752v-11.37985z" data-paper-data="{&quot;glyphName&quot;:&quot;N&quot;,&quot;glyphIndex&quot;:2,&quot;word&quot;:1}"></path><path d="M115.43999,267.97934v2.0932h-3.20229v9.28664h-2.63994v-9.28664h-3.20229v-2.0932z" data-paper-data="{&quot;glyphName&quot;:&quot;T&quot;,&quot;glyphIndex&quot;:3,&quot;word&quot;:1}"></path><path d="M127.11403,267.97934v2.03072h-4.67066v2.65556h3.57719v1.95262h-3.57719v2.71023h4.67066v2.03072h-7.32622v-11.37985z" data-paper-data="{&quot;glyphName&quot;:&quot;E&quot;,&quot;glyphIndex&quot;:4,&quot;lastGlyphOfWord&quot;:true,&quot;word&quot;:1}"></path><path d="M149.36865,273.66535c0,0.48946 -0.05077,0.95939 -0.1523,1.40979c-0.10154,0.4504 -0.24733,0.87347 -0.43739,1.2692c-0.19005,0.39573 -0.42437,0.76282 -0.70294,1.10128c-0.27857,0.33845 -0.5949,0.63785 -0.94897,0.8982l2.88206,3.14762h-2.17131c-0.31242,0 -0.5962,-0.03775 -0.85134,-0.11325c-0.25514,-0.0755 -0.48165,-0.22781 -0.67951,-0.45691l-1.41369,-1.58552c-0.22911,0.04686 -0.46212,0.08331 -0.69904,0.10935c-0.23692,0.02603 -0.48034,0.03905 -0.73028,0.03905c-0.88519,0 -1.69227,-0.1484 -2.42124,-0.4452c-0.72898,-0.2968 -1.35251,-0.70685 -1.87061,-1.23015c-0.51809,-0.5233 -0.91903,-1.13903 -1.20281,-1.84718c-0.28378,-0.70815 -0.42567,-1.47357 -0.42567,-2.29628c0,-0.8227 0.14189,-1.58813 0.42567,-2.29628c0.28378,-0.70815 0.68472,-1.32257 1.20281,-1.84327c0.51809,-0.5207 1.14163,-0.92945 1.87061,-1.22624c0.72898,-0.2968 1.53606,-0.4452 2.42124,-0.4452c0.88519,0 1.69097,0.1497 2.41734,0.4491c0.72637,0.2994 1.34731,0.70945 1.8628,1.23015c0.51549,0.5207 0.91513,1.13512 1.19891,1.84327c0.28378,0.70815 0.42567,1.47097 0.42567,2.28847zM146.66623,273.66535c0,-0.56235 -0.0729,-1.06873 -0.21869,-1.51914c-0.1458,-0.4504 -0.35538,-0.83181 -0.62874,-1.14423c-0.27337,-0.31242 -0.60791,-0.55194 -1.00364,-0.71856c-0.39573,-0.16662 -0.84613,-0.24993 -1.35121,-0.24993c-0.51028,0 -0.96459,0.08331 -1.36293,0.24993c-0.39833,0.16662 -0.73418,0.40614 -1.00755,0.71856c-0.27337,0.31242 -0.48295,0.69383 -0.62874,1.14423c-0.1458,0.4504 -0.21869,0.95678 -0.21869,1.51914c0,0.56756 0.0729,1.07654 0.21869,1.52695c0.1458,0.4504 0.35538,0.83181 0.62874,1.14423c0.27337,0.31242 0.60922,0.55064 1.00755,0.71466c0.39833,0.16402 0.85264,0.24603 1.36293,0.24603c0.50508,0 0.95548,-0.08201 1.35121,-0.24603c0.39573,-0.16402 0.73028,-0.40224 1.00364,-0.71466c0.27337,-0.31242 0.48295,-0.69383 0.62874,-1.14423c0.1458,-0.4504 0.21869,-0.95939 0.21869,-1.52695z" data-paper-data="{&quot;glyphName&quot;:&quot;Q&quot;,&quot;glyphIndex&quot;:5,&quot;firstGlyphOfWord&quot;:true,&quot;word&quot;:2}"></path><path d="M158.62145,277.27379c0.35407,0 0.6704,-0.05858 0.94897,-0.17574c0.27857,-0.11716 0.51419,-0.28508 0.70685,-0.50378c0.19266,-0.21869 0.33976,-0.48555 0.44129,-0.80057c0.10154,-0.31502 0.1523,-0.673 0.1523,-1.07394v-6.74043h2.63994v6.74043c0,0.69773 -0.11325,1.33819 -0.33976,1.92137c-0.2265,0.58318 -0.55064,1.08565 -0.9724,1.50742c-0.42177,0.42177 -0.93465,0.7498 -1.53866,0.98412c-0.60401,0.23431 -1.28352,0.35147 -2.03853,0.35147c-0.76022,0 -1.44233,-0.11716 -2.04634,-0.35147c-0.60401,-0.23431 -1.1169,-0.56235 -1.53866,-0.98412c-0.42177,-0.42177 -0.7446,-0.92424 -0.9685,-1.50742c-0.2239,-0.58318 -0.33585,-1.22364 -0.33585,-1.92137v-6.74043h2.63994v6.73262c0,0.40094 0.05077,0.75892 0.1523,1.07394c0.10154,0.31502 0.24863,0.58318 0.44129,0.80448c0.19266,0.2213 0.42827,0.39052 0.70685,0.50768c0.27857,0.11716 0.5949,0.17574 0.94897,0.17574z" data-paper-data="{&quot;glyphName&quot;:&quot;U&quot;,&quot;glyphIndex&quot;:6,&quot;word&quot;:2}"></path><path d="M175.80968,267.97934v2.03072h-4.67066v2.65556h3.57719v1.95262h-3.57719v2.71023h4.67066v2.03072h-7.32622v-11.37985z" data-paper-data="{&quot;glyphName&quot;:&quot;E&quot;,&quot;glyphIndex&quot;:7,&quot;lastGlyphOfWord&quot;:true,&quot;word&quot;:2}"></path><path d="M197.42385,279.35918h-2.04634c-0.22911,0 -0.41786,-0.05337 -0.56626,-0.16011c-0.1484,-0.10674 -0.25124,-0.24343 -0.30851,-0.41005l-0.6717,-1.98386h-4.327l-0.6717,1.98386c-0.05207,0.1458 -0.15361,0.27727 -0.30461,0.39443c-0.151,0.11716 -0.33585,0.17574 -0.55454,0.17574h-2.06196l4.4051,-11.37985h2.70242zM190.11325,275.00876h3.10857l-1.0466,-3.11638c-0.06769,-0.19787 -0.1471,-0.43088 -0.23822,-0.69904c-0.09112,-0.26816 -0.18094,-0.55845 -0.26946,-0.87087c-0.08331,0.31763 -0.16923,0.61182 -0.25775,0.88258c-0.08852,0.27076 -0.17183,0.50508 -0.24993,0.70294z" data-paper-data="{&quot;glyphName&quot;:&quot;A&quot;,&quot;glyphIndex&quot;:8,&quot;firstGlyphOfWord&quot;:true,&quot;word&quot;:3}"></path><path d="M207.41864,274.15741c0.10414,0.19787 0.20437,0.40354 0.3007,0.61703c0.09633,0.21349 0.18875,0.43218 0.27727,0.65608c0.08852,-0.22911 0.18224,-0.45171 0.28118,-0.66779c0.09893,-0.21609 0.20047,-0.42567 0.30461,-0.62874l2.92111,-5.7485c0.05207,-0.09893 0.10544,-0.17574 0.16011,-0.23041c0.05467,-0.05467 0.11586,-0.09503 0.18355,-0.12106c0.06769,-0.02603 0.14449,-0.04166 0.23041,-0.04686c0.08592,-0.00521 0.18615,-0.00781 0.3007,-0.00781h2.0151v11.37985h-2.32752v-6.54517c0,-0.31763 0.01562,-0.66129 0.04686,-1.03098l-3.01484,5.85004c-0.09373,0.18224 -0.21999,0.32023 -0.37881,0.41395c-0.15881,0.09373 -0.33976,0.14059 -0.54283,0.14059h-0.35928c-0.20307,0 -0.38401,-0.04686 -0.54283,-0.14059c-0.15881,-0.09373 -0.28508,-0.23171 -0.37881,-0.41395l-3.03046,-5.85785c0.02083,0.18224 0.03645,0.36319 0.04686,0.54283c0.01041,0.17964 0.01562,0.34496 0.01562,0.49596v6.54517h-2.32752v-11.37985h2.0151c0.11455,0 0.21479,0.0026 0.3007,0.00781c0.08592,0.00521 0.16272,0.02083 0.23041,0.04686c0.06769,0.02603 0.12887,0.06639 0.18355,0.12106c0.05467,0.05467 0.10804,0.13148 0.16011,0.23041z" data-paper-data="{&quot;glyphName&quot;:&quot;M&quot;,&quot;glyphIndex&quot;:9,&quot;word&quot;:3}"></path><path d="M230.11325,279.35918h-2.04634c-0.22911,0 -0.41786,-0.05337 -0.56626,-0.16011c-0.1484,-0.10674 -0.25124,-0.24343 -0.30851,-0.41005l-0.6717,-1.98386h-4.327l-0.6717,1.98386c-0.05207,0.1458 -0.15361,0.27727 -0.30461,0.39443c-0.151,0.11716 -0.33585,0.17574 -0.55454,0.17574h-2.06196l4.4051,-11.37985h2.70242zM222.80266,275.00876h3.10857l-1.0466,-3.11638c-0.06769,-0.19787 -0.1471,-0.43088 -0.23822,-0.69904c-0.09112,-0.26816 -0.18094,-0.55845 -0.26946,-0.87087c-0.08331,0.31763 -0.16923,0.61182 -0.25775,0.88258c-0.08852,0.27076 -0.17183,0.50508 -0.24993,0.70294z" data-paper-data="{&quot;glyphName&quot;:&quot;A&quot;,&quot;glyphIndex&quot;:10,&quot;lastGlyphOfWord&quot;:true,&quot;word&quot;:3}"></path><path d="M248.20489,276.41464c0.06248,0 0.12497,0.01172 0.18745,0.03515c0.06248,0.02343 0.12236,0.06379 0.17964,0.12106l1.0466,1.10128c-0.45821,0.5988 -1.03228,1.05051 -1.72221,1.35512c-0.68992,0.30461 -1.50612,0.45691 -2.44858,0.45691c-0.86436,0 -1.6389,-0.1471 -2.32361,-0.44129c-0.68472,-0.29419 -1.2653,-0.70034 -1.74173,-1.21843c-0.47644,-0.51809 -0.84223,-1.13252 -1.09737,-1.84327c-0.25514,-0.71075 -0.38271,-1.48269 -0.38271,-2.3158c0,-0.84874 0.1458,-1.62848 0.43739,-2.33923c0.29159,-0.71075 0.69904,-1.32387 1.22234,-1.83936c0.5233,-0.51549 1.14944,-0.91643 1.87842,-1.20281c0.72898,-0.28638 1.53345,-0.42958 2.41343,-0.42958c0.42697,0 0.82921,0.03775 1.20672,0.11325c0.37751,0.0755 0.73028,0.17964 1.05832,0.31242c0.32804,0.13278 0.63004,0.29159 0.90601,0.47644c0.27597,0.18485 0.5207,0.38922 0.73418,0.61312l-0.89039,1.195c-0.05728,0.0729 -0.12497,0.13929 -0.20307,0.19917c-0.0781,0.05988 -0.18745,0.08982 -0.32804,0.08982c-0.09373,0 -0.18224,-0.02083 -0.26556,-0.06248c-0.08331,-0.04166 -0.17183,-0.09242 -0.26556,-0.1523c-0.09373,-0.05988 -0.19656,-0.12497 -0.30851,-0.19526c-0.11195,-0.07029 -0.24473,-0.13538 -0.39833,-0.19526c-0.15361,-0.05988 -0.33325,-0.11065 -0.53892,-0.1523c-0.20568,-0.04166 -0.4465,-0.06248 -0.72247,-0.06248c-0.47904,0 -0.91643,0.08461 -1.31216,0.25384c-0.39573,0.16923 -0.73549,0.41135 -1.01927,0.72637c-0.28378,0.31502 -0.50508,0.69643 -0.66389,1.14423c-0.15881,0.4478 -0.23822,0.95027 -0.23822,1.50742c0,0.58318 0.07941,1.10128 0.23822,1.55428c0.15881,0.45301 0.3749,0.83442 0.64827,1.14423c0.27337,0.30982 0.59229,0.54543 0.95678,0.70685c0.36449,0.16142 0.75501,0.24212 1.17157,0.24212c0.23952,0 0.45821,-0.01172 0.65608,-0.03515c0.19787,-0.02343 0.38141,-0.06379 0.55064,-0.12106c0.16923,-0.05728 0.33064,-0.13148 0.48425,-0.2226c0.15361,-0.09112 0.30851,-0.20437 0.46472,-0.33976c0.06248,-0.05207 0.13017,-0.09503 0.20307,-0.12887c0.0729,-0.03385 0.1484,-0.05077 0.2265,-0.05077z" data-paper-data="{&quot;glyphName&quot;:&quot;C&quot;,&quot;glyphIndex&quot;:11,&quot;firstGlyphOfWord&quot;:true,&quot;word&quot;:4}"></path><path d="M264.01067,279.35918h-2.65556v-4.81125h-4.6238v4.81125h-2.65556v-11.37985h2.65556v4.75657h4.6238v-4.75657h2.65556z" data-paper-data="{&quot;glyphName&quot;:&quot;H&quot;,&quot;glyphIndex&quot;:12,&quot;word&quot;:4}"></path><path d="M276.46576,267.97934v2.03072h-4.67066v2.65556h3.57719v1.95262h-3.57719v2.71023h4.67066v2.03072h-7.32622v-11.37985z" data-paper-data="{&quot;glyphName&quot;:&quot;E&quot;,&quot;glyphIndex&quot;:13,&quot;word&quot;:4}"></path><path d="M284.10961,279.35918h-2.65556v-11.37985h2.65556z" data-paper-data="{&quot;glyphName&quot;:&quot;I&quot;,&quot;glyphIndex&quot;:14,&quot;word&quot;:4}"></path><path d="M292.11273,275.14934v4.20984h-2.63994v-11.37985h3.70216c0.8227,0 1.52434,0.08461 2.10492,0.25384c0.58058,0.16923 1.05441,0.40484 1.4215,0.70685c0.36709,0.302 0.63395,0.65868 0.80057,1.07003c0.16662,0.41135 0.24993,0.85915 0.24993,1.3434c0,0.3697 -0.04947,0.71856 -0.1484,1.0466c-0.09893,0.32804 -0.24603,0.63135 -0.44129,0.90992c-0.19526,0.27857 -0.43478,0.52721 -0.71856,0.7459c-0.28378,0.21869 -0.61052,0.39833 -0.98021,0.53892c0.17704,0.08852 0.34236,0.19787 0.49596,0.32804c0.15361,0.13017 0.28769,0.28899 0.40224,0.47644l2.42124,3.95991h-2.39c-0.44259,0 -0.76022,-0.16662 -0.95288,-0.49987l-1.89013,-3.30383c-0.08331,-0.1458 -0.18094,-0.24993 -0.29289,-0.31242c-0.11195,-0.06248 -0.26946,-0.09373 -0.47253,-0.09373zM292.11273,273.3295h1.06222c0.35928,0 0.66519,-0.04556 0.91773,-0.13668c0.25254,-0.09112 0.45952,-0.21739 0.62093,-0.37881c0.16142,-0.16142 0.27857,-0.35017 0.35147,-0.56626c0.0729,-0.21609 0.10935,-0.4491 0.10935,-0.69904c0,-0.49987 -0.16272,-0.89039 -0.48815,-1.17157c-0.32544,-0.28118 -0.82921,-0.42177 -1.51133,-0.42177h-1.06222z" data-paper-data="{&quot;glyphName&quot;:&quot;R&quot;,&quot;glyphIndex&quot;:15,&quot;word&quot;:4}"></path><path d="M306.00495,279.35918h-2.65556v-11.37985h2.65556z" data-paper-data="{&quot;glyphName&quot;:&quot;I&quot;,&quot;glyphIndex&quot;:16,&quot;word&quot;:4}"></path><path d="M312.7584,267.97934c0.11455,0 0.21088,0.00521 0.28899,0.01562c0.0781,0.01041 0.1484,0.02994 0.21088,0.05858c0.06248,0.02864 0.12236,0.06899 0.17964,0.12106c0.05728,0.05207 0.12236,0.12236 0.19526,0.21088l5.40484,6.83416c-0.02083,-0.21869 -0.03645,-0.43088 -0.04686,-0.63655c-0.01041,-0.20568 -0.01562,-0.39964 -0.01562,-0.58188v-6.02187h2.32752v11.37985h-1.37464c-0.20307,0 -0.3749,-0.03124 -0.51549,-0.09373c-0.14059,-0.06248 -0.27597,-0.17704 -0.40614,-0.34366l-5.36579,-6.77948c0.01562,0.19787 0.02864,0.39183 0.03905,0.58188c0.01041,0.19005 0.01562,0.36839 0.01562,0.53502v6.09997h-2.32752v-11.37985z" data-paper-data="{&quot;glyphName&quot;:&quot;N&quot;,&quot;glyphIndex&quot;:17,&quot;word&quot;:4}"></path><path d="M336.36683,279.35918h-2.65556v-4.81125h-4.6238v4.81125h-2.65556v-11.37985h2.65556v4.75657h4.6238v-4.75657h2.65556z" data-paper-data="{&quot;glyphName&quot;:&quot;H&quot;,&quot;glyphIndex&quot;:18,&quot;word&quot;:4}"></path><path d="M352.72715,273.66535c0,0.8227 -0.14189,1.58813 -0.42567,2.29628c-0.28378,0.70815 -0.68342,1.32387 -1.19891,1.84718c-0.51549,0.5233 -1.13642,0.93335 -1.8628,1.23015c-0.72637,0.2968 -1.53215,0.4452 -2.41734,0.4452c-0.88519,0 -1.69227,-0.1484 -2.42124,-0.4452c-0.72898,-0.2968 -1.35251,-0.70685 -1.87061,-1.23015c-0.51809,-0.5233 -0.91903,-1.13903 -1.20281,-1.84718c-0.28378,-0.70815 -0.42567,-1.47357 -0.42567,-2.29628c0,-0.8227 0.14189,-1.58813 0.42567,-2.29628c0.28378,-0.70815 0.68472,-1.32257 1.20281,-1.84327c0.51809,-0.5207 1.14163,-0.92945 1.87061,-1.22624c0.72898,-0.2968 1.53606,-0.4452 2.42124,-0.4452c0.88519,0 1.69097,0.1497 2.41734,0.4491c0.72637,0.2994 1.34731,0.70945 1.8628,1.23015c0.51549,0.5207 0.91513,1.13512 1.19891,1.84327c0.28378,0.70815 0.42567,1.47097 0.42567,2.28847zM350.02473,273.66535c0,-0.56235 -0.0729,-1.06873 -0.21869,-1.51914c-0.1458,-0.4504 -0.35538,-0.83181 -0.62874,-1.14423c-0.27337,-0.31242 -0.60791,-0.55194 -1.00364,-0.71856c-0.39573,-0.16662 -0.84613,-0.24993 -1.35121,-0.24993c-0.51028,0 -0.96459,0.08331 -1.36293,0.24993c-0.39833,0.16662 -0.73418,0.40614 -1.00755,0.71856c-0.27337,0.31242 -0.48295,0.69383 -0.62874,1.14423c-0.1458,0.4504 -0.21869,0.95678 -0.21869,1.51914c0,0.56756 0.0729,1.07654 0.21869,1.52695c0.1458,0.4504 0.35538,0.83181 0.62874,1.14423c0.27337,0.31242 0.60922,0.55064 1.00755,0.71466c0.39833,0.16402 0.85264,0.24603 1.36293,0.24603c0.50508,0 0.95548,-0.08201 1.35121,-0.24603c0.39573,-0.16402 0.73028,-0.40224 1.00364,-0.71466c0.27337,-0.31242 0.48295,-0.69383 0.62874,-1.14423c0.1458,-0.4504 0.21869,-0.95939 0.21869,-1.52695z" data-paper-data="{&quot;glyphName&quot;:&quot;O&quot;,&quot;glyphIndex&quot;:19,&quot;lastGlyphOfWord&quot;:true,&quot;word&quot;:4}"></path><path d="M373.84145,273.66535c0,0.8227 -0.14189,1.58162 -0.42567,2.27675c-0.28378,0.69513 -0.68342,1.29654 -1.19891,1.80422c-0.51549,0.50768 -1.13642,0.90341 -1.8628,1.18719c-0.72637,0.28378 -1.53215,0.42567 -2.41734,0.42567h-4.42072v-11.37985h4.42072c0.88519,0 1.69097,0.14319 2.41734,0.42958c0.72637,0.28638 1.34731,0.68211 1.8628,1.18719c0.51549,0.50508 0.91513,1.10518 1.19891,1.80031c0.28378,0.69513 0.42567,1.45144 0.42567,2.26894zM371.13903,273.66535c0,-0.56235 -0.0729,-1.07003 -0.21869,-1.52304c-0.1458,-0.45301 -0.35538,-0.83702 -0.62874,-1.15204c-0.27337,-0.31502 -0.60791,-0.55715 -1.00364,-0.72637c-0.39573,-0.16923 -0.84613,-0.25384 -1.35121,-0.25384h-1.76517v7.31841h1.76517c0.50508,0 0.95548,-0.08461 1.35121,-0.25384c0.39573,-0.16923 0.73028,-0.41135 1.00364,-0.72637c0.27337,-0.31502 0.48295,-0.69904 0.62874,-1.15204c0.1458,-0.45301 0.21869,-0.96329 0.21869,-1.53085z" data-paper-data="{&quot;glyphName&quot;:&quot;D&quot;,&quot;glyphIndex&quot;:20,&quot;firstGlyphOfWord&quot;:true,&quot;word&quot;:5}"></path><path d="M385.68732,267.97934v2.03072h-4.67066v2.65556h3.57719v1.95262h-3.57719v2.71023h4.67066v2.03072h-7.32622v-11.37985z" data-paper-data="{&quot;glyphName&quot;:&quot;E&quot;,&quot;glyphIndex&quot;:21,&quot;lastGlyphOfWord&quot;:true,&quot;word&quot;:5}"></path><path d="M399.35043,275.55549v3.8037h-2.63994v-11.37985h4.01458c0.80187,0 1.4905,0.09503 2.06587,0.28508c0.57537,0.19005 1.04921,0.45171 1.4215,0.78495c0.3723,0.33325 0.64697,0.72637 0.824,1.17938c0.17704,0.45301 0.26556,0.94246 0.26556,1.46837c0,0.56756 -0.09112,1.08826 -0.27337,1.56209c-0.18224,0.47383 -0.46082,0.87998 -0.83572,1.21843c-0.3749,0.33845 -0.85004,0.60271 -1.42541,0.79276c-0.57537,0.19005 -1.25618,0.28508 -2.04244,0.28508zM399.35043,273.56382h1.37464c0.68732,0 1.18198,-0.16402 1.48399,-0.49206c0.302,-0.32804 0.45301,-0.78625 0.45301,-1.37464c0,-0.26035 -0.03905,-0.49727 -0.11716,-0.71075c-0.0781,-0.21349 -0.19656,-0.39703 -0.35538,-0.55064c-0.15881,-0.15361 -0.35928,-0.27206 -0.60141,-0.35538c-0.24212,-0.08331 -0.52981,-0.12497 -0.86306,-0.12497h-1.37464z" data-paper-data="{&quot;glyphName&quot;:&quot;P&quot;,&quot;glyphIndex&quot;:22,&quot;firstGlyphOfWord&quot;:true,&quot;word&quot;:6}"></path><path d="M419.19422,279.35918h-2.04634c-0.22911,0 -0.41786,-0.05337 -0.56626,-0.16011c-0.1484,-0.10674 -0.25124,-0.24343 -0.30851,-0.41005l-0.6717,-1.98386h-4.327l-0.6717,1.98386c-0.05207,0.1458 -0.15361,0.27727 -0.30461,0.39443c-0.151,0.11716 -0.33585,0.17574 -0.55454,0.17574h-2.06196l4.4051,-11.37985h2.70242zM411.88362,275.00876h3.10857l-1.0466,-3.11638c-0.06769,-0.19787 -0.1471,-0.43088 -0.23822,-0.69904c-0.09112,-0.26816 -0.18094,-0.55845 -0.26946,-0.87087c-0.08331,0.31763 -0.16923,0.61182 -0.25775,0.88258c-0.08852,0.27076 -0.17183,0.50508 -0.24993,0.70294z" data-paper-data="{&quot;glyphName&quot;:&quot;A&quot;,&quot;glyphIndex&quot;:23,&quot;word&quot;:6}"></path><path d="M433.69565,273.66535c0,0.8227 -0.14189,1.58162 -0.42567,2.27675c-0.28378,0.69513 -0.68342,1.29654 -1.19891,1.80422c-0.51549,0.50768 -1.13642,0.90341 -1.8628,1.18719c-0.72637,0.28378 -1.53215,0.42567 -2.41734,0.42567h-4.42072v-11.37985h4.42072c0.88519,0 1.69097,0.14319 2.41734,0.42958c0.72637,0.28638 1.34731,0.68211 1.8628,1.18719c0.51549,0.50508 0.91513,1.10518 1.19891,1.80031c0.28378,0.69513 0.42567,1.45144 0.42567,2.26894zM430.99323,273.66535c0,-0.56235 -0.0729,-1.07003 -0.21869,-1.52304c-0.1458,-0.45301 -0.35538,-0.83702 -0.62874,-1.15204c-0.27337,-0.31502 -0.60791,-0.55715 -1.00364,-0.72637c-0.39573,-0.16923 -0.84613,-0.25384 -1.35121,-0.25384h-1.76517v7.31841h1.76517c0.50508,0 0.95548,-0.08461 1.35121,-0.25384c0.39573,-0.16923 0.73028,-0.41135 1.00364,-0.72637c0.27337,-0.31502 0.48295,-0.69904 0.62874,-1.15204c0.1458,-0.45301 0.21869,-0.96329 0.21869,-1.53085z" data-paper-data="{&quot;glyphName&quot;:&quot;D&quot;,&quot;glyphIndex&quot;:24,&quot;word&quot;:6}"></path><path d="M448.33767,279.35918h-2.04634c-0.22911,0 -0.41786,-0.05337 -0.56626,-0.16011c-0.1484,-0.10674 -0.25124,-0.24343 -0.30851,-0.41005l-0.6717,-1.98386h-4.327l-0.6717,1.98386c-0.05207,0.1458 -0.15361,0.27727 -0.30461,0.39443c-0.151,0.11716 -0.33585,0.17574 -0.55454,0.17574h-2.06196l4.4051,-11.37985h2.70242zM441.02708,275.00876h3.10857l-1.0466,-3.11638c-0.06769,-0.19787 -0.1471,-0.43088 -0.23822,-0.69904c-0.09112,-0.26816 -0.18094,-0.55845 -0.26946,-0.87087c-0.08331,0.31763 -0.16923,0.61182 -0.25775,0.88258c-0.08852,0.27076 -0.17183,0.50508 -0.24993,0.70294z" data-paper-data="{&quot;glyphName&quot;:&quot;A&quot;,&quot;glyphIndex&quot;:25,&quot;word&quot;:6}"></path><path d="M455.15361,275.14934v4.20984h-2.63994v-11.37985h3.70216c0.8227,0 1.52434,0.08461 2.10492,0.25384c0.58058,0.16923 1.05441,0.40484 1.4215,0.70685c0.36709,0.302 0.63395,0.65868 0.80057,1.07003c0.16662,0.41135 0.24993,0.85915 0.24993,1.3434c0,0.3697 -0.04947,0.71856 -0.1484,1.0466c-0.09893,0.32804 -0.24603,0.63135 -0.44129,0.90992c-0.19526,0.27857 -0.43478,0.52721 -0.71856,0.7459c-0.28378,0.21869 -0.61052,0.39833 -0.98021,0.53892c0.17704,0.08852 0.34236,0.19787 0.49596,0.32804c0.15361,0.13017 0.28769,0.28899 0.40224,0.47644l2.42124,3.95991h-2.39c-0.44259,0 -0.76022,-0.16662 -0.95288,-0.49987l-1.89013,-3.30383c-0.08331,-0.1458 -0.18094,-0.24993 -0.29289,-0.31242c-0.11195,-0.06248 -0.26946,-0.09373 -0.47253,-0.09373zM455.15361,273.3295h1.06222c0.35928,0 0.66519,-0.04556 0.91773,-0.13668c0.25254,-0.09112 0.45952,-0.21739 0.62093,-0.37881c0.16142,-0.16142 0.27857,-0.35017 0.35147,-0.56626c0.0729,-0.21609 0.10935,-0.4491 0.10935,-0.69904c0,-0.49987 -0.16272,-0.89039 -0.48815,-1.17157c-0.32544,-0.28118 -0.82921,-0.42177 -1.51133,-0.42177h-1.06222z" data-paper-data="{&quot;glyphName&quot;:&quot;R&quot;,&quot;glyphIndex&quot;:26,&quot;word&quot;:6}"></path><path d="M469.04582,279.35918h-2.65556v-11.37985h2.65556z" data-paper-data="{&quot;glyphName&quot;:&quot;I&quot;,&quot;glyphIndex&quot;:27,&quot;word&quot;:6}"></path><path d="M485,279.35918h-2.04634c-0.22911,0 -0.41786,-0.05337 -0.56626,-0.16011c-0.1484,-0.10674 -0.25124,-0.24343 -0.30851,-0.41005l-0.6717,-1.98386h-4.327l-0.6717,1.98386c-0.05207,0.1458 -0.15361,0.27727 -0.30461,0.39443c-0.151,0.11716 -0.33585,0.17574 -0.55454,0.17574h-2.06196l4.4051,-11.37985h2.70242zM477.6894,275.00876h3.10857l-1.0466,-3.11638c-0.06769,-0.19787 -0.1471,-0.43088 -0.23822,-0.69904c-0.09112,-0.26816 -0.18094,-0.55845 -0.26946,-0.87087c-0.08331,0.31763 -0.16923,0.61182 -0.25775,0.88258c-0.08852,0.27076 -0.17183,0.50508 -0.24993,0.70294z" data-paper-data="{&quot;glyphName&quot;:&quot;A&quot;,&quot;glyphIndex&quot;:28,&quot;lastGlyphOfWord&quot;:true,&quot;word&quot;:6}"></path></g><g data-paper-data="{&quot;isPrimaryText&quot;:true}" fill="#f2cd00"><path d="M81.09779,203.48017h-16.09779v46.37224h9.34069v-17.02524h6.7571c10.86435,0 17.09148,-6.29338 17.09148,-14.64038c0,-8.347 -6.22713,-14.70662 -17.09148,-14.70662zM80.76656,224.61266h-6.42587v-12.85174h6.42587c4.90221,0 8.08202,2.11987 8.08202,6.42587c0,4.23975 -3.17981,6.42587 -8.08202,6.42587z" data-paper-data="{&quot;glyphName&quot;:&quot;P&quot;,&quot;glyphIndex&quot;:0,&quot;firstGlyphOfWord&quot;:true,&quot;word&quot;:1}"></path><path d="M119.98423,188.50856c-5.29968,0 -7.88328,3.90852 -7.88328,8.54574h3.37855c-0.06625,-1.25868 1.45741,-2.18612 2.78233,-2.18612c3.64353,0 7.55205,5.29968 12.32177,5.29968c5.0347,0 7.75079,-3.97476 7.75079,-8.61199h-3.44479c0,0.92744 -1.58991,1.58991 -2.91483,1.58991c-3.44479,0 -7.22082,-4.63722 -11.99054,-4.63722zM128.26498,203.48017h-6.02839l-19.41009,46.37224h10.13565l4.1735,-10.0694h16.29653l4.1735,10.0694h10.0694zM125.28391,219.51171l5.16719,12.71924h-10.40063z" data-paper-data="{&quot;glyphName&quot;:&quot;Ã&quot;,&quot;glyphIndex&quot;:1,&quot;word&quot;:1}"></path><path d="M163.11041,241.70414v-11.06309h15.03785v-8.14826h-15.03785v-10.86435h21.66246v-8.14826h-31.26814v46.37224h31.9306v-8.14826z" data-paper-data="{&quot;glyphName&quot;:&quot;E&quot;,&quot;glyphIndex&quot;:2,&quot;word&quot;:1}"></path><path d="M208.6877,203.01644c-8.14826,0 -15.30284,4.90221 -15.30284,12.18927c0,7.4858 5.56467,11.26183 12.78549,13.77918l2.05363,0.79495c5.29968,1.92114 7.41956,3.24606 7.41956,6.88959c0,4.04101 -3.84227,5.69716 -7.4858,5.69716c-4.30599,0 -7.94953,-2.91483 -9.27445,-6.29338l-7.6183,3.37855c2.38486,6.55836 9.2082,10.86435 16.89274,10.86435c7.55205,0 16.89274,-4.1735 16.89274,-13.64669c0,-6.49211 -3.97476,-11.65931 -14.37539,-15.23659l-2.05363,-0.66246c-4.57098,-1.52366 -5.8959,-2.91483 -5.8959,-5.56467c0,-2.51735 2.78233,-4.23975 5.96215,-4.23975c3.24606,0 5.82965,1.45741 7.02208,3.90852l8.14826,-2.71609c-2.31861,-4.57098 -7.6183,-9.14196 -15.17035,-9.14196z" data-paper-data="{&quot;glyphName&quot;:&quot;S&quot;,&quot;glyphIndex&quot;:3,&quot;lastGlyphOfWord&quot;:true,&quot;word&quot;:1}"></path><path d="M268.70662,203.48017h-16.62776v46.37224h16.62776c13.11672,0 23.4511,-10.26814 23.4511,-23.4511c0,-12.653 -10.33438,-22.92114 -23.4511,-22.92114zM268.70662,241.96913h-7.28707v-30.60568h7.28707c8.94322,0 14.11041,6.69085 14.11041,15.03785c0,8.81073 -5.16719,15.56782 -14.11041,15.56782z" data-paper-data="{&quot;glyphName&quot;:&quot;D&quot;,&quot;glyphIndex&quot;:4,&quot;firstGlyphOfWord&quot;:true,&quot;word&quot;:2}"></path><path d="M306.86435,203.48017h-9.07571v11.59306h9.07571z" data-paper-data="{&quot;glyphName&quot;:&quot;'&quot;,&quot;glyphIndex&quot;:5,&quot;word&quot;:2}"></path><path d="M335.21767,203.01644c-11.52681,0 -23.38486,9.67192 -23.38486,23.71609c0,13.91167 11.85804,23.5836 23.38486,23.5836c6.16088,0 11.52681,-2.31861 15.50158,-5.96215l-5.69716,-6.88959c-2.38486,1.98738 -5.63091,3.84227 -9.60568,3.84227c-7.28707,0 -13.31546,-6.42587 -13.31546,-14.64038c0,-8.14826 6.02839,-14.64038 13.31546,-14.64038c3.97476,0 7.08833,1.65615 9.40694,3.64353l5.76341,-6.88959c-3.97476,-3.64353 -9.2082,-5.76341 -15.36909,-5.76341z" data-paper-data="{&quot;glyphName&quot;:&quot;C&quot;,&quot;glyphIndex&quot;:6,&quot;word&quot;:2}"></path><path d="M381.12618,203.48017h-6.02839l-19.41009,46.37224h10.13565l4.1735,-10.0694h16.29653l4.1735,10.0694h10.0694zM378.14511,219.51171l5.16719,12.71924h-10.40063z" data-paper-data="{&quot;glyphName&quot;:&quot;A&quot;,&quot;glyphIndex&quot;:7,&quot;word&quot;:2}"></path><path d="M420.94006,203.01644c-8.14826,0 -15.30284,4.90221 -15.30284,12.18927c0,7.4858 5.56467,11.26183 12.78549,13.77918l2.05363,0.79495c5.29968,1.92114 7.41956,3.24606 7.41956,6.88959c0,4.04101 -3.84227,5.69716 -7.4858,5.69716c-4.30599,0 -7.94953,-2.91483 -9.27445,-6.29338l-7.6183,3.37855c2.38486,6.55836 9.2082,10.86435 16.89274,10.86435c7.55205,0 16.89274,-4.1735 16.89274,-13.64669c0,-6.49211 -3.97476,-11.65931 -14.37539,-15.23659l-2.05363,-0.66246c-4.57098,-1.52366 -5.8959,-2.91483 -5.8959,-5.56467c0,-2.51735 2.78233,-4.23975 5.96215,-4.23975c3.24606,0 5.82965,1.45741 7.02208,3.90852l8.14826,-2.71609c-2.31861,-4.57098 -7.6183,-9.14196 -15.17035,-9.14196z" data-paper-data="{&quot;glyphName&quot;:&quot;S&quot;,&quot;glyphIndex&quot;:8,&quot;word&quot;:2}"></path><path d="M465.58991,203.48017h-6.02839l-19.41009,46.37224h10.13565l4.1735,-10.0694h16.29653l4.1735,10.0694h10.0694zM462.60883,219.51171l5.16719,12.71924h-10.40063z" data-paper-data="{&quot;glyphName&quot;:&quot;A&quot;,&quot;glyphIndex&quot;:9,&quot;lastGlyphOfWord&quot;:true,&quot;word&quot;:2}"></path></g></g></g><g class="watermark-group" style="opacity:0.040000010281801224"></g></svg>