<svg class="svg-standalone-icon" width="100%" viewBox="85.71670095486442 157.7401649389188 154.51982464197147 154.5196701221624"><g data-paper-data="{&quot;fillRule&quot;:&quot;nonzero&quot;,&quot;fillRuleOriginal&quot;:&quot;evenodd&quot;,&quot;isIcon&quot;:true,&quot;iconStyle&quot;:&quot;standalone&quot;,&quot;selectedEffects&quot;:{&quot;container&quot;:&quot;circle_simple_filledplus&quot;,&quot;transformation&quot;:&quot;&quot;,&quot;pattern&quot;:&quot;&quot;},&quot;bounds&quot;:{&quot;x&quot;:85.71670095486442,&quot;y&quot;:157.7401649389188,&quot;width&quot;:154.51982464197147,&quot;height&quot;:154.5196701221624},&quot;widthRatioIconToContainer&quot;:0.7843451260415828,&quot;heightRatioIconToContainer&quot;:0.4797827200224508,&quot;relativeBoundsIconToContainer&quot;:{&quot;top&quot;:-0.0429587764906635,&quot;left&quot;:0.0012635800226953088},&quot;iconType&quot;:&quot;icon&quot;,&quot;rawIconId&quot;:&quot;186257&quot;,&quot;combineTerms&quot;:&quot;bread&quot;,&quot;blockLetter&quot;:&quot;O&quot;,&quot;suitableAsStandaloneIcon&quot;:true}" fill-rule="nonzero"><path d="M94.32559,234.99999c0,-37.91488 30.73608,-68.65096 68.65096,-68.65096c37.91488,0 68.65096,30.73608 68.65096,68.65096c0,37.91488 -30.73608,68.65096 -68.65096,68.65096c-37.91488,0 -68.65096,-30.73608 -68.65096,-68.65096zM111.66019,236.8749c0.09002,0.09002 0.23787,0.12252 0.40638,0.13419c-1.09368,1.7953 -1.67237,3.68149 -1.67237,5.63308c0,15.47317 8.43991,22.78776 56.68807,22.78776c47.96683,0 56.68807,-7.73658 56.68807,-22.78776c0,-9.46536 -13.61386,-17.39241 -33.56159,-20.88062c9.62699,-5.65967 10.63921,-11.68745 8.94518,-19.06829c-2.53197,-10.97189 -25.74173,-14.62918 -52.74945,-8.29924c-4.11615,0.96468 -8.04942,2.09605 -11.75075,3.35979c-0.36362,0.05866 -0.63172,0.10704 -0.7859,0.1349c-0.05683,0.01027 -0.09833,0.01772 -0.12322,0.02194c-0.3601,0.09002 -0.69137,0.26656 -0.96623,0.50176c-19.51884,7.04986 -32.06031,17.77305 -29.98012,26.78729c1.12532,4.36062 2.67264,9.28391 8.86191,11.67521zM113.06685,232.93628c-3.79796,-1.54732 -5.06395,-4.07929 -6.18927,-8.72124c-0.97204,-4.21222 3.10124,-8.9916 9.82673,-13.38922c0.18708,0.04051 0.38261,0.05106 0.58249,0.02602c6.0486,-0.42199 14.91051,0.42199 15.7545,3.2353c0.28133,0.84399 1.12532,1.40666 1.96932,1.40666h0.70332c1.12532,-0.42199 1.68798,-1.54732 1.40666,-2.67264c-1.39258,-4.43869 -7.63151,-5.8618 -12.88619,-6.23512c3.36176,-1.6493 7.03298,-3.18199 10.85049,-4.5335c2.77491,-0.42917 16.28425,-2.23278 17.93087,4.86068c0.28133,0.98465 1.12532,1.68798 2.10998,1.68798c0.28133,0 0.42199,0 0.42199,-0.14067c1.12532,-0.28133 1.82864,-1.40666 1.54732,-2.53197c-1.03079,-4.4325 -4.32785,-6.71212 -8.13354,-7.81451c3.05187,-0.67322 6.17267,-1.22336 9.28109,-1.64255c0.22057,0.04881 0.45083,0.06133 0.6811,0.0325c0.00436,0 0.02462,-0.00127 0.05978,-0.00338c1.08777,-0.06668 16.44644,-1.00731 17.94537,6.89596c0.28133,0.98465 1.12532,1.68798 2.10998,1.68798c0,0 0.14067,0 0.42199,0.14067c1.12532,-0.28133 1.96931,-1.40666 1.68798,-2.53197c-0.60528,-3.25373 -2.45208,-5.52026 -4.84522,-7.09276c10.02661,0.52735 17.64195,3.04358 18.77107,7.93676c1.40666,6.0486 1.40666,11.11255 -11.95654,17.02049c-0.08637,0.04319 -0.16866,0.08975 -0.24673,0.13926c-0.87128,-0.17344 -1.44111,-0.25981 -1.58192,-0.27992c-0.26319,-0.03292 -0.52651,-0.01196 -0.77717,0.05387c-4.29226,-0.40357 -8.78764,-0.61653 -13.43001,-0.61653c-5.03019,0 -9.88778,0.2501 -14.50146,0.72175c-0.2885,-0.01392 -0.47756,-0.01843 -0.54972,-0.01843c-0.27261,0 -0.53692,0.05781 -0.78097,0.16134c-17.0534,1.92064 -30.60833,6.89457 -36.94853,13.44126c-0.19483,-0.53424 -0.63482,-0.99915 -1.23476,-1.22407zM137.44356,227.2444c4.26426,-1.0668 9.04083,-1.92162 14.25529,-2.4954c0.10874,0.01884 0.21972,0.02869 0.33225,0.02869c0.14067,0 19.69312,0.84399 19.69312,10.54989c0,1.12532 0.98465,2.10998 2.10998,2.10998c1.26599,0 2.10998,-0.98465 1.96932,-2.10998c0,-5.72606 -3.85268,-9.2403 -8.45834,-11.3936c4.54166,0.00774 8.86669,0.21607 12.94191,0.59431c0.14024,0.05261 0.28738,0.08975 0.43972,0.10874c0.01336,0.01336 0.19834,0.0512 0.5213,0.11703c3.06495,0.62554 18.56893,3.78937 18.18717,12.82416c0,1.26599 0.84399,2.25064 2.10998,2.25064c1.12532,0 1.96932,-0.84399 2.10998,-2.10998c0.16908,-4.14217 -1.69389,-7.34441 -4.40971,-9.80155c12.76537,3.6203 20.30488,9.20274 20.30488,14.58417c0,8.72124 0,18.5678 -52.46812,18.5678c-52.46812,0 -52.46812,-9.42457 -52.46812,-18.5678c0,-4.57134 5.44051,-9.28785 14.9032,-12.82332c0.17795,0.08201 0.36953,0.13841 0.56998,0.16345c6.75193,0.98465 16.87983,4.36062 17.16116,8.01792c0.14067,1.12532 0.98465,1.96932 2.10998,1.96932c0,0 0.14067,0 0.14067,0.14067c1.12532,-0.14067 2.10998,-1.12532 1.96932,-2.25064c-0.37684,-5.55853 -8.01018,-8.78229 -14.02488,-10.4745zM240.22224,236.52255l-0.0183,0.77164l-0.02591,0.77164l-0.03323,0.77134l-0.04086,0.77103l-0.04817,0.77073l-0.0561,0.77043l-0.06372,0.76982l-0.07134,0.76921l-0.07896,0.7686l-0.08659,0.76768l-0.09451,0.76677l-0.10214,0.76616l-0.10976,0.76493l-0.11768,0.76371l-0.12561,0.7628l-0.13323,0.76128l-0.14085,0.76006l-0.14878,0.75854l-0.1564,0.75701l-0.16402,0.75518l-0.17195,0.75365l-0.17958,0.75182l-0.18719,0.75l-0.19482,0.74786l-0.20244,0.74604l-0.21006,0.7439l-0.21768,0.74176l-0.225,0.73932l-0.23262,0.73689l-0.23994,0.73445l-0.24756,0.73201l-0.25457,0.72957l-0.26189,0.72683l-0.2689,0.72408l-0.27622,0.72134l-0.28323,0.71859l-0.29055,0.71555l-0.29726,0.7128l-0.175,0.41067l-0.30641,0.70426l-0.31493,0.70518l-0.32195,0.70183l-0.32896,0.69878l-0.33567,0.69573l-0.34299,0.69237l-0.34939,0.68872l-0.35671,0.68536l-0.36342,0.68201l-0.37012,0.67805l-0.37714,0.6747l-0.38414,0.67042l-0.39085,0.66677l-0.39725,0.6628l-0.40427,0.65884l-0.41098,0.65457l-0.41768,0.6503l-0.42409,0.64634l-0.43079,0.64177l-0.43719,0.63719l-0.4436,0.63293l-0.45,0.62835l-0.4564,0.62378l-0.4628,0.6189l-0.4689,0.61432l-0.475,0.60945l-0.4811,0.60488l-0.48719,0.59969l-0.49329,0.59482l-0.49878,0.58963l-0.50488,0.58476l-0.51036,0.57987l-0.51616,0.57439l-0.52195,0.56951l-0.52713,0.56402l-0.53262,0.55915l-0.53781,0.55366l-0.54298,0.54848l-0.31646,0.31463l-0.54878,0.5375l-0.5564,0.53506l-0.56189,0.52957l-0.56707,0.52408l-0.57195,0.5186l-0.57744,0.51311l-0.58232,0.50731l-0.5875,0.50152l-0.59268,0.49573l-0.59756,0.48963l-0.60213,0.48384l-0.60732,0.47774l-0.61219,0.47165l-0.61677,0.46555l-0.62164,0.45915l-0.62621,0.45304l-0.63079,0.44665l-0.63536,0.43994l-0.63994,0.43384l-0.64421,0.42713l-0.64847,0.42043l-0.65274,0.41402l-0.6567,0.40701l-0.66097,0.40061l-0.66524,0.3939l-0.6689,0.38689l-0.67286,0.38049l-0.67652,0.37317l-0.68018,0.36677l-0.68384,0.35945l-0.6875,0.35305l-0.69085,0.34573l-0.6939,0.33902l-0.69756,0.33201l-0.70061,0.325l-0.70366,0.3183l-0.7067,0.31128l-0.70976,0.30426l-0.70122,0.29268l-0.71524,0.29055l-0.71829,0.28354l-0.72104,0.27622l-0.72408,0.26951l-0.72683,0.2622l-0.72926,0.25488l-0.73171,0.24756l-0.73445,0.24024l-0.73689,0.23262l-0.73932,0.22561l-0.74146,0.21768l-0.7436,0.21036l-0.74604,0.20275l-0.74786,0.19512l-0.74969,0.1875l-0.75182,0.17988l-0.75365,0.17226l-0.75518,0.16463l-0.75701,0.15671l-0.75854,0.14878l-0.75975,0.14146l-0.76158,0.13354l-0.7625,0.12561l-0.76371,0.11798l-0.76493,0.11037l-0.76616,0.10244l-0.76677,0.09451l-0.76799,0.0872l-0.7686,0.07927l-0.76921,0.07164l-0.76982,0.06372l-0.77043,0.0564l-0.77073,0.04878l-0.77134,0.04086l-0.77134,0.03354l-0.77164,0.02622l-0.77195,0.0186l-0.77164,0.01098l-0.77195,0.00396l-0.75914,-0.00366l-0.77164,-0.01067l-0.77164,-0.0183l-0.77164,-0.02591l-0.77134,-0.03323l-0.77103,-0.04086l-0.77073,-0.04817l-0.77043,-0.0561l-0.76982,-0.06372l-0.76921,-0.07103l-0.7686,-0.07896l-0.76768,-0.08689l-0.76677,-0.09421l-0.76616,-0.10244l-0.76493,-0.10976l-0.76371,-0.11768l-0.7628,-0.12531l-0.76128,-0.13323l-0.76006,-0.14116l-0.75854,-0.14848l-0.75701,-0.1564l-0.75518,-0.16433l-0.75365,-0.17195l-0.75182,-0.17927l-0.75,-0.1875l-0.74817,-0.19482l-0.74573,-0.20244l-0.7439,-0.21006l-0.74176,-0.21738l-0.73932,-0.22531l-0.73689,-0.23231l-0.73445,-0.24024l-0.73232,-0.24725l-0.72926,-0.25457l-0.72683,-0.26189l-0.72439,-0.2689l-0.72134,-0.27622l-0.71841,-0.28354l-0.71564,-0.29024l-0.71268,-0.29726l-0.41054,-0.175l-0.70451,-0.30641l-0.70497,-0.31493l-0.70192,-0.32195l-0.69881,-0.32896l-0.69561,-0.33597l-0.69229,-0.34268l-0.68887,-0.34969l-0.6854,-0.3564l-0.68189,-0.36342l-0.67817,-0.37042l-0.67448,-0.37714l-0.67067,-0.38384l-0.66677,-0.39085l-0.66277,-0.39756l-0.65875,-0.40396l-0.6546,-0.41098l-0.65043,-0.41768l-0.64612,-0.42409l-0.6418,-0.43079l-0.63735,-0.43719l-0.6329,-0.4436l-0.62829,-0.45l-0.62375,-0.45671l-0.61899,-0.4625l-0.61429,-0.4689l-0.60951,-0.475l-0.60464,-0.4814l-0.59975,-0.48689l-0.59479,-0.49329l-0.58979,-0.49878l-0.58479,-0.50488l-0.57967,-0.51036l-0.57457,-0.51616l-0.56942,-0.52195l-0.56421,-0.52713l-0.55899,-0.53262l-0.55378,-0.53781l-0.54848,-0.54298l-0.31466,-0.31646l-0.53759,-0.54878l-0.53491,-0.5564l-0.52958,-0.56189l-0.52411,-0.56707l-0.5186,-0.57226l-0.513,-0.57713l-0.50732,-0.58262l-0.50155,-0.58719l-0.49571,-0.59268l-0.48983,-0.59756l-0.48382,-0.60213l-0.47779,-0.60732l-0.47167,-0.61219l-0.46548,-0.61677l-0.45923,-0.62164l-0.45293,-0.62621l-0.44655,-0.63079l-0.44012,-0.63536l-0.43366,-0.63994l-0.42713,-0.64421l-0.42052,-0.64847l-0.41394,-0.65274l-0.40725,-0.6567l-0.40055,-0.66097l-0.39381,-0.66524l-0.38704,-0.6689l-0.38024,-0.67286l-0.37338,-0.67652l-0.36655,-0.68018l-0.35966,-0.68384l-0.35281,-0.6875l-0.34585,-0.69085l-0.33896,-0.6939l-0.33201,-0.69756l-0.32509,-0.70061l-0.31817,-0.70366l-0.31122,-0.7067l-0.30433,-0.70976l-0.29268,-0.70122l-0.29052,-0.71524l-0.28354,-0.71829l-0.27646,-0.72134l-0.26933,-0.72378l-0.26214,-0.72683l-0.25491,-0.72926l-0.24756,-0.73171l-0.24024,-0.73445l-0.23284,-0.73689l-0.22537,-0.73932l-0.21787,-0.74146l-0.21036,-0.7436l-0.20278,-0.74604l-0.19515,-0.74786l-0.18753,-0.74969l-0.17988,-0.75182l-0.1722,-0.75365l-0.16445,-0.75518l-0.15677,-0.75701l-0.149,-0.75854l-0.14128,-0.75975l-0.13351,-0.76158l-0.12573,-0.7625l-0.11798,-0.76371l-0.11021,-0.76493l-0.10247,-0.76616l-0.09476,-0.76677l-0.08698,-0.76799l-0.0793,-0.7686l-0.07161,-0.76921l-0.06393,-0.76982l-0.05628,-0.77043l-0.04869,-0.77073l-0.04109,-0.77134l-0.03354,-0.77134l-0.02604,-0.77164l-0.01857,-0.77195l-0.01116,-0.77164l-0.00375,-0.77195l0.00348,-0.75914l0.01086,-0.77164l0.0183,-0.77164l0.02574,-0.77164l0.03326,-0.77134l0.04079,-0.77134l0.04836,-0.77064l0.05601,-0.77034l0.0636,-0.76982l0.07131,-0.76921l0.07896,-0.76854l0.08671,-0.76777l0.09442,-0.76692l0.10214,-0.76597l0.10994,-0.76497l0.11765,-0.76384l0.12542,-0.76262l0.1332,-0.76137l0.14095,-0.76l0.14869,-0.75854l0.15644,-0.75698l0.16418,-0.75533l0.17186,-0.75365l0.17958,-0.75182l0.18722,-0.74997l0.19488,-0.74798l0.20247,-0.74598l0.21006,-0.74381l0.21759,-0.74164l0.22509,-0.73932l0.23253,-0.73701l0.23997,-0.73454l0.24732,-0.73207l0.2546,-0.72948l0.26189,-0.72683l0.26908,-0.72414l0.27622,-0.72137l0.28329,-0.71853l0.2903,-0.71564l0.29726,-0.71268l0.17497,-0.41054l0.30658,-0.70451l0.31503,-0.70497l0.32192,-0.70195l0.3289,-0.6988l0.33579,-0.69559l0.34274,-0.69228l0.34963,-0.68889l0.35655,-0.68541l0.36342,-0.68185l0.37031,-0.6782l0.37714,-0.67447l0.38396,-0.67066l0.39073,-0.66678l0.39753,-0.66277l0.40424,-0.65875l0.41091,-0.65463l0.41756,-0.6504l0.42414,-0.64612l0.43073,-0.6418l0.43722,-0.63735l0.44369,-0.6329l0.45006,-0.62832l0.4564,-0.62369l0.46271,-0.61902l0.46891,-0.61429l0.47506,-0.60948l0.48115,-0.60464l0.48716,-0.59975l0.49311,-0.59479l0.49898,-0.58979l0.50478,-0.58476l0.51049,-0.5797l0.51613,-0.57454l0.52171,-0.56942l0.52719,-0.56421l0.53258,-0.55899l0.5379,-0.55378l0.54314,-0.54848l0.31631,-0.31463l0.54868,-0.53759l0.55658,-0.53494l0.5618,-0.52954l0.56701,-0.52415l0.57219,-0.5186l0.57732,-0.51298l0.58244,-0.50731l0.58747,-0.50156l0.5925,-0.49573l0.59747,-0.48981l0.6024,-0.48384l0.60729,-0.47778l0.6121,-0.47167l0.61686,-0.46548l0.62159,-0.45923l0.62621,-0.45293l0.63082,-0.44655l0.63533,-0.44012l0.63981,-0.43366l0.64418,-0.4271l0.64847,-0.42055l0.65274,-0.41394l0.65692,-0.40725l0.66097,-0.40055l0.66503,-0.39381l0.66893,-0.3872l0.6728,-0.38018l0.67655,-0.37317l0.68027,-0.36677l0.68387,-0.35945l0.68737,-0.35305l0.69082,-0.34573l0.69417,-0.33902l0.69744,-0.33201l0.70058,-0.325l0.70371,-0.3183l0.7067,-0.31128l0.7096,-0.30426l0.70097,-0.29268l0.7153,-0.29024l0.71835,-0.28354l0.72104,-0.27652l0.72408,-0.26951l0.72683,-0.26189l0.72926,-0.25488l0.73171,-0.24787l0.73445,-0.23994l0.73689,-0.23292l0.73932,-0.22531l0.74146,-0.21799l0.7436,-0.21036l0.74604,-0.20275l0.74786,-0.19512l0.74969,-0.1875l0.75182,-0.17988l0.75365,-0.17226l0.75518,-0.16433l0.75701,-0.15702l0.75854,-0.14878l0.75975,-0.14146l0.76158,-0.13354l0.7625,-0.12561l0.76371,-0.11798l0.76493,-0.11006l0.76616,-0.10274l0.76677,-0.09451l0.76799,-0.0872l0.7686,-0.07927l0.76921,-0.07164l0.76982,-0.06372l0.77043,-0.0564l0.77073,-0.04878l0.77134,-0.04086l0.77134,-0.03354l0.77164,-0.02622l0.77195,-0.0186l0.77164,-0.01098l0.77195,-0.00396l0.75945,0.00366l0.77134,0.01067l0.77195,0.0183l0.77134,0.02591l0.77134,0.03323l0.77134,0.04086l0.77073,0.04817l0.77043,0.0561l0.76982,0.06372l0.76921,0.07103l0.76829,0.07896l0.76799,0.08689l0.76677,0.09451l0.76616,0.10214l0.76493,0.10976l0.76371,0.11768l0.7628,0.12531l0.76128,0.13323l0.76006,0.14116l0.75854,0.14848l0.75671,0.1564l0.75549,0.16433l0.75365,0.17195l0.75182,0.17927l0.75,0.1875l0.74786,0.19482l0.74604,0.20244l0.7439,0.21006l0.74146,0.21738l0.73932,0.22531l0.73719,0.23231l0.73445,0.24024l0.73201,0.24725l0.72957,0.25457l0.72683,0.26189l0.72408,0.2689l0.72134,0.27622l0.71859,0.28354l0.71555,0.29024l0.7128,0.29726l0.41067,0.175l0.70457,0.30641l0.70487,0.31524l0.70183,0.32195l0.69909,0.32866l0.69542,0.33597l0.69237,0.34268l0.68872,0.34969l0.68536,0.3564l0.68201,0.36342l0.67805,0.37042l0.6747,0.37714l0.67042,0.38384l0.66677,0.39085l0.6628,0.3975l0.65884,0.40424l0.65457,0.41091l0.65061,0.41756l0.64603,0.42417l0.64177,0.4307l0.63749,0.43722l0.63262,0.44369l0.62835,0.45006l0.62378,0.45643l0.6189,0.46268l0.61432,0.46893l0.60945,0.47506l0.60488,0.48113l0.59969,0.48716l0.59482,0.49314l0.58963,0.49896l0.58476,0.50475l0.57987,0.51052l0.57439,0.51613l0.56951,0.52171l0.56402,0.52719l0.55915,0.53259l0.55366,0.53789l0.54848,0.54314l0.31463,0.31622l0.5375,0.54872l0.53506,0.55655l0.52957,0.56183l0.52408,0.56698l0.5186,0.57219l0.51311,0.57735l0.50731,0.58241l0.50152,0.5875l0.49573,0.59247l0.48963,0.5975l0.48384,0.60237l0.47805,0.60729l0.47165,0.6121l0.46524,0.61689l0.45945,0.62156l0.45274,0.62621l0.44665,0.63085l0.44024,0.63533l0.43354,0.63978l0.42713,0.64418l0.42043,0.6485l0.41402,0.65274l0.40731,0.65689l0.40061,0.661l0.39359,0.665l0.3872,0.66896l0.38018,0.67281l0.37347,0.67656l0.36646,0.68026l0.35975,0.68388l0.35275,0.68739l0.34573,0.6908l0.33902,0.69419l0.33201,0.69744l0.325,0.70062l0.3183,0.70368l0.31128,0.7067l0.30426,0.70963l0.29268,0.7011l0.29055,0.7153l0.28354,0.71832l0.27652,0.72119l0.2692,0.72399l0.2622,0.72664l0.25488,0.72933l0.24756,0.73192l0.24024,0.73436l0.23292,0.73689l0.22531,0.73921l0.21799,0.74146l0.21036,0.74375l0.20275,0.74585l0.19512,0.74789l0.1875,0.74985l0.17988,0.75176l0.17226,0.75356l0.16433,0.7553l0.15671,0.75692l0.14909,0.75848l0.14146,0.75997l0.13323,0.76134l0.12591,0.76259l0.11798,0.76384l0.11006,0.76493l0.10274,0.766l0.09451,0.76695l0.0872,0.76774l0.07927,0.76863l0.07164,0.76924l0.06372,0.76985l0.0564,0.77043l0.04878,0.77076l0.04086,0.77134l0.03354,0.77134l0.02622,0.77164l0.0186,0.77195l0.01098,0.77164l0.00396,0.77195v0.01707l-0.00366,0.74237zM236.60823,234.27164l-0.01037,-0.73719l-0.01768,-0.73658l-0.02469,-0.73658l-0.03171,-0.73597l-0.03902,-0.73567l-0.04634,-0.73506l-0.05336,-0.73457l-0.06097,-0.73393l-0.06799,-0.7332l-0.07531,-0.73241l-0.08292,-0.73161l-0.08994,-0.73064l-0.09756,-0.72963l-0.10457,-0.72862l-0.1122,-0.72743l-0.11951,-0.72628l-0.12713,-0.72494l-0.13415,-0.72362l-0.14176,-0.72219l-0.14909,-0.7207l-0.1564,-0.71914l-0.16372,-0.7175l-0.17104,-0.71579l-0.17866,-0.71405l-0.18567,-0.71219l-0.19268,-0.7103l-0.2003,-0.70829l-0.20732,-0.70631l-0.21464,-0.70421l-0.22134,-0.70198l-0.22896,-0.69984l-0.23567,-0.69753l-0.24268,-0.69518l-0.25,-0.69281l-0.2564,-0.69033l-0.26372,-0.68783l-0.27012,-0.68527l-0.27713,-0.68283l-0.27926,-0.66896l-0.29024,-0.67725l-0.29665,-0.67432l-0.30335,-0.67134l-0.30976,-0.6682l-0.31646,-0.66509l-0.32317,-0.66182l-0.32927,-0.65856l-0.33628,-0.65516l-0.34238,-0.6517l-0.34908,-0.6482l-0.35549,-0.64463l-0.36219,-0.64095l-0.36829,-0.63722l-0.375,-0.63346l-0.3814,-0.62958l-0.3875,-0.62567l-0.3942,-0.62167l-0.40031,-0.61765l-0.4064,-0.61351l-0.41281,-0.60939l-0.4192,-0.60515l-0.425,-0.60085l-0.4314,-0.59659l-0.43719,-0.59217l-0.44329,-0.58774l-0.44908,-0.58326l-0.45518,-0.57872l-0.46097,-0.57417l-0.46677,-0.56957l-0.47225,-0.56491l-0.47805,-0.56021l-0.48384,-0.55555l-0.48902,-0.55076l-0.49451,-0.54597l-0.5003,-0.54116l-0.50518,-0.53634l-0.51067,-0.53146l-0.51829,-0.52921l-0.29512,-0.29695l-0.52378,-0.51872l-0.52835,-0.51359l-0.53353,-0.50839l-0.53811,-0.50314l-0.54298,-0.49777l-0.54787,-0.49241l-0.55274,-0.48689l-0.55731,-0.48137l-0.5622,-0.47576l-0.56646,-0.47009l-0.57165,-0.46432l-0.57591,-0.45857l-0.58048,-0.45274l-0.58506,-0.44679l-0.58933,-0.44085l-0.5939,-0.43485l-0.59847,-0.42878l-0.60243,-0.42265l-0.60701,-0.41652l-0.61097,-0.4103l-0.61524,-0.40408l-0.61921,-0.39777l-0.62317,-0.39149l-0.62744,-0.38512l-0.6311,-0.37875l-0.63506,-0.37235l-0.63872,-0.36591l-0.64238,-0.35945l-0.64634,-0.35299l-0.64969,-0.3465l-0.65305,-0.33997l-0.6567,-0.33345l-0.65975,-0.32692l-0.66311,-0.32043l-0.66646,-0.31372l-0.66981,-0.30732l-0.67256,-0.30061l-0.67896,-0.29573l-0.38506,-0.16433l-0.67988,-0.28354l-0.68262,-0.27713l-0.68506,-0.27043l-0.68781,-0.26342l-0.69024,-0.2567l-0.69268,-0.2497l-0.69512,-0.24299l-0.69756,-0.23567l-0.6997,-0.22896l-0.70213,-0.22164l-0.70396,-0.21464l-0.7064,-0.20732l-0.70823,-0.2l-0.71006,-0.19299l-0.71219,-0.18597l-0.71402,-0.17835l-0.71585,-0.17104l-0.71737,-0.16372l-0.7192,-0.15671l-0.72073,-0.14909l-0.72226,-0.14176l-0.72347,-0.13445l-0.725,-0.12683l-0.72622,-0.11981l-0.72774,-0.1122l-0.72865,-0.10488l-0.72957,-0.09725l-0.73079,-0.09025l-0.7314,-0.08292l-0.73262,-0.07531l-0.73323,-0.06829l-0.73415,-0.06067l-0.73445,-0.05366l-0.73536,-0.04634l-0.73567,-0.03902l-0.73597,-0.03201l-0.73658,-0.02469l-0.73689,-0.01738l-0.73719,-0.01067l-0.7253,-0.00335l-0.73689,0.00335l-0.73719,0.01037l-0.73658,0.01768l-0.73658,0.02469l-0.73597,0.03171l-0.73567,0.03902l-0.73506,0.04634l-0.73445,0.05336l-0.73415,0.06097l-0.73323,0.06799l-0.73232,0.07531l-0.73171,0.08262l-0.73048,0.09025l-0.72957,0.09725l-0.72865,0.10488l-0.72743,0.1122l-0.72622,0.11951l-0.725,0.12713l-0.72378,0.13415l-0.72226,0.14176l-0.72043,0.14909l-0.7192,0.1564l-0.71768,0.16372l-0.71585,0.17104l-0.71402,0.17835l-0.71219,0.18567l-0.71006,0.19299l-0.70854,0.2l-0.70609,0.20762l-0.70426,0.21433l-0.70213,0.22164l-0.6997,0.22866l-0.69756,0.23597l-0.69512,0.24268l-0.69298,0.2497l-0.69024,0.2567l-0.68781,0.26342l-0.68536,0.27043l-0.68292,0.27713l-0.66859,0.27896l-0.67725,0.29024l-0.67432,0.29665l-0.67131,0.30335l-0.66823,0.31006l-0.66509,0.31616l-0.66182,0.32311l-0.65853,0.32951l-0.65518,0.33603l-0.6517,0.34256l-0.6482,0.34908l-0.6446,0.35555l-0.64097,0.36204l-0.63722,0.36848l-0.63345,0.3749l-0.6296,0.38131l-0.62567,0.38768l-0.62167,0.39403l-0.61765,0.40031l-0.61354,0.40658l-0.60936,0.41283l-0.60515,0.419l-0.60088,0.42512l-0.59655,0.43125l-0.59217,0.43728l-0.58774,0.44326l-0.58326,0.44924l-0.57872,0.45509l-0.57417,0.46091l-0.56957,0.46673l-0.56491,0.47241l-0.56024,0.47805l-0.55551,0.48365l-0.55076,0.48918l-0.54597,0.49463l-0.54119,0.5l-0.53634,0.5053l-0.53146,0.51058l-0.52921,0.51835l-0.29701,0.2953l-0.51872,0.5236l-0.51359,0.5285l-0.50842,0.53335l-0.50311,0.53823l-0.4978,0.54304l-0.49238,0.54787l-0.48691,0.55262l-0.48136,0.55735l-0.47576,0.56207l-0.47008,0.56673l-0.46436,0.5714l-0.45856,0.57597l-0.45272,0.58052l-0.44681,0.58503l-0.44085,0.58951l-0.43483,0.5939l-0.42878,0.59826l-0.42267,0.60259l-0.41651,0.60686l-0.41031,0.61103l-0.40408,0.61521l-0.3978,0.61927l-0.39146,0.6233l-0.38512,0.62727l-0.37875,0.63117l-0.37235,0.635l-0.36591,0.63877l-0.35945,0.64247l-0.35299,0.6461l-0.34646,0.64967l-0.33997,0.65316l-0.33345,0.65659l-0.32692,0.65993l-0.32037,0.66323l-0.31384,0.66643l-0.30725,0.66954l-0.30073,0.67262l-0.29567,0.67905l-0.16415,0.38503l-0.28378,0.6799l-0.2771,0.68256l-0.27033,0.68518l-0.26353,0.68774l-0.25667,0.69027l-0.24976,0.69268l-0.2428,0.69512l-0.23582,0.69744l-0.22878,0.69975l-0.22167,0.70195l-0.21454,0.70415l-0.2074,0.70625l-0.20021,0.70826l-0.19296,0.71024l-0.18573,0.71216l-0.17845,0.71402l-0.17116,0.71576l-0.16381,0.7175l-0.15647,0.71911l-0.14914,0.7207l-0.14176,0.72223l-0.13439,0.72359l-0.12702,0.725l-0.11961,0.72628l-0.11226,0.72746l-0.10488,0.72862l-0.0975,0.72972l-0.09015,0.73067l-0.08278,0.73164l-0.07546,0.73247l-0.06814,0.73329l-0.06083,0.73399l-0.05356,0.73451l-0.04631,0.73536l-0.03909,0.73567l-0.03192,0.73628l-0.02472,0.73628l-0.01762,0.73689l-0.01052,0.73719l-0.00348,0.7253l0.00341,0.73689l0.01048,0.73719l0.01756,0.73658l0.02466,0.73658l0.03183,0.73597l0.03905,0.73567l0.04625,0.73506l0.05347,0.73445l0.0608,0.73415l0.06805,0.73323l0.0754,0.73232l0.08271,0.73171l0.09006,0.73048l0.09744,0.72957l0.10482,0.72865l0.11217,0.72743l0.11958,0.72622l0.12695,0.725l0.1343,0.72378l0.14171,0.72226l0.14906,0.72043l0.1564,0.7192l0.16378,0.71768l0.17107,0.71585l0.17839,0.71402l0.18567,0.71219l0.19289,0.71006l0.20015,0.70854l0.20735,0.70609l0.21451,0.70426l0.22164,0.70213l0.22872,0.6997l0.23576,0.69756l0.24277,0.69512l0.24973,0.69298l0.25664,0.69024l0.2635,0.68781l0.2703,0.68536l0.2771,0.68262l0.27912,0.6692l0.29024,0.67713l0.29677,0.67439l0.30332,0.67134l0.30987,0.66829l0.31643,0.66494l0.32299,0.66189l0.32951,0.65853l0.33603,0.65518l0.34256,0.65183l0.34905,0.64817l0.35558,0.64451l0.36201,0.64086l0.36851,0.63719l0.3749,0.63353l0.38131,0.62957l0.38765,0.6256l0.39403,0.62195l0.40034,0.61738l0.40656,0.61371l0.41281,0.60945l0.419,0.60488l0.42514,0.60091l0.43123,0.59665l0.43728,0.59207l0.44328,0.5878l0.44921,0.58323l0.4551,0.57865l0.46094,0.57439l0.4667,0.56951l0.47241,0.56494l0.47807,0.56037l0.48365,0.55548l0.48918,0.55061l0.4946,0.54603l0.50003,0.54116l0.5053,0.53628l0.51058,0.5314l0.51835,0.52927l0.29527,0.29695l0.5236,0.5189l0.5285,0.51342l0.53335,0.50853l0.53823,0.50305l0.54308,0.49786l0.54783,0.49238l0.55265,0.48689l0.55735,0.4814l0.56207,0.47561l0.56676,0.47012l0.5714,0.46432l0.57594,0.45854l0.58055,0.45274l0.58503,0.44695l0.58951,0.44085l0.5939,0.43476l0.59829,0.42865l0.60259,0.42287l0.60683,0.41646l0.61106,0.41037l0.61518,0.40396l0.61927,0.39787l0.62332,0.39146l0.62728,0.38506l0.63116,0.37866l0.635,0.37256l0.63878,0.36585l0.64247,0.35945l0.64612,0.35305l0.64963,0.34634l0.65317,0.33994l0.65662,0.33354l0.65991,0.32682l0.66323,0.32043l0.6664,0.31372l0.66957,0.30732l0.67262,0.30091l0.67902,0.29543l0.38497,0.16433l0.67996,0.28354l0.68262,0.27713l0.68506,0.27043l0.68781,0.26342l0.69024,0.2567l0.69268,0.2497l0.69512,0.24299l0.69756,0.23567l0.6997,0.22896l0.70183,0.22164l0.70426,0.21464l0.70609,0.20732l0.70823,0.2l0.71037,0.19299l0.71219,0.18597l0.71402,0.17835l0.71585,0.17104l0.71737,0.16372l0.7192,0.15671l0.72073,0.14909l0.72226,0.14176l0.72347,0.13445l0.725,0.12683l0.72622,0.11981l0.72743,0.1122l0.72865,0.10488l0.72987,0.09725l0.73048,0.09025l0.73171,0.08292l0.73262,0.07531l0.73323,0.06829l0.73384,0.06067l0.73476,0.05366l0.73506,0.04634l0.73597,0.03902l0.73597,0.03201l0.73658,0.02469l0.73689,0.01738l0.73719,0.01067l0.725,0.00335l0.73719,-0.00335l0.73689,-0.01037l0.73658,-0.01768l0.73658,-0.02469l0.73597,-0.03171l0.73567,-0.03902l0.73506,-0.04634l0.73445,-0.05336l0.73415,-0.06097l0.73323,-0.06799l0.73232,-0.07531l0.73171,-0.08262l0.73048,-0.09025l0.72957,-0.09725l0.72865,-0.10488l0.72743,-0.1122l0.72622,-0.11951l0.725,-0.12713l0.72378,-0.13415l0.72226,-0.14176l0.72073,-0.14909l0.7189,-0.1564l0.71768,-0.16372l0.71585,-0.17104l0.71402,-0.17835l0.71219,-0.18567l0.71006,-0.19299l0.70854,-0.2l0.70609,-0.20732l0.70426,-0.21464l0.70213,-0.22164l0.6997,-0.22866l0.69756,-0.23567l0.69512,-0.24299l0.69298,-0.2497l0.69024,-0.2567l0.68781,-0.26342l0.68536,-0.27012l0.68292,-0.27713l0.6689,-0.27926l0.67713,-0.29024l0.67439,-0.29665l0.67134,-0.30335l0.66829,-0.31006l0.66494,-0.31616l0.66189,-0.32317l0.65853,-0.32958l0.65518,-0.33597l0.65153,-0.34268l0.64847,-0.34908l0.64451,-0.35549l0.64086,-0.36189l0.63719,-0.3686l0.63353,-0.3747l0.62957,-0.3814l0.6256,-0.38781l0.62195,-0.3939l0.61738,-0.40031l0.61371,-0.4067l0.60945,-0.41281l0.60488,-0.4189l0.60091,-0.4253l0.59665,-0.43109l0.59207,-0.43719l0.5878,-0.44329l0.58323,-0.44939l0.57896,-0.45488l0.57408,-0.46097l0.56951,-0.46677l0.56494,-0.47256l0.56037,-0.47774l0.55548,-0.48384l0.55061,-0.48902l0.54603,-0.49482l0.54116,-0.5l0.53628,-0.50518l0.5317,-0.51067l0.52927,-0.51829l0.29665,-0.29512l0.5189,-0.52378l0.51342,-0.52835l0.50853,-0.53353l0.50305,-0.53811l0.49786,-0.54298l0.49238,-0.54787l0.48689,-0.55274l0.4814,-0.55731l0.47561,-0.5622l0.47012,-0.56646l0.46432,-0.57165l0.45854,-0.57591l0.45274,-0.58048l0.44695,-0.58506l0.44085,-0.58933l0.43476,-0.5939l0.42896,-0.59847l0.42256,-0.60243l0.41646,-0.60701l0.41037,-0.61097l0.40396,-0.61524l0.39787,-0.61921l0.39146,-0.62317l0.38506,-0.62744l0.37896,-0.6311l0.37225,-0.63506l0.36585,-0.63872l0.35945,-0.64238l0.35305,-0.64634l0.34634,-0.64969l0.33994,-0.65305l0.33354,-0.6567l0.32682,-0.65975l0.32043,-0.66342l0.31372,-0.66616l0.30732,-0.66981l0.30091,-0.67256l0.29543,-0.67896l0.16433,-0.38506l0.28384,-0.67988l0.27683,-0.68262l0.27043,-0.68506l0.26342,-0.68781l0.2567,-0.69024l0.25,-0.69268l0.24268,-0.69512l0.23597,-0.69756l0.22866,-0.6997l0.22164,-0.70213l0.21464,-0.70396l0.20732,-0.7064l0.2003,-0.70823l0.19299,-0.71006l0.18567,-0.71219l0.17835,-0.71402l0.17134,-0.71585l0.16372,-0.71737l0.1564,-0.7192l0.14909,-0.72073l0.14176,-0.72226l0.13445,-0.72347l0.12713,-0.725l0.11951,-0.72622l0.1122,-0.72743l0.10488,-0.72865l0.09756,-0.72987l0.09025,-0.73079l0.08292,-0.7314l0.07531,-0.73262l0.06829,-0.73323l0.06067,-0.73384l0.05366,-0.73476l0.04634,-0.73536l0.03902,-0.73567l0.03201,-0.73597l0.02469,-0.73658l0.01738,-0.73689l0.01067,-0.73719l0.00335,-0.7253v-0.01707z" data-paper-data="{&quot;isPathIcon&quot;:true}" fill="#ffffff" style="fill: rgb(255, 255, 255);"></path></g></svg>