<svg id="visual" viewBox="0 0 900 600" width="900" height="600" xmlns="http://www.w3.org/2000/svg" xmlns:xlink="http://www.w3.org/1999/xlink" version="1.1"><rect x="0" y="0" width="900" height="600" fill="#eceaac"></rect><defs><linearGradient id="grad1_0" x1="33.3%" y1="100%" x2="100%" y2="0%"><stop offset="20%" stop-color="#ff650d" stop-opacity="1"></stop><stop offset="80%" stop-color="#ff650d" stop-opacity="1"></stop></linearGradient></defs><defs><linearGradient id="grad1_1" x1="33.3%" y1="100%" x2="100%" y2="0%"><stop offset="20%" stop-color="#ff650d" stop-opacity="1"></stop><stop offset="80%" stop-color="#f49d32" stop-opacity="1"></stop></linearGradient></defs><defs><linearGradient id="grad1_2" x1="33.3%" y1="100%" x2="100%" y2="0%"><stop offset="20%" stop-color="#ecc76b" stop-opacity="1"></stop><stop offset="80%" stop-color="#f49d32" stop-opacity="1"></stop></linearGradient></defs><defs><linearGradient id="grad1_3" x1="33.3%" y1="100%" x2="100%" y2="0%"><stop offset="20%" stop-color="#ecc76b" stop-opacity="1"></stop><stop offset="80%" stop-color="#eceaac" stop-opacity="1"></stop></linearGradient></defs><defs><linearGradient id="grad2_0" x1="0%" y1="100%" x2="66.7%" y2="0%"><stop offset="20%" stop-color="#ff650d" stop-opacity="1"></stop><stop offset="80%" stop-color="#ff650d" stop-opacity="1"></stop></linearGradient></defs><defs><linearGradient id="grad2_1" x1="0%" y1="100%" x2="66.7%" y2="0%"><stop offset="20%" stop-color="#f49d32" stop-opacity="1"></stop><stop offset="80%" stop-color="#ff650d" stop-opacity="1"></stop></linearGradient></defs><defs><linearGradient id="grad2_2" x1="0%" y1="100%" x2="66.7%" y2="0%"><stop offset="20%" stop-color="#f49d32" stop-opacity="1"></stop><stop offset="80%" stop-color="#ecc76b" stop-opacity="1"></stop></linearGradient></defs><defs><linearGradient id="grad2_3" x1="0%" y1="100%" x2="66.7%" y2="0%"><stop offset="20%" stop-color="#eceaac" stop-opacity="1"></stop><stop offset="80%" stop-color="#ecc76b" stop-opacity="1"></stop></linearGradient></defs><g transform="translate(900, 600)"><path d="M-432.7 0C-381.4 -52.2 -330.2 -104.4 -300.5 -173.5C-270.9 -242.6 -262.8 -328.7 -216.3 -374.7C-169.8 -420.7 -84.9 -426.7 0 -432.7L0 0Z" fill="#ead98b"></path><path d="M-324.5 0C-286.1 -39.1 -247.6 -78.3 -225.4 -130.1C-203.1 -182 -197.1 -246.5 -162.2 -281C-127.4 -315.5 -63.7 -320 0 -324.5L0 0Z" fill="#efb34d"></path><path d="M-216.3 0C-190.7 -26.1 -165.1 -52.2 -150.3 -86.8C-135.4 -121.3 -131.4 -164.3 -108.2 -187.3C-84.9 -210.4 -42.5 -213.3 0 -216.3L0 0Z" fill="#f9841b"></path><path d="M-108.2 0C-95.4 -13 -82.5 -26.1 -75.1 -43.4C-67.7 -60.7 -65.7 -82.2 -54.1 -93.7C-42.5 -105.2 -21.2 -106.7 0 -108.2L0 0Z" fill="#ff650d"></path></g><g transform="translate(0, 0)"><path d="M432.7 0C423.8 79.8 414.9 159.7 374.7 216.3C334.5 273 263.2 306.4 195.5 338.6C127.8 370.8 63.9 401.7 0 432.7L0 0Z" fill="#ead98b"></path><path d="M324.5 0C317.8 59.9 311.1 119.8 281 162.2C250.9 204.7 197.4 229.8 146.6 254C95.9 278.1 47.9 301.3 0 324.5L0 0Z" fill="#efb34d"></path><path d="M216.3 0C211.9 39.9 207.4 79.8 187.3 108.2C167.3 136.5 131.6 153.2 97.8 169.3C63.9 185.4 32 200.9 0 216.3L0 0Z" fill="#f9841b"></path><path d="M108.2 0C105.9 20 103.7 39.9 93.7 54.1C83.6 68.2 65.8 76.6 48.9 84.7C32 92.7 16 100.4 0 108.2L0 0Z" fill="#ff650d"></path></g></svg>