<svg xmlns="http://www.w3.org/2000/svg" viewBox="0 0 2800 1900"><g data-name="Layer 1"><ellipse cx="1378.582" cy="1748.654" opacity=".15" rx="399.622" ry="92.712"/><path fill="#e89c7c" d="M1684.38 972.007s15.29-10.303 28.294-36.31c13.004-26.007-34.803-17.21-40.157-14.15s-16.446 10.326-18.358 18.74c-1.912 8.414 8.414 20.652 12.238 22.947 3.825 2.295 17.983 8.773 17.983 8.773Z"/><path fill="#1b1723" d="M1056.737 577.26c-2.119 7.475-18.098 72.39-7.71 192.423s43.376 126.153 43.17 181.005c-.206 54.852 5.444 103.289 94.166 123.593 0 0-55.631-41.61-54.41-95.77 0 0 51.218 176.826 308.645 89.104 257.426-87.722 193.907-329.406 193.907-329.406s41.346 124.77-6.694 193.115c-48.039 68.344-10.976 109.939-10.976 109.939s-13.374-42.551 19.29-89.414c32.663-46.863 161.742-262.304-123.824-522.876S1056.737 577.26 1056.737 577.26Z"/><path fill="#efe3df" d="M1479.161 894.702s47.64 24.55 58.35 145.405l110.91-101.732 35.952 33.656s-76.491 123.15-130.8 149.156c-54.308 26.008-86.435-69.606-86.435-69.606Z"/><path d="M1684.38 972.007s-5.766 9.247-15.176 23.172a60.984 60.984 0 0 0-42.21 5.167c-25.13 12.891-95.352 81.21-90.728 125.268-43.733 1.47-69.134-74.03-69.134-74.03l12.02-156.87s12.946 6.636 26.871 30.134c-3.862 42.917-10.063 153.118 31.494 115.26l110.908-101.716Z" style="mix-blend-mode:soft-light" opacity=".45"/><path fill="#efe3df" d="M1229.723 894.702s-47.64 24.55-58.349 145.405l-110.912-101.732-35.95 33.656s76.49 123.15 130.799 149.156c54.308 26.008 86.434-69.606 86.434-69.606Z"/><path d="M1024.505 972.007s5.765 9.247 15.176 23.172a60.983 60.983 0 0 1 42.209 5.167c25.13 12.891 95.352 81.21 90.729 125.268 43.732 1.47 69.134-74.03 69.134-74.03l-12.021-156.87s-12.946 6.636-26.87 30.134c3.861 42.917 10.062 153.118-31.495 115.26L1060.46 938.392Z" style="mix-blend-mode:soft-light" opacity=".45"/><path fill="#ceb6af" d="M1307.602 1732.18c-22.07 7.569-19.786 14.653-38.781 28.534-18.434 13.497-52.791 1.671-51.04-16.186q.095-.835.272-1.67c4.134-18.776 51.543-45.67 51.543-45.67s38.382-16.35 48.197-6.97a7.233 7.233 0 0 1 2.047 3.678c3.703 16.5 9.806 30.688-12.238 38.284Z"/><path fill="#efe3df" d="M1303.805 1721.145c-22.043 7.568-19.787 14.653-38.783 28.562-14.24 10.396-37.946 5.729-47.24-5.179a13.009 13.009 0 0 1 .24-1.447.622.622 0 0 1 .031-.223c2.156-9.791 16.052-21.754 28.883-30.997 11.79-8.503 22.66-14.673 22.66-14.673s38.382-16.35 48.197-6.97c3.184 13.314 4.721 24.517-13.988 30.927Z"/><path fill="#f9f4f4" d="M1218.023 1743.08a.622.622 0 0 1 .03-.222c2.156-9.791 16.052-21.754 28.883-30.997 11.39-.782 25.465-.024 32.965 7.04 12.878 12.095-31.433 38.832-61.878 24.18Z"/><path fill="#ceb6af" d="M1429.67 1733.67c21.879 8.104 19.422 15.13 38.074 29.471 18.099 13.943 52.734 2.958 51.418-14.936q-.073-.838-.23-1.676c-3.675-18.872-50.413-46.915-50.413-46.915s-37.972-17.281-48.013-8.144a7.236 7.236 0 0 0-2.136 3.628c-4.105 16.406-10.552 30.44 11.3 38.572Z"/><path fill="#efe3df" d="M1433.736 1722.73c21.851 8.104 19.423 15.13 38.074 29.5 13.982 10.74 37.795 6.652 47.352-4.025a13.096 13.096 0 0 0-.205-1.453.616.616 0 0 0-.025-.223c-1.916-9.841-15.517-22.14-28.118-31.693-11.58-8.788-22.295-15.222-22.295-15.222s-37.972-17.281-48.013-8.144c-3.508 13.234-5.318 24.396 13.23 31.26Z"/><path fill="#f9f4f4" d="M1518.957 1746.752a.616.616 0 0 0-.025-.223c-1.916-9.841-15.517-22.14-28.118-31.693-11.367-1.059-25.457-.645-33.128 6.234-13.168 11.777 30.477 39.587 61.27 25.682Z"/><path fill="#ceb6af" d="M1230.325 1322.02s-8.74 153.104 34.356 375.522c0 0 21.53 18.754 60.687.74l16.56-324.711 68.15 327.726s37.625 13.667 65.307-2.505c0 0 9.705-326.116.173-389.63-9.532-63.514-25-109.93-90.073-126.574-65.074-16.643-125.73-20.025-133.067 18.189-7.338 38.213-22.093 121.242-22.093 121.242Z"/><path d="M1416.037 1399.568s24.298 164.427 34.004 306.79c-20.952 1.859-39.965-5.042-39.965-5.042l-68.156-327.73-56.743-41.642s-4.353 236.632 4.68 374.058c-16.44-.905-25.183-8.479-25.183-8.479-43.095-222.418-34.346-375.5-34.346-375.5s14.735-83.036 22.083-121.266c7.347-38.184 68.018-34.815 133.087-18.147 65.07 16.619 80.547 63.018 90.074 126.533 1.656 11.102 2.765 30.323 3.407 54.422-16.316 9.006-45.384 25.275-62.942 36.003Z" style="mix-blend-mode:soft-light" opacity=".45"/><path fill="#fff" d="m1363.368 867.085-.001.093-.162-.048.163-.045z"/><path fill="#efe3df" d="M1500.134 1328.411s-29.334 34.77-142.802 33.48l-.366-.005c-113.466-1.478-141.943-36.953-141.943-36.953s-10.181-43.282 9.128-124.055c19.308-80.772 23.74-83.583 8.715-187.081s13.703-121.933 13.703-121.933l116.432-24.69.204-.044.162.048 115.794 27.524s28.27 19.129 10.725 122.23-13.183 106.019 4.15 187.239c17.332 81.22 6.098 124.24 6.098 124.24Z"/><path d="M1500.134 1328.415s-15.039 17.802-65.16 27.476c10.944-19.216 21.81-55.384 18.594-122.296-6.066-126.87 14.598-131.878 17.544-186.458 2.946-54.533-3.657-74.009-3.657-74.009s-15.186 39.873-34.792 51.562c-19.647 11.642-11.916 35.499-32.974 25.99-21.057-9.508-35.196-25.507-54.624-28.42-19.428-2.867-59.963-14.585-67.822-24.59-7.9-10.006-17.088 5.52-17.088 5.52s-7.173 27.197 9.88 67.933c17.054 40.689-3.708 117.077-6.511 156.631-2.415 34.347-18.19 82.477 12.68 125.494-47.223-10.954-61.182-28.311-61.182-28.311s-10.18-43.283 9.129-124.055c19.308-80.773 23.74-83.584 8.715-187.082s13.703-121.933 13.703-121.933l116.432-24.69.204-.045.162.05 115.794 27.523s28.27 19.13 10.725 122.23c-17.545 103.101-13.183 106.02 4.15 187.239 17.332 81.22 6.098 124.24 6.098 124.24Z" style="mix-blend-mode:soft-light" opacity=".45"/><path fill="#fff" d="m1363.205 867.13-.204.044.001-.094.203.05z"/><path fill="#b2a19d" d="M1278.03 1353.647c-1.333-14.56-1.805-29.198-1.899-43.83-.067-14.631.066-29.284.846-43.904q2.01-43.884 8.073-87.506c1.965-14.45 4.755-29.158 7.236-43.265a217.217 217.217 0 0 0 2.42-42.817 256.575 256.575 0 0 0-17.728-83.725l-2.002-5.009 5.186-.537a194.55 194.55 0 0 0 25.555-4.254 198.231 198.231 0 0 0 24.726-7.864 202.202 202.202 0 0 0 45.244-25.687 255.058 255.058 0 0 0 38.33-35.786 271.613 271.613 0 0 0 30.674-42.927 242.85 242.85 0 0 1-28.393 44.82 234.503 234.503 0 0 1-37.394 38.036 197.465 197.465 0 0 1-45.85 27.834 194.023 194.023 0 0 1-25.52 8.795 202.164 202.164 0 0 1-26.596 4.852l3.184-5.544a223.402 223.402 0 0 1 13.545 42.526 245.533 245.533 0 0 1 5.692 44.143 220.084 220.084 0 0 1-2.89 44.506c-2.889 14.603-5.741 28.564-7.98 43.028-4.63 28.723-8.102 57.67-10.66 86.704-2.567 29.038-4.132 58.181-3.798 87.41Z"/><path d="M1334.742 1031.62c-.125 10.21-7.68 18.397-16.876 18.284s-16.55-8.48-16.426-18.69 7.68-18.398 16.876-18.286c9.197.112 16.55 8.48 16.426 18.691Z" style="mix-blend-mode:soft-light"/><path fill="#ce518a" d="M1332.749 1030.715c-.114 9.36-6.786 16.867-14.902 16.768-8.115-.1-14.602-7.767-14.488-17.127.115-9.36 6.786-16.867 14.902-16.768 8.116.099 14.602 7.767 14.488 17.127Z"/><path fill="#c43d81" d="M1330.835 1029.755c-.097 7.921-5.743 14.274-12.61 14.19-6.868-.083-12.357-6.572-12.26-14.493.096-7.92 5.742-14.274 12.61-14.19 6.867.084 12.356 6.573 12.26 14.494Z"/><path d="M1327.437 1029.714c-.07 5.757-4.173 10.374-9.165 10.313s-8.98-4.777-8.91-10.533c.07-5.757 4.173-10.374 9.165-10.313 4.99.06 8.98 4.777 8.91 10.533Z" style="mix-blend-mode:soft-light" opacity=".45"/><path fill="#4f072b" d="M1315.093 1030.169a2.74 2.74 0 1 1-2.674-3.161 2.943 2.943 0 0 1 2.674 3.161ZM1326.257 1030.305a2.74 2.74 0 1 1-2.674-3.161 2.943 2.943 0 0 1 2.674 3.161Z"/><path d="M1400.155 1020.53c-.125 10.211-7.68 18.398-16.877 18.285-9.196-.112-16.55-8.48-16.425-18.691.124-10.21 7.68-18.397 16.876-18.285 9.196.112 16.55 8.48 16.426 18.691Z" style="mix-blend-mode:soft-light"/><path fill="#ce518a" d="M1398.161 1019.625c-.114 9.36-6.785 16.868-14.901 16.769-8.116-.1-14.602-7.767-14.488-17.127.114-9.36 6.786-16.867 14.901-16.769 8.116.1 14.602 7.767 14.488 17.127Z"/><path fill="#c43d81" d="M1396.247 1018.667c-.097 7.92-5.742 14.273-12.61 14.19-6.868-.084-12.357-6.573-12.26-14.494.097-7.92 5.742-14.274 12.61-14.19 6.868.084 12.357 6.573 12.26 14.494Z"/><path d="M1392.85 1018.625c-.07 5.756-4.174 10.374-9.165 10.313-4.991-.061-8.98-4.777-8.91-10.534.07-5.756 4.173-10.373 9.164-10.312 4.991.06 8.98 4.777 8.91 10.533Z" style="mix-blend-mode:soft-light" opacity=".45"/><path fill="#4f072b" d="M1380.505 1019.08a2.74 2.74 0 1 1-2.674-3.161 2.943 2.943 0 0 1 2.674 3.16ZM1391.67 1019.216a2.74 2.74 0 1 1-2.675-3.161 2.943 2.943 0 0 1 2.675 3.161Z"/><path d="M1344.219 1119.237c-.125 10.21-7.68 18.398-16.877 18.285s-16.55-8.48-16.425-18.691 7.68-18.397 16.876-18.285c9.196.112 16.55 8.48 16.426 18.691Z" style="mix-blend-mode:soft-light"/><path fill="#ce518a" d="M1342.226 1118.332c-.115 9.36-6.786 16.868-14.902 16.768-8.116-.098-14.602-7.766-14.488-17.126.114-9.36 6.786-16.868 14.902-16.769 8.115.1 14.601 7.767 14.487 17.127Z"/><path fill="#c43d81" d="M1340.311 1117.373c-.096 7.92-5.742 14.274-12.61 14.19-6.868-.083-12.357-6.572-12.26-14.493.097-7.92 5.742-14.274 12.61-14.19 6.868.084 12.357 6.573 12.26 14.493Z"/><path d="M1336.913 1117.332c-.07 5.756-4.173 10.373-9.164 10.313-4.991-.062-8.98-4.777-8.91-10.534.07-5.756 4.173-10.373 9.164-10.312 4.992.06 8.98 4.776 8.91 10.533Z" style="mix-blend-mode:soft-light" opacity=".45"/><path fill="#4f072b" d="M1324.57 1117.787a2.74 2.74 0 1 1-2.674-3.162 2.943 2.943 0 0 1 2.674 3.162ZM1335.734 1117.923a2.74 2.74 0 1 1-2.674-3.162 2.943 2.943 0 0 1 2.674 3.162Z"/><ellipse cx="1392.633" cy="1116.856" rx="18.49" ry="16.652" transform="rotate(-89.303 1392.633 1116.856)" style="mix-blend-mode:soft-light"/><path fill="#ce518a" d="M1407.29 1116.154c-.114 9.36-6.785 16.867-14.9 16.768-8.117-.098-14.603-7.767-14.489-17.126.114-9.36 6.786-16.868 14.902-16.769 8.115.1 14.602 7.767 14.488 17.127Z"/><path fill="#c43d81" d="M1405.377 1115.195c-.097 7.921-5.743 14.274-12.61 14.19-6.868-.084-12.358-6.572-12.26-14.493.096-7.92 5.742-14.274 12.61-14.19 6.867.084 12.356 6.573 12.26 14.493Z"/><path d="M1401.979 1115.154c-.07 5.756-4.174 10.374-9.165 10.312-4.991-.06-8.98-4.776-8.91-10.533s4.173-10.373 9.164-10.312c4.992.06 8.981 4.776 8.91 10.533Z" style="mix-blend-mode:soft-light" opacity=".45"/><path fill="#4f072b" d="M1389.635 1115.609a2.74 2.74 0 1 1-2.674-3.162 2.943 2.943 0 0 1 2.674 3.162ZM1400.8 1115.745a2.74 2.74 0 1 1-2.675-3.162 2.943 2.943 0 0 1 2.674 3.162Z"/><path d="M1334.893 1214.22c-.125 10.21-7.68 18.397-16.876 18.285-9.196-.112-16.55-8.48-16.426-18.691.125-10.211 7.68-18.397 16.877-18.285 9.196.112 16.55 8.48 16.425 18.691Z" style="mix-blend-mode:soft-light"/><path fill="#ce518a" d="M1332.9 1213.315c-.114 9.36-6.786 16.868-14.901 16.768-8.116-.098-14.603-7.767-14.489-17.126.115-9.36 6.786-16.868 14.902-16.769 8.116.1 14.602 7.767 14.488 17.127Z"/><path fill="#c43d81" d="M1330.986 1212.356c-.097 7.92-5.743 14.274-12.61 14.19-6.868-.084-12.357-6.572-12.26-14.493.096-7.92 5.742-14.274 12.61-14.19s12.356 6.572 12.26 14.493Z"/><path d="M1327.588 1212.315c-.07 5.756-4.174 10.373-9.165 10.312-4.99-.06-8.98-4.776-8.91-10.533s4.174-10.373 9.165-10.312c4.991.06 8.98 4.776 8.91 10.533Z" style="mix-blend-mode:soft-light" opacity=".45"/><path fill="#4f072b" d="M1315.244 1212.77a2.74 2.74 0 1 1-2.674-3.162 2.942 2.942 0 0 1 2.674 3.162ZM1326.408 1212.906a2.74 2.74 0 1 1-2.674-3.162 2.943 2.943 0 0 1 2.674 3.162Z"/><path d="M1399.635 1219.523c-.124 10.21-7.68 18.397-16.876 18.285-9.196-.113-16.55-8.48-16.425-18.692.124-10.21 7.68-18.397 16.876-18.285 9.196.112 16.55 8.48 16.425 18.692Z" style="mix-blend-mode:soft-light"/><path fill="#ce518a" d="M1397.642 1218.618c-.114 9.36-6.786 16.867-14.901 16.768-8.116-.099-14.602-7.767-14.488-17.127.114-9.36 6.786-16.867 14.902-16.768 8.115.099 14.602 7.767 14.487 17.127Z"/><path fill="#c43d81" d="M1395.728 1217.659c-.096 7.92-5.742 14.274-12.61 14.19-6.867-.084-12.357-6.573-12.26-14.494.096-7.92 5.742-14.273 12.61-14.19 6.868.084 12.357 6.573 12.26 14.494Z"/><path d="M1392.33 1217.617c-.07 5.757-4.173 10.374-9.164 10.313-4.991-.061-8.98-4.777-8.91-10.533s4.173-10.374 9.164-10.313c4.991.061 8.98 4.777 8.91 10.533Z" style="mix-blend-mode:soft-light" opacity=".45"/><path fill="#4f072b" d="M1379.987 1218.072a2.74 2.74 0 1 1-2.675-3.161 2.943 2.943 0 0 1 2.675 3.161ZM1391.15 1218.208a2.74 2.74 0 1 1-2.674-3.161 2.943 2.943 0 0 1 2.675 3.161Z"/><path d="M1333.283 1307.646c-.124 10.21-7.68 18.397-16.876 18.285s-16.55-8.48-16.425-18.691c.124-10.211 7.68-18.397 16.876-18.285 9.196.112 16.55 8.48 16.425 18.691Z" style="mix-blend-mode:soft-light"/><ellipse cx="1316.595" cy="1306.562" fill="#ce518a" rx="16.949" ry="14.696" transform="rotate(-89.301 1316.595 1306.562)"/><path fill="#c43d81" d="M1329.376 1305.782c-.097 7.921-5.742 14.274-12.61 14.19-6.868-.083-12.357-6.572-12.26-14.493.096-7.92 5.742-14.274 12.61-14.19 6.868.084 12.357 6.573 12.26 14.493Z"/><path d="M1325.978 1305.74c-.07 5.757-4.173 10.374-9.164 10.314-4.992-.062-8.98-4.777-8.91-10.534.07-5.756 4.173-10.373 9.164-10.312 4.991.06 8.98 4.776 8.91 10.533Z" style="mix-blend-mode:soft-light" opacity=".45"/><path fill="#4f072b" d="M1313.634 1306.196a2.74 2.74 0 1 1-2.674-3.162 2.943 2.943 0 0 1 2.674 3.161ZM1324.798 1306.332a2.74 2.74 0 1 1-2.674-3.162 2.943 2.943 0 0 1 2.674 3.162Z"/><path d="M1400.84 1308.47c-.124 10.211-7.68 18.398-16.875 18.285-9.197-.112-16.55-8.48-16.426-18.691s7.68-18.397 16.876-18.285c9.197.112 16.55 8.48 16.426 18.691Z" style="mix-blend-mode:soft-light"/><ellipse cx="1384.153" cy="1307.386" fill="#ce518a" rx="16.949" ry="14.696" transform="rotate(-89.301 1384.153 1307.386)"/><path fill="#c43d81" d="M1396.934 1306.606c-.097 7.921-5.743 14.274-12.61 14.19-6.868-.083-12.357-6.572-12.26-14.493.096-7.92 5.742-14.274 12.61-14.19 6.867.084 12.356 6.573 12.26 14.493Z"/><path d="M1393.536 1306.565c-.07 5.757-4.174 10.374-9.165 10.313-4.991-.061-8.98-4.777-8.91-10.534.07-5.756 4.173-10.373 9.164-10.312 4.992.06 8.98 4.777 8.91 10.533Z" style="mix-blend-mode:soft-light" opacity=".45"/><path fill="#4f072b" d="M1381.192 1307.02a2.74 2.74 0 1 1-2.674-3.162 2.943 2.943 0 0 1 2.674 3.162ZM1392.356 1307.156a2.74 2.74 0 1 1-2.674-3.161 2.943 2.943 0 0 1 2.674 3.161Z"/><path fill="#c43d81" d="M1481.36 875.21s-2.12 32.994-21.215 49.271c0 0 10.266 50.315-20.98 77.01s-27.352 35.988-40.512 35.167c-13.16-.82-31.239-20.853-50.705-21.09s-66.767-18.646-79.637-43.237c-12.87-24.592-23.41-52.457-23.152-73.586.257-21.13 1-34.989 1-34.989s149.846-32.513 156.716-32.429c6.87.084 78.485 43.883 78.485 43.883Z"/><path d="M1435.975 933.382c16.004-6.755 32.422-24.118 39.483-32.203a100.501 100.501 0 0 0 5.896-25.992s-71.62-43.797-78.46-43.88c-6.88-.084-156.756 32.463-156.756 32.463s-.739 13.845-.996 34.975c-.258 21.13 10.314 49.012 23.167 73.59 12.852 24.576 60.187 42.998 79.647 43.236 19.46.237 37.54 20.275 50.682 21.093 6.632.41 8.939-1.722 13.568-7.348-.123.046-.287.138-.41.183-21.497 9.834-21.384.584-32.017-5.698-10.591-6.28-21.59-12.566-54.758-17.386-33.127-4.818-48.856-30.557-48.856-30.557.542-1.027 5.468-7.635 17.956-3.303 14.476 5.014 35.19 25.976 87.147 22.665 47.067-3.041 67.41-45.058 70.804-52.907-16.357 42.442-38.931 63.769-40.332 65.113 21.776-9.314 42.462-52.783 49.878-69.88v-.047a100.218 100.218 0 0 0-1.356-12.32c-42.913 49.677-94.058 23.178-94.058 23.178 64.923-1.416 90.696-51.303 90.696-51.303-8.038 28.032-17.976 34.908-20.925 36.328Zm-86.225 48.68s52.978 6.376 87.786-29.735c0 0-30.877 57.714-87.787 29.735Zm67.812-24.672c-2.507 1.941-63.784 48.296-133.451-2.051 1.703.631 31.7 11.704 52.855 9.85 0 0-37.002-.922-48.393-38.49 0 0 53.127 54.325 128.99 30.69Zm-53.921-19.208c-70.354 9.286-93.018-42.085-93.018-42.085s19.884-1.072 71.669 9.703c51.785 10.776 108.047-31.696 108.047-31.696-34.14 44.902-77.77 53.198-77.77 53.198 42.409-1.69 88.523-60.11 88.523-60.11s-27.099 61.752-97.451 70.99Zm99.886-16.956a51.689 51.689 0 0 0 7.747-10.847 131.916 131.916 0 0 1-7.747 10.847Z" style="mix-blend-mode:soft-light" opacity=".45"/><path fill="#ce518a" d="M1256.134 937.842s-13.813 5.775-16.357 26.546c-2.544 20.771 4.67 39.68 2.601 44.939-2.068 5.258 6.278 1.727 12.398-7.113s16.675-29.184 11.752-48.066c-4.923-18.88-10.394-16.306-10.394-16.306Z"/><path fill="#8e1b5a" d="M1460.145 924.481a70.707 70.707 0 0 1-12.404 15.921 88.937 88.937 0 0 1-15.975 12.538 83.022 83.022 0 0 1-18.416 8.596 74.195 74.195 0 0 1-19.839 3.737 188.708 188.708 0 0 0 18.62-6.924 128.06 128.06 0 0 0 17.335-9.125 142.748 142.748 0 0 0 16.006-11.353 164.415 164.415 0 0 0 14.673-13.39ZM1271.218 945.29a119.417 119.417 0 0 0 14.31 9.778 167.202 167.202 0 0 0 15.212 7.898c5.225 2.31 10.53 4.469 15.97 6.35 5.43 1.919 10.956 3.62 16.562 5.458-2.938-.062-5.87-.325-8.812-.594-2.895-.494-5.855-.81-8.703-1.588a93.601 93.601 0 0 1-16.822-5.646 85.792 85.792 0 0 1-15.302-9.056 53.216 53.216 0 0 1-12.415-12.6ZM1361.128 991.294c5.573.812 10.971 1.713 16.39 2.012a74.226 74.226 0 0 0 16.019-.67 52.713 52.713 0 0 0 15.119-4.766c4.934-2.18 9.115-5.637 13.607-9.038-3.112 4.595-6.94 9.068-11.929 12.009a42.034 42.034 0 0 1-16.103 6.11 55.05 55.05 0 0 1-33.103-5.657ZM1451.42 888.713a80.596 80.596 0 0 1-23.934 38.369 66.55 66.55 0 0 1-19.459 12.277c-7.021 3.224-14.791 4.266-22.273 4.687 7.273-2.113 14.387-4.198 20.84-7.783a82.448 82.448 0 0 0 17.985-12.444 111.366 111.366 0 0 0 14.861-16.23 143.411 143.411 0 0 0 11.98-18.876ZM1265.774 898.666a99.208 99.208 0 0 0 18.04 21.31 90.65 90.65 0 0 0 22.945 15.2 53.312 53.312 0 0 0 6.348 2.67 45.324 45.324 0 0 0 6.527 2.215l6.661 1.876 6.835 1.188 3.428.617c1.151.138 2.314.164 3.471.279l6.978.574c4.671.295 9.355-.057 14.116.14-4.643.787-9.35 1.572-14.094 2.004-4.746-.034-9.574.548-14.325-.228-9.623-.526-18.978-3.536-27.801-7.379a78.496 78.496 0 0 1-23.446-16.707 71.75 71.75 0 0 1-15.683-23.76ZM1258.22 944.174a29.738 29.738 0 0 0-7.682 12.726 42.314 42.314 0 0 0-1.828 14.723c-.024 5.064.3 10.102.545 15.187a69.12 69.12 0 0 1 .012 7.705 21.899 21.899 0 0 1-2.058 7.42c1.522-4.94.977-9.955.37-14.995-.592-5.053-.905-10.174-1.052-15.284a40.411 40.411 0 0 1 2.433-15.316c1.902-4.82 4.941-9.354 9.26-12.166ZM1259.51 947.932a37.308 37.308 0 0 1 2.467 9.252 46.39 46.39 0 0 1 .288 9.651 35.138 35.138 0 0 1-2.418 9.414 22.457 22.457 0 0 1-5.739 7.719 36.277 36.277 0 0 0 4.172-8.33 41.774 41.774 0 0 0 1.812-9.015 61.152 61.152 0 0 0 .219-9.285c-.124-3.118-.408-6.245-.8-9.406Z"/><path d="M1259.976 941.114s-12.257 3.372-14.238 24.921c-1.98 21.549 5.01 11.728 2.441 34.59 0 0 1.515-6.805 3.215-13.168 1.7-6.363 4.55 2.477 7.677-11.353 3.128-13.83 2.122-17.475 2.52-18.79.398-1.317 3.25-.402 4.141 4.782s-1.91 23.641-9.565 33.014c0 0 9.651-8.798 10.63-26.396.978-17.6-2.873-22.71-2.873-22.71Z" style="mix-blend-mode:soft-light" opacity=".45"/><path fill="#ce518a" d="M1277.168 926.872c-.763-1.036-12.112-16.328-21.873-14.135-9.761 2.192-10.535 18.692-10.305 23.318.23 4.625 9.632 8.372 11.632 8.727 2 .354-.98 9.894 10.209 8.05 11.188-1.846 17.941-15.631 10.337-25.96Z"/><path d="M1277.17 926.89c-.762-1.043-12.098-16.35-21.857-14.168-9.595 2.184-10.521 17.999-10.338 23.026 3.64-1.317 12.936-5.665 13.069-16.559 0 0 6.513 6.842.269 14.702-4.507 5.581-7.74 6.857-10.02 6.922a26.29 26.29 0 0 0 8.34 3.953c1.99.353-.976 9.897 10.203 8.06 11.18-1.835 17.944-15.606 10.333-25.936Zm-9.738 20.497c-7.878 1.548-7.952-5.732-4.907-8.326a10.033 10.033 0 0 1 6.463-2.41s-2.069-3.969-11.027 2.684c0 0 5.016-13.98 12.99-10.08 7.974 3.902 4.4 16.538-3.519 18.132Z" style="mix-blend-mode:soft-light" opacity=".45"/><path fill="#ce518a" d="M1253.662 929.226s10.64-27.276-19.873-37.224c-30.513-9.948-38.911 21.318-38.911 21.318s2.258 2.67 8.588.105 16.692 39.827 50.196 15.801Z"/><path d="M1253.918 929.208s5.6-16.66-13.336-28.286c-18.937-11.626-28.372 7.688-28.372 7.688s1.161 2.14 5.664 1.488 10.91 29.484 36.043 19.11Z" style="mix-blend-mode:soft-light" opacity=".45"/><path fill="#8e1b5a" d="M1253.918 929.208a24.806 24.806 0 0 0-3.382-17.102 31.778 31.778 0 0 0-13.068-11.43 16.384 16.384 0 0 0-16.41-.135 40.254 40.254 0 0 0-7.11 5.362c-2.307 1.844-4.52 4.365-7.619 4.894 2.9-.998 4.77-3.526 6.88-5.67a40.74 40.74 0 0 1 6.993-6.034c5.311-3.61 12.765-3.396 18.233-.375 5.467 2.935 10.555 6.968 13.55 12.548a22.986 22.986 0 0 1 1.933 17.942Z"/><path fill="#e89c7c" d="M1139.881 856.932c-.044-.018-.044-.018-.106.01-1.352.735-2.826 1.527-4.373 2.235-83.415 40.136-105.182-76.543-77.234-107.971 6.827-7.494 13.676-11.558 20.13-13.162 20.815-5.398 38.372 12.262 38.372 12.262a191.611 191.611 0 0 1 21.126 17.185l.117.1c14.718 13.782 31.447 34.1 30.218 54.026-.017.046.01.11-.006.158-.862 12.375-8.682 24.652-28.244 35.157Z"/><path d="M1139.881 856.932c-.044-.018-.044-.018-.106.01-44.957 18-73.47-36.187-71.5-63.137 1.94-27.015 25.702-15.444 25.702-15.444a97.908 97.908 0 0 0-15.679-40.317c20.815-5.398 38.372 12.262 38.372 12.262a191.611 191.611 0 0 1 21.126 17.185l.117.1c20.4 23.895 28.84 41.17 30.218 54.026-.017.047.01.11-.006.158-.862 12.375-8.682 24.652-28.244 35.157Z" style="mix-blend-mode:soft-light" opacity=".3"/><path fill="#cc7a5e" d="M1132.253 837.885c-5.508-6.81-10.149-13.636-14.766-20.328-4.566-6.698-9.06-13.24-13.764-19.281-4.75-5.935-9.669-11.59-15.43-14.98a21.396 21.396 0 0 0-9.585-3.105c-3.63-.35-7.562.488-11.862 1.594a23.028 23.028 0 0 1 10.708-8.343 23.928 23.928 0 0 1 14.798-.332c9.777 2.887 16.819 9.666 22.344 16.567a85.341 85.341 0 0 1 12.519 22.904 77.023 77.023 0 0 1 5.038 25.304Z"/><path fill="#e89c7c" d="M1576.592 771.155c.034-.033.034-.033.102-.03 1.529.174 3.193.354 4.893.43 92.38 5.9 68.77-110.42 31.07-129.064-9.14-4.384-17.013-5.581-23.598-4.645-21.32 2.808-30.965 25.766-30.965 25.766a191.569 191.569 0 0 0-13.134 23.856l-.07.137c-8.471 18.298-16.353 43.41-7.736 61.417.033.037.031.107.065.144 5.443 11.147 17.299 19.593 39.373 21.99Z"/><path d="M1576.592 771.155c.034-.033.034-.033.102-.03 48.426-.186 54.52-61.114 42.582-85.356-11.938-24.312-29.62-4.669-29.62-4.669a97.904 97.904 0 0 1-.597-43.254c-21.32 2.808-30.965 25.766-30.965 25.766a191.569 191.569 0 0 0-13.134 23.856l-.07.137c-9.943 29.804-11.284 48.983-7.736 61.417.033.037.031.107.065.144 5.443 11.147 17.299 19.593 39.373 21.99Z" style="mix-blend-mode:soft-light" opacity=".3"/><path fill="#cc7a5e" d="M1576.515 750.637a77.021 77.021 0 0 1-4.826-25.345 85.345 85.345 0 0 1 3.009-25.928c2.531-8.47 6.514-17.396 14.494-23.74a23.924 23.924 0 0 1 13.84-5.246 23.025 23.025 0 0 1 13.057 3.714c-4.401.588-8.36 1.286-11.594 2.975a21.396 21.396 0 0 0-7.719 6.474c-4.068 5.304-6.505 12.393-8.681 19.676-2.093 7.365-3.803 15.115-5.522 23.037-1.768 7.936-3.508 16.004-6.058 24.383Z"/><path fill="#e89c7c" d="m1380.229 933.346-1.875.355c-272.469-14.01-283.533-143.717-275.2-200.098a124.015 124.015 0 0 0-2.85-51.444q-2.253-8.088-3.903-16.46c-23.367-118.81 56.588-236.001 178.209-260.996 124.662-25.62 245.239 53.31 268.28 174.797a215.961 215.961 0 0 1 3.766 45.327l.012.048s152.03 163.871-166.44 308.47Z"/><path d="m1380.217 933.34-1.864.353s135.125-72.408 126.898-233.728c-8.25-161.287-133.877-211.975-133.877-211.975s-51.34 88.51-169.52 110.923c-114.754 21.764-95.382 210.861-37.962 276.387-63.686-46.029-65.792-107.426-60.741-141.71a123.416 123.416 0 0 0-2.857-51.432q-2.258-8.088-3.89-16.465c-23.38-118.79 56.58-236.004 178.214-261.003 124.643-25.598 245.236 53.323 268.278 174.818a216.109 216.109 0 0 1 3.771 45.327l.006.028s152.035 163.879-166.456 308.477Z" style="mix-blend-mode:soft-light" opacity=".3"/><path fill="#333" d="M1119.44 952.538c.273-.505.568-1.044.836-1.577a5.748 5.748 0 0 1-.836 1.577Z"/><path fill="#231c2d" d="M1359.475 391.577a229.458 229.458 0 0 1 1.563 27.55l.006.027c-.08 16.196-2.013 34.588-7.708 52.756-13.966 44.604-50.728 87.995-139.167 94.947a.087.087 0 0 0 .05-.038c2.42-2.503 79.375-82.13 76.42-165.962-33.904 52.33-92.507 136.37-143.34 173.374-75.577 55.012-52.232 163.732-48.33 177.128 3.883 13.286 54.236 137.492 21.347 199.509a34.007 34.007 0 0 0 1.788-9.877c1.027-16.29-2.535-54.078-29.876-138.82-23.474-72.73-53.087-122.155-61.994-167.473l-.005-.027c-7.478-37.783-.561-72.705 36.248-115.85 80.98-94.925 125.392-177.606 125.392-177.606l140.73-35.519 22.495 61.135a185.68 185.68 0 0 1 4.381 24.746Z"/><path fill="#231c2d" d="M1606.566 807.154c-45.807 111.247-13.83 200.674-13.83 200.674s-59.722-70.028-25.709-193.175c33.985-123.141-34.165-230.432-34.165-230.432 49.935 128.288-27.708 179.291-29.833 180.66-.027.005-.027.005-.05.037 51.513-115.14-3.062-216.403-53.807-265a.737.737 0 0 0-.169-.138 158.3 158.3 0 0 0-27.734-21.707c-29.775-17.8-49.007-41.375-60.225-58.919-9.108-14.197-12.955-24.453-12.955-24.453l-2.287-4.874s5.14.615 13.673 1.75c34.752 4.678 125.67 18.432 152.83 37.41 33.83 23.616 140.047 266.952 94.261 378.167Z"/><path fill="#f9f4f4" d="m1562.924 315.457-4.915 89.079-3.556 64.965c-343.377-35.744-518.304 96.184-518.304 96.184l-65.99-148.127c.457-.308.913-.616 1.374-.896 320.415-213.403 591.391-101.205 591.391-101.205Z"/><path d="m1562.924 315.457-4.915 89.079c-359.64-27.736-542.696 110.416-542.696 110.416l-43.78-98.29c320.415-213.403 591.391-101.205 591.391-101.205Z" style="mix-blend-mode:soft-light" opacity=".6"/><path d="m1562.924 315.457-4.915 89.079c-359.64-27.736-542.696 110.416-542.696 110.416l-43.78-98.29c320.415-213.403 591.391-101.205 591.391-101.205Z" style="mix-blend-mode:soft-light" opacity=".6"/><path fill="#efe3df" d="m1527.647 319.01-.034.035c-.886.664-17.003 12.17-36.71-5.585-35.347 42.395-117.212 54.844-186.323-24.037-14.628 81.561-81.556 133.98-188.677 96.702-15.435 95.645-95.751 76.792-95.751 76.792l31.64 65.073 10.986 19.615a72.92 72.92 0 0 1-45.273 16.06c-25.56.259-47.742-12.392-59.545-31.3-36.116-4.27-63.64-32.08-63.39-65.988.127-17.18 7.359-32.898 19.097-44.943a110.45 110.45 0 0 1-14.491-55.396c.404-55.5 42.097-103.179 99.364-120.108a116.053 116.053 0 0 1-1.507-19.048c.296-67.407 58.862-123.291 131.143-125.09 35.3-.88 67.425 11.314 91.153 31.894 17.108-42.424 62.895-73.591 116.946-75.002 66.508-1.736 121.505 42.158 126.062 99.437a134.197 134.197 0 0 1 34.789-18.001c54.925-19.043 111.366-.405 125.995 41.734 10.898 31.471-4.593 67.094-36.044 91.086 17.571 12.151 28.908 30.591 29.2 51.414 0 0-.835 23.276-25.198 29.286 0 0 40.58 111.039-35.289 82.32l6.159-107.68s-18.928 26.35-34.302-9.27"/><path fill="#fff" d="M1208.78 157.764c7.463 30.29-29.074 66.139-81.5 79.974-52.29 13.8-100.438.423-107.65-29.781-7.197-30.137 29.069-65.746 81.108-79.63 52.174-13.92 100.594-.783 108.041 29.437ZM1437.954 147.737c-2.05 34.248-48.08 60.003-102.623 57.474-54.342-2.52-96.443-32.175-94.221-66.186 2.218-33.948 47.782-59.576 101.953-57.292 54.37 2.293 96.938 31.821 94.891 66.004ZM1602.127 182.28c10.797 24.857-12.967 58.996-53.04 76.178-40.012 17.155-81.019 10.855-91.63-13.999-10.587-24.8 13.086-58.756 52.911-75.914 39.888-17.186 80.985-11.07 91.759 13.735Z" opacity=".5"/><path d="m1527.647 319.01-.034.035c-.886.664-17.003 12.17-36.71-5.585-35.347 42.395-117.212 54.844-186.323-24.037-14.628 81.561-81.556 133.98-188.677 96.702-15.435 95.645-95.751 76.792-95.751 76.792l31.64 65.073 10.986 19.615a72.92 72.92 0 0 1-45.273 16.06c-25.56.259-47.742-12.392-59.545-31.3-36.116-4.27-63.64-32.08-63.39-65.988.127-17.18 7.359-32.898 19.097-44.943a110.45 110.45 0 0 1-14.491-55.396c.404-55.5 42.097-103.179 99.364-120.108 0 0-21.013 132.288 110.156 109.058 57.776 38.057 146.835 27.375 195.35-85.386 41.506 72.108 148.34 80.304 187.627 22.298 12.69 29.84 35.974 27.11 35.974 27.11Z" style="mix-blend-mode:soft-light" opacity=".6"/><path fill="#322a3f" d="M1069.815 654.811c3.306 82.09 71.373 221.417 52.29 286.18 1.026-16.29-2.536-54.078-29.877-138.82-23.474-72.73-53.087-122.155-61.994-167.473l-.005-.027c15.178-48.836 49.848-86.949 115.02-98.486 0 0-78.886 33.072-75.434 118.626ZM1353.336 471.91c-13.966 44.604-50.728 87.995-139.167 94.947 0 0 89.557-35.777 139.167-94.947ZM1503.029 764.88c-.027.006-.027.006-.05.038 51.513-115.14-3.062-216.403-53.807-265 55.035 43.525 141.424 139.067 53.857 264.962Z"/><path fill="#cc7a5e" d="M1237.896 812.954c-.803 2.747-1.556 4.662-2.248 6.425-.71 1.721-1.332 3.158-1.986 4.482l-2.165 4.085c-.945 1.532-1.665 3.33-3.163 5.872-4.862-2.909-5.82-9.507-3.324-14.248a12.855 12.855 0 0 1 5.276-5.535 10.42 10.42 0 0 1 7.61-1.081ZM1466.014 769.69a10.42 10.42 0 0 1 7.478-1.78 12.854 12.854 0 0 1 6.937 3.218c4.058 3.498 5.582 9.988 2.124 14.476-2.326-1.817-3.654-3.227-5.094-4.307l-3.511-3.008c-1.093-.993-2.197-2.102-3.488-3.444-1.29-1.387-2.693-2.894-4.446-5.156Z"/><path fill="#231c2d" d="M1445.44 792.637s-16.958 62.836-87.542 76.223c-69.509 13.183-101.147-40.96-102.096-42.681 5.366.817 10.74 1.503 16.009 1.978 67.229 6.424 125.863-13.809 154.686-26.355a208.347 208.347 0 0 0 18.943-9.165Z"/><path fill="#fff" d="M1426.497 801.802c-12.743 18.182-35.076 39.2-72.535 46.304-38.725 7.344-65.678-6.194-82.151-19.95 67.229 6.425 125.863-13.808 154.686-26.354Z"/><path fill="#cc7a5e" d="M1227.157 821.136c22.015 1.162 43.54 1.827 64.896.837a428.656 428.656 0 0 0 63.23-7.79 490.734 490.734 0 0 0 61.57-16.921c20.271-7.006 40.232-15.258 60.64-23.604a255.875 255.875 0 0 1-55.712 35.613 267.214 267.214 0 0 1-63.222 21.216 250.865 250.865 0 0 1-66.646 4.416 221.153 221.153 0 0 1-64.756-13.767Z"/><path fill="#f4beab" d="M1302.429 767.13s27.81-31.991 70.969-10.35c0 0-30.703 36.59-70.97 10.35Z"/><path fill="#cc7a5e" d="M1304.905 743.481q.492 6.953.422 13.82c.04 4.593-.187 9.144-.34 13.706l-3.425-4.77q20.197 1.528 40.061 4.925l-4.468.871a377.874 377.874 0 0 1 33.676-19.345l-1.736 6.285c-1.852-4.533-3.443-9.198-5.021-13.87a148.746 148.746 0 0 1-3.973-14.405 148.881 148.881 0 0 1 9.324 11.677c2.854 4.022 5.694 8.05 8.275 12.211l2.081 3.355-3.817 2.931a377.948 377.948 0 0 1-32.077 21.895l-2.111 1.3-2.36-.429q-19.829-3.602-39.32-9.118l-4.393-1.239.968-3.534c1.206-4.403 2.337-8.817 3.736-13.19q1.958-6.582 4.498-13.076Z"/><path fill="#e5817c" d="M1498.16 724.145c1.325 10.448-19.777 21.729-47.133 25.197-27.355 3.467-50.604-2.192-51.928-12.64-1.324-10.448 19.778-21.729 47.133-25.196 27.355-3.468 50.604 2.191 51.928 12.64Z"/><ellipse cx="1206.173" cy="796.696" fill="#e5817c" rx="49.927" ry="19.069" transform="rotate(-18.034 1206.173 796.695)"/><ellipse cx="1217.824" cy="706.201" rx="34.929" ry="58.718" transform="rotate(-13.404 1217.824 706.201)" style="mix-blend-mode:soft-light" opacity=".45"/><path fill="#1b1723" d="M1243.73 714.46c5.235 20.796-.493 40.412-12.795 43.815-12.302 3.402-26.518-10.698-31.754-31.493-5.236-20.795.492-40.411 12.794-43.814 12.302-3.402 26.518 10.697 31.754 31.493Z"/><path fill="#fff" d="M1215.233 707.989c1.643 6.526-.155 12.682-4.015 13.75-3.86 1.068-8.322-3.357-9.965-9.883-1.644-6.526.154-12.683 4.015-13.75s8.322 3.357 9.965 9.883ZM1223.807 721.97c.831 3.305-.079 6.422-2.033 6.963s-4.215-1.7-5.046-5.005c-.833-3.304.078-6.421 2.033-6.962 1.954-.54 4.214 1.7 5.046 5.005Z"/><path d="M1463.643 685.607a71.555 71.555 0 0 1-2.216 9.719 74.672 74.672 0 0 0-53.539 8.98 69.835 69.835 0 0 1-3.07-5.4 88.311 88.311 0 0 1-8.866-31.827c-2.899-31.544 10.06-57.915 28.93-58.938 18.869-1.023 36.488 23.7 39.386 55.243a89.529 89.529 0 0 1-.625 22.223Z" style="mix-blend-mode:soft-light" opacity=".45"/><path fill="#231c2d" d="M1375.239 547.284c-6.194 19.054.646 27.99.646 27.99a226.56 226.56 0 0 1 38.668 3.131c1.08.179 2.148.383 3.202.55.76.166 1.504.295 2.238.45a162.78 162.78 0 0 1 27.56 8.073 105.14 105.14 0 0 1 4.729 2.007 124.38 124.38 0 0 1 4.48 2.111c10.194 5.027 14.966 9.298 14.966 9.298a86.813 86.813 0 0 0-8.05-18.123c-1.043-1.7-2.108-3.35-3.238-4.91-1.091-1.513-2.203-2.976-3.356-4.338a69.776 69.776 0 0 0-21.356-17.103 58.798 58.798 0 0 0-3.358-1.678 85.07 85.07 0 0 0-3.405-1.492c-26.375-10.805-53.726-5.966-53.726-5.966Z"/><path fill="#322a3f" d="M1460.44 577.861a61.17 61.17 0 0 0-8.158 11.624 124.38 124.38 0 0 1 4.48 2.111 53.422 53.422 0 0 1 6.915-8.825c-1.042-1.7-2.106-3.35-3.237-4.91ZM1435.727 556.42c-7.855 6.37-12.844 15.9-15.734 22.985a162.78 162.78 0 0 1 27.56 8.073 70.111 70.111 0 0 1 9.53-13.955 69.776 69.776 0 0 0-21.356-17.103ZM1414.553 578.405c1.08.179 2.148.383 3.202.55a73.83 73.83 0 0 1 14.614-24.213 85.07 85.07 0 0 0-3.404-1.491 74.721 74.721 0 0 0-14.412 25.154Z"/><path fill="#231c2d" d="M1225.08 577.249c12.156 16.466 8.413 27.335 8.413 27.335a231.463 231.463 0 0 0-36.466 15.524c-.988.523-1.958 1.065-2.925 1.568-.682.405-1.362.771-2.024 1.158a166.303 166.303 0 0 0-24.104 16.725 107.727 107.727 0 0 0-3.935 3.473 127.883 127.883 0 0 0-3.66 3.493c-8.256 8.165-11.502 13.846-11.502 13.846a88.685 88.685 0 0 1 1.95-20.165c.46-1.986.96-3.928 1.551-5.805.569-1.819 1.174-3.596 1.852-5.288a71.284 71.284 0 0 1 15.175-23.474 60.348 60.348 0 0 1 2.712-2.711 87.046 87.046 0 0 1 2.818-2.545c22.073-18.991 50.145-23.134 50.145-23.134Z"/><path fill="#322a3f" d="M1152.378 634.401a62.505 62.505 0 0 1 11.661 8.63 127.883 127.883 0 0 0-3.66 3.494 54.56 54.56 0 0 0-9.553-6.32c.462-1.985.96-3.927 1.552-5.804ZM1169.405 605.64c9.67 3.636 17.584 11.26 22.673 17.194a166.303 166.303 0 0 0-24.104 16.725 71.625 71.625 0 0 0-13.744-10.446 71.284 71.284 0 0 1 15.175-23.474ZM1197.027 620.108c-.988.523-1.958 1.065-2.925 1.568a75.425 75.425 0 0 0-21.985-18.748 87.046 87.046 0 0 1 2.818-2.545 76.33 76.33 0 0 1 22.092 19.725Z"/><ellipse cx="1734.868" cy="890.384" fill="#d3c9cf" rx="170.563" ry="52.728"/><ellipse cx="1734.92" cy="886.321" fill="#ada6aa" rx="162.609" ry="46.735"/><ellipse cx="1731.153" cy="885.627" fill="#494447" rx="138.449" ry="38.015"/><path fill="#c96f3a" d="M1664.9 899.137c18.134 5.38 31.684 8.768 38.061 12.355 5.859 3.3 15.256 11.024 29.277 9.677a35.174 35.174 0 0 0 3.802-.574.33.33 0 0 1 .04-.016c1.53-.51 50.814-17.098 74.225-32.402 20.039-13.104 26.686-32.338 17.775-48.24a36.973 36.973 0 0 0-6.616-8.488c-17.536-17.002-44.11-17.536-71.212-12.483-27.1 5.046-71.068 19.656-90.47 27.101a26.134 26.134 0 0 0-2.948 1.06c-.016.008-.04.016-.056.024-4.934 2.073-14.372 7.381-16.125 18.174-2.391 14.746 6.113 28.432 24.247 33.812Z"/><path fill="#ad6032" d="M1732.238 921.169a35.174 35.174 0 0 0 3.802-.574.33.33 0 0 1 .04-.016c1.53-.51 50.814-17.098 74.225-32.402 20.039-13.104 26.686-32.338 17.775-48.24.39 9.542-2.487 22.343-16.85 32.833-26.567 19.393-37.065 20.174-51.277 26.566s-22.582 4.52-22.582 4.52-2.837 9.302-5.133 17.313Z"/><path fill="#dc8750" d="M1667.756 855.651c46.231-14.347 73.864-26.78 95.385-29.597s28.249-7.069 42.288 3.293-5.733 26.22-21.17 32.263-40.514 12.906-58.58 20.61-30.976-6.642-32.626-7.704-25.297-18.865-25.297-18.865Z"/><path fill="#e38a52" d="M1664.9 899.137c18.134 5.38 31.684 8.768 38.061 12.355s16.938 12.419 33.08 9.103a.33.33 0 0 1 .04-.016c.908-.455 16.913-8.768 5.937-32.003-11.294-23.913-29.492-29.094-39.719-32.545-10.234-3.46-34.505-12.69-45.465-8.904-.016.008-.04.016-.056.024-4.934 2.072-14.372 7.381-16.125 18.174-2.391 14.746 6.113 28.432 24.247 33.812Z"/><path fill="#f1bd72" d="M1729.005 917.34a30.877 30.877 0 0 0 5.697-.544c2.464-1.409 12.273-8.396 3.713-26.518-10.09-21.36-25.704-26.57-36.036-30.018l-1.354-.453a453.64 453.64 0 0 1-3.392-1.167c-9.088-3.15-24.3-8.423-34.405-8.423a16.3 16.3 0 0 0-4.977.638c-4.53 1.915-12.25 6.405-13.664 15.109-2.194 13.529 6.024 24.776 21.447 29.352 4.134 1.227 8.03 2.35 11.655 3.395 12.715 3.665 21.902 6.313 27.226 9.307.999.562 2.06 1.223 3.185 1.923 5.017 3.122 11.89 7.4 20.905 7.4Z"/><path fill="#f8d092" d="M1729.005 906.979q.764 0 1.552-.064c1.635-2.17 1.115-6.65-1.511-12.21-8.2-17.36-20.258-21.383-29.947-24.615l-1.366-.458c-1.052-.355-2.218-.76-3.495-1.202-7.915-2.743-22.65-7.85-31.01-7.85a10.738 10.738 0 0 0-1.56.092c-2.558 1.17-6.284 3.45-6.854 6.954-1.892 11.67 9.277 16.306 14.167 17.756 4.107 1.219 7.976 2.334 11.578 3.372 13.388 3.859 23.061 6.647 29.436 10.233 1.195.673 2.402 1.423 3.568 2.149 4.406 2.743 9.387 5.843 15.442 5.843Z"/><path fill="#e49958" d="M1686.62 840.95c0 4.463 5.381 3.579 16.548 4.902 2.973.35 6.353.86 10.155 1.674 18.07 3.85 35.335 13.016 47.69 17.799q1.052.406 2.104.765h.008c11.717 3.953 23.594 3.276 22.47-2.36-1.196-5.978-33.35-20.325-54.473-26.032-21.123-5.716-44.501-2.129-44.501 3.252Z"/><path fill="#f0bc71" d="M1703.168 845.852c2.973.35 6.353.86 10.155 1.674 18.07 3.85 35.335 13.016 47.69 17.799q1.052.406 2.104.765h.008c2.487.247 4.432.056 5.396-.83 4.783-4.383-11.159-13.151-29.093-19.025-17.935-5.883-34.275-9.67-37.264-4.687-.837 1.394-.327 2.853 1.004 4.304Z"/><path fill="#e49958" d="M1734.645 826.004c-.167 1.284 4.783 2.511 11.67 4.209 5.34 1.323 11.844 2.925 18.022 5.054 13.821 4.774 33.924 10.49 40.595 13.638q.24.107.455.215c6.177 3.093 10.76 3.89 10.856-1.1.104-4.974-13.152-15.145-24.901-19.72-11.765-4.591-28.297-6.68-39.56-6.185-11.262.502-16.842 1.594-17.137 3.89Z"/><path fill="#f0bc71" d="M1743.86 828.643c-.08.494.845 1.004 2.455 1.57 5.34 1.323 11.844 2.925 18.022 5.053 13.821 4.775 33.924 10.49 40.595 13.639a3.357 3.357 0 0 0 .495-1.77c.183-3.786-9.67-11.797-18.517-15.535-8.84-3.73-21.37-5.675-29.938-5.54s-12.833.853-13.112 2.583Z"/><path fill="#d6763a" d="M1719.301 900.82h.266a.798.798 0 0 1 0 1.594h-.266a.798.798 0 0 1 0-1.595ZM1714.253 893.38v.266a.798.798 0 0 1-1.594 0v-.266a.798.798 0 0 1 1.594 0ZM1709.613 887.67l.53-.267c.915-.46 1.723.916.805 1.377l-.53.266c-.915.46-1.723-.915-.805-1.376ZM1701.5 892.583a.798.798 0 0 1 0 1.594.798.798 0 0 1 0-1.594ZM1706.814 900.022v.532a.798.798 0 0 1-1.595 0v-.532a.798.798 0 0 1 1.595 0ZM1694.472 885.376a1.05 1.05 0 0 1-.05-.105.737.737 0 0 1-.097-.617.764.764 0 0 1 .136-.263 1.274 1.274 0 0 1 .089-.2 1.208 1.208 0 0 1 1.567-.427.574.574 0 0 1 .21.177.583.583 0 0 1 .218.25 1.212 1.212 0 0 1-.102 1.245l-.01.162a.836.836 0 0 1-1.37.575.942.942 0 0 1-.591-.797ZM1677.715 881.302l.27.53c.464.912-.91 1.72-1.377.804l-.27-.53c-.464-.912.91-1.72 1.377-.804ZM1679.112 888.62a.8.8 0 0 1 .364-.247.814.814 0 0 1 .981.557c.499 1.334-1.766 2.045-2.212.658a.756.756 0 0 1 .867-.968ZM1665.137 886.22a.803.803 0 0 1 1.118.1.77.77 0 0 1 .81.173.804.804 0 0 1 0 1.128 1.374 1.374 0 0 1-1.168.316l-.121.195a.805.805 0 0 1-1.377 0l-.535-.984a.796.796 0 0 1 1.273-.928ZM1659.52 876.907v1.248a.798.798 0 0 1-1.594 0v-1.248a.798.798 0 0 1 1.594 0ZM1656.525 869.817l.798.264c.969.321.554 1.861-.424 1.537l-.798-.264c-.97-.32-.554-1.86.424-1.537ZM1669.654 869.76a1.02 1.02 0 0 0-.067-.32.803.803 0 0 1 .557-.981.815.815 0 0 1 .98.557 2.17 2.17 0 0 1 .086 1.226l-.001.46a.796.796 0 0 1-.691.782c-.009.001-.019-.002-.027-.002a.784.784 0 0 1-1.065-.039 1.087 1.087 0 0 1 .228-1.683ZM1671.807 859.158a1.45 1.45 0 0 1 1.69.605.803.803 0 0 1-.285 1.09.778.778 0 0 1-.971-.163l-.01.005a.804.804 0 0 1-.98-.557.815.815 0 0 1 .556-.98ZM1683.108 866.915a1.876 1.876 0 0 0 1.325 1.028.668.668 0 0 1 .523.46.731.731 0 0 1 .162.01.804.804 0 0 1 .556.981 2.07 2.07 0 0 1-1.32 1.502 1.333 1.333 0 0 1-1.618-.907.784.784 0 0 1 .357-.88 3.373 3.373 0 0 1-1.361-1.389c-.464-.912.91-1.72 1.376-.805ZM1699.685 873.993a.804.804 0 0 1 .98-.557l.792.281a.939.939 0 0 1 .22.123l1.098.438a.822.822 0 0 1 .556.98.803.803 0 0 1-.98.558l-1.329-.532a1.072 1.072 0 0 1-.151-.087l-.63-.224a.817.817 0 0 1-.556-.98ZM1699.906 867.608v.265a.798.798 0 0 1-1.595 0v-.265a.798.798 0 0 1 1.595 0ZM1715.668 879.632l.267-1.062a.798.798 0 0 1 1.537.423l-.267 1.063a.798.798 0 0 1-1.537-.424ZM1710.46 885.364a.823.823 0 0 1 .98-.557.847.847 0 0 1 .595.81c.02.009.045.01.063.02a.816.816 0 0 1 .286 1.091 1.09 1.09 0 0 1-1.55.373 1.354 1.354 0 0 1-.375-1.737ZM1705.225 875.343a2.061 2.061 0 0 1 2.047 1.147.82.82 0 0 1-.286 1.09.804.804 0 0 1-1.09-.285.56.56 0 0 0-.671-.358.801.801 0 0 1-.797-.797.817.817 0 0 1 .797-.797ZM1726.895 897.05a1.213 1.213 0 0 1 1.636.429 1.195 1.195 0 0 1-.058 1.277 1.234 1.234 0 0 1-.576 1.22 1.215 1.215 0 0 1-1.636-.429 1.822 1.822 0 0 1 .634-2.497ZM1724.084 905.735h.266a1.196 1.196 0 0 1 0 2.391h-.266a1.196 1.196 0 1 1 0-2.391ZM1731.42 907.189a1.2 1.2 0 0 1 .847-.903 1.223 1.223 0 0 1 1.47.836 1.82 1.82 0 0 1-.637 2.241 1.506 1.506 0 0 1-2.101-.544 1.237 1.237 0 0 1 .42-1.63ZM1720.544 887.75a1.209 1.209 0 0 1 1.47-.835 1.136 1.136 0 0 1 .788.794 1.272 1.272 0 0 1 .193 1.476 1.226 1.226 0 0 1-1.635.429 1.624 1.624 0 0 1-.816-1.864ZM1727.555 886.424a1.206 1.206 0 0 1 1.635-.43 1.837 1.837 0 0 1 .022 3.117 1.203 1.203 0 0 1-1.636-.428 1.106 1.106 0 0 1-.028-1.109 1.146 1.146 0 0 1 .007-1.15ZM1708.674 900.42a1.217 1.217 0 0 1 1.195 1.197v.265a1.196 1.196 0 0 1-2.391 0v-.265a1.21 1.21 0 0 1 1.196-1.196ZM1677.231 892.265l.266-.797a1.223 1.223 0 0 1 1.47-.835 1.208 1.208 0 0 1 .836 1.47l-.266.798a1.223 1.223 0 0 1-1.47.835 1.208 1.208 0 0 1-.836-1.47ZM1685.775 876.062a1.212 1.212 0 0 1 1.691 0l.266.265a1.196 1.196 0 1 1-1.69 1.691l-.267-.266a1.215 1.215 0 0 1 0-1.69ZM1689.983 867.562a1.214 1.214 0 0 1 1.47-.835l1.063.267a1.196 1.196 0 1 1-.636 2.306l-1.062-.267a1.213 1.213 0 0 1-.835-1.47ZM1655.269 863.755h.265a1.196 1.196 0 0 1 0 2.391h-.265a1.196 1.196 0 0 1 0-2.391ZM1648.095 866.943h.266a1.196 1.196 0 1 1 0 2.392h-.266a1.196 1.196 0 1 1 0-2.392ZM1649.213 878.176l.267-.53a1.196 1.196 0 0 1 2.065 1.206l-.267.53a1.196 1.196 0 1 1-2.065-1.206ZM1654.423 857.197a1.212 1.212 0 0 1 1.691 0l.266.266a1.196 1.196 0 1 1-1.691 1.69l-.266-.265a1.215 1.215 0 0 1 0-1.69ZM1665.63 860.035a1.196 1.196 0 0 1 0 2.392 1.196 1.196 0 0 1 0-2.392ZM1670.945 889.926v.266a.798.798 0 0 1-1.594 0v-.266a.798.798 0 0 1 1.594 0ZM1688.48 895.771h.266a.798.798 0 0 1 0 1.594h-.265a.798.798 0 0 1 0-1.594ZM1689.543 885.41v.265a.798.798 0 0 1-1.594 0v-.266a.798.798 0 0 1 1.594 0ZM1708.408 867.873a.798.798 0 0 1 0 1.594.798.798 0 0 1 0-1.594ZM1721.958 875.047v.266a.798.798 0 0 1-1.594 0v-.266a.798.798 0 0 1 1.594 0ZM1736.572 894.974v1.063a.798.798 0 0 1-1.595 0v-1.063a.798.798 0 0 1 1.595 0ZM1736.008 905.836l.266-.266a.798.798 0 0 1 1.127 1.127l-.266.266a.797.797 0 0 1-1.127-1.127ZM1727.07 914.687a1.65 1.65 0 0 1 2.04 1.063.803.803 0 0 1-.557.98.815.815 0 0 1-.98-.556c.017.044-.013.028-.08.05-.978.316-1.397-1.222-.424-1.538ZM1713.52 909.106a1.208 1.208 0 0 1 1.503.8.802.802 0 0 1-.556.981.737.737 0 0 1-.752-.219.803.803 0 0 1-.195-1.562ZM1714.519 902.945h.266a.798.798 0 0 1 0 1.594h-.266a.798.798 0 0 1 0-1.594ZM1699.076 888.3l.266-.266a.798.798 0 0 1 1.127 1.127l-.266.266a.798.798 0 0 1-1.127-1.127ZM1692.86 896.412l.532-.266c.915-.458 1.724.917.805 1.376l-.531.266c-.915.457-1.724-.917-.805-1.376ZM1693.843 901.41a.803.803 0 0 1 .98-.557.723.723 0 0 1 .36.235.827.827 0 0 1 .87 1.188 1.206 1.206 0 0 1-2.21-.866ZM1681.307 883.815a.798.798 0 0 1 0 1.594.798.798 0 0 1 0-1.594ZM1678.883 861.73l.266-.266a.798.798 0 0 1 1.127 1.128l-.265.265a.798.798 0 0 1-1.128-1.127ZM1688.822 861.01a.886.886 0 0 1 .986-.663.901.901 0 0 1 .796.883.802.802 0 0 1-.797.798.72.72 0 0 1-.11-.023.774.774 0 0 1-.319-.014.813.813 0 0 1-.556-.98ZM1674.1 875.546l.267-.266a.797.797 0 0 1 1.127 1.128l-.266.265a.798.798 0 0 1-1.127-1.127ZM1662.817 880.695c.026-.014.046-.029.07-.043a.985.985 0 0 1 .212-.542 1.04 1.04 0 0 1 1.344-.276.815.815 0 0 1 .286 1.09 2.505 2.505 0 0 1-1.107 1.147c-.907.478-1.714-.898-.805-1.376ZM1655.534 885.144v.53a.798.798 0 0 1-1.594 0v-.53a.798.798 0 0 1 1.594 0ZM1656.891 890.777l.266-.797c.323-.969 1.863-.554 1.537.424l-.265.797c-.323.968-1.863.553-1.538-.424ZM1670.647 895.208l.266-.266a.798.798 0 0 1 1.127 1.127l-.266.266a.797.797 0 0 1-1.127-1.127ZM1667.08 851.51a.803.803 0 0 1 1.09-.286 1.446 1.446 0 0 1 .598 1.705.822.822 0 0 1-.98.557.802.802 0 0 1-.557-.981c.006-.015.007-.014.012-.025a.783.783 0 0 1-.164-.97Z"/><path fill="#1b1723" d="M1478.25 680.833c-2.16 13.584-10.458 16.027-10.458 16.027a73.566 73.566 0 0 0-6.365-1.534 74.672 74.672 0 0 0-53.539 8.98 59.525 59.525 0 0 0-11.424 8.298 47.818 47.818 0 0 1 8.355-13.698c20.234-23.472 54.618-11.935 54.618-11.935l4.206-1.364Z"/><path fill="#e89c7c" d="M1648.425 938.392s-13.006-8.814-8.8-20.67 27.537-18.74 32.127-23.33c4.589-4.589 9.944 16.828-13.004 28.302 0 0 26.772 16.445 7.65 32.126ZM1032.575 972.454s20.168.43 30.895-27.892c0 0 .858-18.88 11.586-27.892 10.728-9.011-15.877-20.597-22.742-2.575-6.866 18.023-16.736 12.445-18.452 7.724s-1.287-19.738-1.287-19.738 23.6 13.73 30.895-5.579c0 0-11.156-3.862-17.164-9.87-6.008-6.007-22.743-4.72-27.034-4.72-4.29 0-6.866 12.874-6.866 12.874s-46.343-38.62-51.921-35.187c-5.579 3.433-9.87 16.306 34.328 47.63l-3.003 3.863s-53.21-10.299-53.21 3.432c0 13.732 47.202 16.736 47.202 16.736s-33.041 15.448-33.47 29.179c-.43 13.732 42.481-5.15 42.481-5.15s12.444 20.598 37.762 17.165Z"/><path d="M967.905 964.384c-8.525 1.819-15.743 1.762-15.573-3.921.228-6.366 7.39-13.073 15.061-18.472a167.76 167.76 0 0 0 .512 22.393ZM970.064 908.004a443.2 443.2 0 0 0-2.045 21.142c-13.357-2.273-29.441-6.592-29.441-14.607 0-7.729 16.767-7.843 31.486-6.535ZM976.317 867.082c-1.137 6.422-2.444 14.095-3.695 22.45-20.119-18.699-16.54-27.224-12.163-29.952 1.876-1.137 8.184 2.33 15.858 7.502ZM1052.305 914.085c-6.877 18.017-16.71 12.447-18.471 7.73-1.705-4.718-1.251-19.722-1.251-19.722s17.676 10.287 27.054.511c-11.821 3.012-6.934-11.594-24.155-11.765-19.779-.17-16.198-8.923-16.198-8.923-4.32 0-6.877 12.845-6.877 12.845s-9.207-7.673-19.95-15.914a191.564 191.564 0 0 0-4.262 23.587 294.01 294.01 0 0 0 6.593 4.774l-2.955 3.865s-1.706-.341-4.49-.796c-.682 6.99-1.194 14.095-1.592 20.972l-.057.057c-.51 10.06-.909 19.665-1.307 28.134 5.968-2.217 10.401-4.15 10.401-4.15a32.62 32.62 0 0 0 5.058 6.082c1.137-10.742 4.433-40.751 14.664-44.559 9.775-3.58 4.149 37 1.307 54.335a38.754 38.754 0 0 0 16.766 1.307s20.177.454 30.863-27.906c0 0 .909-18.87 11.594-27.907 10.741-8.98-15.857-20.574-22.735-2.557Zm4.377 32.112c-6.593 20.972-29.782 16.596-27.793 2.785 1.649-11.48 12.447-17.392 16.028-19.04.739-.341 1.137-.512 1.137-.512 3.636-3.808 17.22-4.205 10.628 16.767Z" style="mix-blend-mode:soft-light" opacity=".3"/></g></svg>